M48
; DRILL file {KiCad 8.0.3} date 2024-07-25T15:41:22-0400
; FORMAT={-:-/ absolute / metric / decimal}
; #@! TF.CreationDate,2024-07-25T15:41:22-04:00
; #@! TF.GenerationSoftware,Kicad,Pcbnew,8.0.3
; #@! TF.FileFunction,Plated,1,4,PTH
FMAT,2
METRIC
; #@! TA.AperFunction,Plated,PTH,ViaDrill
T1C0.300
; #@! TA.AperFunction,Plated,PTH,ComponentDrill
T2C0.600
; #@! TA.AperFunction,Plated,PTH,ComponentDrill
T3C0.800
; #@! TA.AperFunction,Plated,PTH,ComponentDrill
T4C0.813
%
G90
G05
T1
X98.0Y-43.0
X98.0Y-45.0
X98.0Y-47.0
X98.0Y-57.0
X98.0Y-59.0
X98.0Y-61.0
X98.0Y-63.0
X98.0Y-65.0
X98.0Y-67.0
X99.45Y-53.35
X99.7Y-48.65
X99.95Y-45.05
X100.0Y-43.0
X100.0Y-52.0
X100.0Y-65.0
X101.0Y-41.0
X101.0Y-57.0
X101.0Y-59.0
X101.0Y-61.0
X101.0Y-67.0
X102.0Y-43.0
X102.0Y-53.0
X102.3Y-62.484
X102.35Y-55.829
X102.565Y-61.468
X103.0Y-41.0
X103.132Y-57.828
X104.0Y-43.0
X104.05Y-57.85
X104.546Y-66.954
X105.0Y-41.0
X105.181Y-46.634
X105.25Y-45.75
X105.512Y-66.904
X106.0Y-43.0
X107.0Y-41.0
X107.5Y-50.15
X107.525Y-53.376
X107.525Y-56.195
X108.0Y-43.0
X108.492Y-61.495
X109.0Y-41.0
X109.0Y-45.0
X109.093Y-51.74
X109.118Y-54.585
X110.236Y-62.6
X111.0Y-41.0
X111.0Y-45.0
X111.1Y-42.65
X111.277Y-50.14
X111.303Y-53.365
X111.303Y-56.185
X112.522Y-66.497
X113.03Y-51.74
X113.055Y-54.585
X113.9Y-62.7
X114.554Y-50.14
X114.579Y-53.365
X114.579Y-56.185
X115.0Y-62.55
X115.621Y-46.126
X115.861Y-65.117
X117.0Y-47.0
X117.0Y-59.0
X117.3Y-66.25
X117.348Y-67.3
X119.126Y-55.855
X119.15Y-58.45
X120.098Y-49.235
X120.244Y-50.114
X121.133Y-46.076
X121.95Y-49.95
X123.0Y-51.0
X123.8Y-50.0
X124.0Y-41.0
X125.0Y-45.0
X125.0Y-51.0
X125.0Y-53.0
X125.552Y-42.393
X126.0Y-41.0
X126.0Y-55.0
X127.0Y-43.0
X127.0Y-45.0
X127.375Y-61.437
X127.4Y-53.3
X128.0Y-55.0
X128.85Y-59.5
X129.0Y-47.8
X129.0Y-53.0
X130.0Y-50.45
X130.0Y-55.0
X132.0Y-59.0
X132.0Y-61.0
X132.0Y-63.0
X132.15Y-53.35
X132.45Y-65.35
X133.198Y-44.628
X133.198Y-45.478
X133.95Y-66.75
X134.0Y-59.0
X134.0Y-61.0
X134.0Y-63.0
X134.7Y-49.7
X134.85Y-54.175
X134.85Y-57.725
X135.0Y-41.0
X135.0Y-43.0
X135.0Y-45.0
X135.0Y-53.0
X135.0Y-65.0
X135.077Y-46.838
X136.0Y-59.0
X136.0Y-61.0
X136.0Y-63.0
T3
X118.7Y-67.1
X120.1Y-67.1
X121.5Y-67.1
X122.9Y-67.1
X124.3Y-67.1
X125.7Y-67.1
X127.1Y-67.1
X128.5Y-67.1
X129.9Y-67.1
X131.3Y-67.1
X132.7Y-67.1
T4
X129.85Y-44.95
X131.85Y-44.95
T2
G00X114.0Y-41.1
M15
G01X114.0Y-40.5
M16
G05
G00X114.0Y-44.9
M15
G01X114.0Y-44.3
M16
G05
G00X122.64Y-41.1
M15
G01X122.64Y-40.5
M16
G05
G00X122.64Y-44.9
M15
G01X122.64Y-44.3
M16
G05
M30
