%TF.GenerationSoftware,KiCad,Pcbnew,8.0.3*%
%TF.CreationDate,2024-07-26T16:59:45-04:00*%
%TF.ProjectId,Health_Watch,4865616c-7468-45f5-9761-7463682e6b69,rev?*%
%TF.SameCoordinates,Original*%
%TF.FileFunction,Soldermask,Bot*%
%TF.FilePolarity,Negative*%
%FSLAX46Y46*%
G04 Gerber Fmt 4.6, Leading zero omitted, Abs format (unit mm)*
G04 Created by KiCad (PCBNEW 8.0.3) date 2024-07-26 16:59:45*
%MOMM*%
%LPD*%
G01*
G04 APERTURE LIST*
G04 APERTURE END LIST*
G36*
X119300000Y-67700000D02*
G01*
X118100000Y-67700000D01*
X118100000Y-66500000D01*
X119300000Y-66500000D01*
X119300000Y-67700000D01*
G37*
G36*
X120138768Y-66505104D02*
G01*
X120172234Y-66505104D01*
X120210606Y-66514561D01*
X120255291Y-66520445D01*
X120285881Y-66533115D01*
X120312501Y-66539677D01*
X120352863Y-66560860D01*
X120400000Y-66580385D01*
X120421502Y-66596884D01*
X120440422Y-66606814D01*
X120479104Y-66641084D01*
X120524264Y-66675736D01*
X120537098Y-66692462D01*
X120548555Y-66702612D01*
X120581405Y-66750204D01*
X120619615Y-66800000D01*
X120625374Y-66813904D01*
X120630622Y-66821507D01*
X120653388Y-66881537D01*
X120679555Y-66944709D01*
X120680729Y-66953628D01*
X120681851Y-66956586D01*
X120690542Y-67028162D01*
X120700000Y-67100000D01*
X120690541Y-67171843D01*
X120681851Y-67243413D01*
X120680729Y-67246370D01*
X120679555Y-67255291D01*
X120653384Y-67318473D01*
X120630622Y-67378492D01*
X120625375Y-67386093D01*
X120619615Y-67400000D01*
X120581398Y-67449804D01*
X120548555Y-67497387D01*
X120537101Y-67507534D01*
X120524264Y-67524264D01*
X120479096Y-67558922D01*
X120440422Y-67593185D01*
X120421506Y-67603112D01*
X120400000Y-67619615D01*
X120352854Y-67639143D01*
X120312501Y-67660322D01*
X120285885Y-67666882D01*
X120255291Y-67679555D01*
X120210603Y-67685438D01*
X120172234Y-67694896D01*
X120138768Y-67694896D01*
X120100000Y-67700000D01*
X120061232Y-67694896D01*
X120027766Y-67694896D01*
X119989395Y-67685438D01*
X119944709Y-67679555D01*
X119914115Y-67666882D01*
X119887498Y-67660322D01*
X119847140Y-67639141D01*
X119800000Y-67619615D01*
X119778495Y-67603114D01*
X119759577Y-67593185D01*
X119720896Y-67558916D01*
X119675736Y-67524264D01*
X119662900Y-67507537D01*
X119651444Y-67497387D01*
X119618591Y-67449791D01*
X119580385Y-67400000D01*
X119574626Y-67386096D01*
X119569377Y-67378492D01*
X119546603Y-67318444D01*
X119520445Y-67255291D01*
X119519271Y-67246374D01*
X119518148Y-67243413D01*
X119509445Y-67171746D01*
X119500000Y-67100000D01*
X119509445Y-67028259D01*
X119518148Y-66956586D01*
X119519271Y-66953624D01*
X119520445Y-66944709D01*
X119546599Y-66881566D01*
X119569377Y-66821507D01*
X119574627Y-66813900D01*
X119580385Y-66800000D01*
X119618584Y-66750217D01*
X119651444Y-66702612D01*
X119662903Y-66692459D01*
X119675736Y-66675736D01*
X119720887Y-66641089D01*
X119759577Y-66606814D01*
X119778499Y-66596882D01*
X119800000Y-66580385D01*
X119847131Y-66560862D01*
X119887498Y-66539677D01*
X119914120Y-66533115D01*
X119944709Y-66520445D01*
X119989393Y-66514562D01*
X120027766Y-66505104D01*
X120061232Y-66505104D01*
X120100000Y-66500000D01*
X120138768Y-66505104D01*
G37*
G36*
X121538768Y-66505104D02*
G01*
X121572234Y-66505104D01*
X121610606Y-66514561D01*
X121655291Y-66520445D01*
X121685881Y-66533115D01*
X121712501Y-66539677D01*
X121752863Y-66560860D01*
X121800000Y-66580385D01*
X121821502Y-66596884D01*
X121840422Y-66606814D01*
X121879104Y-66641084D01*
X121924264Y-66675736D01*
X121937098Y-66692462D01*
X121948555Y-66702612D01*
X121981405Y-66750204D01*
X122019615Y-66800000D01*
X122025374Y-66813904D01*
X122030622Y-66821507D01*
X122053388Y-66881537D01*
X122079555Y-66944709D01*
X122080729Y-66953628D01*
X122081851Y-66956586D01*
X122090542Y-67028162D01*
X122100000Y-67100000D01*
X122090541Y-67171843D01*
X122081851Y-67243413D01*
X122080729Y-67246370D01*
X122079555Y-67255291D01*
X122053384Y-67318473D01*
X122030622Y-67378492D01*
X122025375Y-67386093D01*
X122019615Y-67400000D01*
X121981398Y-67449804D01*
X121948555Y-67497387D01*
X121937101Y-67507534D01*
X121924264Y-67524264D01*
X121879096Y-67558922D01*
X121840422Y-67593185D01*
X121821506Y-67603112D01*
X121800000Y-67619615D01*
X121752854Y-67639143D01*
X121712501Y-67660322D01*
X121685885Y-67666882D01*
X121655291Y-67679555D01*
X121610603Y-67685438D01*
X121572234Y-67694896D01*
X121538768Y-67694896D01*
X121500000Y-67700000D01*
X121461232Y-67694896D01*
X121427766Y-67694896D01*
X121389395Y-67685438D01*
X121344709Y-67679555D01*
X121314115Y-67666882D01*
X121287498Y-67660322D01*
X121247140Y-67639141D01*
X121200000Y-67619615D01*
X121178495Y-67603114D01*
X121159577Y-67593185D01*
X121120896Y-67558916D01*
X121075736Y-67524264D01*
X121062900Y-67507537D01*
X121051444Y-67497387D01*
X121018591Y-67449791D01*
X120980385Y-67400000D01*
X120974626Y-67386096D01*
X120969377Y-67378492D01*
X120946603Y-67318444D01*
X120920445Y-67255291D01*
X120919271Y-67246374D01*
X120918148Y-67243413D01*
X120909445Y-67171746D01*
X120900000Y-67100000D01*
X120909445Y-67028259D01*
X120918148Y-66956586D01*
X120919271Y-66953624D01*
X120920445Y-66944709D01*
X120946599Y-66881566D01*
X120969377Y-66821507D01*
X120974627Y-66813900D01*
X120980385Y-66800000D01*
X121018584Y-66750217D01*
X121051444Y-66702612D01*
X121062903Y-66692459D01*
X121075736Y-66675736D01*
X121120887Y-66641089D01*
X121159577Y-66606814D01*
X121178499Y-66596882D01*
X121200000Y-66580385D01*
X121247131Y-66560862D01*
X121287498Y-66539677D01*
X121314120Y-66533115D01*
X121344709Y-66520445D01*
X121389393Y-66514562D01*
X121427766Y-66505104D01*
X121461232Y-66505104D01*
X121500000Y-66500000D01*
X121538768Y-66505104D01*
G37*
G36*
X122938768Y-66505104D02*
G01*
X122972234Y-66505104D01*
X123010606Y-66514561D01*
X123055291Y-66520445D01*
X123085881Y-66533115D01*
X123112501Y-66539677D01*
X123152863Y-66560860D01*
X123200000Y-66580385D01*
X123221502Y-66596884D01*
X123240422Y-66606814D01*
X123279104Y-66641084D01*
X123324264Y-66675736D01*
X123337098Y-66692462D01*
X123348555Y-66702612D01*
X123381405Y-66750204D01*
X123419615Y-66800000D01*
X123425374Y-66813904D01*
X123430622Y-66821507D01*
X123453388Y-66881537D01*
X123479555Y-66944709D01*
X123480729Y-66953628D01*
X123481851Y-66956586D01*
X123490542Y-67028162D01*
X123500000Y-67100000D01*
X123490541Y-67171843D01*
X123481851Y-67243413D01*
X123480729Y-67246370D01*
X123479555Y-67255291D01*
X123453384Y-67318473D01*
X123430622Y-67378492D01*
X123425375Y-67386093D01*
X123419615Y-67400000D01*
X123381398Y-67449804D01*
X123348555Y-67497387D01*
X123337101Y-67507534D01*
X123324264Y-67524264D01*
X123279096Y-67558922D01*
X123240422Y-67593185D01*
X123221506Y-67603112D01*
X123200000Y-67619615D01*
X123152854Y-67639143D01*
X123112501Y-67660322D01*
X123085885Y-67666882D01*
X123055291Y-67679555D01*
X123010603Y-67685438D01*
X122972234Y-67694896D01*
X122938768Y-67694896D01*
X122900000Y-67700000D01*
X122861232Y-67694896D01*
X122827766Y-67694896D01*
X122789395Y-67685438D01*
X122744709Y-67679555D01*
X122714115Y-67666882D01*
X122687498Y-67660322D01*
X122647140Y-67639141D01*
X122600000Y-67619615D01*
X122578495Y-67603114D01*
X122559577Y-67593185D01*
X122520896Y-67558916D01*
X122475736Y-67524264D01*
X122462900Y-67507537D01*
X122451444Y-67497387D01*
X122418591Y-67449791D01*
X122380385Y-67400000D01*
X122374626Y-67386096D01*
X122369377Y-67378492D01*
X122346603Y-67318444D01*
X122320445Y-67255291D01*
X122319271Y-67246374D01*
X122318148Y-67243413D01*
X122309445Y-67171746D01*
X122300000Y-67100000D01*
X122309445Y-67028259D01*
X122318148Y-66956586D01*
X122319271Y-66953624D01*
X122320445Y-66944709D01*
X122346599Y-66881566D01*
X122369377Y-66821507D01*
X122374627Y-66813900D01*
X122380385Y-66800000D01*
X122418584Y-66750217D01*
X122451444Y-66702612D01*
X122462903Y-66692459D01*
X122475736Y-66675736D01*
X122520887Y-66641089D01*
X122559577Y-66606814D01*
X122578499Y-66596882D01*
X122600000Y-66580385D01*
X122647131Y-66560862D01*
X122687498Y-66539677D01*
X122714120Y-66533115D01*
X122744709Y-66520445D01*
X122789393Y-66514562D01*
X122827766Y-66505104D01*
X122861232Y-66505104D01*
X122900000Y-66500000D01*
X122938768Y-66505104D01*
G37*
G36*
X124338768Y-66505104D02*
G01*
X124372234Y-66505104D01*
X124410606Y-66514561D01*
X124455291Y-66520445D01*
X124485881Y-66533115D01*
X124512501Y-66539677D01*
X124552863Y-66560860D01*
X124600000Y-66580385D01*
X124621502Y-66596884D01*
X124640422Y-66606814D01*
X124679104Y-66641084D01*
X124724264Y-66675736D01*
X124737098Y-66692462D01*
X124748555Y-66702612D01*
X124781405Y-66750204D01*
X124819615Y-66800000D01*
X124825374Y-66813904D01*
X124830622Y-66821507D01*
X124853388Y-66881537D01*
X124879555Y-66944709D01*
X124880729Y-66953628D01*
X124881851Y-66956586D01*
X124890542Y-67028162D01*
X124900000Y-67100000D01*
X124890541Y-67171843D01*
X124881851Y-67243413D01*
X124880729Y-67246370D01*
X124879555Y-67255291D01*
X124853384Y-67318473D01*
X124830622Y-67378492D01*
X124825375Y-67386093D01*
X124819615Y-67400000D01*
X124781398Y-67449804D01*
X124748555Y-67497387D01*
X124737101Y-67507534D01*
X124724264Y-67524264D01*
X124679096Y-67558922D01*
X124640422Y-67593185D01*
X124621506Y-67603112D01*
X124600000Y-67619615D01*
X124552854Y-67639143D01*
X124512501Y-67660322D01*
X124485885Y-67666882D01*
X124455291Y-67679555D01*
X124410603Y-67685438D01*
X124372234Y-67694896D01*
X124338768Y-67694896D01*
X124300000Y-67700000D01*
X124261232Y-67694896D01*
X124227766Y-67694896D01*
X124189395Y-67685438D01*
X124144709Y-67679555D01*
X124114115Y-67666882D01*
X124087498Y-67660322D01*
X124047140Y-67639141D01*
X124000000Y-67619615D01*
X123978495Y-67603114D01*
X123959577Y-67593185D01*
X123920896Y-67558916D01*
X123875736Y-67524264D01*
X123862900Y-67507537D01*
X123851444Y-67497387D01*
X123818591Y-67449791D01*
X123780385Y-67400000D01*
X123774626Y-67386096D01*
X123769377Y-67378492D01*
X123746603Y-67318444D01*
X123720445Y-67255291D01*
X123719271Y-67246374D01*
X123718148Y-67243413D01*
X123709445Y-67171746D01*
X123700000Y-67100000D01*
X123709445Y-67028259D01*
X123718148Y-66956586D01*
X123719271Y-66953624D01*
X123720445Y-66944709D01*
X123746599Y-66881566D01*
X123769377Y-66821507D01*
X123774627Y-66813900D01*
X123780385Y-66800000D01*
X123818584Y-66750217D01*
X123851444Y-66702612D01*
X123862903Y-66692459D01*
X123875736Y-66675736D01*
X123920887Y-66641089D01*
X123959577Y-66606814D01*
X123978499Y-66596882D01*
X124000000Y-66580385D01*
X124047131Y-66560862D01*
X124087498Y-66539677D01*
X124114120Y-66533115D01*
X124144709Y-66520445D01*
X124189393Y-66514562D01*
X124227766Y-66505104D01*
X124261232Y-66505104D01*
X124300000Y-66500000D01*
X124338768Y-66505104D01*
G37*
G36*
X125738768Y-66505104D02*
G01*
X125772234Y-66505104D01*
X125810606Y-66514561D01*
X125855291Y-66520445D01*
X125885881Y-66533115D01*
X125912501Y-66539677D01*
X125952863Y-66560860D01*
X126000000Y-66580385D01*
X126021502Y-66596884D01*
X126040422Y-66606814D01*
X126079104Y-66641084D01*
X126124264Y-66675736D01*
X126137098Y-66692462D01*
X126148555Y-66702612D01*
X126181405Y-66750204D01*
X126219615Y-66800000D01*
X126225374Y-66813904D01*
X126230622Y-66821507D01*
X126253388Y-66881537D01*
X126279555Y-66944709D01*
X126280729Y-66953628D01*
X126281851Y-66956586D01*
X126290542Y-67028162D01*
X126300000Y-67100000D01*
X126290541Y-67171843D01*
X126281851Y-67243413D01*
X126280729Y-67246370D01*
X126279555Y-67255291D01*
X126253384Y-67318473D01*
X126230622Y-67378492D01*
X126225375Y-67386093D01*
X126219615Y-67400000D01*
X126181398Y-67449804D01*
X126148555Y-67497387D01*
X126137101Y-67507534D01*
X126124264Y-67524264D01*
X126079096Y-67558922D01*
X126040422Y-67593185D01*
X126021506Y-67603112D01*
X126000000Y-67619615D01*
X125952854Y-67639143D01*
X125912501Y-67660322D01*
X125885885Y-67666882D01*
X125855291Y-67679555D01*
X125810603Y-67685438D01*
X125772234Y-67694896D01*
X125738768Y-67694896D01*
X125700000Y-67700000D01*
X125661232Y-67694896D01*
X125627766Y-67694896D01*
X125589395Y-67685438D01*
X125544709Y-67679555D01*
X125514115Y-67666882D01*
X125487498Y-67660322D01*
X125447140Y-67639141D01*
X125400000Y-67619615D01*
X125378495Y-67603114D01*
X125359577Y-67593185D01*
X125320896Y-67558916D01*
X125275736Y-67524264D01*
X125262900Y-67507537D01*
X125251444Y-67497387D01*
X125218591Y-67449791D01*
X125180385Y-67400000D01*
X125174626Y-67386096D01*
X125169377Y-67378492D01*
X125146603Y-67318444D01*
X125120445Y-67255291D01*
X125119271Y-67246374D01*
X125118148Y-67243413D01*
X125109445Y-67171746D01*
X125100000Y-67100000D01*
X125109445Y-67028259D01*
X125118148Y-66956586D01*
X125119271Y-66953624D01*
X125120445Y-66944709D01*
X125146599Y-66881566D01*
X125169377Y-66821507D01*
X125174627Y-66813900D01*
X125180385Y-66800000D01*
X125218584Y-66750217D01*
X125251444Y-66702612D01*
X125262903Y-66692459D01*
X125275736Y-66675736D01*
X125320887Y-66641089D01*
X125359577Y-66606814D01*
X125378499Y-66596882D01*
X125400000Y-66580385D01*
X125447131Y-66560862D01*
X125487498Y-66539677D01*
X125514120Y-66533115D01*
X125544709Y-66520445D01*
X125589393Y-66514562D01*
X125627766Y-66505104D01*
X125661232Y-66505104D01*
X125700000Y-66500000D01*
X125738768Y-66505104D01*
G37*
G36*
X127138768Y-66505104D02*
G01*
X127172234Y-66505104D01*
X127210606Y-66514561D01*
X127255291Y-66520445D01*
X127285881Y-66533115D01*
X127312501Y-66539677D01*
X127352863Y-66560860D01*
X127400000Y-66580385D01*
X127421502Y-66596884D01*
X127440422Y-66606814D01*
X127479104Y-66641084D01*
X127524264Y-66675736D01*
X127537098Y-66692462D01*
X127548555Y-66702612D01*
X127581405Y-66750204D01*
X127619615Y-66800000D01*
X127625374Y-66813904D01*
X127630622Y-66821507D01*
X127653388Y-66881537D01*
X127679555Y-66944709D01*
X127680729Y-66953628D01*
X127681851Y-66956586D01*
X127690542Y-67028162D01*
X127700000Y-67100000D01*
X127690541Y-67171843D01*
X127681851Y-67243413D01*
X127680729Y-67246370D01*
X127679555Y-67255291D01*
X127653384Y-67318473D01*
X127630622Y-67378492D01*
X127625375Y-67386093D01*
X127619615Y-67400000D01*
X127581398Y-67449804D01*
X127548555Y-67497387D01*
X127537101Y-67507534D01*
X127524264Y-67524264D01*
X127479096Y-67558922D01*
X127440422Y-67593185D01*
X127421506Y-67603112D01*
X127400000Y-67619615D01*
X127352854Y-67639143D01*
X127312501Y-67660322D01*
X127285885Y-67666882D01*
X127255291Y-67679555D01*
X127210603Y-67685438D01*
X127172234Y-67694896D01*
X127138768Y-67694896D01*
X127100000Y-67700000D01*
X127061232Y-67694896D01*
X127027766Y-67694896D01*
X126989395Y-67685438D01*
X126944709Y-67679555D01*
X126914115Y-67666882D01*
X126887498Y-67660322D01*
X126847140Y-67639141D01*
X126800000Y-67619615D01*
X126778495Y-67603114D01*
X126759577Y-67593185D01*
X126720896Y-67558916D01*
X126675736Y-67524264D01*
X126662900Y-67507537D01*
X126651444Y-67497387D01*
X126618591Y-67449791D01*
X126580385Y-67400000D01*
X126574626Y-67386096D01*
X126569377Y-67378492D01*
X126546603Y-67318444D01*
X126520445Y-67255291D01*
X126519271Y-67246374D01*
X126518148Y-67243413D01*
X126509445Y-67171746D01*
X126500000Y-67100000D01*
X126509445Y-67028259D01*
X126518148Y-66956586D01*
X126519271Y-66953624D01*
X126520445Y-66944709D01*
X126546599Y-66881566D01*
X126569377Y-66821507D01*
X126574627Y-66813900D01*
X126580385Y-66800000D01*
X126618584Y-66750217D01*
X126651444Y-66702612D01*
X126662903Y-66692459D01*
X126675736Y-66675736D01*
X126720887Y-66641089D01*
X126759577Y-66606814D01*
X126778499Y-66596882D01*
X126800000Y-66580385D01*
X126847131Y-66560862D01*
X126887498Y-66539677D01*
X126914120Y-66533115D01*
X126944709Y-66520445D01*
X126989393Y-66514562D01*
X127027766Y-66505104D01*
X127061232Y-66505104D01*
X127100000Y-66500000D01*
X127138768Y-66505104D01*
G37*
G36*
X128538768Y-66505104D02*
G01*
X128572234Y-66505104D01*
X128610606Y-66514561D01*
X128655291Y-66520445D01*
X128685881Y-66533115D01*
X128712501Y-66539677D01*
X128752863Y-66560860D01*
X128800000Y-66580385D01*
X128821502Y-66596884D01*
X128840422Y-66606814D01*
X128879104Y-66641084D01*
X128924264Y-66675736D01*
X128937098Y-66692462D01*
X128948555Y-66702612D01*
X128981405Y-66750204D01*
X129019615Y-66800000D01*
X129025374Y-66813904D01*
X129030622Y-66821507D01*
X129053388Y-66881537D01*
X129079555Y-66944709D01*
X129080729Y-66953628D01*
X129081851Y-66956586D01*
X129090542Y-67028162D01*
X129100000Y-67100000D01*
X129090541Y-67171843D01*
X129081851Y-67243413D01*
X129080729Y-67246370D01*
X129079555Y-67255291D01*
X129053384Y-67318473D01*
X129030622Y-67378492D01*
X129025375Y-67386093D01*
X129019615Y-67400000D01*
X128981398Y-67449804D01*
X128948555Y-67497387D01*
X128937101Y-67507534D01*
X128924264Y-67524264D01*
X128879096Y-67558922D01*
X128840422Y-67593185D01*
X128821506Y-67603112D01*
X128800000Y-67619615D01*
X128752854Y-67639143D01*
X128712501Y-67660322D01*
X128685885Y-67666882D01*
X128655291Y-67679555D01*
X128610603Y-67685438D01*
X128572234Y-67694896D01*
X128538768Y-67694896D01*
X128500000Y-67700000D01*
X128461232Y-67694896D01*
X128427766Y-67694896D01*
X128389395Y-67685438D01*
X128344709Y-67679555D01*
X128314115Y-67666882D01*
X128287498Y-67660322D01*
X128247140Y-67639141D01*
X128200000Y-67619615D01*
X128178495Y-67603114D01*
X128159577Y-67593185D01*
X128120896Y-67558916D01*
X128075736Y-67524264D01*
X128062900Y-67507537D01*
X128051444Y-67497387D01*
X128018591Y-67449791D01*
X127980385Y-67400000D01*
X127974626Y-67386096D01*
X127969377Y-67378492D01*
X127946603Y-67318444D01*
X127920445Y-67255291D01*
X127919271Y-67246374D01*
X127918148Y-67243413D01*
X127909445Y-67171746D01*
X127900000Y-67100000D01*
X127909445Y-67028259D01*
X127918148Y-66956586D01*
X127919271Y-66953624D01*
X127920445Y-66944709D01*
X127946599Y-66881566D01*
X127969377Y-66821507D01*
X127974627Y-66813900D01*
X127980385Y-66800000D01*
X128018584Y-66750217D01*
X128051444Y-66702612D01*
X128062903Y-66692459D01*
X128075736Y-66675736D01*
X128120887Y-66641089D01*
X128159577Y-66606814D01*
X128178499Y-66596882D01*
X128200000Y-66580385D01*
X128247131Y-66560862D01*
X128287498Y-66539677D01*
X128314120Y-66533115D01*
X128344709Y-66520445D01*
X128389393Y-66514562D01*
X128427766Y-66505104D01*
X128461232Y-66505104D01*
X128500000Y-66500000D01*
X128538768Y-66505104D01*
G37*
G36*
X129938768Y-66505104D02*
G01*
X129972234Y-66505104D01*
X130010606Y-66514561D01*
X130055291Y-66520445D01*
X130085881Y-66533115D01*
X130112501Y-66539677D01*
X130152863Y-66560860D01*
X130200000Y-66580385D01*
X130221502Y-66596884D01*
X130240422Y-66606814D01*
X130279104Y-66641084D01*
X130324264Y-66675736D01*
X130337098Y-66692462D01*
X130348555Y-66702612D01*
X130381405Y-66750204D01*
X130419615Y-66800000D01*
X130425374Y-66813904D01*
X130430622Y-66821507D01*
X130453388Y-66881537D01*
X130479555Y-66944709D01*
X130480729Y-66953628D01*
X130481851Y-66956586D01*
X130490542Y-67028162D01*
X130500000Y-67100000D01*
X130490541Y-67171843D01*
X130481851Y-67243413D01*
X130480729Y-67246370D01*
X130479555Y-67255291D01*
X130453384Y-67318473D01*
X130430622Y-67378492D01*
X130425375Y-67386093D01*
X130419615Y-67400000D01*
X130381398Y-67449804D01*
X130348555Y-67497387D01*
X130337101Y-67507534D01*
X130324264Y-67524264D01*
X130279096Y-67558922D01*
X130240422Y-67593185D01*
X130221506Y-67603112D01*
X130200000Y-67619615D01*
X130152854Y-67639143D01*
X130112501Y-67660322D01*
X130085885Y-67666882D01*
X130055291Y-67679555D01*
X130010603Y-67685438D01*
X129972234Y-67694896D01*
X129938768Y-67694896D01*
X129900000Y-67700000D01*
X129861232Y-67694896D01*
X129827766Y-67694896D01*
X129789395Y-67685438D01*
X129744709Y-67679555D01*
X129714115Y-67666882D01*
X129687498Y-67660322D01*
X129647140Y-67639141D01*
X129600000Y-67619615D01*
X129578495Y-67603114D01*
X129559577Y-67593185D01*
X129520896Y-67558916D01*
X129475736Y-67524264D01*
X129462900Y-67507537D01*
X129451444Y-67497387D01*
X129418591Y-67449791D01*
X129380385Y-67400000D01*
X129374626Y-67386096D01*
X129369377Y-67378492D01*
X129346603Y-67318444D01*
X129320445Y-67255291D01*
X129319271Y-67246374D01*
X129318148Y-67243413D01*
X129309445Y-67171746D01*
X129300000Y-67100000D01*
X129309445Y-67028259D01*
X129318148Y-66956586D01*
X129319271Y-66953624D01*
X129320445Y-66944709D01*
X129346599Y-66881566D01*
X129369377Y-66821507D01*
X129374627Y-66813900D01*
X129380385Y-66800000D01*
X129418584Y-66750217D01*
X129451444Y-66702612D01*
X129462903Y-66692459D01*
X129475736Y-66675736D01*
X129520887Y-66641089D01*
X129559577Y-66606814D01*
X129578499Y-66596882D01*
X129600000Y-66580385D01*
X129647131Y-66560862D01*
X129687498Y-66539677D01*
X129714120Y-66533115D01*
X129744709Y-66520445D01*
X129789393Y-66514562D01*
X129827766Y-66505104D01*
X129861232Y-66505104D01*
X129900000Y-66500000D01*
X129938768Y-66505104D01*
G37*
G36*
X131338768Y-66505104D02*
G01*
X131372234Y-66505104D01*
X131410606Y-66514561D01*
X131455291Y-66520445D01*
X131485881Y-66533115D01*
X131512501Y-66539677D01*
X131552863Y-66560860D01*
X131600000Y-66580385D01*
X131621502Y-66596884D01*
X131640422Y-66606814D01*
X131679104Y-66641084D01*
X131724264Y-66675736D01*
X131737098Y-66692462D01*
X131748555Y-66702612D01*
X131781405Y-66750204D01*
X131819615Y-66800000D01*
X131825374Y-66813904D01*
X131830622Y-66821507D01*
X131853388Y-66881537D01*
X131879555Y-66944709D01*
X131880729Y-66953628D01*
X131881851Y-66956586D01*
X131890542Y-67028162D01*
X131900000Y-67100000D01*
X131890541Y-67171843D01*
X131881851Y-67243413D01*
X131880729Y-67246370D01*
X131879555Y-67255291D01*
X131853384Y-67318473D01*
X131830622Y-67378492D01*
X131825375Y-67386093D01*
X131819615Y-67400000D01*
X131781398Y-67449804D01*
X131748555Y-67497387D01*
X131737101Y-67507534D01*
X131724264Y-67524264D01*
X131679096Y-67558922D01*
X131640422Y-67593185D01*
X131621506Y-67603112D01*
X131600000Y-67619615D01*
X131552854Y-67639143D01*
X131512501Y-67660322D01*
X131485885Y-67666882D01*
X131455291Y-67679555D01*
X131410603Y-67685438D01*
X131372234Y-67694896D01*
X131338768Y-67694896D01*
X131300000Y-67700000D01*
X131261232Y-67694896D01*
X131227766Y-67694896D01*
X131189395Y-67685438D01*
X131144709Y-67679555D01*
X131114115Y-67666882D01*
X131087498Y-67660322D01*
X131047140Y-67639141D01*
X131000000Y-67619615D01*
X130978495Y-67603114D01*
X130959577Y-67593185D01*
X130920896Y-67558916D01*
X130875736Y-67524264D01*
X130862900Y-67507537D01*
X130851444Y-67497387D01*
X130818591Y-67449791D01*
X130780385Y-67400000D01*
X130774626Y-67386096D01*
X130769377Y-67378492D01*
X130746603Y-67318444D01*
X130720445Y-67255291D01*
X130719271Y-67246374D01*
X130718148Y-67243413D01*
X130709445Y-67171746D01*
X130700000Y-67100000D01*
X130709445Y-67028259D01*
X130718148Y-66956586D01*
X130719271Y-66953624D01*
X130720445Y-66944709D01*
X130746599Y-66881566D01*
X130769377Y-66821507D01*
X130774627Y-66813900D01*
X130780385Y-66800000D01*
X130818584Y-66750217D01*
X130851444Y-66702612D01*
X130862903Y-66692459D01*
X130875736Y-66675736D01*
X130920887Y-66641089D01*
X130959577Y-66606814D01*
X130978499Y-66596882D01*
X131000000Y-66580385D01*
X131047131Y-66560862D01*
X131087498Y-66539677D01*
X131114120Y-66533115D01*
X131144709Y-66520445D01*
X131189393Y-66514562D01*
X131227766Y-66505104D01*
X131261232Y-66505104D01*
X131300000Y-66500000D01*
X131338768Y-66505104D01*
G37*
G36*
X132738768Y-66505104D02*
G01*
X132772234Y-66505104D01*
X132810606Y-66514561D01*
X132855291Y-66520445D01*
X132885881Y-66533115D01*
X132912501Y-66539677D01*
X132952863Y-66560860D01*
X133000000Y-66580385D01*
X133021502Y-66596884D01*
X133040422Y-66606814D01*
X133079104Y-66641084D01*
X133124264Y-66675736D01*
X133137098Y-66692462D01*
X133148555Y-66702612D01*
X133181405Y-66750204D01*
X133219615Y-66800000D01*
X133225374Y-66813904D01*
X133230622Y-66821507D01*
X133253388Y-66881537D01*
X133279555Y-66944709D01*
X133280729Y-66953628D01*
X133281851Y-66956586D01*
X133290542Y-67028162D01*
X133300000Y-67100000D01*
X133290541Y-67171843D01*
X133281851Y-67243413D01*
X133280729Y-67246370D01*
X133279555Y-67255291D01*
X133253384Y-67318473D01*
X133230622Y-67378492D01*
X133225375Y-67386093D01*
X133219615Y-67400000D01*
X133181398Y-67449804D01*
X133148555Y-67497387D01*
X133137101Y-67507534D01*
X133124264Y-67524264D01*
X133079096Y-67558922D01*
X133040422Y-67593185D01*
X133021506Y-67603112D01*
X133000000Y-67619615D01*
X132952854Y-67639143D01*
X132912501Y-67660322D01*
X132885885Y-67666882D01*
X132855291Y-67679555D01*
X132810603Y-67685438D01*
X132772234Y-67694896D01*
X132738768Y-67694896D01*
X132700000Y-67700000D01*
X132661232Y-67694896D01*
X132627766Y-67694896D01*
X132589395Y-67685438D01*
X132544709Y-67679555D01*
X132514115Y-67666882D01*
X132487498Y-67660322D01*
X132447140Y-67639141D01*
X132400000Y-67619615D01*
X132378495Y-67603114D01*
X132359577Y-67593185D01*
X132320896Y-67558916D01*
X132275736Y-67524264D01*
X132262900Y-67507537D01*
X132251444Y-67497387D01*
X132218591Y-67449791D01*
X132180385Y-67400000D01*
X132174626Y-67386096D01*
X132169377Y-67378492D01*
X132146603Y-67318444D01*
X132120445Y-67255291D01*
X132119271Y-67246374D01*
X132118148Y-67243413D01*
X132109445Y-67171746D01*
X132100000Y-67100000D01*
X132109445Y-67028259D01*
X132118148Y-66956586D01*
X132119271Y-66953624D01*
X132120445Y-66944709D01*
X132146599Y-66881566D01*
X132169377Y-66821507D01*
X132174627Y-66813900D01*
X132180385Y-66800000D01*
X132218584Y-66750217D01*
X132251444Y-66702612D01*
X132262903Y-66692459D01*
X132275736Y-66675736D01*
X132320887Y-66641089D01*
X132359577Y-66606814D01*
X132378499Y-66596882D01*
X132400000Y-66580385D01*
X132447131Y-66560862D01*
X132487498Y-66539677D01*
X132514120Y-66533115D01*
X132544709Y-66520445D01*
X132589393Y-66514562D01*
X132627766Y-66505104D01*
X132661232Y-66505104D01*
X132700000Y-66500000D01*
X132738768Y-66505104D01*
G37*
G36*
X100381736Y-49559741D02*
G01*
X100420489Y-49559741D01*
X100451984Y-49568988D01*
X100477971Y-49572410D01*
X100512876Y-49586868D01*
X100555755Y-49599459D01*
X100578390Y-49614005D01*
X100597219Y-49621805D01*
X100631720Y-49648279D01*
X100674353Y-49675677D01*
X100688095Y-49691536D01*
X100699619Y-49700379D01*
X100729497Y-49739318D01*
X100766673Y-49782221D01*
X100772928Y-49795918D01*
X100778195Y-49802782D01*
X100798991Y-49852988D01*
X100825237Y-49910458D01*
X100826534Y-49919482D01*
X100827589Y-49922028D01*
X100835060Y-49978780D01*
X100845300Y-50050000D01*
X100835059Y-50121225D01*
X100827589Y-50177971D01*
X100826534Y-50180516D01*
X100825237Y-50189542D01*
X100798985Y-50247023D01*
X100778194Y-50297219D01*
X100772928Y-50304080D01*
X100766673Y-50317779D01*
X100729488Y-50360692D01*
X100699619Y-50399619D01*
X100688100Y-50408457D01*
X100674353Y-50424323D01*
X100631710Y-50451727D01*
X100597219Y-50478194D01*
X100578394Y-50485991D01*
X100555755Y-50500541D01*
X100512868Y-50513133D01*
X100477971Y-50527589D01*
X100451990Y-50531009D01*
X100420489Y-50540259D01*
X100381729Y-50540259D01*
X100350000Y-50544436D01*
X100318271Y-50540259D01*
X100279511Y-50540259D01*
X100248010Y-50531009D01*
X100222028Y-50527589D01*
X100187127Y-50513132D01*
X100144245Y-50500541D01*
X100121607Y-50485992D01*
X100102780Y-50478194D01*
X100068283Y-50451723D01*
X100025647Y-50424323D01*
X100011901Y-50408460D01*
X100000380Y-50399619D01*
X99970502Y-50360682D01*
X99933327Y-50317779D01*
X99927072Y-50304083D01*
X99921805Y-50297219D01*
X99901003Y-50247000D01*
X99874763Y-50189542D01*
X99873465Y-50180519D01*
X99872410Y-50177971D01*
X99864928Y-50121143D01*
X99854700Y-50050000D01*
X99864927Y-49978862D01*
X99872410Y-49922028D01*
X99873466Y-49919478D01*
X99874763Y-49910458D01*
X99900997Y-49853012D01*
X99921804Y-49802782D01*
X99927072Y-49795915D01*
X99933327Y-49782221D01*
X99970497Y-49739323D01*
X100000380Y-49700380D01*
X100011904Y-49691537D01*
X100025647Y-49675677D01*
X100068278Y-49648279D01*
X100102782Y-49621804D01*
X100121612Y-49614004D01*
X100144245Y-49599459D01*
X100187119Y-49586869D01*
X100222028Y-49572410D01*
X100248016Y-49568988D01*
X100279511Y-49559741D01*
X100318263Y-49559741D01*
X100350000Y-49555563D01*
X100381736Y-49559741D01*
G37*
G36*
X102413736Y-49559741D02*
G01*
X102452489Y-49559741D01*
X102483984Y-49568988D01*
X102509971Y-49572410D01*
X102544876Y-49586868D01*
X102587755Y-49599459D01*
X102610390Y-49614005D01*
X102629219Y-49621805D01*
X102663720Y-49648279D01*
X102706353Y-49675677D01*
X102720095Y-49691536D01*
X102731619Y-49700379D01*
X102761497Y-49739318D01*
X102798673Y-49782221D01*
X102804928Y-49795918D01*
X102810195Y-49802782D01*
X102830991Y-49852988D01*
X102857237Y-49910458D01*
X102858534Y-49919482D01*
X102859589Y-49922028D01*
X102867060Y-49978780D01*
X102877300Y-50050000D01*
X102867059Y-50121225D01*
X102859589Y-50177971D01*
X102858534Y-50180516D01*
X102857237Y-50189542D01*
X102830985Y-50247023D01*
X102810194Y-50297219D01*
X102804928Y-50304080D01*
X102798673Y-50317779D01*
X102761488Y-50360692D01*
X102731619Y-50399619D01*
X102720100Y-50408457D01*
X102706353Y-50424323D01*
X102663710Y-50451727D01*
X102629219Y-50478194D01*
X102610394Y-50485991D01*
X102587755Y-50500541D01*
X102544868Y-50513133D01*
X102509971Y-50527589D01*
X102483990Y-50531009D01*
X102452489Y-50540259D01*
X102413729Y-50540259D01*
X102382000Y-50544436D01*
X102350271Y-50540259D01*
X102311511Y-50540259D01*
X102280010Y-50531009D01*
X102254028Y-50527589D01*
X102219127Y-50513132D01*
X102176245Y-50500541D01*
X102153607Y-50485992D01*
X102134780Y-50478194D01*
X102100283Y-50451723D01*
X102057647Y-50424323D01*
X102043901Y-50408460D01*
X102032380Y-50399619D01*
X102002502Y-50360682D01*
X101965327Y-50317779D01*
X101959072Y-50304083D01*
X101953805Y-50297219D01*
X101933003Y-50247000D01*
X101906763Y-50189542D01*
X101905465Y-50180519D01*
X101904410Y-50177971D01*
X101896928Y-50121143D01*
X101886700Y-50050000D01*
X101896927Y-49978862D01*
X101904410Y-49922028D01*
X101905466Y-49919478D01*
X101906763Y-49910458D01*
X101932997Y-49853012D01*
X101953804Y-49802782D01*
X101959072Y-49795915D01*
X101965327Y-49782221D01*
X102002497Y-49739323D01*
X102032380Y-49700380D01*
X102043904Y-49691537D01*
X102057647Y-49675677D01*
X102100278Y-49648279D01*
X102134782Y-49621804D01*
X102153612Y-49614004D01*
X102176245Y-49599459D01*
X102219119Y-49586869D01*
X102254028Y-49572410D01*
X102280016Y-49568988D01*
X102311511Y-49559741D01*
X102350263Y-49559741D01*
X102382000Y-49555563D01*
X102413736Y-49559741D01*
G37*
G36*
X129912124Y-44294415D02*
G01*
X129954601Y-44294415D01*
X129990370Y-44303231D01*
X130021812Y-44306774D01*
X130062484Y-44321005D01*
X130109180Y-44332515D01*
X130136789Y-44347005D01*
X130161257Y-44355567D01*
X130202606Y-44381548D01*
X130250149Y-44406501D01*
X130269253Y-44423426D01*
X130286358Y-44434174D01*
X130324981Y-44472797D01*
X130369315Y-44512074D01*
X130380584Y-44528400D01*
X130390824Y-44538640D01*
X130423018Y-44589876D01*
X130459754Y-44643097D01*
X130464770Y-44656323D01*
X130469431Y-44663741D01*
X130491464Y-44726711D01*
X130516209Y-44791956D01*
X130517226Y-44800334D01*
X130518224Y-44803186D01*
X130526613Y-44877646D01*
X130535399Y-44950000D01*
X130526612Y-45022359D01*
X130518224Y-45096813D01*
X130517226Y-45099663D01*
X130516209Y-45108044D01*
X130491460Y-45173300D01*
X130469431Y-45236258D01*
X130464771Y-45243674D01*
X130459754Y-45256903D01*
X130423011Y-45310134D01*
X130390824Y-45361359D01*
X130380586Y-45371596D01*
X130369315Y-45387926D01*
X130324972Y-45427210D01*
X130286358Y-45465825D01*
X130269257Y-45476569D01*
X130250149Y-45493499D01*
X130202596Y-45518456D01*
X130161257Y-45544432D01*
X130136795Y-45552991D01*
X130109180Y-45567485D01*
X130062475Y-45578996D01*
X130021812Y-45593225D01*
X129990378Y-45596766D01*
X129954601Y-45605585D01*
X129912115Y-45605585D01*
X129874999Y-45609767D01*
X129837883Y-45605585D01*
X129795397Y-45605585D01*
X129759620Y-45596766D01*
X129728185Y-45593225D01*
X129687519Y-45578995D01*
X129640818Y-45567485D01*
X129613204Y-45552992D01*
X129588740Y-45544432D01*
X129547395Y-45518453D01*
X129499849Y-45493499D01*
X129480742Y-45476572D01*
X129463639Y-45465825D01*
X129425016Y-45427202D01*
X129380683Y-45387926D01*
X129369413Y-45371599D01*
X129359173Y-45361359D01*
X129326975Y-45310117D01*
X129290244Y-45256903D01*
X129285228Y-45243678D01*
X129280566Y-45236258D01*
X129258524Y-45173266D01*
X129233789Y-45108044D01*
X129232771Y-45099667D01*
X129231773Y-45096813D01*
X129223371Y-45022245D01*
X129214599Y-44950000D01*
X129223370Y-44877760D01*
X129231773Y-44803186D01*
X129232772Y-44800330D01*
X129233789Y-44791956D01*
X129258520Y-44726745D01*
X129280566Y-44663741D01*
X129285229Y-44656319D01*
X129290244Y-44643097D01*
X129326968Y-44589892D01*
X129359173Y-44538640D01*
X129369416Y-44528396D01*
X129380683Y-44512074D01*
X129425007Y-44472805D01*
X129463639Y-44434174D01*
X129480746Y-44423424D01*
X129499849Y-44406501D01*
X129547385Y-44381551D01*
X129588740Y-44355567D01*
X129613210Y-44347004D01*
X129640818Y-44332515D01*
X129687509Y-44321006D01*
X129728185Y-44306774D01*
X129759627Y-44303231D01*
X129795397Y-44294415D01*
X129837874Y-44294415D01*
X129874999Y-44290232D01*
X129912124Y-44294415D01*
G37*
G36*
X131912125Y-44294415D02*
G01*
X131954602Y-44294415D01*
X131990371Y-44303231D01*
X132021813Y-44306774D01*
X132062485Y-44321005D01*
X132109181Y-44332515D01*
X132136790Y-44347005D01*
X132161258Y-44355567D01*
X132202607Y-44381548D01*
X132250150Y-44406501D01*
X132269254Y-44423426D01*
X132286359Y-44434174D01*
X132324982Y-44472797D01*
X132369316Y-44512074D01*
X132380585Y-44528400D01*
X132390825Y-44538640D01*
X132423019Y-44589876D01*
X132459755Y-44643097D01*
X132464771Y-44656323D01*
X132469432Y-44663741D01*
X132491465Y-44726711D01*
X132516210Y-44791956D01*
X132517227Y-44800334D01*
X132518225Y-44803186D01*
X132526614Y-44877646D01*
X132535400Y-44950000D01*
X132526613Y-45022359D01*
X132518225Y-45096813D01*
X132517227Y-45099663D01*
X132516210Y-45108044D01*
X132491461Y-45173300D01*
X132469432Y-45236258D01*
X132464772Y-45243674D01*
X132459755Y-45256903D01*
X132423012Y-45310134D01*
X132390825Y-45361359D01*
X132380587Y-45371596D01*
X132369316Y-45387926D01*
X132324973Y-45427210D01*
X132286359Y-45465825D01*
X132269258Y-45476569D01*
X132250150Y-45493499D01*
X132202597Y-45518456D01*
X132161258Y-45544432D01*
X132136796Y-45552991D01*
X132109181Y-45567485D01*
X132062476Y-45578996D01*
X132021813Y-45593225D01*
X131990379Y-45596766D01*
X131954602Y-45605585D01*
X131912116Y-45605585D01*
X131875000Y-45609767D01*
X131837884Y-45605585D01*
X131795398Y-45605585D01*
X131759621Y-45596766D01*
X131728186Y-45593225D01*
X131687520Y-45578995D01*
X131640819Y-45567485D01*
X131613205Y-45552992D01*
X131588741Y-45544432D01*
X131547396Y-45518453D01*
X131499850Y-45493499D01*
X131480743Y-45476572D01*
X131463640Y-45465825D01*
X131425017Y-45427202D01*
X131380684Y-45387926D01*
X131369414Y-45371599D01*
X131359174Y-45361359D01*
X131326976Y-45310117D01*
X131290245Y-45256903D01*
X131285229Y-45243678D01*
X131280567Y-45236258D01*
X131258525Y-45173266D01*
X131233790Y-45108044D01*
X131232772Y-45099667D01*
X131231774Y-45096813D01*
X131223372Y-45022245D01*
X131214600Y-44950000D01*
X131223371Y-44877760D01*
X131231774Y-44803186D01*
X131232773Y-44800330D01*
X131233790Y-44791956D01*
X131258521Y-44726745D01*
X131280567Y-44663741D01*
X131285230Y-44656319D01*
X131290245Y-44643097D01*
X131326969Y-44589892D01*
X131359174Y-44538640D01*
X131369417Y-44528396D01*
X131380684Y-44512074D01*
X131425008Y-44472805D01*
X131463640Y-44434174D01*
X131480747Y-44423424D01*
X131499850Y-44406501D01*
X131547386Y-44381551D01*
X131588741Y-44355567D01*
X131613211Y-44347004D01*
X131640819Y-44332515D01*
X131687510Y-44321006D01*
X131728186Y-44306774D01*
X131759628Y-44303231D01*
X131795398Y-44294415D01*
X131837875Y-44294415D01*
X131875000Y-44290232D01*
X131912125Y-44294415D01*
G37*
G36*
X101397736Y-44479741D02*
G01*
X101436489Y-44479741D01*
X101467984Y-44488988D01*
X101493971Y-44492410D01*
X101528876Y-44506868D01*
X101571755Y-44519459D01*
X101594390Y-44534005D01*
X101613219Y-44541805D01*
X101647720Y-44568279D01*
X101690353Y-44595677D01*
X101704095Y-44611536D01*
X101715619Y-44620379D01*
X101745497Y-44659318D01*
X101782673Y-44702221D01*
X101788928Y-44715918D01*
X101794195Y-44722782D01*
X101814991Y-44772988D01*
X101841237Y-44830458D01*
X101842534Y-44839482D01*
X101843589Y-44842028D01*
X101851060Y-44898780D01*
X101861300Y-44970000D01*
X101851059Y-45041225D01*
X101843589Y-45097971D01*
X101842534Y-45100516D01*
X101841237Y-45109542D01*
X101814985Y-45167023D01*
X101794194Y-45217219D01*
X101788928Y-45224080D01*
X101782673Y-45237779D01*
X101745488Y-45280692D01*
X101715619Y-45319619D01*
X101704100Y-45328457D01*
X101690353Y-45344323D01*
X101647710Y-45371727D01*
X101613219Y-45398194D01*
X101594394Y-45405991D01*
X101571755Y-45420541D01*
X101528868Y-45433133D01*
X101493971Y-45447589D01*
X101467990Y-45451009D01*
X101436489Y-45460259D01*
X101397729Y-45460259D01*
X101366000Y-45464436D01*
X101334271Y-45460259D01*
X101295511Y-45460259D01*
X101264010Y-45451009D01*
X101238028Y-45447589D01*
X101203127Y-45433132D01*
X101160245Y-45420541D01*
X101137607Y-45405992D01*
X101118780Y-45398194D01*
X101084283Y-45371723D01*
X101041647Y-45344323D01*
X101027901Y-45328460D01*
X101016380Y-45319619D01*
X100986502Y-45280682D01*
X100949327Y-45237779D01*
X100943072Y-45224083D01*
X100937805Y-45217219D01*
X100917003Y-45167000D01*
X100890763Y-45109542D01*
X100889465Y-45100519D01*
X100888410Y-45097971D01*
X100880928Y-45041143D01*
X100870700Y-44970000D01*
X100880927Y-44898862D01*
X100888410Y-44842028D01*
X100889466Y-44839478D01*
X100890763Y-44830458D01*
X100916997Y-44773012D01*
X100937804Y-44722782D01*
X100943072Y-44715915D01*
X100949327Y-44702221D01*
X100986497Y-44659323D01*
X101016380Y-44620380D01*
X101027904Y-44611537D01*
X101041647Y-44595677D01*
X101084278Y-44568279D01*
X101118782Y-44541804D01*
X101137612Y-44534004D01*
X101160245Y-44519459D01*
X101203119Y-44506869D01*
X101238028Y-44492410D01*
X101264016Y-44488988D01*
X101295511Y-44479741D01*
X101334263Y-44479741D01*
X101366000Y-44475563D01*
X101397736Y-44479741D01*
G37*
G36*
X114061777Y-43754705D02*
G01*
X114071789Y-43754705D01*
X114100636Y-43762434D01*
X114159518Y-43774147D01*
X114187310Y-43785658D01*
X114210476Y-43791866D01*
X114231242Y-43803855D01*
X114259041Y-43815370D01*
X114308975Y-43848735D01*
X114334819Y-43863656D01*
X114341892Y-43870729D01*
X114348607Y-43875216D01*
X114424783Y-43951392D01*
X114429269Y-43958106D01*
X114436344Y-43965181D01*
X114451266Y-43991027D01*
X114484629Y-44040958D01*
X114496142Y-44068753D01*
X114508134Y-44089524D01*
X114514342Y-44112693D01*
X114525852Y-44140481D01*
X114537563Y-44199356D01*
X114545295Y-44228211D01*
X114545367Y-44238589D01*
X114546916Y-44246373D01*
X114549988Y-44897774D01*
X114549984Y-44897837D01*
X114550000Y-44900000D01*
X114549514Y-44907402D01*
X114547351Y-44951436D01*
X114546274Y-44956849D01*
X114545295Y-44971789D01*
X114537561Y-45000651D01*
X114525852Y-45059518D01*
X114514342Y-45087303D01*
X114508134Y-45110476D01*
X114496140Y-45131249D01*
X114484629Y-45159041D01*
X114451271Y-45208964D01*
X114436344Y-45234819D01*
X114429267Y-45241895D01*
X114424783Y-45248607D01*
X114348607Y-45324783D01*
X114341895Y-45329267D01*
X114334819Y-45336344D01*
X114308964Y-45351271D01*
X114259041Y-45384629D01*
X114231249Y-45396140D01*
X114210476Y-45408134D01*
X114187303Y-45414342D01*
X114159518Y-45425852D01*
X114100643Y-45437563D01*
X114071789Y-45445295D01*
X114061777Y-45445295D01*
X114053859Y-45446870D01*
X113946141Y-45446870D01*
X113938223Y-45445295D01*
X113928211Y-45445295D01*
X113899357Y-45437563D01*
X113840481Y-45425852D01*
X113812693Y-45414342D01*
X113789524Y-45408134D01*
X113768753Y-45396142D01*
X113740958Y-45384629D01*
X113691027Y-45351266D01*
X113665181Y-45336344D01*
X113658106Y-45329269D01*
X113651392Y-45324783D01*
X113575216Y-45248607D01*
X113570729Y-45241892D01*
X113563656Y-45234819D01*
X113548735Y-45208975D01*
X113515370Y-45159041D01*
X113503855Y-45131242D01*
X113491866Y-45110476D01*
X113485658Y-45087310D01*
X113474147Y-45059518D01*
X113462433Y-45000631D01*
X113454705Y-44971789D01*
X113454632Y-44961414D01*
X113453083Y-44953626D01*
X113450011Y-44302225D01*
X113450015Y-44302143D01*
X113450000Y-44300000D01*
X113450480Y-44292661D01*
X113452648Y-44248563D01*
X113453726Y-44243141D01*
X113454705Y-44228211D01*
X113462433Y-44199366D01*
X113474147Y-44140481D01*
X113485659Y-44112686D01*
X113491866Y-44089524D01*
X113503854Y-44068759D01*
X113515370Y-44040958D01*
X113548739Y-43991016D01*
X113563656Y-43965181D01*
X113570727Y-43958109D01*
X113575216Y-43951392D01*
X113651392Y-43875216D01*
X113658109Y-43870727D01*
X113665181Y-43863656D01*
X113691016Y-43848739D01*
X113740958Y-43815370D01*
X113768759Y-43803854D01*
X113789524Y-43791866D01*
X113812686Y-43785659D01*
X113840481Y-43774147D01*
X113899364Y-43762434D01*
X113928211Y-43754705D01*
X113938223Y-43754705D01*
X113946141Y-43753130D01*
X114053859Y-43753130D01*
X114061777Y-43754705D01*
G37*
G36*
X122701777Y-43754705D02*
G01*
X122711789Y-43754705D01*
X122740636Y-43762434D01*
X122799518Y-43774147D01*
X122827310Y-43785658D01*
X122850476Y-43791866D01*
X122871242Y-43803855D01*
X122899041Y-43815370D01*
X122948975Y-43848735D01*
X122974819Y-43863656D01*
X122981892Y-43870729D01*
X122988607Y-43875216D01*
X123064783Y-43951392D01*
X123069269Y-43958106D01*
X123076344Y-43965181D01*
X123091266Y-43991027D01*
X123124629Y-44040958D01*
X123136142Y-44068753D01*
X123148134Y-44089524D01*
X123154342Y-44112693D01*
X123165852Y-44140481D01*
X123177563Y-44199356D01*
X123185295Y-44228211D01*
X123185367Y-44238589D01*
X123186916Y-44246373D01*
X123189988Y-44897774D01*
X123189984Y-44897837D01*
X123190000Y-44900000D01*
X123189514Y-44907402D01*
X123187351Y-44951436D01*
X123186274Y-44956849D01*
X123185295Y-44971789D01*
X123177561Y-45000651D01*
X123165852Y-45059518D01*
X123154342Y-45087303D01*
X123148134Y-45110476D01*
X123136140Y-45131249D01*
X123124629Y-45159041D01*
X123091271Y-45208964D01*
X123076344Y-45234819D01*
X123069267Y-45241895D01*
X123064783Y-45248607D01*
X122988607Y-45324783D01*
X122981895Y-45329267D01*
X122974819Y-45336344D01*
X122948964Y-45351271D01*
X122899041Y-45384629D01*
X122871249Y-45396140D01*
X122850476Y-45408134D01*
X122827303Y-45414342D01*
X122799518Y-45425852D01*
X122740643Y-45437563D01*
X122711789Y-45445295D01*
X122701777Y-45445295D01*
X122693859Y-45446870D01*
X122586141Y-45446870D01*
X122578223Y-45445295D01*
X122568211Y-45445295D01*
X122539357Y-45437563D01*
X122480481Y-45425852D01*
X122452693Y-45414342D01*
X122429524Y-45408134D01*
X122408753Y-45396142D01*
X122380958Y-45384629D01*
X122331027Y-45351266D01*
X122305181Y-45336344D01*
X122298106Y-45329269D01*
X122291392Y-45324783D01*
X122215216Y-45248607D01*
X122210729Y-45241892D01*
X122203656Y-45234819D01*
X122188735Y-45208975D01*
X122155370Y-45159041D01*
X122143855Y-45131242D01*
X122131866Y-45110476D01*
X122125658Y-45087310D01*
X122114147Y-45059518D01*
X122102433Y-45000631D01*
X122094705Y-44971789D01*
X122094632Y-44961414D01*
X122093083Y-44953626D01*
X122090011Y-44302225D01*
X122090015Y-44302143D01*
X122090000Y-44300000D01*
X122090480Y-44292661D01*
X122092648Y-44248563D01*
X122093726Y-44243141D01*
X122094705Y-44228211D01*
X122102433Y-44199366D01*
X122114147Y-44140481D01*
X122125659Y-44112686D01*
X122131866Y-44089524D01*
X122143854Y-44068759D01*
X122155370Y-44040958D01*
X122188739Y-43991016D01*
X122203656Y-43965181D01*
X122210727Y-43958109D01*
X122215216Y-43951392D01*
X122291392Y-43875216D01*
X122298109Y-43870727D01*
X122305181Y-43863656D01*
X122331016Y-43848739D01*
X122380958Y-43815370D01*
X122408759Y-43803854D01*
X122429524Y-43791866D01*
X122452686Y-43785659D01*
X122480481Y-43774147D01*
X122539364Y-43762434D01*
X122568211Y-43754705D01*
X122578223Y-43754705D01*
X122586141Y-43753130D01*
X122693859Y-43753130D01*
X122701777Y-43754705D01*
G37*
G36*
X114061777Y-39954705D02*
G01*
X114071789Y-39954705D01*
X114100636Y-39962434D01*
X114159518Y-39974147D01*
X114187310Y-39985658D01*
X114210476Y-39991866D01*
X114231242Y-40003855D01*
X114259041Y-40015370D01*
X114308975Y-40048735D01*
X114334819Y-40063656D01*
X114341892Y-40070729D01*
X114348607Y-40075216D01*
X114424783Y-40151392D01*
X114429269Y-40158106D01*
X114436344Y-40165181D01*
X114451266Y-40191027D01*
X114484629Y-40240958D01*
X114496142Y-40268753D01*
X114508134Y-40289524D01*
X114514342Y-40312693D01*
X114525852Y-40340481D01*
X114537563Y-40399356D01*
X114545295Y-40428211D01*
X114545367Y-40438589D01*
X114546916Y-40446373D01*
X114549988Y-41097774D01*
X114549984Y-41097837D01*
X114550000Y-41100000D01*
X114549514Y-41107402D01*
X114547351Y-41151436D01*
X114546274Y-41156849D01*
X114545295Y-41171789D01*
X114537561Y-41200651D01*
X114525852Y-41259518D01*
X114514342Y-41287303D01*
X114508134Y-41310476D01*
X114496140Y-41331249D01*
X114484629Y-41359041D01*
X114451271Y-41408964D01*
X114436344Y-41434819D01*
X114429267Y-41441895D01*
X114424783Y-41448607D01*
X114348607Y-41524783D01*
X114341895Y-41529267D01*
X114334819Y-41536344D01*
X114308964Y-41551271D01*
X114259041Y-41584629D01*
X114231249Y-41596140D01*
X114210476Y-41608134D01*
X114187303Y-41614342D01*
X114159518Y-41625852D01*
X114100643Y-41637563D01*
X114071789Y-41645295D01*
X114061777Y-41645295D01*
X114053859Y-41646870D01*
X113946141Y-41646870D01*
X113938223Y-41645295D01*
X113928211Y-41645295D01*
X113899357Y-41637563D01*
X113840481Y-41625852D01*
X113812693Y-41614342D01*
X113789524Y-41608134D01*
X113768753Y-41596142D01*
X113740958Y-41584629D01*
X113691027Y-41551266D01*
X113665181Y-41536344D01*
X113658106Y-41529269D01*
X113651392Y-41524783D01*
X113575216Y-41448607D01*
X113570729Y-41441892D01*
X113563656Y-41434819D01*
X113548735Y-41408975D01*
X113515370Y-41359041D01*
X113503855Y-41331242D01*
X113491866Y-41310476D01*
X113485658Y-41287310D01*
X113474147Y-41259518D01*
X113462433Y-41200631D01*
X113454705Y-41171789D01*
X113454632Y-41161414D01*
X113453083Y-41153626D01*
X113450011Y-40502225D01*
X113450015Y-40502143D01*
X113450000Y-40500000D01*
X113450480Y-40492661D01*
X113452648Y-40448563D01*
X113453726Y-40443141D01*
X113454705Y-40428211D01*
X113462433Y-40399366D01*
X113474147Y-40340481D01*
X113485659Y-40312686D01*
X113491866Y-40289524D01*
X113503854Y-40268759D01*
X113515370Y-40240958D01*
X113548739Y-40191016D01*
X113563656Y-40165181D01*
X113570727Y-40158109D01*
X113575216Y-40151392D01*
X113651392Y-40075216D01*
X113658109Y-40070727D01*
X113665181Y-40063656D01*
X113691016Y-40048739D01*
X113740958Y-40015370D01*
X113768759Y-40003854D01*
X113789524Y-39991866D01*
X113812686Y-39985659D01*
X113840481Y-39974147D01*
X113899364Y-39962434D01*
X113928211Y-39954705D01*
X113938223Y-39954705D01*
X113946141Y-39953130D01*
X114053859Y-39953130D01*
X114061777Y-39954705D01*
G37*
G36*
X122701777Y-39954705D02*
G01*
X122711789Y-39954705D01*
X122740636Y-39962434D01*
X122799518Y-39974147D01*
X122827310Y-39985658D01*
X122850476Y-39991866D01*
X122871242Y-40003855D01*
X122899041Y-40015370D01*
X122948975Y-40048735D01*
X122974819Y-40063656D01*
X122981892Y-40070729D01*
X122988607Y-40075216D01*
X123064783Y-40151392D01*
X123069269Y-40158106D01*
X123076344Y-40165181D01*
X123091266Y-40191027D01*
X123124629Y-40240958D01*
X123136142Y-40268753D01*
X123148134Y-40289524D01*
X123154342Y-40312693D01*
X123165852Y-40340481D01*
X123177563Y-40399356D01*
X123185295Y-40428211D01*
X123185367Y-40438589D01*
X123186916Y-40446373D01*
X123189988Y-41097774D01*
X123189984Y-41097837D01*
X123190000Y-41100000D01*
X123189514Y-41107402D01*
X123187351Y-41151436D01*
X123186274Y-41156849D01*
X123185295Y-41171789D01*
X123177561Y-41200651D01*
X123165852Y-41259518D01*
X123154342Y-41287303D01*
X123148134Y-41310476D01*
X123136140Y-41331249D01*
X123124629Y-41359041D01*
X123091271Y-41408964D01*
X123076344Y-41434819D01*
X123069267Y-41441895D01*
X123064783Y-41448607D01*
X122988607Y-41524783D01*
X122981895Y-41529267D01*
X122974819Y-41536344D01*
X122948964Y-41551271D01*
X122899041Y-41584629D01*
X122871249Y-41596140D01*
X122850476Y-41608134D01*
X122827303Y-41614342D01*
X122799518Y-41625852D01*
X122740643Y-41637563D01*
X122711789Y-41645295D01*
X122701777Y-41645295D01*
X122693859Y-41646870D01*
X122586141Y-41646870D01*
X122578223Y-41645295D01*
X122568211Y-41645295D01*
X122539357Y-41637563D01*
X122480481Y-41625852D01*
X122452693Y-41614342D01*
X122429524Y-41608134D01*
X122408753Y-41596142D01*
X122380958Y-41584629D01*
X122331027Y-41551266D01*
X122305181Y-41536344D01*
X122298106Y-41529269D01*
X122291392Y-41524783D01*
X122215216Y-41448607D01*
X122210729Y-41441892D01*
X122203656Y-41434819D01*
X122188735Y-41408975D01*
X122155370Y-41359041D01*
X122143855Y-41331242D01*
X122131866Y-41310476D01*
X122125658Y-41287310D01*
X122114147Y-41259518D01*
X122102433Y-41200631D01*
X122094705Y-41171789D01*
X122094632Y-41161414D01*
X122093083Y-41153626D01*
X122090011Y-40502225D01*
X122090015Y-40502143D01*
X122090000Y-40500000D01*
X122090480Y-40492661D01*
X122092648Y-40448563D01*
X122093726Y-40443141D01*
X122094705Y-40428211D01*
X122102433Y-40399366D01*
X122114147Y-40340481D01*
X122125659Y-40312686D01*
X122131866Y-40289524D01*
X122143854Y-40268759D01*
X122155370Y-40240958D01*
X122188739Y-40191016D01*
X122203656Y-40165181D01*
X122210727Y-40158109D01*
X122215216Y-40151392D01*
X122291392Y-40075216D01*
X122298109Y-40070727D01*
X122305181Y-40063656D01*
X122331016Y-40048739D01*
X122380958Y-40015370D01*
X122408759Y-40003854D01*
X122429524Y-39991866D01*
X122452686Y-39985659D01*
X122480481Y-39974147D01*
X122539364Y-39962434D01*
X122568211Y-39954705D01*
X122578223Y-39954705D01*
X122586141Y-39953130D01*
X122693859Y-39953130D01*
X122701777Y-39954705D01*
G37*
M02*
