%TF.GenerationSoftware,KiCad,Pcbnew,8.0.3*%
%TF.CreationDate,2024-07-26T16:59:45-04:00*%
%TF.ProjectId,Health_Watch,4865616c-7468-45f5-9761-7463682e6b69,rev?*%
%TF.SameCoordinates,Original*%
%TF.FileFunction,Soldermask,Top*%
%TF.FilePolarity,Negative*%
%FSLAX46Y46*%
G04 Gerber Fmt 4.6, Leading zero omitted, Abs format (unit mm)*
G04 Created by KiCad (PCBNEW 8.0.3) date 2024-07-26 16:59:45*
%MOMM*%
%LPD*%
G01*
G04 APERTURE LIST*
G04 APERTURE END LIST*
G36*
X99391323Y-66854656D02*
G01*
X99428337Y-66854656D01*
X99470090Y-66863530D01*
X99516891Y-66868804D01*
X99550922Y-66880712D01*
X99581592Y-66887231D01*
X99625789Y-66906909D01*
X99675413Y-66924273D01*
X99701243Y-66940503D01*
X99724725Y-66950958D01*
X99768509Y-66982769D01*
X99817617Y-67013626D01*
X99835253Y-67031262D01*
X99851479Y-67043051D01*
X99891596Y-67087605D01*
X99936374Y-67132383D01*
X99946672Y-67148772D01*
X99956317Y-67159484D01*
X99989310Y-67216630D01*
X100025727Y-67274587D01*
X100030274Y-67287582D01*
X100034655Y-67295170D01*
X100057085Y-67364204D01*
X100081196Y-67433109D01*
X100082110Y-67441224D01*
X100083071Y-67444181D01*
X100091791Y-67527147D01*
X100100000Y-67600000D01*
X100091790Y-67672859D01*
X100083071Y-67755818D01*
X100082110Y-67758773D01*
X100081196Y-67766891D01*
X100057080Y-67835808D01*
X100034655Y-67904829D01*
X100030275Y-67912415D01*
X100025727Y-67925413D01*
X99989303Y-67983380D01*
X99956317Y-68040515D01*
X99946674Y-68051224D01*
X99936374Y-68067617D01*
X99891587Y-68112403D01*
X99851479Y-68156948D01*
X99835256Y-68168734D01*
X99817617Y-68186374D01*
X99768499Y-68217236D01*
X99724725Y-68249041D01*
X99701248Y-68259493D01*
X99675413Y-68275727D01*
X99625779Y-68293094D01*
X99581592Y-68312768D01*
X99550928Y-68319285D01*
X99516891Y-68331196D01*
X99470087Y-68336469D01*
X99428337Y-68345344D01*
X99391323Y-68345344D01*
X99350000Y-68350000D01*
X99308677Y-68345344D01*
X99271663Y-68345344D01*
X99229911Y-68336469D01*
X99183109Y-68331196D01*
X99149073Y-68319286D01*
X99118407Y-68312768D01*
X99074215Y-68293092D01*
X99024587Y-68275727D01*
X98998753Y-68259494D01*
X98975274Y-68249041D01*
X98931493Y-68217232D01*
X98882383Y-68186374D01*
X98864745Y-68168736D01*
X98848520Y-68156948D01*
X98808402Y-68112393D01*
X98763626Y-68067617D01*
X98753327Y-68051227D01*
X98743682Y-68040515D01*
X98710684Y-67983361D01*
X98674273Y-67925413D01*
X98669726Y-67912419D01*
X98665344Y-67904829D01*
X98642905Y-67835768D01*
X98618804Y-67766891D01*
X98617889Y-67758778D01*
X98616928Y-67755818D01*
X98608194Y-67672726D01*
X98600000Y-67600000D01*
X98608193Y-67527279D01*
X98616928Y-67444181D01*
X98617890Y-67441219D01*
X98618804Y-67433109D01*
X98642900Y-67364244D01*
X98665344Y-67295170D01*
X98669727Y-67287577D01*
X98674273Y-67274587D01*
X98710677Y-67216650D01*
X98743682Y-67159484D01*
X98753330Y-67148768D01*
X98763626Y-67132383D01*
X98808386Y-67087622D01*
X98848519Y-67043051D01*
X98864751Y-67031257D01*
X98882383Y-67013626D01*
X98931485Y-66982772D01*
X98975275Y-66950958D01*
X98998757Y-66940502D01*
X99024587Y-66924273D01*
X99074206Y-66906910D01*
X99118407Y-66887231D01*
X99149078Y-66880711D01*
X99183109Y-66868804D01*
X99229908Y-66863530D01*
X99271663Y-66854656D01*
X99308677Y-66854656D01*
X99350000Y-66850000D01*
X99391323Y-66854656D01*
G37*
G36*
X135441323Y-66854656D02*
G01*
X135478337Y-66854656D01*
X135520090Y-66863530D01*
X135566891Y-66868804D01*
X135600922Y-66880712D01*
X135631592Y-66887231D01*
X135675789Y-66906909D01*
X135725413Y-66924273D01*
X135751243Y-66940503D01*
X135774725Y-66950958D01*
X135818509Y-66982769D01*
X135867617Y-67013626D01*
X135885253Y-67031262D01*
X135901479Y-67043051D01*
X135941596Y-67087605D01*
X135986374Y-67132383D01*
X135996672Y-67148772D01*
X136006317Y-67159484D01*
X136039310Y-67216630D01*
X136075727Y-67274587D01*
X136080274Y-67287582D01*
X136084655Y-67295170D01*
X136107085Y-67364204D01*
X136131196Y-67433109D01*
X136132110Y-67441224D01*
X136133071Y-67444181D01*
X136141791Y-67527147D01*
X136150000Y-67600000D01*
X136141790Y-67672859D01*
X136133071Y-67755818D01*
X136132110Y-67758773D01*
X136131196Y-67766891D01*
X136107080Y-67835808D01*
X136084655Y-67904829D01*
X136080275Y-67912415D01*
X136075727Y-67925413D01*
X136039303Y-67983380D01*
X136006317Y-68040515D01*
X135996674Y-68051224D01*
X135986374Y-68067617D01*
X135941587Y-68112403D01*
X135901479Y-68156948D01*
X135885256Y-68168734D01*
X135867617Y-68186374D01*
X135818499Y-68217236D01*
X135774725Y-68249041D01*
X135751248Y-68259493D01*
X135725413Y-68275727D01*
X135675779Y-68293094D01*
X135631592Y-68312768D01*
X135600928Y-68319285D01*
X135566891Y-68331196D01*
X135520087Y-68336469D01*
X135478337Y-68345344D01*
X135441323Y-68345344D01*
X135400000Y-68350000D01*
X135358677Y-68345344D01*
X135321663Y-68345344D01*
X135279911Y-68336469D01*
X135233109Y-68331196D01*
X135199073Y-68319286D01*
X135168407Y-68312768D01*
X135124215Y-68293092D01*
X135074587Y-68275727D01*
X135048753Y-68259494D01*
X135025274Y-68249041D01*
X134981493Y-68217232D01*
X134932383Y-68186374D01*
X134914745Y-68168736D01*
X134898520Y-68156948D01*
X134858402Y-68112393D01*
X134813626Y-68067617D01*
X134803327Y-68051227D01*
X134793682Y-68040515D01*
X134760684Y-67983361D01*
X134724273Y-67925413D01*
X134719726Y-67912419D01*
X134715344Y-67904829D01*
X134692905Y-67835768D01*
X134668804Y-67766891D01*
X134667889Y-67758778D01*
X134666928Y-67755818D01*
X134658194Y-67672726D01*
X134650000Y-67600000D01*
X134658193Y-67527279D01*
X134666928Y-67444181D01*
X134667890Y-67441219D01*
X134668804Y-67433109D01*
X134692900Y-67364244D01*
X134715344Y-67295170D01*
X134719727Y-67287577D01*
X134724273Y-67274587D01*
X134760677Y-67216650D01*
X134793682Y-67159484D01*
X134803330Y-67148768D01*
X134813626Y-67132383D01*
X134858386Y-67087622D01*
X134898519Y-67043051D01*
X134914751Y-67031257D01*
X134932383Y-67013626D01*
X134981485Y-66982772D01*
X135025275Y-66950958D01*
X135048757Y-66940502D01*
X135074587Y-66924273D01*
X135124206Y-66906910D01*
X135168407Y-66887231D01*
X135199078Y-66880711D01*
X135233109Y-66868804D01*
X135279908Y-66863530D01*
X135321663Y-66854656D01*
X135358677Y-66854656D01*
X135400000Y-66850000D01*
X135441323Y-66854656D01*
G37*
G36*
X119300000Y-67700000D02*
G01*
X118100000Y-67700000D01*
X118100000Y-66500000D01*
X119300000Y-66500000D01*
X119300000Y-67700000D01*
G37*
G36*
X120138768Y-66505104D02*
G01*
X120172234Y-66505104D01*
X120210606Y-66514561D01*
X120255291Y-66520445D01*
X120285881Y-66533115D01*
X120312501Y-66539677D01*
X120352863Y-66560860D01*
X120400000Y-66580385D01*
X120421502Y-66596884D01*
X120440422Y-66606814D01*
X120479104Y-66641084D01*
X120524264Y-66675736D01*
X120537098Y-66692462D01*
X120548555Y-66702612D01*
X120581405Y-66750204D01*
X120619615Y-66800000D01*
X120625374Y-66813904D01*
X120630622Y-66821507D01*
X120653388Y-66881537D01*
X120679555Y-66944709D01*
X120680729Y-66953628D01*
X120681851Y-66956586D01*
X120690542Y-67028162D01*
X120700000Y-67100000D01*
X120690541Y-67171843D01*
X120681851Y-67243413D01*
X120680729Y-67246370D01*
X120679555Y-67255291D01*
X120653384Y-67318473D01*
X120630622Y-67378492D01*
X120625375Y-67386093D01*
X120619615Y-67400000D01*
X120581398Y-67449804D01*
X120548555Y-67497387D01*
X120537101Y-67507534D01*
X120524264Y-67524264D01*
X120479096Y-67558922D01*
X120440422Y-67593185D01*
X120421506Y-67603112D01*
X120400000Y-67619615D01*
X120352854Y-67639143D01*
X120312501Y-67660322D01*
X120285885Y-67666882D01*
X120255291Y-67679555D01*
X120210603Y-67685438D01*
X120172234Y-67694896D01*
X120138768Y-67694896D01*
X120100000Y-67700000D01*
X120061232Y-67694896D01*
X120027766Y-67694896D01*
X119989395Y-67685438D01*
X119944709Y-67679555D01*
X119914115Y-67666882D01*
X119887498Y-67660322D01*
X119847140Y-67639141D01*
X119800000Y-67619615D01*
X119778495Y-67603114D01*
X119759577Y-67593185D01*
X119720896Y-67558916D01*
X119675736Y-67524264D01*
X119662900Y-67507537D01*
X119651444Y-67497387D01*
X119618591Y-67449791D01*
X119580385Y-67400000D01*
X119574626Y-67386096D01*
X119569377Y-67378492D01*
X119546603Y-67318444D01*
X119520445Y-67255291D01*
X119519271Y-67246374D01*
X119518148Y-67243413D01*
X119509445Y-67171746D01*
X119500000Y-67100000D01*
X119509445Y-67028259D01*
X119518148Y-66956586D01*
X119519271Y-66953624D01*
X119520445Y-66944709D01*
X119546599Y-66881566D01*
X119569377Y-66821507D01*
X119574627Y-66813900D01*
X119580385Y-66800000D01*
X119618584Y-66750217D01*
X119651444Y-66702612D01*
X119662903Y-66692459D01*
X119675736Y-66675736D01*
X119720887Y-66641089D01*
X119759577Y-66606814D01*
X119778499Y-66596882D01*
X119800000Y-66580385D01*
X119847131Y-66560862D01*
X119887498Y-66539677D01*
X119914120Y-66533115D01*
X119944709Y-66520445D01*
X119989393Y-66514562D01*
X120027766Y-66505104D01*
X120061232Y-66505104D01*
X120100000Y-66500000D01*
X120138768Y-66505104D01*
G37*
G36*
X121538768Y-66505104D02*
G01*
X121572234Y-66505104D01*
X121610606Y-66514561D01*
X121655291Y-66520445D01*
X121685881Y-66533115D01*
X121712501Y-66539677D01*
X121752863Y-66560860D01*
X121800000Y-66580385D01*
X121821502Y-66596884D01*
X121840422Y-66606814D01*
X121879104Y-66641084D01*
X121924264Y-66675736D01*
X121937098Y-66692462D01*
X121948555Y-66702612D01*
X121981405Y-66750204D01*
X122019615Y-66800000D01*
X122025374Y-66813904D01*
X122030622Y-66821507D01*
X122053388Y-66881537D01*
X122079555Y-66944709D01*
X122080729Y-66953628D01*
X122081851Y-66956586D01*
X122090542Y-67028162D01*
X122100000Y-67100000D01*
X122090541Y-67171843D01*
X122081851Y-67243413D01*
X122080729Y-67246370D01*
X122079555Y-67255291D01*
X122053384Y-67318473D01*
X122030622Y-67378492D01*
X122025375Y-67386093D01*
X122019615Y-67400000D01*
X121981398Y-67449804D01*
X121948555Y-67497387D01*
X121937101Y-67507534D01*
X121924264Y-67524264D01*
X121879096Y-67558922D01*
X121840422Y-67593185D01*
X121821506Y-67603112D01*
X121800000Y-67619615D01*
X121752854Y-67639143D01*
X121712501Y-67660322D01*
X121685885Y-67666882D01*
X121655291Y-67679555D01*
X121610603Y-67685438D01*
X121572234Y-67694896D01*
X121538768Y-67694896D01*
X121500000Y-67700000D01*
X121461232Y-67694896D01*
X121427766Y-67694896D01*
X121389395Y-67685438D01*
X121344709Y-67679555D01*
X121314115Y-67666882D01*
X121287498Y-67660322D01*
X121247140Y-67639141D01*
X121200000Y-67619615D01*
X121178495Y-67603114D01*
X121159577Y-67593185D01*
X121120896Y-67558916D01*
X121075736Y-67524264D01*
X121062900Y-67507537D01*
X121051444Y-67497387D01*
X121018591Y-67449791D01*
X120980385Y-67400000D01*
X120974626Y-67386096D01*
X120969377Y-67378492D01*
X120946603Y-67318444D01*
X120920445Y-67255291D01*
X120919271Y-67246374D01*
X120918148Y-67243413D01*
X120909445Y-67171746D01*
X120900000Y-67100000D01*
X120909445Y-67028259D01*
X120918148Y-66956586D01*
X120919271Y-66953624D01*
X120920445Y-66944709D01*
X120946599Y-66881566D01*
X120969377Y-66821507D01*
X120974627Y-66813900D01*
X120980385Y-66800000D01*
X121018584Y-66750217D01*
X121051444Y-66702612D01*
X121062903Y-66692459D01*
X121075736Y-66675736D01*
X121120887Y-66641089D01*
X121159577Y-66606814D01*
X121178499Y-66596882D01*
X121200000Y-66580385D01*
X121247131Y-66560862D01*
X121287498Y-66539677D01*
X121314120Y-66533115D01*
X121344709Y-66520445D01*
X121389393Y-66514562D01*
X121427766Y-66505104D01*
X121461232Y-66505104D01*
X121500000Y-66500000D01*
X121538768Y-66505104D01*
G37*
G36*
X122938768Y-66505104D02*
G01*
X122972234Y-66505104D01*
X123010606Y-66514561D01*
X123055291Y-66520445D01*
X123085881Y-66533115D01*
X123112501Y-66539677D01*
X123152863Y-66560860D01*
X123200000Y-66580385D01*
X123221502Y-66596884D01*
X123240422Y-66606814D01*
X123279104Y-66641084D01*
X123324264Y-66675736D01*
X123337098Y-66692462D01*
X123348555Y-66702612D01*
X123381405Y-66750204D01*
X123419615Y-66800000D01*
X123425374Y-66813904D01*
X123430622Y-66821507D01*
X123453388Y-66881537D01*
X123479555Y-66944709D01*
X123480729Y-66953628D01*
X123481851Y-66956586D01*
X123490542Y-67028162D01*
X123500000Y-67100000D01*
X123490541Y-67171843D01*
X123481851Y-67243413D01*
X123480729Y-67246370D01*
X123479555Y-67255291D01*
X123453384Y-67318473D01*
X123430622Y-67378492D01*
X123425375Y-67386093D01*
X123419615Y-67400000D01*
X123381398Y-67449804D01*
X123348555Y-67497387D01*
X123337101Y-67507534D01*
X123324264Y-67524264D01*
X123279096Y-67558922D01*
X123240422Y-67593185D01*
X123221506Y-67603112D01*
X123200000Y-67619615D01*
X123152854Y-67639143D01*
X123112501Y-67660322D01*
X123085885Y-67666882D01*
X123055291Y-67679555D01*
X123010603Y-67685438D01*
X122972234Y-67694896D01*
X122938768Y-67694896D01*
X122900000Y-67700000D01*
X122861232Y-67694896D01*
X122827766Y-67694896D01*
X122789395Y-67685438D01*
X122744709Y-67679555D01*
X122714115Y-67666882D01*
X122687498Y-67660322D01*
X122647140Y-67639141D01*
X122600000Y-67619615D01*
X122578495Y-67603114D01*
X122559577Y-67593185D01*
X122520896Y-67558916D01*
X122475736Y-67524264D01*
X122462900Y-67507537D01*
X122451444Y-67497387D01*
X122418591Y-67449791D01*
X122380385Y-67400000D01*
X122374626Y-67386096D01*
X122369377Y-67378492D01*
X122346603Y-67318444D01*
X122320445Y-67255291D01*
X122319271Y-67246374D01*
X122318148Y-67243413D01*
X122309445Y-67171746D01*
X122300000Y-67100000D01*
X122309445Y-67028259D01*
X122318148Y-66956586D01*
X122319271Y-66953624D01*
X122320445Y-66944709D01*
X122346599Y-66881566D01*
X122369377Y-66821507D01*
X122374627Y-66813900D01*
X122380385Y-66800000D01*
X122418584Y-66750217D01*
X122451444Y-66702612D01*
X122462903Y-66692459D01*
X122475736Y-66675736D01*
X122520887Y-66641089D01*
X122559577Y-66606814D01*
X122578499Y-66596882D01*
X122600000Y-66580385D01*
X122647131Y-66560862D01*
X122687498Y-66539677D01*
X122714120Y-66533115D01*
X122744709Y-66520445D01*
X122789393Y-66514562D01*
X122827766Y-66505104D01*
X122861232Y-66505104D01*
X122900000Y-66500000D01*
X122938768Y-66505104D01*
G37*
G36*
X124338768Y-66505104D02*
G01*
X124372234Y-66505104D01*
X124410606Y-66514561D01*
X124455291Y-66520445D01*
X124485881Y-66533115D01*
X124512501Y-66539677D01*
X124552863Y-66560860D01*
X124600000Y-66580385D01*
X124621502Y-66596884D01*
X124640422Y-66606814D01*
X124679104Y-66641084D01*
X124724264Y-66675736D01*
X124737098Y-66692462D01*
X124748555Y-66702612D01*
X124781405Y-66750204D01*
X124819615Y-66800000D01*
X124825374Y-66813904D01*
X124830622Y-66821507D01*
X124853388Y-66881537D01*
X124879555Y-66944709D01*
X124880729Y-66953628D01*
X124881851Y-66956586D01*
X124890542Y-67028162D01*
X124900000Y-67100000D01*
X124890541Y-67171843D01*
X124881851Y-67243413D01*
X124880729Y-67246370D01*
X124879555Y-67255291D01*
X124853384Y-67318473D01*
X124830622Y-67378492D01*
X124825375Y-67386093D01*
X124819615Y-67400000D01*
X124781398Y-67449804D01*
X124748555Y-67497387D01*
X124737101Y-67507534D01*
X124724264Y-67524264D01*
X124679096Y-67558922D01*
X124640422Y-67593185D01*
X124621506Y-67603112D01*
X124600000Y-67619615D01*
X124552854Y-67639143D01*
X124512501Y-67660322D01*
X124485885Y-67666882D01*
X124455291Y-67679555D01*
X124410603Y-67685438D01*
X124372234Y-67694896D01*
X124338768Y-67694896D01*
X124300000Y-67700000D01*
X124261232Y-67694896D01*
X124227766Y-67694896D01*
X124189395Y-67685438D01*
X124144709Y-67679555D01*
X124114115Y-67666882D01*
X124087498Y-67660322D01*
X124047140Y-67639141D01*
X124000000Y-67619615D01*
X123978495Y-67603114D01*
X123959577Y-67593185D01*
X123920896Y-67558916D01*
X123875736Y-67524264D01*
X123862900Y-67507537D01*
X123851444Y-67497387D01*
X123818591Y-67449791D01*
X123780385Y-67400000D01*
X123774626Y-67386096D01*
X123769377Y-67378492D01*
X123746603Y-67318444D01*
X123720445Y-67255291D01*
X123719271Y-67246374D01*
X123718148Y-67243413D01*
X123709445Y-67171746D01*
X123700000Y-67100000D01*
X123709445Y-67028259D01*
X123718148Y-66956586D01*
X123719271Y-66953624D01*
X123720445Y-66944709D01*
X123746599Y-66881566D01*
X123769377Y-66821507D01*
X123774627Y-66813900D01*
X123780385Y-66800000D01*
X123818584Y-66750217D01*
X123851444Y-66702612D01*
X123862903Y-66692459D01*
X123875736Y-66675736D01*
X123920887Y-66641089D01*
X123959577Y-66606814D01*
X123978499Y-66596882D01*
X124000000Y-66580385D01*
X124047131Y-66560862D01*
X124087498Y-66539677D01*
X124114120Y-66533115D01*
X124144709Y-66520445D01*
X124189393Y-66514562D01*
X124227766Y-66505104D01*
X124261232Y-66505104D01*
X124300000Y-66500000D01*
X124338768Y-66505104D01*
G37*
G36*
X125738768Y-66505104D02*
G01*
X125772234Y-66505104D01*
X125810606Y-66514561D01*
X125855291Y-66520445D01*
X125885881Y-66533115D01*
X125912501Y-66539677D01*
X125952863Y-66560860D01*
X126000000Y-66580385D01*
X126021502Y-66596884D01*
X126040422Y-66606814D01*
X126079104Y-66641084D01*
X126124264Y-66675736D01*
X126137098Y-66692462D01*
X126148555Y-66702612D01*
X126181405Y-66750204D01*
X126219615Y-66800000D01*
X126225374Y-66813904D01*
X126230622Y-66821507D01*
X126253388Y-66881537D01*
X126279555Y-66944709D01*
X126280729Y-66953628D01*
X126281851Y-66956586D01*
X126290542Y-67028162D01*
X126300000Y-67100000D01*
X126290541Y-67171843D01*
X126281851Y-67243413D01*
X126280729Y-67246370D01*
X126279555Y-67255291D01*
X126253384Y-67318473D01*
X126230622Y-67378492D01*
X126225375Y-67386093D01*
X126219615Y-67400000D01*
X126181398Y-67449804D01*
X126148555Y-67497387D01*
X126137101Y-67507534D01*
X126124264Y-67524264D01*
X126079096Y-67558922D01*
X126040422Y-67593185D01*
X126021506Y-67603112D01*
X126000000Y-67619615D01*
X125952854Y-67639143D01*
X125912501Y-67660322D01*
X125885885Y-67666882D01*
X125855291Y-67679555D01*
X125810603Y-67685438D01*
X125772234Y-67694896D01*
X125738768Y-67694896D01*
X125700000Y-67700000D01*
X125661232Y-67694896D01*
X125627766Y-67694896D01*
X125589395Y-67685438D01*
X125544709Y-67679555D01*
X125514115Y-67666882D01*
X125487498Y-67660322D01*
X125447140Y-67639141D01*
X125400000Y-67619615D01*
X125378495Y-67603114D01*
X125359577Y-67593185D01*
X125320896Y-67558916D01*
X125275736Y-67524264D01*
X125262900Y-67507537D01*
X125251444Y-67497387D01*
X125218591Y-67449791D01*
X125180385Y-67400000D01*
X125174626Y-67386096D01*
X125169377Y-67378492D01*
X125146603Y-67318444D01*
X125120445Y-67255291D01*
X125119271Y-67246374D01*
X125118148Y-67243413D01*
X125109445Y-67171746D01*
X125100000Y-67100000D01*
X125109445Y-67028259D01*
X125118148Y-66956586D01*
X125119271Y-66953624D01*
X125120445Y-66944709D01*
X125146599Y-66881566D01*
X125169377Y-66821507D01*
X125174627Y-66813900D01*
X125180385Y-66800000D01*
X125218584Y-66750217D01*
X125251444Y-66702612D01*
X125262903Y-66692459D01*
X125275736Y-66675736D01*
X125320887Y-66641089D01*
X125359577Y-66606814D01*
X125378499Y-66596882D01*
X125400000Y-66580385D01*
X125447131Y-66560862D01*
X125487498Y-66539677D01*
X125514120Y-66533115D01*
X125544709Y-66520445D01*
X125589393Y-66514562D01*
X125627766Y-66505104D01*
X125661232Y-66505104D01*
X125700000Y-66500000D01*
X125738768Y-66505104D01*
G37*
G36*
X127138768Y-66505104D02*
G01*
X127172234Y-66505104D01*
X127210606Y-66514561D01*
X127255291Y-66520445D01*
X127285881Y-66533115D01*
X127312501Y-66539677D01*
X127352863Y-66560860D01*
X127400000Y-66580385D01*
X127421502Y-66596884D01*
X127440422Y-66606814D01*
X127479104Y-66641084D01*
X127524264Y-66675736D01*
X127537098Y-66692462D01*
X127548555Y-66702612D01*
X127581405Y-66750204D01*
X127619615Y-66800000D01*
X127625374Y-66813904D01*
X127630622Y-66821507D01*
X127653388Y-66881537D01*
X127679555Y-66944709D01*
X127680729Y-66953628D01*
X127681851Y-66956586D01*
X127690542Y-67028162D01*
X127700000Y-67100000D01*
X127690541Y-67171843D01*
X127681851Y-67243413D01*
X127680729Y-67246370D01*
X127679555Y-67255291D01*
X127653384Y-67318473D01*
X127630622Y-67378492D01*
X127625375Y-67386093D01*
X127619615Y-67400000D01*
X127581398Y-67449804D01*
X127548555Y-67497387D01*
X127537101Y-67507534D01*
X127524264Y-67524264D01*
X127479096Y-67558922D01*
X127440422Y-67593185D01*
X127421506Y-67603112D01*
X127400000Y-67619615D01*
X127352854Y-67639143D01*
X127312501Y-67660322D01*
X127285885Y-67666882D01*
X127255291Y-67679555D01*
X127210603Y-67685438D01*
X127172234Y-67694896D01*
X127138768Y-67694896D01*
X127100000Y-67700000D01*
X127061232Y-67694896D01*
X127027766Y-67694896D01*
X126989395Y-67685438D01*
X126944709Y-67679555D01*
X126914115Y-67666882D01*
X126887498Y-67660322D01*
X126847140Y-67639141D01*
X126800000Y-67619615D01*
X126778495Y-67603114D01*
X126759577Y-67593185D01*
X126720896Y-67558916D01*
X126675736Y-67524264D01*
X126662900Y-67507537D01*
X126651444Y-67497387D01*
X126618591Y-67449791D01*
X126580385Y-67400000D01*
X126574626Y-67386096D01*
X126569377Y-67378492D01*
X126546603Y-67318444D01*
X126520445Y-67255291D01*
X126519271Y-67246374D01*
X126518148Y-67243413D01*
X126509445Y-67171746D01*
X126500000Y-67100000D01*
X126509445Y-67028259D01*
X126518148Y-66956586D01*
X126519271Y-66953624D01*
X126520445Y-66944709D01*
X126546599Y-66881566D01*
X126569377Y-66821507D01*
X126574627Y-66813900D01*
X126580385Y-66800000D01*
X126618584Y-66750217D01*
X126651444Y-66702612D01*
X126662903Y-66692459D01*
X126675736Y-66675736D01*
X126720887Y-66641089D01*
X126759577Y-66606814D01*
X126778499Y-66596882D01*
X126800000Y-66580385D01*
X126847131Y-66560862D01*
X126887498Y-66539677D01*
X126914120Y-66533115D01*
X126944709Y-66520445D01*
X126989393Y-66514562D01*
X127027766Y-66505104D01*
X127061232Y-66505104D01*
X127100000Y-66500000D01*
X127138768Y-66505104D01*
G37*
G36*
X128538768Y-66505104D02*
G01*
X128572234Y-66505104D01*
X128610606Y-66514561D01*
X128655291Y-66520445D01*
X128685881Y-66533115D01*
X128712501Y-66539677D01*
X128752863Y-66560860D01*
X128800000Y-66580385D01*
X128821502Y-66596884D01*
X128840422Y-66606814D01*
X128879104Y-66641084D01*
X128924264Y-66675736D01*
X128937098Y-66692462D01*
X128948555Y-66702612D01*
X128981405Y-66750204D01*
X129019615Y-66800000D01*
X129025374Y-66813904D01*
X129030622Y-66821507D01*
X129053388Y-66881537D01*
X129079555Y-66944709D01*
X129080729Y-66953628D01*
X129081851Y-66956586D01*
X129090542Y-67028162D01*
X129100000Y-67100000D01*
X129090541Y-67171843D01*
X129081851Y-67243413D01*
X129080729Y-67246370D01*
X129079555Y-67255291D01*
X129053384Y-67318473D01*
X129030622Y-67378492D01*
X129025375Y-67386093D01*
X129019615Y-67400000D01*
X128981398Y-67449804D01*
X128948555Y-67497387D01*
X128937101Y-67507534D01*
X128924264Y-67524264D01*
X128879096Y-67558922D01*
X128840422Y-67593185D01*
X128821506Y-67603112D01*
X128800000Y-67619615D01*
X128752854Y-67639143D01*
X128712501Y-67660322D01*
X128685885Y-67666882D01*
X128655291Y-67679555D01*
X128610603Y-67685438D01*
X128572234Y-67694896D01*
X128538768Y-67694896D01*
X128500000Y-67700000D01*
X128461232Y-67694896D01*
X128427766Y-67694896D01*
X128389395Y-67685438D01*
X128344709Y-67679555D01*
X128314115Y-67666882D01*
X128287498Y-67660322D01*
X128247140Y-67639141D01*
X128200000Y-67619615D01*
X128178495Y-67603114D01*
X128159577Y-67593185D01*
X128120896Y-67558916D01*
X128075736Y-67524264D01*
X128062900Y-67507537D01*
X128051444Y-67497387D01*
X128018591Y-67449791D01*
X127980385Y-67400000D01*
X127974626Y-67386096D01*
X127969377Y-67378492D01*
X127946603Y-67318444D01*
X127920445Y-67255291D01*
X127919271Y-67246374D01*
X127918148Y-67243413D01*
X127909445Y-67171746D01*
X127900000Y-67100000D01*
X127909445Y-67028259D01*
X127918148Y-66956586D01*
X127919271Y-66953624D01*
X127920445Y-66944709D01*
X127946599Y-66881566D01*
X127969377Y-66821507D01*
X127974627Y-66813900D01*
X127980385Y-66800000D01*
X128018584Y-66750217D01*
X128051444Y-66702612D01*
X128062903Y-66692459D01*
X128075736Y-66675736D01*
X128120887Y-66641089D01*
X128159577Y-66606814D01*
X128178499Y-66596882D01*
X128200000Y-66580385D01*
X128247131Y-66560862D01*
X128287498Y-66539677D01*
X128314120Y-66533115D01*
X128344709Y-66520445D01*
X128389393Y-66514562D01*
X128427766Y-66505104D01*
X128461232Y-66505104D01*
X128500000Y-66500000D01*
X128538768Y-66505104D01*
G37*
G36*
X129938768Y-66505104D02*
G01*
X129972234Y-66505104D01*
X130010606Y-66514561D01*
X130055291Y-66520445D01*
X130085881Y-66533115D01*
X130112501Y-66539677D01*
X130152863Y-66560860D01*
X130200000Y-66580385D01*
X130221502Y-66596884D01*
X130240422Y-66606814D01*
X130279104Y-66641084D01*
X130324264Y-66675736D01*
X130337098Y-66692462D01*
X130348555Y-66702612D01*
X130381405Y-66750204D01*
X130419615Y-66800000D01*
X130425374Y-66813904D01*
X130430622Y-66821507D01*
X130453388Y-66881537D01*
X130479555Y-66944709D01*
X130480729Y-66953628D01*
X130481851Y-66956586D01*
X130490542Y-67028162D01*
X130500000Y-67100000D01*
X130490541Y-67171843D01*
X130481851Y-67243413D01*
X130480729Y-67246370D01*
X130479555Y-67255291D01*
X130453384Y-67318473D01*
X130430622Y-67378492D01*
X130425375Y-67386093D01*
X130419615Y-67400000D01*
X130381398Y-67449804D01*
X130348555Y-67497387D01*
X130337101Y-67507534D01*
X130324264Y-67524264D01*
X130279096Y-67558922D01*
X130240422Y-67593185D01*
X130221506Y-67603112D01*
X130200000Y-67619615D01*
X130152854Y-67639143D01*
X130112501Y-67660322D01*
X130085885Y-67666882D01*
X130055291Y-67679555D01*
X130010603Y-67685438D01*
X129972234Y-67694896D01*
X129938768Y-67694896D01*
X129900000Y-67700000D01*
X129861232Y-67694896D01*
X129827766Y-67694896D01*
X129789395Y-67685438D01*
X129744709Y-67679555D01*
X129714115Y-67666882D01*
X129687498Y-67660322D01*
X129647140Y-67639141D01*
X129600000Y-67619615D01*
X129578495Y-67603114D01*
X129559577Y-67593185D01*
X129520896Y-67558916D01*
X129475736Y-67524264D01*
X129462900Y-67507537D01*
X129451444Y-67497387D01*
X129418591Y-67449791D01*
X129380385Y-67400000D01*
X129374626Y-67386096D01*
X129369377Y-67378492D01*
X129346603Y-67318444D01*
X129320445Y-67255291D01*
X129319271Y-67246374D01*
X129318148Y-67243413D01*
X129309445Y-67171746D01*
X129300000Y-67100000D01*
X129309445Y-67028259D01*
X129318148Y-66956586D01*
X129319271Y-66953624D01*
X129320445Y-66944709D01*
X129346599Y-66881566D01*
X129369377Y-66821507D01*
X129374627Y-66813900D01*
X129380385Y-66800000D01*
X129418584Y-66750217D01*
X129451444Y-66702612D01*
X129462903Y-66692459D01*
X129475736Y-66675736D01*
X129520887Y-66641089D01*
X129559577Y-66606814D01*
X129578499Y-66596882D01*
X129600000Y-66580385D01*
X129647131Y-66560862D01*
X129687498Y-66539677D01*
X129714120Y-66533115D01*
X129744709Y-66520445D01*
X129789393Y-66514562D01*
X129827766Y-66505104D01*
X129861232Y-66505104D01*
X129900000Y-66500000D01*
X129938768Y-66505104D01*
G37*
G36*
X131338768Y-66505104D02*
G01*
X131372234Y-66505104D01*
X131410606Y-66514561D01*
X131455291Y-66520445D01*
X131485881Y-66533115D01*
X131512501Y-66539677D01*
X131552863Y-66560860D01*
X131600000Y-66580385D01*
X131621502Y-66596884D01*
X131640422Y-66606814D01*
X131679104Y-66641084D01*
X131724264Y-66675736D01*
X131737098Y-66692462D01*
X131748555Y-66702612D01*
X131781405Y-66750204D01*
X131819615Y-66800000D01*
X131825374Y-66813904D01*
X131830622Y-66821507D01*
X131853388Y-66881537D01*
X131879555Y-66944709D01*
X131880729Y-66953628D01*
X131881851Y-66956586D01*
X131890542Y-67028162D01*
X131900000Y-67100000D01*
X131890541Y-67171843D01*
X131881851Y-67243413D01*
X131880729Y-67246370D01*
X131879555Y-67255291D01*
X131853384Y-67318473D01*
X131830622Y-67378492D01*
X131825375Y-67386093D01*
X131819615Y-67400000D01*
X131781398Y-67449804D01*
X131748555Y-67497387D01*
X131737101Y-67507534D01*
X131724264Y-67524264D01*
X131679096Y-67558922D01*
X131640422Y-67593185D01*
X131621506Y-67603112D01*
X131600000Y-67619615D01*
X131552854Y-67639143D01*
X131512501Y-67660322D01*
X131485885Y-67666882D01*
X131455291Y-67679555D01*
X131410603Y-67685438D01*
X131372234Y-67694896D01*
X131338768Y-67694896D01*
X131300000Y-67700000D01*
X131261232Y-67694896D01*
X131227766Y-67694896D01*
X131189395Y-67685438D01*
X131144709Y-67679555D01*
X131114115Y-67666882D01*
X131087498Y-67660322D01*
X131047140Y-67639141D01*
X131000000Y-67619615D01*
X130978495Y-67603114D01*
X130959577Y-67593185D01*
X130920896Y-67558916D01*
X130875736Y-67524264D01*
X130862900Y-67507537D01*
X130851444Y-67497387D01*
X130818591Y-67449791D01*
X130780385Y-67400000D01*
X130774626Y-67386096D01*
X130769377Y-67378492D01*
X130746603Y-67318444D01*
X130720445Y-67255291D01*
X130719271Y-67246374D01*
X130718148Y-67243413D01*
X130709445Y-67171746D01*
X130700000Y-67100000D01*
X130709445Y-67028259D01*
X130718148Y-66956586D01*
X130719271Y-66953624D01*
X130720445Y-66944709D01*
X130746599Y-66881566D01*
X130769377Y-66821507D01*
X130774627Y-66813900D01*
X130780385Y-66800000D01*
X130818584Y-66750217D01*
X130851444Y-66702612D01*
X130862903Y-66692459D01*
X130875736Y-66675736D01*
X130920887Y-66641089D01*
X130959577Y-66606814D01*
X130978499Y-66596882D01*
X131000000Y-66580385D01*
X131047131Y-66560862D01*
X131087498Y-66539677D01*
X131114120Y-66533115D01*
X131144709Y-66520445D01*
X131189393Y-66514562D01*
X131227766Y-66505104D01*
X131261232Y-66505104D01*
X131300000Y-66500000D01*
X131338768Y-66505104D01*
G37*
G36*
X132738768Y-66505104D02*
G01*
X132772234Y-66505104D01*
X132810606Y-66514561D01*
X132855291Y-66520445D01*
X132885881Y-66533115D01*
X132912501Y-66539677D01*
X132952863Y-66560860D01*
X133000000Y-66580385D01*
X133021502Y-66596884D01*
X133040422Y-66606814D01*
X133079104Y-66641084D01*
X133124264Y-66675736D01*
X133137098Y-66692462D01*
X133148555Y-66702612D01*
X133181405Y-66750204D01*
X133219615Y-66800000D01*
X133225374Y-66813904D01*
X133230622Y-66821507D01*
X133253388Y-66881537D01*
X133279555Y-66944709D01*
X133280729Y-66953628D01*
X133281851Y-66956586D01*
X133290542Y-67028162D01*
X133300000Y-67100000D01*
X133290541Y-67171843D01*
X133281851Y-67243413D01*
X133280729Y-67246370D01*
X133279555Y-67255291D01*
X133253384Y-67318473D01*
X133230622Y-67378492D01*
X133225375Y-67386093D01*
X133219615Y-67400000D01*
X133181398Y-67449804D01*
X133148555Y-67497387D01*
X133137101Y-67507534D01*
X133124264Y-67524264D01*
X133079096Y-67558922D01*
X133040422Y-67593185D01*
X133021506Y-67603112D01*
X133000000Y-67619615D01*
X132952854Y-67639143D01*
X132912501Y-67660322D01*
X132885885Y-67666882D01*
X132855291Y-67679555D01*
X132810603Y-67685438D01*
X132772234Y-67694896D01*
X132738768Y-67694896D01*
X132700000Y-67700000D01*
X132661232Y-67694896D01*
X132627766Y-67694896D01*
X132589395Y-67685438D01*
X132544709Y-67679555D01*
X132514115Y-67666882D01*
X132487498Y-67660322D01*
X132447140Y-67639141D01*
X132400000Y-67619615D01*
X132378495Y-67603114D01*
X132359577Y-67593185D01*
X132320896Y-67558916D01*
X132275736Y-67524264D01*
X132262900Y-67507537D01*
X132251444Y-67497387D01*
X132218591Y-67449791D01*
X132180385Y-67400000D01*
X132174626Y-67386096D01*
X132169377Y-67378492D01*
X132146603Y-67318444D01*
X132120445Y-67255291D01*
X132119271Y-67246374D01*
X132118148Y-67243413D01*
X132109445Y-67171746D01*
X132100000Y-67100000D01*
X132109445Y-67028259D01*
X132118148Y-66956586D01*
X132119271Y-66953624D01*
X132120445Y-66944709D01*
X132146599Y-66881566D01*
X132169377Y-66821507D01*
X132174627Y-66813900D01*
X132180385Y-66800000D01*
X132218584Y-66750217D01*
X132251444Y-66702612D01*
X132262903Y-66692459D01*
X132275736Y-66675736D01*
X132320887Y-66641089D01*
X132359577Y-66606814D01*
X132378499Y-66596882D01*
X132400000Y-66580385D01*
X132447131Y-66560862D01*
X132487498Y-66539677D01*
X132514120Y-66533115D01*
X132544709Y-66520445D01*
X132589393Y-66514562D01*
X132627766Y-66505104D01*
X132661232Y-66505104D01*
X132700000Y-66500000D01*
X132738768Y-66505104D01*
G37*
G36*
X108900000Y-66850000D02*
G01*
X107700000Y-66850000D01*
X107700000Y-65450000D01*
X108900000Y-65450000D01*
X108900000Y-66850000D01*
G37*
G36*
X110600000Y-66850000D02*
G01*
X109400000Y-66850000D01*
X109400000Y-65450000D01*
X110600000Y-65450000D01*
X110600000Y-66850000D01*
G37*
G36*
X106323576Y-65890657D02*
G01*
X106368995Y-65921005D01*
X106399343Y-65966424D01*
X106410000Y-66020000D01*
X106410000Y-66300000D01*
X106399343Y-66353576D01*
X106368995Y-66398995D01*
X106323576Y-66429343D01*
X106270000Y-66440000D01*
X105930000Y-66440000D01*
X105876424Y-66429343D01*
X105831005Y-66398995D01*
X105800657Y-66353576D01*
X105790000Y-66300000D01*
X105790000Y-66020000D01*
X105800657Y-65966424D01*
X105831005Y-65921005D01*
X105876424Y-65890657D01*
X105930000Y-65880000D01*
X106270000Y-65880000D01*
X106323576Y-65890657D01*
G37*
G36*
X104273576Y-65740657D02*
G01*
X104318995Y-65771005D01*
X104349343Y-65816424D01*
X104360000Y-65870000D01*
X104360000Y-66150000D01*
X104349343Y-66203576D01*
X104318995Y-66248995D01*
X104273576Y-66279343D01*
X104220000Y-66290000D01*
X103880000Y-66290000D01*
X103826424Y-66279343D01*
X103781005Y-66248995D01*
X103750657Y-66203576D01*
X103740000Y-66150000D01*
X103740000Y-65870000D01*
X103750657Y-65816424D01*
X103781005Y-65771005D01*
X103826424Y-65740657D01*
X103880000Y-65730000D01*
X104220000Y-65730000D01*
X104273576Y-65740657D01*
G37*
G36*
X112013576Y-65050657D02*
G01*
X112058995Y-65081005D01*
X112089343Y-65126424D01*
X112100000Y-65180000D01*
X112100000Y-65520000D01*
X112089343Y-65573576D01*
X112058995Y-65618995D01*
X112013576Y-65649343D01*
X111960000Y-65660000D01*
X111680000Y-65660000D01*
X111626424Y-65649343D01*
X111581005Y-65618995D01*
X111550657Y-65573576D01*
X111540000Y-65520000D01*
X111540000Y-65180000D01*
X111550657Y-65126424D01*
X111581005Y-65081005D01*
X111626424Y-65050657D01*
X111680000Y-65040000D01*
X111960000Y-65040000D01*
X112013576Y-65050657D01*
G37*
G36*
X112973576Y-65050657D02*
G01*
X113018995Y-65081005D01*
X113049343Y-65126424D01*
X113060000Y-65180000D01*
X113060000Y-65520000D01*
X113049343Y-65573576D01*
X113018995Y-65618995D01*
X112973576Y-65649343D01*
X112920000Y-65660000D01*
X112640000Y-65660000D01*
X112586424Y-65649343D01*
X112541005Y-65618995D01*
X112510657Y-65573576D01*
X112500000Y-65520000D01*
X112500000Y-65180000D01*
X112510657Y-65126424D01*
X112541005Y-65081005D01*
X112586424Y-65050657D01*
X112640000Y-65040000D01*
X112920000Y-65040000D01*
X112973576Y-65050657D01*
G37*
G36*
X106323576Y-64930657D02*
G01*
X106368995Y-64961005D01*
X106399343Y-65006424D01*
X106410000Y-65060000D01*
X106410000Y-65340000D01*
X106399343Y-65393576D01*
X106368995Y-65438995D01*
X106323576Y-65469343D01*
X106270000Y-65480000D01*
X105930000Y-65480000D01*
X105876424Y-65469343D01*
X105831005Y-65438995D01*
X105800657Y-65393576D01*
X105790000Y-65340000D01*
X105790000Y-65060000D01*
X105800657Y-65006424D01*
X105831005Y-64961005D01*
X105876424Y-64930657D01*
X105930000Y-64920000D01*
X106270000Y-64920000D01*
X106323576Y-64930657D01*
G37*
G36*
X104273576Y-64780657D02*
G01*
X104318995Y-64811005D01*
X104349343Y-64856424D01*
X104360000Y-64910000D01*
X104360000Y-65190000D01*
X104349343Y-65243576D01*
X104318995Y-65288995D01*
X104273576Y-65319343D01*
X104220000Y-65330000D01*
X103880000Y-65330000D01*
X103826424Y-65319343D01*
X103781005Y-65288995D01*
X103750657Y-65243576D01*
X103740000Y-65190000D01*
X103740000Y-64910000D01*
X103750657Y-64856424D01*
X103781005Y-64811005D01*
X103826424Y-64780657D01*
X103880000Y-64770000D01*
X104220000Y-64770000D01*
X104273576Y-64780657D01*
G37*
G36*
X102523576Y-64190657D02*
G01*
X102568995Y-64221005D01*
X102599343Y-64266424D01*
X102610000Y-64320000D01*
X102610000Y-64600000D01*
X102599343Y-64653576D01*
X102568995Y-64698995D01*
X102523576Y-64729343D01*
X102470000Y-64740000D01*
X102130000Y-64740000D01*
X102076424Y-64729343D01*
X102031005Y-64698995D01*
X102000657Y-64653576D01*
X101990000Y-64600000D01*
X101990000Y-64320000D01*
X102000657Y-64266424D01*
X102031005Y-64221005D01*
X102076424Y-64190657D01*
X102130000Y-64180000D01*
X102470000Y-64180000D01*
X102523576Y-64190657D01*
G37*
G36*
X108900000Y-64650000D02*
G01*
X107700000Y-64650000D01*
X107700000Y-63250000D01*
X108900000Y-63250000D01*
X108900000Y-64650000D01*
G37*
G36*
X110600000Y-64650000D02*
G01*
X109400000Y-64650000D01*
X109400000Y-63250000D01*
X110600000Y-63250000D01*
X110600000Y-64650000D01*
G37*
G36*
X112233095Y-63776610D02*
G01*
X112267134Y-63780559D01*
X112278764Y-63785694D01*
X112301537Y-63790224D01*
X112325917Y-63806514D01*
X112337047Y-63811429D01*
X112344649Y-63819031D01*
X112366421Y-63833579D01*
X112380968Y-63855350D01*
X112388570Y-63862952D01*
X112393483Y-63874080D01*
X112409776Y-63898463D01*
X112414306Y-63921238D01*
X112419440Y-63932865D01*
X112423387Y-63966895D01*
X112425000Y-63975000D01*
X112425000Y-64375000D01*
X112423387Y-64383107D01*
X112419440Y-64417134D01*
X112414306Y-64428759D01*
X112409776Y-64451537D01*
X112393482Y-64475921D01*
X112388570Y-64487047D01*
X112380970Y-64494646D01*
X112366421Y-64516421D01*
X112344646Y-64530970D01*
X112337047Y-64538570D01*
X112325921Y-64543482D01*
X112301537Y-64559776D01*
X112278759Y-64564306D01*
X112267134Y-64569440D01*
X112233106Y-64573387D01*
X112225000Y-64575000D01*
X111675000Y-64575000D01*
X111666894Y-64573387D01*
X111632865Y-64569440D01*
X111621238Y-64564306D01*
X111598463Y-64559776D01*
X111574080Y-64543483D01*
X111562952Y-64538570D01*
X111555350Y-64530968D01*
X111533579Y-64516421D01*
X111519031Y-64494649D01*
X111511429Y-64487047D01*
X111506514Y-64475917D01*
X111490224Y-64451537D01*
X111485694Y-64428764D01*
X111480559Y-64417134D01*
X111476610Y-64383094D01*
X111475000Y-64375000D01*
X111475000Y-63975000D01*
X111476609Y-63966906D01*
X111480559Y-63932865D01*
X111485694Y-63921234D01*
X111490224Y-63898463D01*
X111506513Y-63874084D01*
X111511429Y-63862952D01*
X111519033Y-63855347D01*
X111533579Y-63833579D01*
X111555347Y-63819033D01*
X111562952Y-63811429D01*
X111574084Y-63806513D01*
X111598463Y-63790224D01*
X111621234Y-63785694D01*
X111632865Y-63780559D01*
X111666907Y-63776609D01*
X111675000Y-63775000D01*
X112225000Y-63775000D01*
X112233095Y-63776610D01*
G37*
G36*
X116108095Y-63376610D02*
G01*
X116142134Y-63380559D01*
X116153764Y-63385694D01*
X116176537Y-63390224D01*
X116200917Y-63406514D01*
X116212047Y-63411429D01*
X116219649Y-63419031D01*
X116241421Y-63433579D01*
X116255968Y-63455350D01*
X116263570Y-63462952D01*
X116268483Y-63474080D01*
X116284776Y-63498463D01*
X116289306Y-63521238D01*
X116294440Y-63532865D01*
X116298387Y-63566895D01*
X116300000Y-63575000D01*
X116300000Y-64125000D01*
X116298387Y-64133107D01*
X116294440Y-64167134D01*
X116289306Y-64178759D01*
X116284776Y-64201537D01*
X116268482Y-64225921D01*
X116263570Y-64237047D01*
X116255970Y-64244646D01*
X116241421Y-64266421D01*
X116219646Y-64280970D01*
X116212047Y-64288570D01*
X116200921Y-64293482D01*
X116176537Y-64309776D01*
X116153759Y-64314306D01*
X116142134Y-64319440D01*
X116108106Y-64323387D01*
X116100000Y-64325000D01*
X115700000Y-64325000D01*
X115691894Y-64323387D01*
X115657865Y-64319440D01*
X115646238Y-64314306D01*
X115623463Y-64309776D01*
X115599080Y-64293483D01*
X115587952Y-64288570D01*
X115580350Y-64280968D01*
X115558579Y-64266421D01*
X115544031Y-64244649D01*
X115536429Y-64237047D01*
X115531514Y-64225917D01*
X115515224Y-64201537D01*
X115510694Y-64178764D01*
X115505559Y-64167134D01*
X115501610Y-64133094D01*
X115500000Y-64125000D01*
X115500000Y-63575000D01*
X115501609Y-63566906D01*
X115505559Y-63532865D01*
X115510694Y-63521234D01*
X115515224Y-63498463D01*
X115531513Y-63474084D01*
X115536429Y-63462952D01*
X115544033Y-63455347D01*
X115558579Y-63433579D01*
X115580347Y-63419033D01*
X115587952Y-63411429D01*
X115599084Y-63406513D01*
X115623463Y-63390224D01*
X115646234Y-63385694D01*
X115657865Y-63380559D01*
X115691907Y-63376609D01*
X115700000Y-63375000D01*
X116100000Y-63375000D01*
X116108095Y-63376610D01*
G37*
G36*
X117758095Y-63376610D02*
G01*
X117792134Y-63380559D01*
X117803764Y-63385694D01*
X117826537Y-63390224D01*
X117850917Y-63406514D01*
X117862047Y-63411429D01*
X117869649Y-63419031D01*
X117891421Y-63433579D01*
X117905968Y-63455350D01*
X117913570Y-63462952D01*
X117918483Y-63474080D01*
X117934776Y-63498463D01*
X117939306Y-63521238D01*
X117944440Y-63532865D01*
X117948387Y-63566895D01*
X117950000Y-63575000D01*
X117950000Y-64125000D01*
X117948387Y-64133107D01*
X117944440Y-64167134D01*
X117939306Y-64178759D01*
X117934776Y-64201537D01*
X117918482Y-64225921D01*
X117913570Y-64237047D01*
X117905970Y-64244646D01*
X117891421Y-64266421D01*
X117869646Y-64280970D01*
X117862047Y-64288570D01*
X117850921Y-64293482D01*
X117826537Y-64309776D01*
X117803759Y-64314306D01*
X117792134Y-64319440D01*
X117758106Y-64323387D01*
X117750000Y-64325000D01*
X117350000Y-64325000D01*
X117341894Y-64323387D01*
X117307865Y-64319440D01*
X117296238Y-64314306D01*
X117273463Y-64309776D01*
X117249080Y-64293483D01*
X117237952Y-64288570D01*
X117230350Y-64280968D01*
X117208579Y-64266421D01*
X117194031Y-64244649D01*
X117186429Y-64237047D01*
X117181514Y-64225917D01*
X117165224Y-64201537D01*
X117160694Y-64178764D01*
X117155559Y-64167134D01*
X117151610Y-64133094D01*
X117150000Y-64125000D01*
X117150000Y-63575000D01*
X117151609Y-63566906D01*
X117155559Y-63532865D01*
X117160694Y-63521234D01*
X117165224Y-63498463D01*
X117181513Y-63474084D01*
X117186429Y-63462952D01*
X117194033Y-63455347D01*
X117208579Y-63433579D01*
X117230347Y-63419033D01*
X117237952Y-63411429D01*
X117249084Y-63406513D01*
X117273463Y-63390224D01*
X117296234Y-63385694D01*
X117307865Y-63380559D01*
X117341907Y-63376609D01*
X117350000Y-63375000D01*
X117750000Y-63375000D01*
X117758095Y-63376610D01*
G37*
G36*
X104450000Y-63950000D02*
G01*
X103450000Y-63950000D01*
X103450000Y-62150000D01*
X104450000Y-62150000D01*
X104450000Y-63950000D01*
G37*
G36*
X106950000Y-63950000D02*
G01*
X105950000Y-63950000D01*
X105950000Y-62150000D01*
X106950000Y-62150000D01*
X106950000Y-63950000D01*
G37*
G36*
X102523576Y-63230657D02*
G01*
X102568995Y-63261005D01*
X102599343Y-63306424D01*
X102610000Y-63360000D01*
X102610000Y-63640000D01*
X102599343Y-63693576D01*
X102568995Y-63738995D01*
X102523576Y-63769343D01*
X102470000Y-63780000D01*
X102130000Y-63780000D01*
X102076424Y-63769343D01*
X102031005Y-63738995D01*
X102000657Y-63693576D01*
X101990000Y-63640000D01*
X101990000Y-63360000D01*
X102000657Y-63306424D01*
X102031005Y-63261005D01*
X102076424Y-63230657D01*
X102130000Y-63220000D01*
X102470000Y-63220000D01*
X102523576Y-63230657D01*
G37*
G36*
X112233095Y-62126610D02*
G01*
X112267134Y-62130559D01*
X112278764Y-62135694D01*
X112301537Y-62140224D01*
X112325917Y-62156514D01*
X112337047Y-62161429D01*
X112344649Y-62169031D01*
X112366421Y-62183579D01*
X112380968Y-62205350D01*
X112388570Y-62212952D01*
X112393483Y-62224080D01*
X112409776Y-62248463D01*
X112414306Y-62271238D01*
X112419440Y-62282865D01*
X112423387Y-62316895D01*
X112425000Y-62325000D01*
X112425000Y-62725000D01*
X112423387Y-62733107D01*
X112419440Y-62767134D01*
X112414306Y-62778759D01*
X112409776Y-62801537D01*
X112393482Y-62825921D01*
X112388570Y-62837047D01*
X112380970Y-62844646D01*
X112366421Y-62866421D01*
X112344646Y-62880970D01*
X112337047Y-62888570D01*
X112325921Y-62893482D01*
X112301537Y-62909776D01*
X112278759Y-62914306D01*
X112267134Y-62919440D01*
X112233106Y-62923387D01*
X112225000Y-62925000D01*
X111675000Y-62925000D01*
X111666894Y-62923387D01*
X111632865Y-62919440D01*
X111621238Y-62914306D01*
X111598463Y-62909776D01*
X111574080Y-62893483D01*
X111562952Y-62888570D01*
X111555350Y-62880968D01*
X111533579Y-62866421D01*
X111519031Y-62844649D01*
X111511429Y-62837047D01*
X111506514Y-62825917D01*
X111490224Y-62801537D01*
X111485694Y-62778764D01*
X111480559Y-62767134D01*
X111476610Y-62733094D01*
X111475000Y-62725000D01*
X111475000Y-62325000D01*
X111476609Y-62316906D01*
X111480559Y-62282865D01*
X111485694Y-62271234D01*
X111490224Y-62248463D01*
X111506513Y-62224084D01*
X111511429Y-62212952D01*
X111519033Y-62205347D01*
X111533579Y-62183579D01*
X111555347Y-62169033D01*
X111562952Y-62161429D01*
X111574084Y-62156513D01*
X111598463Y-62140224D01*
X111621234Y-62135694D01*
X111632865Y-62130559D01*
X111666907Y-62126609D01*
X111675000Y-62125000D01*
X112225000Y-62125000D01*
X112233095Y-62126610D01*
G37*
G36*
X108363576Y-62000657D02*
G01*
X108408995Y-62031005D01*
X108439343Y-62076424D01*
X108450000Y-62130000D01*
X108450000Y-62470000D01*
X108439343Y-62523576D01*
X108408995Y-62568995D01*
X108363576Y-62599343D01*
X108310000Y-62610000D01*
X108030000Y-62610000D01*
X107976424Y-62599343D01*
X107931005Y-62568995D01*
X107900657Y-62523576D01*
X107890000Y-62470000D01*
X107890000Y-62130000D01*
X107900657Y-62076424D01*
X107931005Y-62031005D01*
X107976424Y-62000657D01*
X108030000Y-61990000D01*
X108310000Y-61990000D01*
X108363576Y-62000657D01*
G37*
G36*
X109323576Y-62000657D02*
G01*
X109368995Y-62031005D01*
X109399343Y-62076424D01*
X109410000Y-62130000D01*
X109410000Y-62470000D01*
X109399343Y-62523576D01*
X109368995Y-62568995D01*
X109323576Y-62599343D01*
X109270000Y-62610000D01*
X108990000Y-62610000D01*
X108936424Y-62599343D01*
X108891005Y-62568995D01*
X108860657Y-62523576D01*
X108850000Y-62470000D01*
X108850000Y-62130000D01*
X108860657Y-62076424D01*
X108891005Y-62031005D01*
X108936424Y-62000657D01*
X108990000Y-61990000D01*
X109270000Y-61990000D01*
X109323576Y-62000657D01*
G37*
G36*
X114193576Y-61550657D02*
G01*
X114238995Y-61581005D01*
X114269343Y-61626424D01*
X114280000Y-61680000D01*
X114280000Y-62020000D01*
X114269343Y-62073576D01*
X114238995Y-62118995D01*
X114193576Y-62149343D01*
X114140000Y-62160000D01*
X113860000Y-62160000D01*
X113806424Y-62149343D01*
X113761005Y-62118995D01*
X113730657Y-62073576D01*
X113720000Y-62020000D01*
X113720000Y-61680000D01*
X113730657Y-61626424D01*
X113761005Y-61581005D01*
X113806424Y-61550657D01*
X113860000Y-61540000D01*
X114140000Y-61540000D01*
X114193576Y-61550657D01*
G37*
G36*
X115153576Y-61550657D02*
G01*
X115198995Y-61581005D01*
X115229343Y-61626424D01*
X115240000Y-61680000D01*
X115240000Y-62020000D01*
X115229343Y-62073576D01*
X115198995Y-62118995D01*
X115153576Y-62149343D01*
X115100000Y-62160000D01*
X114820000Y-62160000D01*
X114766424Y-62149343D01*
X114721005Y-62118995D01*
X114690657Y-62073576D01*
X114680000Y-62020000D01*
X114680000Y-61680000D01*
X114690657Y-61626424D01*
X114721005Y-61581005D01*
X114766424Y-61550657D01*
X114820000Y-61540000D01*
X115100000Y-61540000D01*
X115153576Y-61550657D01*
G37*
G36*
X127636662Y-60460276D02*
G01*
X127680459Y-60489541D01*
X127709724Y-60533338D01*
X127720000Y-60585000D01*
X127720000Y-60855000D01*
X127709724Y-60906662D01*
X127680459Y-60950459D01*
X127636662Y-60979724D01*
X127585000Y-60990000D01*
X127215000Y-60990000D01*
X127163338Y-60979724D01*
X127119541Y-60950459D01*
X127090276Y-60906662D01*
X127080000Y-60855000D01*
X127080000Y-60585000D01*
X127090276Y-60533338D01*
X127119541Y-60489541D01*
X127163338Y-60460276D01*
X127215000Y-60450000D01*
X127585000Y-60450000D01*
X127636662Y-60460276D01*
G37*
G36*
X103862835Y-60052553D02*
G01*
X103905805Y-60058210D01*
X103916613Y-60063250D01*
X103936104Y-60067127D01*
X103961918Y-60084376D01*
X103978170Y-60091954D01*
X103988057Y-60101841D01*
X104009099Y-60115901D01*
X104023158Y-60136942D01*
X104033045Y-60146829D01*
X104040622Y-60163078D01*
X104057873Y-60188896D01*
X104061750Y-60208388D01*
X104066789Y-60219194D01*
X104072444Y-60262151D01*
X104075000Y-60275000D01*
X104075000Y-60725000D01*
X104072443Y-60737850D01*
X104066789Y-60780805D01*
X104061750Y-60791610D01*
X104057873Y-60811104D01*
X104040620Y-60836923D01*
X104033045Y-60853170D01*
X104023160Y-60863054D01*
X104009099Y-60884099D01*
X103988054Y-60898160D01*
X103978170Y-60908045D01*
X103961923Y-60915620D01*
X103936104Y-60932873D01*
X103916610Y-60936750D01*
X103905805Y-60941789D01*
X103862850Y-60947443D01*
X103850000Y-60950000D01*
X103350000Y-60950000D01*
X103337151Y-60947444D01*
X103294194Y-60941789D01*
X103283388Y-60936750D01*
X103263896Y-60932873D01*
X103238078Y-60915622D01*
X103221829Y-60908045D01*
X103211942Y-60898158D01*
X103190901Y-60884099D01*
X103176841Y-60863057D01*
X103166954Y-60853170D01*
X103159376Y-60836918D01*
X103142127Y-60811104D01*
X103138250Y-60791613D01*
X103133210Y-60780805D01*
X103127553Y-60737835D01*
X103125000Y-60725000D01*
X103125000Y-60275000D01*
X103127552Y-60262166D01*
X103133210Y-60219194D01*
X103138250Y-60208384D01*
X103142127Y-60188896D01*
X103159374Y-60163083D01*
X103166954Y-60146829D01*
X103176843Y-60136939D01*
X103190901Y-60115901D01*
X103211939Y-60101843D01*
X103221829Y-60091954D01*
X103238083Y-60084374D01*
X103263896Y-60067127D01*
X103283384Y-60063250D01*
X103294194Y-60058210D01*
X103337166Y-60052552D01*
X103350000Y-60050000D01*
X103850000Y-60050000D01*
X103862835Y-60052553D01*
G37*
G36*
X127636662Y-59440276D02*
G01*
X127680459Y-59469541D01*
X127709724Y-59513338D01*
X127720000Y-59565000D01*
X127720000Y-59835000D01*
X127709724Y-59886662D01*
X127680459Y-59930459D01*
X127636662Y-59959724D01*
X127585000Y-59970000D01*
X127215000Y-59970000D01*
X127163338Y-59959724D01*
X127119541Y-59930459D01*
X127090276Y-59886662D01*
X127080000Y-59835000D01*
X127080000Y-59565000D01*
X127090276Y-59513338D01*
X127119541Y-59469541D01*
X127163338Y-59440276D01*
X127215000Y-59430000D01*
X127585000Y-59430000D01*
X127636662Y-59440276D01*
G37*
G36*
X107253701Y-58355709D02*
G01*
X107278033Y-58371967D01*
X107294291Y-58396299D01*
X107300000Y-58425000D01*
X107300000Y-59825000D01*
X107294291Y-59853701D01*
X107278033Y-59878033D01*
X107253701Y-59894291D01*
X107225000Y-59900000D01*
X107075000Y-59900000D01*
X107046299Y-59894291D01*
X107021967Y-59878033D01*
X107005709Y-59853701D01*
X107000000Y-59825000D01*
X107000000Y-58425000D01*
X107005709Y-58396299D01*
X107021967Y-58371967D01*
X107046299Y-58355709D01*
X107075000Y-58350000D01*
X107225000Y-58350000D01*
X107253701Y-58355709D01*
G37*
G36*
X107753701Y-58355709D02*
G01*
X107778033Y-58371967D01*
X107794291Y-58396299D01*
X107800000Y-58425000D01*
X107800000Y-59825000D01*
X107794291Y-59853701D01*
X107778033Y-59878033D01*
X107753701Y-59894291D01*
X107725000Y-59900000D01*
X107575000Y-59900000D01*
X107546299Y-59894291D01*
X107521967Y-59878033D01*
X107505709Y-59853701D01*
X107500000Y-59825000D01*
X107500000Y-58425000D01*
X107505709Y-58396299D01*
X107521967Y-58371967D01*
X107546299Y-58355709D01*
X107575000Y-58350000D01*
X107725000Y-58350000D01*
X107753701Y-58355709D01*
G37*
G36*
X108253701Y-58355709D02*
G01*
X108278033Y-58371967D01*
X108294291Y-58396299D01*
X108300000Y-58425000D01*
X108300000Y-59825000D01*
X108294291Y-59853701D01*
X108278033Y-59878033D01*
X108253701Y-59894291D01*
X108225000Y-59900000D01*
X108075000Y-59900000D01*
X108046299Y-59894291D01*
X108021967Y-59878033D01*
X108005709Y-59853701D01*
X108000000Y-59825000D01*
X108000000Y-58425000D01*
X108005709Y-58396299D01*
X108021967Y-58371967D01*
X108046299Y-58355709D01*
X108075000Y-58350000D01*
X108225000Y-58350000D01*
X108253701Y-58355709D01*
G37*
G36*
X108753701Y-58355709D02*
G01*
X108778033Y-58371967D01*
X108794291Y-58396299D01*
X108800000Y-58425000D01*
X108800000Y-59825000D01*
X108794291Y-59853701D01*
X108778033Y-59878033D01*
X108753701Y-59894291D01*
X108725000Y-59900000D01*
X108575000Y-59900000D01*
X108546299Y-59894291D01*
X108521967Y-59878033D01*
X108505709Y-59853701D01*
X108500000Y-59825000D01*
X108500000Y-58425000D01*
X108505709Y-58396299D01*
X108521967Y-58371967D01*
X108546299Y-58355709D01*
X108575000Y-58350000D01*
X108725000Y-58350000D01*
X108753701Y-58355709D01*
G37*
G36*
X109253701Y-58355709D02*
G01*
X109278033Y-58371967D01*
X109294291Y-58396299D01*
X109300000Y-58425000D01*
X109300000Y-59825000D01*
X109294291Y-59853701D01*
X109278033Y-59878033D01*
X109253701Y-59894291D01*
X109225000Y-59900000D01*
X109075000Y-59900000D01*
X109046299Y-59894291D01*
X109021967Y-59878033D01*
X109005709Y-59853701D01*
X109000000Y-59825000D01*
X109000000Y-58425000D01*
X109005709Y-58396299D01*
X109021967Y-58371967D01*
X109046299Y-58355709D01*
X109075000Y-58350000D01*
X109225000Y-58350000D01*
X109253701Y-58355709D01*
G37*
G36*
X109753701Y-58355709D02*
G01*
X109778033Y-58371967D01*
X109794291Y-58396299D01*
X109800000Y-58425000D01*
X109800000Y-59825000D01*
X109794291Y-59853701D01*
X109778033Y-59878033D01*
X109753701Y-59894291D01*
X109725000Y-59900000D01*
X109575000Y-59900000D01*
X109546299Y-59894291D01*
X109521967Y-59878033D01*
X109505709Y-59853701D01*
X109500000Y-59825000D01*
X109500000Y-58425000D01*
X109505709Y-58396299D01*
X109521967Y-58371967D01*
X109546299Y-58355709D01*
X109575000Y-58350000D01*
X109725000Y-58350000D01*
X109753701Y-58355709D01*
G37*
G36*
X110253701Y-58355709D02*
G01*
X110278033Y-58371967D01*
X110294291Y-58396299D01*
X110300000Y-58425000D01*
X110300000Y-59825000D01*
X110294291Y-59853701D01*
X110278033Y-59878033D01*
X110253701Y-59894291D01*
X110225000Y-59900000D01*
X110075000Y-59900000D01*
X110046299Y-59894291D01*
X110021967Y-59878033D01*
X110005709Y-59853701D01*
X110000000Y-59825000D01*
X110000000Y-58425000D01*
X110005709Y-58396299D01*
X110021967Y-58371967D01*
X110046299Y-58355709D01*
X110075000Y-58350000D01*
X110225000Y-58350000D01*
X110253701Y-58355709D01*
G37*
G36*
X110753701Y-58355709D02*
G01*
X110778033Y-58371967D01*
X110794291Y-58396299D01*
X110800000Y-58425000D01*
X110800000Y-59825000D01*
X110794291Y-59853701D01*
X110778033Y-59878033D01*
X110753701Y-59894291D01*
X110725000Y-59900000D01*
X110575000Y-59900000D01*
X110546299Y-59894291D01*
X110521967Y-59878033D01*
X110505709Y-59853701D01*
X110500000Y-59825000D01*
X110500000Y-58425000D01*
X110505709Y-58396299D01*
X110521967Y-58371967D01*
X110546299Y-58355709D01*
X110575000Y-58350000D01*
X110725000Y-58350000D01*
X110753701Y-58355709D01*
G37*
G36*
X111253701Y-58355709D02*
G01*
X111278033Y-58371967D01*
X111294291Y-58396299D01*
X111300000Y-58425000D01*
X111300000Y-59825000D01*
X111294291Y-59853701D01*
X111278033Y-59878033D01*
X111253701Y-59894291D01*
X111225000Y-59900000D01*
X111075000Y-59900000D01*
X111046299Y-59894291D01*
X111021967Y-59878033D01*
X111005709Y-59853701D01*
X111000000Y-59825000D01*
X111000000Y-58425000D01*
X111005709Y-58396299D01*
X111021967Y-58371967D01*
X111046299Y-58355709D01*
X111075000Y-58350000D01*
X111225000Y-58350000D01*
X111253701Y-58355709D01*
G37*
G36*
X111753701Y-58355709D02*
G01*
X111778033Y-58371967D01*
X111794291Y-58396299D01*
X111800000Y-58425000D01*
X111800000Y-59825000D01*
X111794291Y-59853701D01*
X111778033Y-59878033D01*
X111753701Y-59894291D01*
X111725000Y-59900000D01*
X111575000Y-59900000D01*
X111546299Y-59894291D01*
X111521967Y-59878033D01*
X111505709Y-59853701D01*
X111500000Y-59825000D01*
X111500000Y-58425000D01*
X111505709Y-58396299D01*
X111521967Y-58371967D01*
X111546299Y-58355709D01*
X111575000Y-58350000D01*
X111725000Y-58350000D01*
X111753701Y-58355709D01*
G37*
G36*
X112253701Y-58355709D02*
G01*
X112278033Y-58371967D01*
X112294291Y-58396299D01*
X112300000Y-58425000D01*
X112300000Y-59825000D01*
X112294291Y-59853701D01*
X112278033Y-59878033D01*
X112253701Y-59894291D01*
X112225000Y-59900000D01*
X112075000Y-59900000D01*
X112046299Y-59894291D01*
X112021967Y-59878033D01*
X112005709Y-59853701D01*
X112000000Y-59825000D01*
X112000000Y-58425000D01*
X112005709Y-58396299D01*
X112021967Y-58371967D01*
X112046299Y-58355709D01*
X112075000Y-58350000D01*
X112225000Y-58350000D01*
X112253701Y-58355709D01*
G37*
G36*
X112753701Y-58355709D02*
G01*
X112778033Y-58371967D01*
X112794291Y-58396299D01*
X112800000Y-58425000D01*
X112800000Y-59825000D01*
X112794291Y-59853701D01*
X112778033Y-59878033D01*
X112753701Y-59894291D01*
X112725000Y-59900000D01*
X112575000Y-59900000D01*
X112546299Y-59894291D01*
X112521967Y-59878033D01*
X112505709Y-59853701D01*
X112500000Y-59825000D01*
X112500000Y-58425000D01*
X112505709Y-58396299D01*
X112521967Y-58371967D01*
X112546299Y-58355709D01*
X112575000Y-58350000D01*
X112725000Y-58350000D01*
X112753701Y-58355709D01*
G37*
G36*
X113253701Y-58355709D02*
G01*
X113278033Y-58371967D01*
X113294291Y-58396299D01*
X113300000Y-58425000D01*
X113300000Y-59825000D01*
X113294291Y-59853701D01*
X113278033Y-59878033D01*
X113253701Y-59894291D01*
X113225000Y-59900000D01*
X113075000Y-59900000D01*
X113046299Y-59894291D01*
X113021967Y-59878033D01*
X113005709Y-59853701D01*
X113000000Y-59825000D01*
X113000000Y-58425000D01*
X113005709Y-58396299D01*
X113021967Y-58371967D01*
X113046299Y-58355709D01*
X113075000Y-58350000D01*
X113225000Y-58350000D01*
X113253701Y-58355709D01*
G37*
G36*
X113753701Y-58355709D02*
G01*
X113778033Y-58371967D01*
X113794291Y-58396299D01*
X113800000Y-58425000D01*
X113800000Y-59825000D01*
X113794291Y-59853701D01*
X113778033Y-59878033D01*
X113753701Y-59894291D01*
X113725000Y-59900000D01*
X113575000Y-59900000D01*
X113546299Y-59894291D01*
X113521967Y-59878033D01*
X113505709Y-59853701D01*
X113500000Y-59825000D01*
X113500000Y-58425000D01*
X113505709Y-58396299D01*
X113521967Y-58371967D01*
X113546299Y-58355709D01*
X113575000Y-58350000D01*
X113725000Y-58350000D01*
X113753701Y-58355709D01*
G37*
G36*
X114253701Y-58355709D02*
G01*
X114278033Y-58371967D01*
X114294291Y-58396299D01*
X114300000Y-58425000D01*
X114300000Y-59825000D01*
X114294291Y-59853701D01*
X114278033Y-59878033D01*
X114253701Y-59894291D01*
X114225000Y-59900000D01*
X114075000Y-59900000D01*
X114046299Y-59894291D01*
X114021967Y-59878033D01*
X114005709Y-59853701D01*
X114000000Y-59825000D01*
X114000000Y-58425000D01*
X114005709Y-58396299D01*
X114021967Y-58371967D01*
X114046299Y-58355709D01*
X114075000Y-58350000D01*
X114225000Y-58350000D01*
X114253701Y-58355709D01*
G37*
G36*
X114753701Y-58355709D02*
G01*
X114778033Y-58371967D01*
X114794291Y-58396299D01*
X114800000Y-58425000D01*
X114800000Y-59825000D01*
X114794291Y-59853701D01*
X114778033Y-59878033D01*
X114753701Y-59894291D01*
X114725000Y-59900000D01*
X114575000Y-59900000D01*
X114546299Y-59894291D01*
X114521967Y-59878033D01*
X114505709Y-59853701D01*
X114500000Y-59825000D01*
X114500000Y-58425000D01*
X114505709Y-58396299D01*
X114521967Y-58371967D01*
X114546299Y-58355709D01*
X114575000Y-58350000D01*
X114725000Y-58350000D01*
X114753701Y-58355709D01*
G37*
G36*
X103862835Y-58502553D02*
G01*
X103905805Y-58508210D01*
X103916613Y-58513250D01*
X103936104Y-58517127D01*
X103961918Y-58534376D01*
X103978170Y-58541954D01*
X103988057Y-58551841D01*
X104009099Y-58565901D01*
X104023158Y-58586942D01*
X104033045Y-58596829D01*
X104040622Y-58613078D01*
X104057873Y-58638896D01*
X104061750Y-58658388D01*
X104066789Y-58669194D01*
X104072444Y-58712151D01*
X104075000Y-58725000D01*
X104075000Y-59175000D01*
X104072443Y-59187850D01*
X104066789Y-59230805D01*
X104061750Y-59241610D01*
X104057873Y-59261104D01*
X104040620Y-59286923D01*
X104033045Y-59303170D01*
X104023160Y-59313054D01*
X104009099Y-59334099D01*
X103988054Y-59348160D01*
X103978170Y-59358045D01*
X103961923Y-59365620D01*
X103936104Y-59382873D01*
X103916610Y-59386750D01*
X103905805Y-59391789D01*
X103862850Y-59397443D01*
X103850000Y-59400000D01*
X103350000Y-59400000D01*
X103337151Y-59397444D01*
X103294194Y-59391789D01*
X103283388Y-59386750D01*
X103263896Y-59382873D01*
X103238078Y-59365622D01*
X103221829Y-59358045D01*
X103211942Y-59348158D01*
X103190901Y-59334099D01*
X103176841Y-59313057D01*
X103166954Y-59303170D01*
X103159376Y-59286918D01*
X103142127Y-59261104D01*
X103138250Y-59241613D01*
X103133210Y-59230805D01*
X103127553Y-59187835D01*
X103125000Y-59175000D01*
X103125000Y-58725000D01*
X103127552Y-58712166D01*
X103133210Y-58669194D01*
X103138250Y-58658384D01*
X103142127Y-58638896D01*
X103159374Y-58613083D01*
X103166954Y-58596829D01*
X103176843Y-58586939D01*
X103190901Y-58565901D01*
X103211939Y-58551843D01*
X103221829Y-58541954D01*
X103238083Y-58534374D01*
X103263896Y-58517127D01*
X103283384Y-58513250D01*
X103294194Y-58508210D01*
X103337166Y-58502552D01*
X103350000Y-58500000D01*
X103850000Y-58500000D01*
X103862835Y-58502553D01*
G37*
G36*
X129086662Y-58490276D02*
G01*
X129130459Y-58519541D01*
X129159724Y-58563338D01*
X129170000Y-58615000D01*
X129170000Y-58885000D01*
X129159724Y-58936662D01*
X129130459Y-58980459D01*
X129086662Y-59009724D01*
X129035000Y-59020000D01*
X128665000Y-59020000D01*
X128613338Y-59009724D01*
X128569541Y-58980459D01*
X128540276Y-58936662D01*
X128530000Y-58885000D01*
X128530000Y-58615000D01*
X128540276Y-58563338D01*
X128569541Y-58519541D01*
X128613338Y-58490276D01*
X128665000Y-58480000D01*
X129035000Y-58480000D01*
X129086662Y-58490276D01*
G37*
G36*
X129086662Y-57470276D02*
G01*
X129130459Y-57499541D01*
X129159724Y-57543338D01*
X129170000Y-57595000D01*
X129170000Y-57865000D01*
X129159724Y-57916662D01*
X129130459Y-57960459D01*
X129086662Y-57989724D01*
X129035000Y-58000000D01*
X128665000Y-58000000D01*
X128613338Y-57989724D01*
X128569541Y-57960459D01*
X128540276Y-57916662D01*
X128530000Y-57865000D01*
X128530000Y-57595000D01*
X128540276Y-57543338D01*
X128569541Y-57499541D01*
X128613338Y-57470276D01*
X128665000Y-57460000D01*
X129035000Y-57460000D01*
X129086662Y-57470276D01*
G37*
G36*
X119373576Y-57230657D02*
G01*
X119418995Y-57261005D01*
X119449343Y-57306424D01*
X119460000Y-57360000D01*
X119460000Y-57640000D01*
X119449343Y-57693576D01*
X119418995Y-57738995D01*
X119373576Y-57769343D01*
X119320000Y-57780000D01*
X118980000Y-57780000D01*
X118926424Y-57769343D01*
X118881005Y-57738995D01*
X118850657Y-57693576D01*
X118840000Y-57640000D01*
X118840000Y-57360000D01*
X118850657Y-57306424D01*
X118881005Y-57261005D01*
X118926424Y-57230657D01*
X118980000Y-57220000D01*
X119320000Y-57220000D01*
X119373576Y-57230657D01*
G37*
G36*
X131407403Y-56198918D02*
G01*
X131456066Y-56231434D01*
X131488582Y-56280097D01*
X131500000Y-56337500D01*
X131500000Y-57362500D01*
X131488582Y-57419903D01*
X131456066Y-57468566D01*
X131407403Y-57501082D01*
X131350000Y-57512500D01*
X131050000Y-57512500D01*
X130992597Y-57501082D01*
X130943934Y-57468566D01*
X130911418Y-57419903D01*
X130900000Y-57362500D01*
X130900000Y-56337500D01*
X130911418Y-56280097D01*
X130943934Y-56231434D01*
X130992597Y-56198918D01*
X131050000Y-56187500D01*
X131350000Y-56187500D01*
X131407403Y-56198918D01*
G37*
G36*
X133307403Y-56198918D02*
G01*
X133356066Y-56231434D01*
X133388582Y-56280097D01*
X133400000Y-56337500D01*
X133400000Y-57362500D01*
X133388582Y-57419903D01*
X133356066Y-57468566D01*
X133307403Y-57501082D01*
X133250000Y-57512500D01*
X132950000Y-57512500D01*
X132892597Y-57501082D01*
X132843934Y-57468566D01*
X132811418Y-57419903D01*
X132800000Y-57362500D01*
X132800000Y-56337500D01*
X132811418Y-56280097D01*
X132843934Y-56231434D01*
X132892597Y-56198918D01*
X132950000Y-56187500D01*
X133250000Y-56187500D01*
X133307403Y-56198918D01*
G37*
G36*
X105953701Y-57055709D02*
G01*
X105978033Y-57071967D01*
X105994291Y-57096299D01*
X106000000Y-57125000D01*
X106000000Y-57275000D01*
X105994291Y-57303701D01*
X105978033Y-57328033D01*
X105953701Y-57344291D01*
X105925000Y-57350000D01*
X104525000Y-57350000D01*
X104496299Y-57344291D01*
X104471967Y-57328033D01*
X104455709Y-57303701D01*
X104450000Y-57275000D01*
X104450000Y-57125000D01*
X104455709Y-57096299D01*
X104471967Y-57071967D01*
X104496299Y-57055709D01*
X104525000Y-57050000D01*
X105925000Y-57050000D01*
X105953701Y-57055709D01*
G37*
G36*
X117303701Y-57055709D02*
G01*
X117328033Y-57071967D01*
X117344291Y-57096299D01*
X117350000Y-57125000D01*
X117350000Y-57275000D01*
X117344291Y-57303701D01*
X117328033Y-57328033D01*
X117303701Y-57344291D01*
X117275000Y-57350000D01*
X115875000Y-57350000D01*
X115846299Y-57344291D01*
X115821967Y-57328033D01*
X115805709Y-57303701D01*
X115800000Y-57275000D01*
X115800000Y-57125000D01*
X115805709Y-57096299D01*
X115821967Y-57071967D01*
X115846299Y-57055709D01*
X115875000Y-57050000D01*
X117275000Y-57050000D01*
X117303701Y-57055709D01*
G37*
G36*
X135112835Y-56302553D02*
G01*
X135155805Y-56308210D01*
X135166613Y-56313250D01*
X135186104Y-56317127D01*
X135211918Y-56334376D01*
X135228170Y-56341954D01*
X135238057Y-56351841D01*
X135259099Y-56365901D01*
X135273158Y-56386942D01*
X135283045Y-56396829D01*
X135290622Y-56413078D01*
X135307873Y-56438896D01*
X135311750Y-56458388D01*
X135316789Y-56469194D01*
X135322444Y-56512151D01*
X135325000Y-56525000D01*
X135325000Y-56975000D01*
X135322443Y-56987850D01*
X135316789Y-57030805D01*
X135311750Y-57041610D01*
X135307873Y-57061104D01*
X135290620Y-57086923D01*
X135283045Y-57103170D01*
X135273160Y-57113054D01*
X135259099Y-57134099D01*
X135238054Y-57148160D01*
X135228170Y-57158045D01*
X135211923Y-57165620D01*
X135186104Y-57182873D01*
X135166610Y-57186750D01*
X135155805Y-57191789D01*
X135112850Y-57197443D01*
X135100000Y-57200000D01*
X134600000Y-57200000D01*
X134587151Y-57197444D01*
X134544194Y-57191789D01*
X134533388Y-57186750D01*
X134513896Y-57182873D01*
X134488078Y-57165622D01*
X134471829Y-57158045D01*
X134461942Y-57148158D01*
X134440901Y-57134099D01*
X134426841Y-57113057D01*
X134416954Y-57103170D01*
X134409376Y-57086918D01*
X134392127Y-57061104D01*
X134388250Y-57041613D01*
X134383210Y-57030805D01*
X134377553Y-56987835D01*
X134375000Y-56975000D01*
X134375000Y-56525000D01*
X134377552Y-56512166D01*
X134383210Y-56469194D01*
X134388250Y-56458384D01*
X134392127Y-56438896D01*
X134409374Y-56413083D01*
X134416954Y-56396829D01*
X134426843Y-56386939D01*
X134440901Y-56365901D01*
X134461939Y-56351843D01*
X134471829Y-56341954D01*
X134488083Y-56334374D01*
X134513896Y-56317127D01*
X134533384Y-56313250D01*
X134544194Y-56308210D01*
X134587166Y-56302552D01*
X134600000Y-56300000D01*
X135100000Y-56300000D01*
X135112835Y-56302553D01*
G37*
G36*
X103323576Y-56440657D02*
G01*
X103368995Y-56471005D01*
X103399343Y-56516424D01*
X103410000Y-56570000D01*
X103410000Y-56850000D01*
X103399343Y-56903576D01*
X103368995Y-56948995D01*
X103323576Y-56979343D01*
X103270000Y-56990000D01*
X102930000Y-56990000D01*
X102876424Y-56979343D01*
X102831005Y-56948995D01*
X102800657Y-56903576D01*
X102790000Y-56850000D01*
X102790000Y-56570000D01*
X102800657Y-56516424D01*
X102831005Y-56471005D01*
X102876424Y-56440657D01*
X102930000Y-56430000D01*
X103270000Y-56430000D01*
X103323576Y-56440657D01*
G37*
G36*
X105953701Y-56555709D02*
G01*
X105978033Y-56571967D01*
X105994291Y-56596299D01*
X106000000Y-56625000D01*
X106000000Y-56775000D01*
X105994291Y-56803701D01*
X105978033Y-56828033D01*
X105953701Y-56844291D01*
X105925000Y-56850000D01*
X104525000Y-56850000D01*
X104496299Y-56844291D01*
X104471967Y-56828033D01*
X104455709Y-56803701D01*
X104450000Y-56775000D01*
X104450000Y-56625000D01*
X104455709Y-56596299D01*
X104471967Y-56571967D01*
X104496299Y-56555709D01*
X104525000Y-56550000D01*
X105925000Y-56550000D01*
X105953701Y-56555709D01*
G37*
G36*
X117303701Y-56555709D02*
G01*
X117328033Y-56571967D01*
X117344291Y-56596299D01*
X117350000Y-56625000D01*
X117350000Y-56775000D01*
X117344291Y-56803701D01*
X117328033Y-56828033D01*
X117303701Y-56844291D01*
X117275000Y-56850000D01*
X115875000Y-56850000D01*
X115846299Y-56844291D01*
X115821967Y-56828033D01*
X115805709Y-56803701D01*
X115800000Y-56775000D01*
X115800000Y-56625000D01*
X115805709Y-56596299D01*
X115821967Y-56571967D01*
X115846299Y-56555709D01*
X115875000Y-56550000D01*
X117275000Y-56550000D01*
X117303701Y-56555709D01*
G37*
G36*
X119373576Y-56270657D02*
G01*
X119418995Y-56301005D01*
X119449343Y-56346424D01*
X119460000Y-56400000D01*
X119460000Y-56680000D01*
X119449343Y-56733576D01*
X119418995Y-56778995D01*
X119373576Y-56809343D01*
X119320000Y-56820000D01*
X118980000Y-56820000D01*
X118926424Y-56809343D01*
X118881005Y-56778995D01*
X118850657Y-56733576D01*
X118840000Y-56680000D01*
X118840000Y-56400000D01*
X118850657Y-56346424D01*
X118881005Y-56301005D01*
X118926424Y-56270657D01*
X118980000Y-56260000D01*
X119320000Y-56260000D01*
X119373576Y-56270657D01*
G37*
G36*
X105953701Y-56055709D02*
G01*
X105978033Y-56071967D01*
X105994291Y-56096299D01*
X106000000Y-56125000D01*
X106000000Y-56275000D01*
X105994291Y-56303701D01*
X105978033Y-56328033D01*
X105953701Y-56344291D01*
X105925000Y-56350000D01*
X104525000Y-56350000D01*
X104496299Y-56344291D01*
X104471967Y-56328033D01*
X104455709Y-56303701D01*
X104450000Y-56275000D01*
X104450000Y-56125000D01*
X104455709Y-56096299D01*
X104471967Y-56071967D01*
X104496299Y-56055709D01*
X104525000Y-56050000D01*
X105925000Y-56050000D01*
X105953701Y-56055709D01*
G37*
G36*
X117303701Y-56055709D02*
G01*
X117328033Y-56071967D01*
X117344291Y-56096299D01*
X117350000Y-56125000D01*
X117350000Y-56275000D01*
X117344291Y-56303701D01*
X117328033Y-56328033D01*
X117303701Y-56344291D01*
X117275000Y-56350000D01*
X115875000Y-56350000D01*
X115846299Y-56344291D01*
X115821967Y-56328033D01*
X115805709Y-56303701D01*
X115800000Y-56275000D01*
X115800000Y-56125000D01*
X115805709Y-56096299D01*
X115821967Y-56071967D01*
X115846299Y-56055709D01*
X115875000Y-56050000D01*
X117275000Y-56050000D01*
X117303701Y-56055709D01*
G37*
G36*
X103323576Y-55480657D02*
G01*
X103368995Y-55511005D01*
X103399343Y-55556424D01*
X103410000Y-55610000D01*
X103410000Y-55890000D01*
X103399343Y-55943576D01*
X103368995Y-55988995D01*
X103323576Y-56019343D01*
X103270000Y-56030000D01*
X102930000Y-56030000D01*
X102876424Y-56019343D01*
X102831005Y-55988995D01*
X102800657Y-55943576D01*
X102790000Y-55890000D01*
X102790000Y-55610000D01*
X102800657Y-55556424D01*
X102831005Y-55511005D01*
X102876424Y-55480657D01*
X102930000Y-55470000D01*
X103270000Y-55470000D01*
X103323576Y-55480657D01*
G37*
G36*
X105953701Y-55555709D02*
G01*
X105978033Y-55571967D01*
X105994291Y-55596299D01*
X106000000Y-55625000D01*
X106000000Y-55775000D01*
X105994291Y-55803701D01*
X105978033Y-55828033D01*
X105953701Y-55844291D01*
X105925000Y-55850000D01*
X104525000Y-55850000D01*
X104496299Y-55844291D01*
X104471967Y-55828033D01*
X104455709Y-55803701D01*
X104450000Y-55775000D01*
X104450000Y-55625000D01*
X104455709Y-55596299D01*
X104471967Y-55571967D01*
X104496299Y-55555709D01*
X104525000Y-55550000D01*
X105925000Y-55550000D01*
X105953701Y-55555709D01*
G37*
G36*
X117303701Y-55555709D02*
G01*
X117328033Y-55571967D01*
X117344291Y-55596299D01*
X117350000Y-55625000D01*
X117350000Y-55775000D01*
X117344291Y-55803701D01*
X117328033Y-55828033D01*
X117303701Y-55844291D01*
X117275000Y-55850000D01*
X115875000Y-55850000D01*
X115846299Y-55844291D01*
X115821967Y-55828033D01*
X115805709Y-55803701D01*
X115800000Y-55775000D01*
X115800000Y-55625000D01*
X115805709Y-55596299D01*
X115821967Y-55571967D01*
X115846299Y-55555709D01*
X115875000Y-55550000D01*
X117275000Y-55550000D01*
X117303701Y-55555709D01*
G37*
G36*
X135112835Y-54752553D02*
G01*
X135155805Y-54758210D01*
X135166613Y-54763250D01*
X135186104Y-54767127D01*
X135211918Y-54784376D01*
X135228170Y-54791954D01*
X135238057Y-54801841D01*
X135259099Y-54815901D01*
X135273158Y-54836942D01*
X135283045Y-54846829D01*
X135290622Y-54863078D01*
X135307873Y-54888896D01*
X135311750Y-54908388D01*
X135316789Y-54919194D01*
X135322444Y-54962151D01*
X135325000Y-54975000D01*
X135325000Y-55425000D01*
X135322443Y-55437850D01*
X135316789Y-55480805D01*
X135311750Y-55491610D01*
X135307873Y-55511104D01*
X135290620Y-55536923D01*
X135283045Y-55553170D01*
X135273160Y-55563054D01*
X135259099Y-55584099D01*
X135238054Y-55598160D01*
X135228170Y-55608045D01*
X135211923Y-55615620D01*
X135186104Y-55632873D01*
X135166610Y-55636750D01*
X135155805Y-55641789D01*
X135112850Y-55647443D01*
X135100000Y-55650000D01*
X134600000Y-55650000D01*
X134587151Y-55647444D01*
X134544194Y-55641789D01*
X134533388Y-55636750D01*
X134513896Y-55632873D01*
X134488078Y-55615622D01*
X134471829Y-55608045D01*
X134461942Y-55598158D01*
X134440901Y-55584099D01*
X134426841Y-55563057D01*
X134416954Y-55553170D01*
X134409376Y-55536918D01*
X134392127Y-55511104D01*
X134388250Y-55491613D01*
X134383210Y-55480805D01*
X134377553Y-55437835D01*
X134375000Y-55425000D01*
X134375000Y-54975000D01*
X134377552Y-54962166D01*
X134383210Y-54919194D01*
X134388250Y-54908384D01*
X134392127Y-54888896D01*
X134409374Y-54863083D01*
X134416954Y-54846829D01*
X134426843Y-54836939D01*
X134440901Y-54815901D01*
X134461939Y-54801843D01*
X134471829Y-54791954D01*
X134488083Y-54784374D01*
X134513896Y-54767127D01*
X134533384Y-54763250D01*
X134544194Y-54758210D01*
X134587166Y-54752552D01*
X134600000Y-54750000D01*
X135100000Y-54750000D01*
X135112835Y-54752553D01*
G37*
G36*
X105953701Y-55055709D02*
G01*
X105978033Y-55071967D01*
X105994291Y-55096299D01*
X106000000Y-55125000D01*
X106000000Y-55275000D01*
X105994291Y-55303701D01*
X105978033Y-55328033D01*
X105953701Y-55344291D01*
X105925000Y-55350000D01*
X104525000Y-55350000D01*
X104496299Y-55344291D01*
X104471967Y-55328033D01*
X104455709Y-55303701D01*
X104450000Y-55275000D01*
X104450000Y-55125000D01*
X104455709Y-55096299D01*
X104471967Y-55071967D01*
X104496299Y-55055709D01*
X104525000Y-55050000D01*
X105925000Y-55050000D01*
X105953701Y-55055709D01*
G37*
G36*
X117303701Y-55055709D02*
G01*
X117328033Y-55071967D01*
X117344291Y-55096299D01*
X117350000Y-55125000D01*
X117350000Y-55275000D01*
X117344291Y-55303701D01*
X117328033Y-55328033D01*
X117303701Y-55344291D01*
X117275000Y-55350000D01*
X115875000Y-55350000D01*
X115846299Y-55344291D01*
X115821967Y-55328033D01*
X115805709Y-55303701D01*
X115800000Y-55275000D01*
X115800000Y-55125000D01*
X115805709Y-55096299D01*
X115821967Y-55071967D01*
X115846299Y-55055709D01*
X115875000Y-55050000D01*
X117275000Y-55050000D01*
X117303701Y-55055709D01*
G37*
G36*
X131407403Y-53923918D02*
G01*
X131456066Y-53956434D01*
X131488582Y-54005097D01*
X131500000Y-54062500D01*
X131500000Y-55087500D01*
X131488582Y-55144903D01*
X131456066Y-55193566D01*
X131407403Y-55226082D01*
X131350000Y-55237500D01*
X131050000Y-55237500D01*
X130992597Y-55226082D01*
X130943934Y-55193566D01*
X130911418Y-55144903D01*
X130900000Y-55087500D01*
X130900000Y-54062500D01*
X130911418Y-54005097D01*
X130943934Y-53956434D01*
X130992597Y-53923918D01*
X131050000Y-53912500D01*
X131350000Y-53912500D01*
X131407403Y-53923918D01*
G37*
G36*
X132357403Y-53923918D02*
G01*
X132406066Y-53956434D01*
X132438582Y-54005097D01*
X132450000Y-54062500D01*
X132450000Y-55087500D01*
X132438582Y-55144903D01*
X132406066Y-55193566D01*
X132357403Y-55226082D01*
X132300000Y-55237500D01*
X132000000Y-55237500D01*
X131942597Y-55226082D01*
X131893934Y-55193566D01*
X131861418Y-55144903D01*
X131850000Y-55087500D01*
X131850000Y-54062500D01*
X131861418Y-54005097D01*
X131893934Y-53956434D01*
X131942597Y-53923918D01*
X132000000Y-53912500D01*
X132300000Y-53912500D01*
X132357403Y-53923918D01*
G37*
G36*
X133307403Y-53923918D02*
G01*
X133356066Y-53956434D01*
X133388582Y-54005097D01*
X133400000Y-54062500D01*
X133400000Y-55087500D01*
X133388582Y-55144903D01*
X133356066Y-55193566D01*
X133307403Y-55226082D01*
X133250000Y-55237500D01*
X132950000Y-55237500D01*
X132892597Y-55226082D01*
X132843934Y-55193566D01*
X132811418Y-55144903D01*
X132800000Y-55087500D01*
X132800000Y-54062500D01*
X132811418Y-54005097D01*
X132843934Y-53956434D01*
X132892597Y-53923918D01*
X132950000Y-53912500D01*
X133250000Y-53912500D01*
X133307403Y-53923918D01*
G37*
G36*
X99658095Y-54026610D02*
G01*
X99692134Y-54030559D01*
X99703764Y-54035694D01*
X99726537Y-54040224D01*
X99750917Y-54056514D01*
X99762047Y-54061429D01*
X99769649Y-54069031D01*
X99791421Y-54083579D01*
X99805968Y-54105350D01*
X99813570Y-54112952D01*
X99818483Y-54124080D01*
X99834776Y-54148463D01*
X99839306Y-54171238D01*
X99844440Y-54182865D01*
X99848387Y-54216895D01*
X99850000Y-54225000D01*
X99850000Y-54775000D01*
X99848387Y-54783107D01*
X99844440Y-54817134D01*
X99839306Y-54828759D01*
X99834776Y-54851537D01*
X99818482Y-54875921D01*
X99813570Y-54887047D01*
X99805970Y-54894646D01*
X99791421Y-54916421D01*
X99769646Y-54930970D01*
X99762047Y-54938570D01*
X99750921Y-54943482D01*
X99726537Y-54959776D01*
X99703759Y-54964306D01*
X99692134Y-54969440D01*
X99658106Y-54973387D01*
X99650000Y-54975000D01*
X99250000Y-54975000D01*
X99241894Y-54973387D01*
X99207865Y-54969440D01*
X99196238Y-54964306D01*
X99173463Y-54959776D01*
X99149080Y-54943483D01*
X99137952Y-54938570D01*
X99130350Y-54930968D01*
X99108579Y-54916421D01*
X99094031Y-54894649D01*
X99086429Y-54887047D01*
X99081514Y-54875917D01*
X99065224Y-54851537D01*
X99060694Y-54828764D01*
X99055559Y-54817134D01*
X99051610Y-54783094D01*
X99050000Y-54775000D01*
X99050000Y-54225000D01*
X99051609Y-54216906D01*
X99055559Y-54182865D01*
X99060694Y-54171234D01*
X99065224Y-54148463D01*
X99081513Y-54124084D01*
X99086429Y-54112952D01*
X99094033Y-54105347D01*
X99108579Y-54083579D01*
X99130347Y-54069033D01*
X99137952Y-54061429D01*
X99149084Y-54056513D01*
X99173463Y-54040224D01*
X99196234Y-54035694D01*
X99207865Y-54030559D01*
X99241907Y-54026609D01*
X99250000Y-54025000D01*
X99650000Y-54025000D01*
X99658095Y-54026610D01*
G37*
G36*
X101308095Y-54026610D02*
G01*
X101342134Y-54030559D01*
X101353764Y-54035694D01*
X101376537Y-54040224D01*
X101400917Y-54056514D01*
X101412047Y-54061429D01*
X101419649Y-54069031D01*
X101441421Y-54083579D01*
X101455968Y-54105350D01*
X101463570Y-54112952D01*
X101468483Y-54124080D01*
X101484776Y-54148463D01*
X101489306Y-54171238D01*
X101494440Y-54182865D01*
X101498387Y-54216895D01*
X101500000Y-54225000D01*
X101500000Y-54775000D01*
X101498387Y-54783107D01*
X101494440Y-54817134D01*
X101489306Y-54828759D01*
X101484776Y-54851537D01*
X101468482Y-54875921D01*
X101463570Y-54887047D01*
X101455970Y-54894646D01*
X101441421Y-54916421D01*
X101419646Y-54930970D01*
X101412047Y-54938570D01*
X101400921Y-54943482D01*
X101376537Y-54959776D01*
X101353759Y-54964306D01*
X101342134Y-54969440D01*
X101308106Y-54973387D01*
X101300000Y-54975000D01*
X100900000Y-54975000D01*
X100891894Y-54973387D01*
X100857865Y-54969440D01*
X100846238Y-54964306D01*
X100823463Y-54959776D01*
X100799080Y-54943483D01*
X100787952Y-54938570D01*
X100780350Y-54930968D01*
X100758579Y-54916421D01*
X100744031Y-54894649D01*
X100736429Y-54887047D01*
X100731514Y-54875917D01*
X100715224Y-54851537D01*
X100710694Y-54828764D01*
X100705559Y-54817134D01*
X100701610Y-54783094D01*
X100700000Y-54775000D01*
X100700000Y-54225000D01*
X100701609Y-54216906D01*
X100705559Y-54182865D01*
X100710694Y-54171234D01*
X100715224Y-54148463D01*
X100731513Y-54124084D01*
X100736429Y-54112952D01*
X100744033Y-54105347D01*
X100758579Y-54083579D01*
X100780347Y-54069033D01*
X100787952Y-54061429D01*
X100799084Y-54056513D01*
X100823463Y-54040224D01*
X100846234Y-54035694D01*
X100857865Y-54030559D01*
X100891907Y-54026609D01*
X100900000Y-54025000D01*
X101300000Y-54025000D01*
X101308095Y-54026610D01*
G37*
G36*
X105953701Y-54555709D02*
G01*
X105978033Y-54571967D01*
X105994291Y-54596299D01*
X106000000Y-54625000D01*
X106000000Y-54775000D01*
X105994291Y-54803701D01*
X105978033Y-54828033D01*
X105953701Y-54844291D01*
X105925000Y-54850000D01*
X104525000Y-54850000D01*
X104496299Y-54844291D01*
X104471967Y-54828033D01*
X104455709Y-54803701D01*
X104450000Y-54775000D01*
X104450000Y-54625000D01*
X104455709Y-54596299D01*
X104471967Y-54571967D01*
X104496299Y-54555709D01*
X104525000Y-54550000D01*
X105925000Y-54550000D01*
X105953701Y-54555709D01*
G37*
G36*
X117303701Y-54555709D02*
G01*
X117328033Y-54571967D01*
X117344291Y-54596299D01*
X117350000Y-54625000D01*
X117350000Y-54775000D01*
X117344291Y-54803701D01*
X117328033Y-54828033D01*
X117303701Y-54844291D01*
X117275000Y-54850000D01*
X115875000Y-54850000D01*
X115846299Y-54844291D01*
X115821967Y-54828033D01*
X115805709Y-54803701D01*
X115800000Y-54775000D01*
X115800000Y-54625000D01*
X115805709Y-54596299D01*
X115821967Y-54571967D01*
X115846299Y-54555709D01*
X115875000Y-54550000D01*
X117275000Y-54550000D01*
X117303701Y-54555709D01*
G37*
G36*
X105953701Y-54055709D02*
G01*
X105978033Y-54071967D01*
X105994291Y-54096299D01*
X106000000Y-54125000D01*
X106000000Y-54275000D01*
X105994291Y-54303701D01*
X105978033Y-54328033D01*
X105953701Y-54344291D01*
X105925000Y-54350000D01*
X104525000Y-54350000D01*
X104496299Y-54344291D01*
X104471967Y-54328033D01*
X104455709Y-54303701D01*
X104450000Y-54275000D01*
X104450000Y-54125000D01*
X104455709Y-54096299D01*
X104471967Y-54071967D01*
X104496299Y-54055709D01*
X104525000Y-54050000D01*
X105925000Y-54050000D01*
X105953701Y-54055709D01*
G37*
G36*
X117303701Y-54055709D02*
G01*
X117328033Y-54071967D01*
X117344291Y-54096299D01*
X117350000Y-54125000D01*
X117350000Y-54275000D01*
X117344291Y-54303701D01*
X117328033Y-54328033D01*
X117303701Y-54344291D01*
X117275000Y-54350000D01*
X115875000Y-54350000D01*
X115846299Y-54344291D01*
X115821967Y-54328033D01*
X115805709Y-54303701D01*
X115800000Y-54275000D01*
X115800000Y-54125000D01*
X115805709Y-54096299D01*
X115821967Y-54071967D01*
X115846299Y-54055709D01*
X115875000Y-54050000D01*
X117275000Y-54050000D01*
X117303701Y-54055709D01*
G37*
G36*
X105953701Y-53555709D02*
G01*
X105978033Y-53571967D01*
X105994291Y-53596299D01*
X106000000Y-53625000D01*
X106000000Y-53775000D01*
X105994291Y-53803701D01*
X105978033Y-53828033D01*
X105953701Y-53844291D01*
X105925000Y-53850000D01*
X104525000Y-53850000D01*
X104496299Y-53844291D01*
X104471967Y-53828033D01*
X104455709Y-53803701D01*
X104450000Y-53775000D01*
X104450000Y-53625000D01*
X104455709Y-53596299D01*
X104471967Y-53571967D01*
X104496299Y-53555709D01*
X104525000Y-53550000D01*
X105925000Y-53550000D01*
X105953701Y-53555709D01*
G37*
G36*
X117303701Y-53555709D02*
G01*
X117328033Y-53571967D01*
X117344291Y-53596299D01*
X117350000Y-53625000D01*
X117350000Y-53775000D01*
X117344291Y-53803701D01*
X117328033Y-53828033D01*
X117303701Y-53844291D01*
X117275000Y-53850000D01*
X115875000Y-53850000D01*
X115846299Y-53844291D01*
X115821967Y-53828033D01*
X115805709Y-53803701D01*
X115800000Y-53775000D01*
X115800000Y-53625000D01*
X115805709Y-53596299D01*
X115821967Y-53571967D01*
X115846299Y-53555709D01*
X115875000Y-53550000D01*
X117275000Y-53550000D01*
X117303701Y-53555709D01*
G37*
G36*
X105953701Y-53055709D02*
G01*
X105978033Y-53071967D01*
X105994291Y-53096299D01*
X106000000Y-53125000D01*
X106000000Y-53275000D01*
X105994291Y-53303701D01*
X105978033Y-53328033D01*
X105953701Y-53344291D01*
X105925000Y-53350000D01*
X104525000Y-53350000D01*
X104496299Y-53344291D01*
X104471967Y-53328033D01*
X104455709Y-53303701D01*
X104450000Y-53275000D01*
X104450000Y-53125000D01*
X104455709Y-53096299D01*
X104471967Y-53071967D01*
X104496299Y-53055709D01*
X104525000Y-53050000D01*
X105925000Y-53050000D01*
X105953701Y-53055709D01*
G37*
G36*
X117303701Y-53055709D02*
G01*
X117328033Y-53071967D01*
X117344291Y-53096299D01*
X117350000Y-53125000D01*
X117350000Y-53275000D01*
X117344291Y-53303701D01*
X117328033Y-53328033D01*
X117303701Y-53344291D01*
X117275000Y-53350000D01*
X115875000Y-53350000D01*
X115846299Y-53344291D01*
X115821967Y-53328033D01*
X115805709Y-53303701D01*
X115800000Y-53275000D01*
X115800000Y-53125000D01*
X115805709Y-53096299D01*
X115821967Y-53071967D01*
X115846299Y-53055709D01*
X115875000Y-53050000D01*
X117275000Y-53050000D01*
X117303701Y-53055709D01*
G37*
G36*
X105953701Y-52555709D02*
G01*
X105978033Y-52571967D01*
X105994291Y-52596299D01*
X106000000Y-52625000D01*
X106000000Y-52775000D01*
X105994291Y-52803701D01*
X105978033Y-52828033D01*
X105953701Y-52844291D01*
X105925000Y-52850000D01*
X104525000Y-52850000D01*
X104496299Y-52844291D01*
X104471967Y-52828033D01*
X104455709Y-52803701D01*
X104450000Y-52775000D01*
X104450000Y-52625000D01*
X104455709Y-52596299D01*
X104471967Y-52571967D01*
X104496299Y-52555709D01*
X104525000Y-52550000D01*
X105925000Y-52550000D01*
X105953701Y-52555709D01*
G37*
G36*
X117303701Y-52555709D02*
G01*
X117328033Y-52571967D01*
X117344291Y-52596299D01*
X117350000Y-52625000D01*
X117350000Y-52775000D01*
X117344291Y-52803701D01*
X117328033Y-52828033D01*
X117303701Y-52844291D01*
X117275000Y-52850000D01*
X115875000Y-52850000D01*
X115846299Y-52844291D01*
X115821967Y-52828033D01*
X115805709Y-52803701D01*
X115800000Y-52775000D01*
X115800000Y-52625000D01*
X115805709Y-52596299D01*
X115821967Y-52571967D01*
X115846299Y-52555709D01*
X115875000Y-52550000D01*
X117275000Y-52550000D01*
X117303701Y-52555709D01*
G37*
G36*
X127586662Y-52210276D02*
G01*
X127630459Y-52239541D01*
X127659724Y-52283338D01*
X127670000Y-52335000D01*
X127670000Y-52605000D01*
X127659724Y-52656662D01*
X127630459Y-52700459D01*
X127586662Y-52729724D01*
X127535000Y-52740000D01*
X127165000Y-52740000D01*
X127113338Y-52729724D01*
X127069541Y-52700459D01*
X127040276Y-52656662D01*
X127030000Y-52605000D01*
X127030000Y-52335000D01*
X127040276Y-52283338D01*
X127069541Y-52239541D01*
X127113338Y-52210276D01*
X127165000Y-52200000D01*
X127535000Y-52200000D01*
X127586662Y-52210276D01*
G37*
G36*
X105953701Y-52055709D02*
G01*
X105978033Y-52071967D01*
X105994291Y-52096299D01*
X106000000Y-52125000D01*
X106000000Y-52275000D01*
X105994291Y-52303701D01*
X105978033Y-52328033D01*
X105953701Y-52344291D01*
X105925000Y-52350000D01*
X104525000Y-52350000D01*
X104496299Y-52344291D01*
X104471967Y-52328033D01*
X104455709Y-52303701D01*
X104450000Y-52275000D01*
X104450000Y-52125000D01*
X104455709Y-52096299D01*
X104471967Y-52071967D01*
X104496299Y-52055709D01*
X104525000Y-52050000D01*
X105925000Y-52050000D01*
X105953701Y-52055709D01*
G37*
G36*
X117303701Y-52055709D02*
G01*
X117328033Y-52071967D01*
X117344291Y-52096299D01*
X117350000Y-52125000D01*
X117350000Y-52275000D01*
X117344291Y-52303701D01*
X117328033Y-52328033D01*
X117303701Y-52344291D01*
X117275000Y-52350000D01*
X115875000Y-52350000D01*
X115846299Y-52344291D01*
X115821967Y-52328033D01*
X115805709Y-52303701D01*
X115800000Y-52275000D01*
X115800000Y-52125000D01*
X115805709Y-52096299D01*
X115821967Y-52071967D01*
X115846299Y-52055709D01*
X115875000Y-52050000D01*
X117275000Y-52050000D01*
X117303701Y-52055709D01*
G37*
G36*
X105953701Y-51555709D02*
G01*
X105978033Y-51571967D01*
X105994291Y-51596299D01*
X106000000Y-51625000D01*
X106000000Y-51775000D01*
X105994291Y-51803701D01*
X105978033Y-51828033D01*
X105953701Y-51844291D01*
X105925000Y-51850000D01*
X104525000Y-51850000D01*
X104496299Y-51844291D01*
X104471967Y-51828033D01*
X104455709Y-51803701D01*
X104450000Y-51775000D01*
X104450000Y-51625000D01*
X104455709Y-51596299D01*
X104471967Y-51571967D01*
X104496299Y-51555709D01*
X104525000Y-51550000D01*
X105925000Y-51550000D01*
X105953701Y-51555709D01*
G37*
G36*
X117303701Y-51555709D02*
G01*
X117328033Y-51571967D01*
X117344291Y-51596299D01*
X117350000Y-51625000D01*
X117350000Y-51775000D01*
X117344291Y-51803701D01*
X117328033Y-51828033D01*
X117303701Y-51844291D01*
X117275000Y-51850000D01*
X115875000Y-51850000D01*
X115846299Y-51844291D01*
X115821967Y-51828033D01*
X115805709Y-51803701D01*
X115800000Y-51775000D01*
X115800000Y-51625000D01*
X115805709Y-51596299D01*
X115821967Y-51571967D01*
X115846299Y-51555709D01*
X115875000Y-51550000D01*
X117275000Y-51550000D01*
X117303701Y-51555709D01*
G37*
G36*
X127586662Y-51190276D02*
G01*
X127630459Y-51219541D01*
X127659724Y-51263338D01*
X127670000Y-51315000D01*
X127670000Y-51585000D01*
X127659724Y-51636662D01*
X127630459Y-51680459D01*
X127586662Y-51709724D01*
X127535000Y-51720000D01*
X127165000Y-51720000D01*
X127113338Y-51709724D01*
X127069541Y-51680459D01*
X127040276Y-51636662D01*
X127030000Y-51585000D01*
X127030000Y-51315000D01*
X127040276Y-51263338D01*
X127069541Y-51219541D01*
X127113338Y-51190276D01*
X127165000Y-51180000D01*
X127535000Y-51180000D01*
X127586662Y-51190276D01*
G37*
G36*
X129769903Y-51061418D02*
G01*
X129818566Y-51093934D01*
X129851082Y-51142597D01*
X129862500Y-51200000D01*
X129862500Y-51500000D01*
X129851082Y-51557403D01*
X129818566Y-51606066D01*
X129769903Y-51638582D01*
X129712500Y-51650000D01*
X128687500Y-51650000D01*
X128630097Y-51638582D01*
X128581434Y-51606066D01*
X128548918Y-51557403D01*
X128537500Y-51500000D01*
X128537500Y-51200000D01*
X128548918Y-51142597D01*
X128581434Y-51093934D01*
X128630097Y-51061418D01*
X128687500Y-51050000D01*
X129712500Y-51050000D01*
X129769903Y-51061418D01*
G37*
G36*
X132044903Y-51061418D02*
G01*
X132093566Y-51093934D01*
X132126082Y-51142597D01*
X132137500Y-51200000D01*
X132137500Y-51500000D01*
X132126082Y-51557403D01*
X132093566Y-51606066D01*
X132044903Y-51638582D01*
X131987500Y-51650000D01*
X130962500Y-51650000D01*
X130905097Y-51638582D01*
X130856434Y-51606066D01*
X130823918Y-51557403D01*
X130812500Y-51500000D01*
X130812500Y-51200000D01*
X130823918Y-51142597D01*
X130856434Y-51093934D01*
X130905097Y-51061418D01*
X130962500Y-51050000D01*
X131987500Y-51050000D01*
X132044903Y-51061418D01*
G37*
G36*
X105953701Y-51055709D02*
G01*
X105978033Y-51071967D01*
X105994291Y-51096299D01*
X106000000Y-51125000D01*
X106000000Y-51275000D01*
X105994291Y-51303701D01*
X105978033Y-51328033D01*
X105953701Y-51344291D01*
X105925000Y-51350000D01*
X104525000Y-51350000D01*
X104496299Y-51344291D01*
X104471967Y-51328033D01*
X104455709Y-51303701D01*
X104450000Y-51275000D01*
X104450000Y-51125000D01*
X104455709Y-51096299D01*
X104471967Y-51071967D01*
X104496299Y-51055709D01*
X104525000Y-51050000D01*
X105925000Y-51050000D01*
X105953701Y-51055709D01*
G37*
G36*
X117303701Y-51055709D02*
G01*
X117328033Y-51071967D01*
X117344291Y-51096299D01*
X117350000Y-51125000D01*
X117350000Y-51275000D01*
X117344291Y-51303701D01*
X117328033Y-51328033D01*
X117303701Y-51344291D01*
X117275000Y-51350000D01*
X115875000Y-51350000D01*
X115846299Y-51344291D01*
X115821967Y-51328033D01*
X115805709Y-51303701D01*
X115800000Y-51275000D01*
X115800000Y-51125000D01*
X115805709Y-51096299D01*
X115821967Y-51071967D01*
X115846299Y-51055709D01*
X115875000Y-51050000D01*
X117275000Y-51050000D01*
X117303701Y-51055709D01*
G37*
G36*
X133437835Y-50327553D02*
G01*
X133480805Y-50333210D01*
X133491613Y-50338250D01*
X133511104Y-50342127D01*
X133536918Y-50359376D01*
X133553170Y-50366954D01*
X133563057Y-50376841D01*
X133584099Y-50390901D01*
X133598158Y-50411942D01*
X133608045Y-50421829D01*
X133615622Y-50438078D01*
X133632873Y-50463896D01*
X133636750Y-50483388D01*
X133641789Y-50494194D01*
X133647444Y-50537151D01*
X133650000Y-50550000D01*
X133650000Y-51050000D01*
X133647443Y-51062850D01*
X133641789Y-51105805D01*
X133636750Y-51116610D01*
X133632873Y-51136104D01*
X133615620Y-51161923D01*
X133608045Y-51178170D01*
X133598160Y-51188054D01*
X133584099Y-51209099D01*
X133563054Y-51223160D01*
X133553170Y-51233045D01*
X133536923Y-51240620D01*
X133511104Y-51257873D01*
X133491610Y-51261750D01*
X133480805Y-51266789D01*
X133437850Y-51272443D01*
X133425000Y-51275000D01*
X132975000Y-51275000D01*
X132962151Y-51272444D01*
X132919194Y-51266789D01*
X132908388Y-51261750D01*
X132888896Y-51257873D01*
X132863078Y-51240622D01*
X132846829Y-51233045D01*
X132836942Y-51223158D01*
X132815901Y-51209099D01*
X132801841Y-51188057D01*
X132791954Y-51178170D01*
X132784376Y-51161918D01*
X132767127Y-51136104D01*
X132763250Y-51116613D01*
X132758210Y-51105805D01*
X132752553Y-51062835D01*
X132750000Y-51050000D01*
X132750000Y-50550000D01*
X132752552Y-50537166D01*
X132758210Y-50494194D01*
X132763250Y-50483384D01*
X132767127Y-50463896D01*
X132784374Y-50438083D01*
X132791954Y-50421829D01*
X132801843Y-50411939D01*
X132815901Y-50390901D01*
X132836939Y-50376843D01*
X132846829Y-50366954D01*
X132863083Y-50359374D01*
X132888896Y-50342127D01*
X132908384Y-50338250D01*
X132919194Y-50333210D01*
X132962166Y-50327552D01*
X132975000Y-50325000D01*
X133425000Y-50325000D01*
X133437835Y-50327553D01*
G37*
G36*
X134987835Y-50327553D02*
G01*
X135030805Y-50333210D01*
X135041613Y-50338250D01*
X135061104Y-50342127D01*
X135086918Y-50359376D01*
X135103170Y-50366954D01*
X135113057Y-50376841D01*
X135134099Y-50390901D01*
X135148158Y-50411942D01*
X135158045Y-50421829D01*
X135165622Y-50438078D01*
X135182873Y-50463896D01*
X135186750Y-50483388D01*
X135191789Y-50494194D01*
X135197444Y-50537151D01*
X135200000Y-50550000D01*
X135200000Y-51050000D01*
X135197443Y-51062850D01*
X135191789Y-51105805D01*
X135186750Y-51116610D01*
X135182873Y-51136104D01*
X135165620Y-51161923D01*
X135158045Y-51178170D01*
X135148160Y-51188054D01*
X135134099Y-51209099D01*
X135113054Y-51223160D01*
X135103170Y-51233045D01*
X135086923Y-51240620D01*
X135061104Y-51257873D01*
X135041610Y-51261750D01*
X135030805Y-51266789D01*
X134987850Y-51272443D01*
X134975000Y-51275000D01*
X134525000Y-51275000D01*
X134512151Y-51272444D01*
X134469194Y-51266789D01*
X134458388Y-51261750D01*
X134438896Y-51257873D01*
X134413078Y-51240622D01*
X134396829Y-51233045D01*
X134386942Y-51223158D01*
X134365901Y-51209099D01*
X134351841Y-51188057D01*
X134341954Y-51178170D01*
X134334376Y-51161918D01*
X134317127Y-51136104D01*
X134313250Y-51116613D01*
X134308210Y-51105805D01*
X134302553Y-51062835D01*
X134300000Y-51050000D01*
X134300000Y-50550000D01*
X134302552Y-50537166D01*
X134308210Y-50494194D01*
X134313250Y-50483384D01*
X134317127Y-50463896D01*
X134334374Y-50438083D01*
X134341954Y-50421829D01*
X134351843Y-50411939D01*
X134365901Y-50390901D01*
X134386939Y-50376843D01*
X134396829Y-50366954D01*
X134413083Y-50359374D01*
X134438896Y-50342127D01*
X134458384Y-50338250D01*
X134469194Y-50333210D01*
X134512166Y-50327552D01*
X134525000Y-50325000D01*
X134975000Y-50325000D01*
X134987835Y-50327553D01*
G37*
G36*
X105953701Y-50555709D02*
G01*
X105978033Y-50571967D01*
X105994291Y-50596299D01*
X106000000Y-50625000D01*
X106000000Y-50775000D01*
X105994291Y-50803701D01*
X105978033Y-50828033D01*
X105953701Y-50844291D01*
X105925000Y-50850000D01*
X104525000Y-50850000D01*
X104496299Y-50844291D01*
X104471967Y-50828033D01*
X104455709Y-50803701D01*
X104450000Y-50775000D01*
X104450000Y-50625000D01*
X104455709Y-50596299D01*
X104471967Y-50571967D01*
X104496299Y-50555709D01*
X104525000Y-50550000D01*
X105925000Y-50550000D01*
X105953701Y-50555709D01*
G37*
G36*
X117303701Y-50555709D02*
G01*
X117328033Y-50571967D01*
X117344291Y-50596299D01*
X117350000Y-50625000D01*
X117350000Y-50775000D01*
X117344291Y-50803701D01*
X117328033Y-50828033D01*
X117303701Y-50844291D01*
X117275000Y-50850000D01*
X115875000Y-50850000D01*
X115846299Y-50844291D01*
X115821967Y-50828033D01*
X115805709Y-50803701D01*
X115800000Y-50775000D01*
X115800000Y-50625000D01*
X115805709Y-50596299D01*
X115821967Y-50571967D01*
X115846299Y-50555709D01*
X115875000Y-50550000D01*
X117275000Y-50550000D01*
X117303701Y-50555709D01*
G37*
G36*
X132044903Y-50111418D02*
G01*
X132093566Y-50143934D01*
X132126082Y-50192597D01*
X132137500Y-50250000D01*
X132137500Y-50550000D01*
X132126082Y-50607403D01*
X132093566Y-50656066D01*
X132044903Y-50688582D01*
X131987500Y-50700000D01*
X130962500Y-50700000D01*
X130905097Y-50688582D01*
X130856434Y-50656066D01*
X130823918Y-50607403D01*
X130812500Y-50550000D01*
X130812500Y-50250000D01*
X130823918Y-50192597D01*
X130856434Y-50143934D01*
X130905097Y-50111418D01*
X130962500Y-50100000D01*
X131987500Y-50100000D01*
X132044903Y-50111418D01*
G37*
G36*
X100381736Y-49559741D02*
G01*
X100420489Y-49559741D01*
X100451984Y-49568988D01*
X100477971Y-49572410D01*
X100512876Y-49586868D01*
X100555755Y-49599459D01*
X100578390Y-49614005D01*
X100597219Y-49621805D01*
X100631720Y-49648279D01*
X100674353Y-49675677D01*
X100688095Y-49691536D01*
X100699619Y-49700379D01*
X100729497Y-49739318D01*
X100766673Y-49782221D01*
X100772928Y-49795918D01*
X100778195Y-49802782D01*
X100798991Y-49852988D01*
X100825237Y-49910458D01*
X100826534Y-49919482D01*
X100827589Y-49922028D01*
X100835060Y-49978780D01*
X100845300Y-50050000D01*
X100835059Y-50121225D01*
X100827589Y-50177971D01*
X100826534Y-50180516D01*
X100825237Y-50189542D01*
X100798985Y-50247023D01*
X100778194Y-50297219D01*
X100772928Y-50304080D01*
X100766673Y-50317779D01*
X100729488Y-50360692D01*
X100699619Y-50399619D01*
X100688100Y-50408457D01*
X100674353Y-50424323D01*
X100631710Y-50451727D01*
X100597219Y-50478194D01*
X100578394Y-50485991D01*
X100555755Y-50500541D01*
X100512868Y-50513133D01*
X100477971Y-50527589D01*
X100451990Y-50531009D01*
X100420489Y-50540259D01*
X100381729Y-50540259D01*
X100350000Y-50544436D01*
X100318271Y-50540259D01*
X100279511Y-50540259D01*
X100248010Y-50531009D01*
X100222028Y-50527589D01*
X100187127Y-50513132D01*
X100144245Y-50500541D01*
X100121607Y-50485992D01*
X100102780Y-50478194D01*
X100068283Y-50451723D01*
X100025647Y-50424323D01*
X100011901Y-50408460D01*
X100000380Y-50399619D01*
X99970502Y-50360682D01*
X99933327Y-50317779D01*
X99927072Y-50304083D01*
X99921805Y-50297219D01*
X99901003Y-50247000D01*
X99874763Y-50189542D01*
X99873465Y-50180519D01*
X99872410Y-50177971D01*
X99864928Y-50121143D01*
X99854700Y-50050000D01*
X99864927Y-49978862D01*
X99872410Y-49922028D01*
X99873466Y-49919478D01*
X99874763Y-49910458D01*
X99900997Y-49853012D01*
X99921804Y-49802782D01*
X99927072Y-49795915D01*
X99933327Y-49782221D01*
X99970497Y-49739323D01*
X100000380Y-49700380D01*
X100011904Y-49691537D01*
X100025647Y-49675677D01*
X100068278Y-49648279D01*
X100102782Y-49621804D01*
X100121612Y-49614004D01*
X100144245Y-49599459D01*
X100187119Y-49586869D01*
X100222028Y-49572410D01*
X100248016Y-49568988D01*
X100279511Y-49559741D01*
X100318263Y-49559741D01*
X100350000Y-49555563D01*
X100381736Y-49559741D01*
G37*
G36*
X102413736Y-49559741D02*
G01*
X102452489Y-49559741D01*
X102483984Y-49568988D01*
X102509971Y-49572410D01*
X102544876Y-49586868D01*
X102587755Y-49599459D01*
X102610390Y-49614005D01*
X102629219Y-49621805D01*
X102663720Y-49648279D01*
X102706353Y-49675677D01*
X102720095Y-49691536D01*
X102731619Y-49700379D01*
X102761497Y-49739318D01*
X102798673Y-49782221D01*
X102804928Y-49795918D01*
X102810195Y-49802782D01*
X102830991Y-49852988D01*
X102857237Y-49910458D01*
X102858534Y-49919482D01*
X102859589Y-49922028D01*
X102867060Y-49978780D01*
X102877300Y-50050000D01*
X102867059Y-50121225D01*
X102859589Y-50177971D01*
X102858534Y-50180516D01*
X102857237Y-50189542D01*
X102830985Y-50247023D01*
X102810194Y-50297219D01*
X102804928Y-50304080D01*
X102798673Y-50317779D01*
X102761488Y-50360692D01*
X102731619Y-50399619D01*
X102720100Y-50408457D01*
X102706353Y-50424323D01*
X102663710Y-50451727D01*
X102629219Y-50478194D01*
X102610394Y-50485991D01*
X102587755Y-50500541D01*
X102544868Y-50513133D01*
X102509971Y-50527589D01*
X102483990Y-50531009D01*
X102452489Y-50540259D01*
X102413729Y-50540259D01*
X102382000Y-50544436D01*
X102350271Y-50540259D01*
X102311511Y-50540259D01*
X102280010Y-50531009D01*
X102254028Y-50527589D01*
X102219127Y-50513132D01*
X102176245Y-50500541D01*
X102153607Y-50485992D01*
X102134780Y-50478194D01*
X102100283Y-50451723D01*
X102057647Y-50424323D01*
X102043901Y-50408460D01*
X102032380Y-50399619D01*
X102002502Y-50360682D01*
X101965327Y-50317779D01*
X101959072Y-50304083D01*
X101953805Y-50297219D01*
X101933003Y-50247000D01*
X101906763Y-50189542D01*
X101905465Y-50180519D01*
X101904410Y-50177971D01*
X101896928Y-50121143D01*
X101886700Y-50050000D01*
X101896927Y-49978862D01*
X101904410Y-49922028D01*
X101905466Y-49919478D01*
X101906763Y-49910458D01*
X101932997Y-49853012D01*
X101953804Y-49802782D01*
X101959072Y-49795915D01*
X101965327Y-49782221D01*
X102002497Y-49739323D01*
X102032380Y-49700380D01*
X102043904Y-49691537D01*
X102057647Y-49675677D01*
X102100278Y-49648279D01*
X102134782Y-49621804D01*
X102153612Y-49614004D01*
X102176245Y-49599459D01*
X102219119Y-49586869D01*
X102254028Y-49572410D01*
X102280016Y-49568988D01*
X102311511Y-49559741D01*
X102350263Y-49559741D01*
X102382000Y-49555563D01*
X102413736Y-49559741D01*
G37*
G36*
X119423576Y-49930657D02*
G01*
X119468995Y-49961005D01*
X119499343Y-50006424D01*
X119510000Y-50060000D01*
X119510000Y-50340000D01*
X119499343Y-50393576D01*
X119468995Y-50438995D01*
X119423576Y-50469343D01*
X119370000Y-50480000D01*
X119030000Y-50480000D01*
X118976424Y-50469343D01*
X118931005Y-50438995D01*
X118900657Y-50393576D01*
X118890000Y-50340000D01*
X118890000Y-50060000D01*
X118900657Y-50006424D01*
X118931005Y-49961005D01*
X118976424Y-49930657D01*
X119030000Y-49920000D01*
X119370000Y-49920000D01*
X119423576Y-49930657D01*
G37*
G36*
X105953701Y-50055709D02*
G01*
X105978033Y-50071967D01*
X105994291Y-50096299D01*
X106000000Y-50125000D01*
X106000000Y-50275000D01*
X105994291Y-50303701D01*
X105978033Y-50328033D01*
X105953701Y-50344291D01*
X105925000Y-50350000D01*
X104525000Y-50350000D01*
X104496299Y-50344291D01*
X104471967Y-50328033D01*
X104455709Y-50303701D01*
X104450000Y-50275000D01*
X104450000Y-50125000D01*
X104455709Y-50096299D01*
X104471967Y-50071967D01*
X104496299Y-50055709D01*
X104525000Y-50050000D01*
X105925000Y-50050000D01*
X105953701Y-50055709D01*
G37*
G36*
X117303701Y-50055709D02*
G01*
X117328033Y-50071967D01*
X117344291Y-50096299D01*
X117350000Y-50125000D01*
X117350000Y-50275000D01*
X117344291Y-50303701D01*
X117328033Y-50328033D01*
X117303701Y-50344291D01*
X117275000Y-50350000D01*
X115875000Y-50350000D01*
X115846299Y-50344291D01*
X115821967Y-50328033D01*
X115805709Y-50303701D01*
X115800000Y-50275000D01*
X115800000Y-50125000D01*
X115805709Y-50096299D01*
X115821967Y-50071967D01*
X115846299Y-50055709D01*
X115875000Y-50050000D01*
X117275000Y-50050000D01*
X117303701Y-50055709D01*
G37*
G36*
X105953701Y-49555709D02*
G01*
X105978033Y-49571967D01*
X105994291Y-49596299D01*
X106000000Y-49625000D01*
X106000000Y-49775000D01*
X105994291Y-49803701D01*
X105978033Y-49828033D01*
X105953701Y-49844291D01*
X105925000Y-49850000D01*
X104525000Y-49850000D01*
X104496299Y-49844291D01*
X104471967Y-49828033D01*
X104455709Y-49803701D01*
X104450000Y-49775000D01*
X104450000Y-49625000D01*
X104455709Y-49596299D01*
X104471967Y-49571967D01*
X104496299Y-49555709D01*
X104525000Y-49550000D01*
X105925000Y-49550000D01*
X105953701Y-49555709D01*
G37*
G36*
X117303701Y-49555709D02*
G01*
X117328033Y-49571967D01*
X117344291Y-49596299D01*
X117350000Y-49625000D01*
X117350000Y-49775000D01*
X117344291Y-49803701D01*
X117328033Y-49828033D01*
X117303701Y-49844291D01*
X117275000Y-49850000D01*
X115875000Y-49850000D01*
X115846299Y-49844291D01*
X115821967Y-49828033D01*
X115805709Y-49803701D01*
X115800000Y-49775000D01*
X115800000Y-49625000D01*
X115805709Y-49596299D01*
X115821967Y-49571967D01*
X115846299Y-49555709D01*
X115875000Y-49550000D01*
X117275000Y-49550000D01*
X117303701Y-49555709D01*
G37*
G36*
X129769903Y-49161418D02*
G01*
X129818566Y-49193934D01*
X129851082Y-49242597D01*
X129862500Y-49300000D01*
X129862500Y-49600000D01*
X129851082Y-49657403D01*
X129818566Y-49706066D01*
X129769903Y-49738582D01*
X129712500Y-49750000D01*
X128687500Y-49750000D01*
X128630097Y-49738582D01*
X128581434Y-49706066D01*
X128548918Y-49657403D01*
X128537500Y-49600000D01*
X128537500Y-49300000D01*
X128548918Y-49242597D01*
X128581434Y-49193934D01*
X128630097Y-49161418D01*
X128687500Y-49150000D01*
X129712500Y-49150000D01*
X129769903Y-49161418D01*
G37*
G36*
X132044903Y-49161418D02*
G01*
X132093566Y-49193934D01*
X132126082Y-49242597D01*
X132137500Y-49300000D01*
X132137500Y-49600000D01*
X132126082Y-49657403D01*
X132093566Y-49706066D01*
X132044903Y-49738582D01*
X131987500Y-49750000D01*
X130962500Y-49750000D01*
X130905097Y-49738582D01*
X130856434Y-49706066D01*
X130823918Y-49657403D01*
X130812500Y-49600000D01*
X130812500Y-49300000D01*
X130823918Y-49242597D01*
X130856434Y-49193934D01*
X130905097Y-49161418D01*
X130962500Y-49150000D01*
X131987500Y-49150000D01*
X132044903Y-49161418D01*
G37*
G36*
X119423576Y-48970657D02*
G01*
X119468995Y-49001005D01*
X119499343Y-49046424D01*
X119510000Y-49100000D01*
X119510000Y-49380000D01*
X119499343Y-49433576D01*
X119468995Y-49478995D01*
X119423576Y-49509343D01*
X119370000Y-49520000D01*
X119030000Y-49520000D01*
X118976424Y-49509343D01*
X118931005Y-49478995D01*
X118900657Y-49433576D01*
X118890000Y-49380000D01*
X118890000Y-49100000D01*
X118900657Y-49046424D01*
X118931005Y-49001005D01*
X118976424Y-48970657D01*
X119030000Y-48960000D01*
X119370000Y-48960000D01*
X119423576Y-48970657D01*
G37*
G36*
X122036418Y-49044758D02*
G01*
X122056694Y-49058306D01*
X122070242Y-49078582D01*
X122075000Y-49102500D01*
X122075000Y-49337500D01*
X122070242Y-49361418D01*
X122056694Y-49381694D01*
X122036418Y-49395242D01*
X122012500Y-49400000D01*
X121887500Y-49400000D01*
X121863582Y-49395242D01*
X121843306Y-49381694D01*
X121829758Y-49361418D01*
X121825000Y-49337500D01*
X121825000Y-49102500D01*
X121829758Y-49078582D01*
X121843306Y-49058306D01*
X121863582Y-49044758D01*
X121887500Y-49040000D01*
X122012500Y-49040000D01*
X122036418Y-49044758D01*
G37*
G36*
X124294828Y-48403944D02*
G01*
X124344985Y-48411251D01*
X124354192Y-48415752D01*
X124370671Y-48419030D01*
X124397322Y-48436838D01*
X124419465Y-48447663D01*
X124431428Y-48459626D01*
X124451777Y-48473223D01*
X124465373Y-48493571D01*
X124477336Y-48505534D01*
X124488160Y-48527674D01*
X124505970Y-48554329D01*
X124509248Y-48570809D01*
X124513748Y-48580014D01*
X124521053Y-48630157D01*
X124525000Y-48650000D01*
X124525000Y-49150000D01*
X124521052Y-49169847D01*
X124513748Y-49219985D01*
X124509248Y-49229188D01*
X124505970Y-49245671D01*
X124488158Y-49272328D01*
X124477336Y-49294465D01*
X124465375Y-49306425D01*
X124451777Y-49326777D01*
X124431425Y-49340375D01*
X124419465Y-49352336D01*
X124397328Y-49363158D01*
X124370671Y-49380970D01*
X124354188Y-49384248D01*
X124344985Y-49388748D01*
X124294845Y-49396052D01*
X124275000Y-49400000D01*
X123325000Y-49400000D01*
X123305155Y-49396052D01*
X123255014Y-49388748D01*
X123245809Y-49384248D01*
X123229329Y-49380970D01*
X123202674Y-49363160D01*
X123180534Y-49352336D01*
X123168571Y-49340373D01*
X123148223Y-49326777D01*
X123134626Y-49306428D01*
X123122663Y-49294465D01*
X123111838Y-49272322D01*
X123094030Y-49245671D01*
X123090752Y-49229192D01*
X123086251Y-49219985D01*
X123078943Y-49169826D01*
X123075000Y-49150000D01*
X123075000Y-48650000D01*
X123078943Y-48630174D01*
X123086251Y-48580014D01*
X123090752Y-48570806D01*
X123094030Y-48554329D01*
X123111836Y-48527679D01*
X123122663Y-48505534D01*
X123134628Y-48493568D01*
X123148223Y-48473223D01*
X123168568Y-48459628D01*
X123180534Y-48447663D01*
X123202679Y-48436836D01*
X123229329Y-48419030D01*
X123245806Y-48415752D01*
X123255014Y-48411251D01*
X123305175Y-48403943D01*
X123325000Y-48400000D01*
X124275000Y-48400000D01*
X124294828Y-48403944D01*
G37*
G36*
X100762727Y-48391325D02*
G01*
X100786884Y-48391325D01*
X100815175Y-48399632D01*
X100852660Y-48405569D01*
X100876139Y-48417532D01*
X100894120Y-48422812D01*
X100923277Y-48441550D01*
X100962411Y-48461490D01*
X100976991Y-48476070D01*
X100988146Y-48483239D01*
X101014020Y-48513099D01*
X101049510Y-48548589D01*
X101056271Y-48561859D01*
X101061336Y-48567704D01*
X101079368Y-48607190D01*
X101105431Y-48658340D01*
X101106866Y-48667400D01*
X101107766Y-48669371D01*
X101113548Y-48709593D01*
X101124700Y-48780000D01*
X101113547Y-48850412D01*
X101107766Y-48890628D01*
X101106866Y-48892598D01*
X101105431Y-48901660D01*
X101079364Y-48952818D01*
X101061336Y-48992295D01*
X101056272Y-48998138D01*
X101049510Y-49011411D01*
X101014014Y-49046906D01*
X100988146Y-49076760D01*
X100976994Y-49083926D01*
X100962411Y-49098510D01*
X100923270Y-49118453D01*
X100894120Y-49137187D01*
X100876143Y-49142465D01*
X100852660Y-49154431D01*
X100815173Y-49160368D01*
X100786884Y-49168675D01*
X100762727Y-49168675D01*
X100731000Y-49173700D01*
X100699273Y-49168675D01*
X100675116Y-49168675D01*
X100646825Y-49160368D01*
X100609340Y-49154431D01*
X100585857Y-49142465D01*
X100567879Y-49137187D01*
X100538725Y-49118450D01*
X100499589Y-49098510D01*
X100485007Y-49083928D01*
X100473853Y-49076760D01*
X100447978Y-49046899D01*
X100412490Y-49011411D01*
X100405728Y-48998140D01*
X100400663Y-48992295D01*
X100382625Y-48952799D01*
X100356569Y-48901660D01*
X100355134Y-48892601D01*
X100354233Y-48890628D01*
X100348441Y-48850343D01*
X100337300Y-48780000D01*
X100348440Y-48709662D01*
X100354233Y-48669371D01*
X100355134Y-48667396D01*
X100356569Y-48658340D01*
X100382621Y-48607209D01*
X100400663Y-48567704D01*
X100405729Y-48561856D01*
X100412490Y-48548589D01*
X100447971Y-48513107D01*
X100473853Y-48483239D01*
X100485010Y-48476068D01*
X100499589Y-48461490D01*
X100538717Y-48441553D01*
X100567879Y-48422812D01*
X100585861Y-48417532D01*
X100609340Y-48405569D01*
X100646823Y-48399632D01*
X100675116Y-48391325D01*
X100699273Y-48391325D01*
X100731000Y-48386300D01*
X100762727Y-48391325D01*
G37*
G36*
X102032727Y-48391325D02*
G01*
X102056884Y-48391325D01*
X102085175Y-48399632D01*
X102122660Y-48405569D01*
X102146139Y-48417532D01*
X102164120Y-48422812D01*
X102193277Y-48441550D01*
X102232411Y-48461490D01*
X102246991Y-48476070D01*
X102258146Y-48483239D01*
X102284020Y-48513099D01*
X102319510Y-48548589D01*
X102326271Y-48561859D01*
X102331336Y-48567704D01*
X102349368Y-48607190D01*
X102375431Y-48658340D01*
X102376866Y-48667400D01*
X102377766Y-48669371D01*
X102383548Y-48709593D01*
X102394700Y-48780000D01*
X102383547Y-48850412D01*
X102377766Y-48890628D01*
X102376866Y-48892598D01*
X102375431Y-48901660D01*
X102349364Y-48952818D01*
X102331336Y-48992295D01*
X102326272Y-48998138D01*
X102319510Y-49011411D01*
X102284014Y-49046906D01*
X102258146Y-49076760D01*
X102246994Y-49083926D01*
X102232411Y-49098510D01*
X102193270Y-49118453D01*
X102164120Y-49137187D01*
X102146143Y-49142465D01*
X102122660Y-49154431D01*
X102085173Y-49160368D01*
X102056884Y-49168675D01*
X102032727Y-49168675D01*
X102001000Y-49173700D01*
X101969273Y-49168675D01*
X101945116Y-49168675D01*
X101916825Y-49160368D01*
X101879340Y-49154431D01*
X101855857Y-49142465D01*
X101837879Y-49137187D01*
X101808725Y-49118450D01*
X101769589Y-49098510D01*
X101755007Y-49083928D01*
X101743853Y-49076760D01*
X101717978Y-49046899D01*
X101682490Y-49011411D01*
X101675728Y-48998140D01*
X101670663Y-48992295D01*
X101652625Y-48952799D01*
X101626569Y-48901660D01*
X101625134Y-48892601D01*
X101624233Y-48890628D01*
X101618441Y-48850343D01*
X101607300Y-48780000D01*
X101618440Y-48709662D01*
X101624233Y-48669371D01*
X101625134Y-48667396D01*
X101626569Y-48658340D01*
X101652621Y-48607209D01*
X101670663Y-48567704D01*
X101675729Y-48561856D01*
X101682490Y-48548589D01*
X101717971Y-48513107D01*
X101743853Y-48483239D01*
X101755010Y-48476068D01*
X101769589Y-48461490D01*
X101808717Y-48441553D01*
X101837879Y-48422812D01*
X101855861Y-48417532D01*
X101879340Y-48405569D01*
X101916823Y-48399632D01*
X101945116Y-48391325D01*
X101969273Y-48391325D01*
X102001000Y-48386300D01*
X102032727Y-48391325D01*
G37*
G36*
X126457403Y-48111418D02*
G01*
X126506066Y-48143934D01*
X126538582Y-48192597D01*
X126550000Y-48250000D01*
X126550000Y-48550000D01*
X126538582Y-48607403D01*
X126506066Y-48656066D01*
X126457403Y-48688582D01*
X126400000Y-48700000D01*
X126000000Y-48700000D01*
X125942597Y-48688582D01*
X125893934Y-48656066D01*
X125861418Y-48607403D01*
X125850000Y-48550000D01*
X125850000Y-48250000D01*
X125861418Y-48192597D01*
X125893934Y-48143934D01*
X125942597Y-48111418D01*
X126000000Y-48100000D01*
X126400000Y-48100000D01*
X126457403Y-48111418D01*
G37*
G36*
X122036418Y-48204758D02*
G01*
X122056694Y-48218306D01*
X122070242Y-48238582D01*
X122075000Y-48262500D01*
X122075000Y-48497500D01*
X122070242Y-48521418D01*
X122056694Y-48541694D01*
X122036418Y-48555242D01*
X122012500Y-48560000D01*
X121887500Y-48560000D01*
X121863582Y-48555242D01*
X121843306Y-48541694D01*
X121829758Y-48521418D01*
X121825000Y-48497500D01*
X121825000Y-48262500D01*
X121829758Y-48238582D01*
X121843306Y-48218306D01*
X121863582Y-48204758D01*
X121887500Y-48200000D01*
X122012500Y-48200000D01*
X122036418Y-48204758D01*
G37*
G36*
X107253701Y-47005709D02*
G01*
X107278033Y-47021967D01*
X107294291Y-47046299D01*
X107300000Y-47075000D01*
X107300000Y-48475000D01*
X107294291Y-48503701D01*
X107278033Y-48528033D01*
X107253701Y-48544291D01*
X107225000Y-48550000D01*
X107075000Y-48550000D01*
X107046299Y-48544291D01*
X107021967Y-48528033D01*
X107005709Y-48503701D01*
X107000000Y-48475000D01*
X107000000Y-47075000D01*
X107005709Y-47046299D01*
X107021967Y-47021967D01*
X107046299Y-47005709D01*
X107075000Y-47000000D01*
X107225000Y-47000000D01*
X107253701Y-47005709D01*
G37*
G36*
X107753701Y-47005709D02*
G01*
X107778033Y-47021967D01*
X107794291Y-47046299D01*
X107800000Y-47075000D01*
X107800000Y-48475000D01*
X107794291Y-48503701D01*
X107778033Y-48528033D01*
X107753701Y-48544291D01*
X107725000Y-48550000D01*
X107575000Y-48550000D01*
X107546299Y-48544291D01*
X107521967Y-48528033D01*
X107505709Y-48503701D01*
X107500000Y-48475000D01*
X107500000Y-47075000D01*
X107505709Y-47046299D01*
X107521967Y-47021967D01*
X107546299Y-47005709D01*
X107575000Y-47000000D01*
X107725000Y-47000000D01*
X107753701Y-47005709D01*
G37*
G36*
X108253701Y-47005709D02*
G01*
X108278033Y-47021967D01*
X108294291Y-47046299D01*
X108300000Y-47075000D01*
X108300000Y-48475000D01*
X108294291Y-48503701D01*
X108278033Y-48528033D01*
X108253701Y-48544291D01*
X108225000Y-48550000D01*
X108075000Y-48550000D01*
X108046299Y-48544291D01*
X108021967Y-48528033D01*
X108005709Y-48503701D01*
X108000000Y-48475000D01*
X108000000Y-47075000D01*
X108005709Y-47046299D01*
X108021967Y-47021967D01*
X108046299Y-47005709D01*
X108075000Y-47000000D01*
X108225000Y-47000000D01*
X108253701Y-47005709D01*
G37*
G36*
X108753701Y-47005709D02*
G01*
X108778033Y-47021967D01*
X108794291Y-47046299D01*
X108800000Y-47075000D01*
X108800000Y-48475000D01*
X108794291Y-48503701D01*
X108778033Y-48528033D01*
X108753701Y-48544291D01*
X108725000Y-48550000D01*
X108575000Y-48550000D01*
X108546299Y-48544291D01*
X108521967Y-48528033D01*
X108505709Y-48503701D01*
X108500000Y-48475000D01*
X108500000Y-47075000D01*
X108505709Y-47046299D01*
X108521967Y-47021967D01*
X108546299Y-47005709D01*
X108575000Y-47000000D01*
X108725000Y-47000000D01*
X108753701Y-47005709D01*
G37*
G36*
X109253701Y-47005709D02*
G01*
X109278033Y-47021967D01*
X109294291Y-47046299D01*
X109300000Y-47075000D01*
X109300000Y-48475000D01*
X109294291Y-48503701D01*
X109278033Y-48528033D01*
X109253701Y-48544291D01*
X109225000Y-48550000D01*
X109075000Y-48550000D01*
X109046299Y-48544291D01*
X109021967Y-48528033D01*
X109005709Y-48503701D01*
X109000000Y-48475000D01*
X109000000Y-47075000D01*
X109005709Y-47046299D01*
X109021967Y-47021967D01*
X109046299Y-47005709D01*
X109075000Y-47000000D01*
X109225000Y-47000000D01*
X109253701Y-47005709D01*
G37*
G36*
X109753701Y-47005709D02*
G01*
X109778033Y-47021967D01*
X109794291Y-47046299D01*
X109800000Y-47075000D01*
X109800000Y-48475000D01*
X109794291Y-48503701D01*
X109778033Y-48528033D01*
X109753701Y-48544291D01*
X109725000Y-48550000D01*
X109575000Y-48550000D01*
X109546299Y-48544291D01*
X109521967Y-48528033D01*
X109505709Y-48503701D01*
X109500000Y-48475000D01*
X109500000Y-47075000D01*
X109505709Y-47046299D01*
X109521967Y-47021967D01*
X109546299Y-47005709D01*
X109575000Y-47000000D01*
X109725000Y-47000000D01*
X109753701Y-47005709D01*
G37*
G36*
X110253701Y-47005709D02*
G01*
X110278033Y-47021967D01*
X110294291Y-47046299D01*
X110300000Y-47075000D01*
X110300000Y-48475000D01*
X110294291Y-48503701D01*
X110278033Y-48528033D01*
X110253701Y-48544291D01*
X110225000Y-48550000D01*
X110075000Y-48550000D01*
X110046299Y-48544291D01*
X110021967Y-48528033D01*
X110005709Y-48503701D01*
X110000000Y-48475000D01*
X110000000Y-47075000D01*
X110005709Y-47046299D01*
X110021967Y-47021967D01*
X110046299Y-47005709D01*
X110075000Y-47000000D01*
X110225000Y-47000000D01*
X110253701Y-47005709D01*
G37*
G36*
X110753701Y-47005709D02*
G01*
X110778033Y-47021967D01*
X110794291Y-47046299D01*
X110800000Y-47075000D01*
X110800000Y-48475000D01*
X110794291Y-48503701D01*
X110778033Y-48528033D01*
X110753701Y-48544291D01*
X110725000Y-48550000D01*
X110575000Y-48550000D01*
X110546299Y-48544291D01*
X110521967Y-48528033D01*
X110505709Y-48503701D01*
X110500000Y-48475000D01*
X110500000Y-47075000D01*
X110505709Y-47046299D01*
X110521967Y-47021967D01*
X110546299Y-47005709D01*
X110575000Y-47000000D01*
X110725000Y-47000000D01*
X110753701Y-47005709D01*
G37*
G36*
X111253701Y-47005709D02*
G01*
X111278033Y-47021967D01*
X111294291Y-47046299D01*
X111300000Y-47075000D01*
X111300000Y-48475000D01*
X111294291Y-48503701D01*
X111278033Y-48528033D01*
X111253701Y-48544291D01*
X111225000Y-48550000D01*
X111075000Y-48550000D01*
X111046299Y-48544291D01*
X111021967Y-48528033D01*
X111005709Y-48503701D01*
X111000000Y-48475000D01*
X111000000Y-47075000D01*
X111005709Y-47046299D01*
X111021967Y-47021967D01*
X111046299Y-47005709D01*
X111075000Y-47000000D01*
X111225000Y-47000000D01*
X111253701Y-47005709D01*
G37*
G36*
X111753701Y-47005709D02*
G01*
X111778033Y-47021967D01*
X111794291Y-47046299D01*
X111800000Y-47075000D01*
X111800000Y-48475000D01*
X111794291Y-48503701D01*
X111778033Y-48528033D01*
X111753701Y-48544291D01*
X111725000Y-48550000D01*
X111575000Y-48550000D01*
X111546299Y-48544291D01*
X111521967Y-48528033D01*
X111505709Y-48503701D01*
X111500000Y-48475000D01*
X111500000Y-47075000D01*
X111505709Y-47046299D01*
X111521967Y-47021967D01*
X111546299Y-47005709D01*
X111575000Y-47000000D01*
X111725000Y-47000000D01*
X111753701Y-47005709D01*
G37*
G36*
X112253701Y-47005709D02*
G01*
X112278033Y-47021967D01*
X112294291Y-47046299D01*
X112300000Y-47075000D01*
X112300000Y-48475000D01*
X112294291Y-48503701D01*
X112278033Y-48528033D01*
X112253701Y-48544291D01*
X112225000Y-48550000D01*
X112075000Y-48550000D01*
X112046299Y-48544291D01*
X112021967Y-48528033D01*
X112005709Y-48503701D01*
X112000000Y-48475000D01*
X112000000Y-47075000D01*
X112005709Y-47046299D01*
X112021967Y-47021967D01*
X112046299Y-47005709D01*
X112075000Y-47000000D01*
X112225000Y-47000000D01*
X112253701Y-47005709D01*
G37*
G36*
X112753701Y-47005709D02*
G01*
X112778033Y-47021967D01*
X112794291Y-47046299D01*
X112800000Y-47075000D01*
X112800000Y-48475000D01*
X112794291Y-48503701D01*
X112778033Y-48528033D01*
X112753701Y-48544291D01*
X112725000Y-48550000D01*
X112575000Y-48550000D01*
X112546299Y-48544291D01*
X112521967Y-48528033D01*
X112505709Y-48503701D01*
X112500000Y-48475000D01*
X112500000Y-47075000D01*
X112505709Y-47046299D01*
X112521967Y-47021967D01*
X112546299Y-47005709D01*
X112575000Y-47000000D01*
X112725000Y-47000000D01*
X112753701Y-47005709D01*
G37*
G36*
X113253701Y-47005709D02*
G01*
X113278033Y-47021967D01*
X113294291Y-47046299D01*
X113300000Y-47075000D01*
X113300000Y-48475000D01*
X113294291Y-48503701D01*
X113278033Y-48528033D01*
X113253701Y-48544291D01*
X113225000Y-48550000D01*
X113075000Y-48550000D01*
X113046299Y-48544291D01*
X113021967Y-48528033D01*
X113005709Y-48503701D01*
X113000000Y-48475000D01*
X113000000Y-47075000D01*
X113005709Y-47046299D01*
X113021967Y-47021967D01*
X113046299Y-47005709D01*
X113075000Y-47000000D01*
X113225000Y-47000000D01*
X113253701Y-47005709D01*
G37*
G36*
X113753701Y-47005709D02*
G01*
X113778033Y-47021967D01*
X113794291Y-47046299D01*
X113800000Y-47075000D01*
X113800000Y-48475000D01*
X113794291Y-48503701D01*
X113778033Y-48528033D01*
X113753701Y-48544291D01*
X113725000Y-48550000D01*
X113575000Y-48550000D01*
X113546299Y-48544291D01*
X113521967Y-48528033D01*
X113505709Y-48503701D01*
X113500000Y-48475000D01*
X113500000Y-47075000D01*
X113505709Y-47046299D01*
X113521967Y-47021967D01*
X113546299Y-47005709D01*
X113575000Y-47000000D01*
X113725000Y-47000000D01*
X113753701Y-47005709D01*
G37*
G36*
X114253701Y-47005709D02*
G01*
X114278033Y-47021967D01*
X114294291Y-47046299D01*
X114300000Y-47075000D01*
X114300000Y-48475000D01*
X114294291Y-48503701D01*
X114278033Y-48528033D01*
X114253701Y-48544291D01*
X114225000Y-48550000D01*
X114075000Y-48550000D01*
X114046299Y-48544291D01*
X114021967Y-48528033D01*
X114005709Y-48503701D01*
X114000000Y-48475000D01*
X114000000Y-47075000D01*
X114005709Y-47046299D01*
X114021967Y-47021967D01*
X114046299Y-47005709D01*
X114075000Y-47000000D01*
X114225000Y-47000000D01*
X114253701Y-47005709D01*
G37*
G36*
X114753701Y-47005709D02*
G01*
X114778033Y-47021967D01*
X114794291Y-47046299D01*
X114800000Y-47075000D01*
X114800000Y-48475000D01*
X114794291Y-48503701D01*
X114778033Y-48528033D01*
X114753701Y-48544291D01*
X114725000Y-48550000D01*
X114575000Y-48550000D01*
X114546299Y-48544291D01*
X114521967Y-48528033D01*
X114505709Y-48503701D01*
X114500000Y-48475000D01*
X114500000Y-47075000D01*
X114505709Y-47046299D01*
X114521967Y-47021967D01*
X114546299Y-47005709D01*
X114575000Y-47000000D01*
X114725000Y-47000000D01*
X114753701Y-47005709D01*
G37*
G36*
X130287835Y-47327553D02*
G01*
X130330805Y-47333210D01*
X130341613Y-47338250D01*
X130361104Y-47342127D01*
X130386918Y-47359376D01*
X130403170Y-47366954D01*
X130413057Y-47376841D01*
X130434099Y-47390901D01*
X130448158Y-47411942D01*
X130458045Y-47421829D01*
X130465622Y-47438078D01*
X130482873Y-47463896D01*
X130486750Y-47483388D01*
X130491789Y-47494194D01*
X130497444Y-47537151D01*
X130500000Y-47550000D01*
X130500000Y-48050000D01*
X130497443Y-48062850D01*
X130491789Y-48105805D01*
X130486750Y-48116610D01*
X130482873Y-48136104D01*
X130465620Y-48161923D01*
X130458045Y-48178170D01*
X130448160Y-48188054D01*
X130434099Y-48209099D01*
X130413054Y-48223160D01*
X130403170Y-48233045D01*
X130386923Y-48240620D01*
X130361104Y-48257873D01*
X130341610Y-48261750D01*
X130330805Y-48266789D01*
X130287850Y-48272443D01*
X130275000Y-48275000D01*
X129825000Y-48275000D01*
X129812151Y-48272444D01*
X129769194Y-48266789D01*
X129758388Y-48261750D01*
X129738896Y-48257873D01*
X129713078Y-48240622D01*
X129696829Y-48233045D01*
X129686942Y-48223158D01*
X129665901Y-48209099D01*
X129651841Y-48188057D01*
X129641954Y-48178170D01*
X129634376Y-48161918D01*
X129617127Y-48136104D01*
X129613250Y-48116613D01*
X129608210Y-48105805D01*
X129602553Y-48062835D01*
X129600000Y-48050000D01*
X129600000Y-47550000D01*
X129602552Y-47537166D01*
X129608210Y-47494194D01*
X129613250Y-47483384D01*
X129617127Y-47463896D01*
X129634374Y-47438083D01*
X129641954Y-47421829D01*
X129651843Y-47411939D01*
X129665901Y-47390901D01*
X129686939Y-47376843D01*
X129696829Y-47366954D01*
X129713083Y-47359374D01*
X129738896Y-47342127D01*
X129758384Y-47338250D01*
X129769194Y-47333210D01*
X129812166Y-47327552D01*
X129825000Y-47325000D01*
X130275000Y-47325000D01*
X130287835Y-47327553D01*
G37*
G36*
X131837835Y-47327553D02*
G01*
X131880805Y-47333210D01*
X131891613Y-47338250D01*
X131911104Y-47342127D01*
X131936918Y-47359376D01*
X131953170Y-47366954D01*
X131963057Y-47376841D01*
X131984099Y-47390901D01*
X131998158Y-47411942D01*
X132008045Y-47421829D01*
X132015622Y-47438078D01*
X132032873Y-47463896D01*
X132036750Y-47483388D01*
X132041789Y-47494194D01*
X132047444Y-47537151D01*
X132050000Y-47550000D01*
X132050000Y-48050000D01*
X132047443Y-48062850D01*
X132041789Y-48105805D01*
X132036750Y-48116610D01*
X132032873Y-48136104D01*
X132015620Y-48161923D01*
X132008045Y-48178170D01*
X131998160Y-48188054D01*
X131984099Y-48209099D01*
X131963054Y-48223160D01*
X131953170Y-48233045D01*
X131936923Y-48240620D01*
X131911104Y-48257873D01*
X131891610Y-48261750D01*
X131880805Y-48266789D01*
X131837850Y-48272443D01*
X131825000Y-48275000D01*
X131375000Y-48275000D01*
X131362151Y-48272444D01*
X131319194Y-48266789D01*
X131308388Y-48261750D01*
X131288896Y-48257873D01*
X131263078Y-48240622D01*
X131246829Y-48233045D01*
X131236942Y-48223158D01*
X131215901Y-48209099D01*
X131201841Y-48188057D01*
X131191954Y-48178170D01*
X131184376Y-48161918D01*
X131167127Y-48136104D01*
X131163250Y-48116613D01*
X131158210Y-48105805D01*
X131152553Y-48062835D01*
X131150000Y-48050000D01*
X131150000Y-47550000D01*
X131152552Y-47537166D01*
X131158210Y-47494194D01*
X131163250Y-47483384D01*
X131167127Y-47463896D01*
X131184374Y-47438083D01*
X131191954Y-47421829D01*
X131201843Y-47411939D01*
X131215901Y-47390901D01*
X131236939Y-47376843D01*
X131246829Y-47366954D01*
X131263083Y-47359374D01*
X131288896Y-47342127D01*
X131308384Y-47338250D01*
X131319194Y-47333210D01*
X131362166Y-47327552D01*
X131375000Y-47325000D01*
X131825000Y-47325000D01*
X131837835Y-47327553D01*
G37*
G36*
X100762727Y-47121325D02*
G01*
X100786884Y-47121325D01*
X100815175Y-47129632D01*
X100852660Y-47135569D01*
X100876139Y-47147532D01*
X100894120Y-47152812D01*
X100923277Y-47171550D01*
X100962411Y-47191490D01*
X100976991Y-47206070D01*
X100988146Y-47213239D01*
X101014020Y-47243099D01*
X101049510Y-47278589D01*
X101056271Y-47291859D01*
X101061336Y-47297704D01*
X101079368Y-47337190D01*
X101105431Y-47388340D01*
X101106866Y-47397400D01*
X101107766Y-47399371D01*
X101113548Y-47439593D01*
X101124700Y-47510000D01*
X101113547Y-47580412D01*
X101107766Y-47620628D01*
X101106866Y-47622598D01*
X101105431Y-47631660D01*
X101079364Y-47682818D01*
X101061336Y-47722295D01*
X101056272Y-47728138D01*
X101049510Y-47741411D01*
X101014014Y-47776906D01*
X100988146Y-47806760D01*
X100976994Y-47813926D01*
X100962411Y-47828510D01*
X100923270Y-47848453D01*
X100894120Y-47867187D01*
X100876143Y-47872465D01*
X100852660Y-47884431D01*
X100815173Y-47890368D01*
X100786884Y-47898675D01*
X100762727Y-47898675D01*
X100731000Y-47903700D01*
X100699273Y-47898675D01*
X100675116Y-47898675D01*
X100646825Y-47890368D01*
X100609340Y-47884431D01*
X100585857Y-47872465D01*
X100567879Y-47867187D01*
X100538725Y-47848450D01*
X100499589Y-47828510D01*
X100485007Y-47813928D01*
X100473853Y-47806760D01*
X100447978Y-47776899D01*
X100412490Y-47741411D01*
X100405728Y-47728140D01*
X100400663Y-47722295D01*
X100382625Y-47682799D01*
X100356569Y-47631660D01*
X100355134Y-47622601D01*
X100354233Y-47620628D01*
X100348441Y-47580343D01*
X100337300Y-47510000D01*
X100348440Y-47439662D01*
X100354233Y-47399371D01*
X100355134Y-47397396D01*
X100356569Y-47388340D01*
X100382621Y-47337209D01*
X100400663Y-47297704D01*
X100405729Y-47291856D01*
X100412490Y-47278589D01*
X100447971Y-47243107D01*
X100473853Y-47213239D01*
X100485010Y-47206068D01*
X100499589Y-47191490D01*
X100538717Y-47171553D01*
X100567879Y-47152812D01*
X100585861Y-47147532D01*
X100609340Y-47135569D01*
X100646823Y-47129632D01*
X100675116Y-47121325D01*
X100699273Y-47121325D01*
X100731000Y-47116300D01*
X100762727Y-47121325D01*
G37*
G36*
X102032727Y-47121325D02*
G01*
X102056884Y-47121325D01*
X102085175Y-47129632D01*
X102122660Y-47135569D01*
X102146139Y-47147532D01*
X102164120Y-47152812D01*
X102193277Y-47171550D01*
X102232411Y-47191490D01*
X102246991Y-47206070D01*
X102258146Y-47213239D01*
X102284020Y-47243099D01*
X102319510Y-47278589D01*
X102326271Y-47291859D01*
X102331336Y-47297704D01*
X102349368Y-47337190D01*
X102375431Y-47388340D01*
X102376866Y-47397400D01*
X102377766Y-47399371D01*
X102383548Y-47439593D01*
X102394700Y-47510000D01*
X102383547Y-47580412D01*
X102377766Y-47620628D01*
X102376866Y-47622598D01*
X102375431Y-47631660D01*
X102349364Y-47682818D01*
X102331336Y-47722295D01*
X102326272Y-47728138D01*
X102319510Y-47741411D01*
X102284014Y-47776906D01*
X102258146Y-47806760D01*
X102246994Y-47813926D01*
X102232411Y-47828510D01*
X102193270Y-47848453D01*
X102164120Y-47867187D01*
X102146143Y-47872465D01*
X102122660Y-47884431D01*
X102085173Y-47890368D01*
X102056884Y-47898675D01*
X102032727Y-47898675D01*
X102001000Y-47903700D01*
X101969273Y-47898675D01*
X101945116Y-47898675D01*
X101916825Y-47890368D01*
X101879340Y-47884431D01*
X101855857Y-47872465D01*
X101837879Y-47867187D01*
X101808725Y-47848450D01*
X101769589Y-47828510D01*
X101755007Y-47813928D01*
X101743853Y-47806760D01*
X101717978Y-47776899D01*
X101682490Y-47741411D01*
X101675728Y-47728140D01*
X101670663Y-47722295D01*
X101652625Y-47682799D01*
X101626569Y-47631660D01*
X101625134Y-47622601D01*
X101624233Y-47620628D01*
X101618441Y-47580343D01*
X101607300Y-47510000D01*
X101618440Y-47439662D01*
X101624233Y-47399371D01*
X101625134Y-47397396D01*
X101626569Y-47388340D01*
X101652621Y-47337209D01*
X101670663Y-47297704D01*
X101675729Y-47291856D01*
X101682490Y-47278589D01*
X101717971Y-47243107D01*
X101743853Y-47213239D01*
X101755010Y-47206068D01*
X101769589Y-47191490D01*
X101808717Y-47171553D01*
X101837879Y-47152812D01*
X101855861Y-47147532D01*
X101879340Y-47135569D01*
X101916823Y-47129632D01*
X101945116Y-47121325D01*
X101969273Y-47121325D01*
X102001000Y-47116300D01*
X102032727Y-47121325D01*
G37*
G36*
X124294828Y-46503944D02*
G01*
X124344985Y-46511251D01*
X124354192Y-46515752D01*
X124370671Y-46519030D01*
X124397322Y-46536838D01*
X124419465Y-46547663D01*
X124431428Y-46559626D01*
X124451777Y-46573223D01*
X124465373Y-46593571D01*
X124477336Y-46605534D01*
X124488160Y-46627674D01*
X124505970Y-46654329D01*
X124509248Y-46670809D01*
X124513748Y-46680014D01*
X124521053Y-46730157D01*
X124525000Y-46750000D01*
X124525000Y-47250000D01*
X124521052Y-47269847D01*
X124513748Y-47319985D01*
X124509248Y-47329188D01*
X124505970Y-47345671D01*
X124488158Y-47372328D01*
X124477336Y-47394465D01*
X124465375Y-47406425D01*
X124451777Y-47426777D01*
X124431425Y-47440375D01*
X124419465Y-47452336D01*
X124397328Y-47463158D01*
X124370671Y-47480970D01*
X124354188Y-47484248D01*
X124344985Y-47488748D01*
X124294845Y-47496052D01*
X124275000Y-47500000D01*
X123325000Y-47500000D01*
X123305155Y-47496052D01*
X123255014Y-47488748D01*
X123245809Y-47484248D01*
X123229329Y-47480970D01*
X123202674Y-47463160D01*
X123180534Y-47452336D01*
X123168571Y-47440373D01*
X123148223Y-47426777D01*
X123134626Y-47406428D01*
X123122663Y-47394465D01*
X123111838Y-47372322D01*
X123094030Y-47345671D01*
X123090752Y-47329192D01*
X123086251Y-47319985D01*
X123078943Y-47269826D01*
X123075000Y-47250000D01*
X123075000Y-46750000D01*
X123078943Y-46730174D01*
X123086251Y-46680014D01*
X123090752Y-46670806D01*
X123094030Y-46654329D01*
X123111836Y-46627679D01*
X123122663Y-46605534D01*
X123134628Y-46593568D01*
X123148223Y-46573223D01*
X123168568Y-46559628D01*
X123180534Y-46547663D01*
X123202679Y-46536836D01*
X123229329Y-46519030D01*
X123245806Y-46515752D01*
X123255014Y-46511251D01*
X123305175Y-46503943D01*
X123325000Y-46500000D01*
X124275000Y-46500000D01*
X124294828Y-46503944D01*
G37*
G36*
X126457403Y-46711418D02*
G01*
X126506066Y-46743934D01*
X126538582Y-46792597D01*
X126550000Y-46850000D01*
X126550000Y-47150000D01*
X126538582Y-47207403D01*
X126506066Y-47256066D01*
X126457403Y-47288582D01*
X126400000Y-47300000D01*
X126000000Y-47300000D01*
X125942597Y-47288582D01*
X125893934Y-47256066D01*
X125861418Y-47207403D01*
X125850000Y-47150000D01*
X125850000Y-46850000D01*
X125861418Y-46792597D01*
X125893934Y-46743934D01*
X125942597Y-46711418D01*
X126000000Y-46700000D01*
X126400000Y-46700000D01*
X126457403Y-46711418D01*
G37*
G36*
X106273576Y-46390657D02*
G01*
X106318995Y-46421005D01*
X106349343Y-46466424D01*
X106360000Y-46520000D01*
X106360000Y-46800000D01*
X106349343Y-46853576D01*
X106318995Y-46898995D01*
X106273576Y-46929343D01*
X106220000Y-46940000D01*
X105880000Y-46940000D01*
X105826424Y-46929343D01*
X105781005Y-46898995D01*
X105750657Y-46853576D01*
X105740000Y-46800000D01*
X105740000Y-46520000D01*
X105750657Y-46466424D01*
X105781005Y-46421005D01*
X105826424Y-46390657D01*
X105880000Y-46380000D01*
X106220000Y-46380000D01*
X106273576Y-46390657D01*
G37*
G36*
X100762727Y-45851325D02*
G01*
X100786884Y-45851325D01*
X100815175Y-45859632D01*
X100852660Y-45865569D01*
X100876139Y-45877532D01*
X100894120Y-45882812D01*
X100923277Y-45901550D01*
X100962411Y-45921490D01*
X100976991Y-45936070D01*
X100988146Y-45943239D01*
X101014020Y-45973099D01*
X101049510Y-46008589D01*
X101056271Y-46021859D01*
X101061336Y-46027704D01*
X101079368Y-46067190D01*
X101105431Y-46118340D01*
X101106866Y-46127400D01*
X101107766Y-46129371D01*
X101113548Y-46169593D01*
X101124700Y-46240000D01*
X101113547Y-46310412D01*
X101107766Y-46350628D01*
X101106866Y-46352598D01*
X101105431Y-46361660D01*
X101079364Y-46412818D01*
X101061336Y-46452295D01*
X101056272Y-46458138D01*
X101049510Y-46471411D01*
X101014014Y-46506906D01*
X100988146Y-46536760D01*
X100976994Y-46543926D01*
X100962411Y-46558510D01*
X100923270Y-46578453D01*
X100894120Y-46597187D01*
X100876143Y-46602465D01*
X100852660Y-46614431D01*
X100815173Y-46620368D01*
X100786884Y-46628675D01*
X100762727Y-46628675D01*
X100731000Y-46633700D01*
X100699273Y-46628675D01*
X100675116Y-46628675D01*
X100646825Y-46620368D01*
X100609340Y-46614431D01*
X100585857Y-46602465D01*
X100567879Y-46597187D01*
X100538725Y-46578450D01*
X100499589Y-46558510D01*
X100485007Y-46543928D01*
X100473853Y-46536760D01*
X100447978Y-46506899D01*
X100412490Y-46471411D01*
X100405728Y-46458140D01*
X100400663Y-46452295D01*
X100382625Y-46412799D01*
X100356569Y-46361660D01*
X100355134Y-46352601D01*
X100354233Y-46350628D01*
X100348441Y-46310343D01*
X100337300Y-46240000D01*
X100348440Y-46169662D01*
X100354233Y-46129371D01*
X100355134Y-46127396D01*
X100356569Y-46118340D01*
X100382621Y-46067209D01*
X100400663Y-46027704D01*
X100405729Y-46021856D01*
X100412490Y-46008589D01*
X100447971Y-45973107D01*
X100473853Y-45943239D01*
X100485010Y-45936068D01*
X100499589Y-45921490D01*
X100538717Y-45901553D01*
X100567879Y-45882812D01*
X100585861Y-45877532D01*
X100609340Y-45865569D01*
X100646823Y-45859632D01*
X100675116Y-45851325D01*
X100699273Y-45851325D01*
X100731000Y-45846300D01*
X100762727Y-45851325D01*
G37*
G36*
X102032727Y-45851325D02*
G01*
X102056884Y-45851325D01*
X102085175Y-45859632D01*
X102122660Y-45865569D01*
X102146139Y-45877532D01*
X102164120Y-45882812D01*
X102193277Y-45901550D01*
X102232411Y-45921490D01*
X102246991Y-45936070D01*
X102258146Y-45943239D01*
X102284020Y-45973099D01*
X102319510Y-46008589D01*
X102326271Y-46021859D01*
X102331336Y-46027704D01*
X102349368Y-46067190D01*
X102375431Y-46118340D01*
X102376866Y-46127400D01*
X102377766Y-46129371D01*
X102383548Y-46169593D01*
X102394700Y-46240000D01*
X102383547Y-46310412D01*
X102377766Y-46350628D01*
X102376866Y-46352598D01*
X102375431Y-46361660D01*
X102349364Y-46412818D01*
X102331336Y-46452295D01*
X102326272Y-46458138D01*
X102319510Y-46471411D01*
X102284014Y-46506906D01*
X102258146Y-46536760D01*
X102246994Y-46543926D01*
X102232411Y-46558510D01*
X102193270Y-46578453D01*
X102164120Y-46597187D01*
X102146143Y-46602465D01*
X102122660Y-46614431D01*
X102085173Y-46620368D01*
X102056884Y-46628675D01*
X102032727Y-46628675D01*
X102001000Y-46633700D01*
X101969273Y-46628675D01*
X101945116Y-46628675D01*
X101916825Y-46620368D01*
X101879340Y-46614431D01*
X101855857Y-46602465D01*
X101837879Y-46597187D01*
X101808725Y-46578450D01*
X101769589Y-46558510D01*
X101755007Y-46543928D01*
X101743853Y-46536760D01*
X101717978Y-46506899D01*
X101682490Y-46471411D01*
X101675728Y-46458140D01*
X101670663Y-46452295D01*
X101652625Y-46412799D01*
X101626569Y-46361660D01*
X101625134Y-46352601D01*
X101624233Y-46350628D01*
X101618441Y-46310343D01*
X101607300Y-46240000D01*
X101618440Y-46169662D01*
X101624233Y-46129371D01*
X101625134Y-46127396D01*
X101626569Y-46118340D01*
X101652621Y-46067209D01*
X101670663Y-46027704D01*
X101675729Y-46021856D01*
X101682490Y-46008589D01*
X101717971Y-45973107D01*
X101743853Y-45943239D01*
X101755010Y-45936068D01*
X101769589Y-45921490D01*
X101808717Y-45901553D01*
X101837879Y-45882812D01*
X101855861Y-45877532D01*
X101879340Y-45865569D01*
X101916823Y-45859632D01*
X101945116Y-45851325D01*
X101969273Y-45851325D01*
X102001000Y-45846300D01*
X102032727Y-45851325D01*
G37*
G36*
X106273576Y-45430657D02*
G01*
X106318995Y-45461005D01*
X106349343Y-45506424D01*
X106360000Y-45560000D01*
X106360000Y-45840000D01*
X106349343Y-45893576D01*
X106318995Y-45938995D01*
X106273576Y-45969343D01*
X106220000Y-45980000D01*
X105880000Y-45980000D01*
X105826424Y-45969343D01*
X105781005Y-45938995D01*
X105750657Y-45893576D01*
X105740000Y-45840000D01*
X105740000Y-45560000D01*
X105750657Y-45506424D01*
X105781005Y-45461005D01*
X105826424Y-45430657D01*
X105880000Y-45420000D01*
X106220000Y-45420000D01*
X106273576Y-45430657D01*
G37*
G36*
X129912124Y-44294415D02*
G01*
X129954601Y-44294415D01*
X129990370Y-44303231D01*
X130021812Y-44306774D01*
X130062484Y-44321005D01*
X130109180Y-44332515D01*
X130136789Y-44347005D01*
X130161257Y-44355567D01*
X130202606Y-44381548D01*
X130250149Y-44406501D01*
X130269253Y-44423426D01*
X130286358Y-44434174D01*
X130324981Y-44472797D01*
X130369315Y-44512074D01*
X130380584Y-44528400D01*
X130390824Y-44538640D01*
X130423018Y-44589876D01*
X130459754Y-44643097D01*
X130464770Y-44656323D01*
X130469431Y-44663741D01*
X130491464Y-44726711D01*
X130516209Y-44791956D01*
X130517226Y-44800334D01*
X130518224Y-44803186D01*
X130526613Y-44877646D01*
X130535399Y-44950000D01*
X130526612Y-45022359D01*
X130518224Y-45096813D01*
X130517226Y-45099663D01*
X130516209Y-45108044D01*
X130491460Y-45173300D01*
X130469431Y-45236258D01*
X130464771Y-45243674D01*
X130459754Y-45256903D01*
X130423011Y-45310134D01*
X130390824Y-45361359D01*
X130380586Y-45371596D01*
X130369315Y-45387926D01*
X130324972Y-45427210D01*
X130286358Y-45465825D01*
X130269257Y-45476569D01*
X130250149Y-45493499D01*
X130202596Y-45518456D01*
X130161257Y-45544432D01*
X130136795Y-45552991D01*
X130109180Y-45567485D01*
X130062475Y-45578996D01*
X130021812Y-45593225D01*
X129990378Y-45596766D01*
X129954601Y-45605585D01*
X129912115Y-45605585D01*
X129874999Y-45609767D01*
X129837883Y-45605585D01*
X129795397Y-45605585D01*
X129759620Y-45596766D01*
X129728185Y-45593225D01*
X129687519Y-45578995D01*
X129640818Y-45567485D01*
X129613204Y-45552992D01*
X129588740Y-45544432D01*
X129547395Y-45518453D01*
X129499849Y-45493499D01*
X129480742Y-45476572D01*
X129463639Y-45465825D01*
X129425016Y-45427202D01*
X129380683Y-45387926D01*
X129369413Y-45371599D01*
X129359173Y-45361359D01*
X129326975Y-45310117D01*
X129290244Y-45256903D01*
X129285228Y-45243678D01*
X129280566Y-45236258D01*
X129258524Y-45173266D01*
X129233789Y-45108044D01*
X129232771Y-45099667D01*
X129231773Y-45096813D01*
X129223371Y-45022245D01*
X129214599Y-44950000D01*
X129223370Y-44877760D01*
X129231773Y-44803186D01*
X129232772Y-44800330D01*
X129233789Y-44791956D01*
X129258520Y-44726745D01*
X129280566Y-44663741D01*
X129285229Y-44656319D01*
X129290244Y-44643097D01*
X129326968Y-44589892D01*
X129359173Y-44538640D01*
X129369416Y-44528396D01*
X129380683Y-44512074D01*
X129425007Y-44472805D01*
X129463639Y-44434174D01*
X129480746Y-44423424D01*
X129499849Y-44406501D01*
X129547385Y-44381551D01*
X129588740Y-44355567D01*
X129613210Y-44347004D01*
X129640818Y-44332515D01*
X129687509Y-44321006D01*
X129728185Y-44306774D01*
X129759627Y-44303231D01*
X129795397Y-44294415D01*
X129837874Y-44294415D01*
X129874999Y-44290232D01*
X129912124Y-44294415D01*
G37*
G36*
X131912125Y-44294415D02*
G01*
X131954602Y-44294415D01*
X131990371Y-44303231D01*
X132021813Y-44306774D01*
X132062485Y-44321005D01*
X132109181Y-44332515D01*
X132136790Y-44347005D01*
X132161258Y-44355567D01*
X132202607Y-44381548D01*
X132250150Y-44406501D01*
X132269254Y-44423426D01*
X132286359Y-44434174D01*
X132324982Y-44472797D01*
X132369316Y-44512074D01*
X132380585Y-44528400D01*
X132390825Y-44538640D01*
X132423019Y-44589876D01*
X132459755Y-44643097D01*
X132464771Y-44656323D01*
X132469432Y-44663741D01*
X132491465Y-44726711D01*
X132516210Y-44791956D01*
X132517227Y-44800334D01*
X132518225Y-44803186D01*
X132526614Y-44877646D01*
X132535400Y-44950000D01*
X132526613Y-45022359D01*
X132518225Y-45096813D01*
X132517227Y-45099663D01*
X132516210Y-45108044D01*
X132491461Y-45173300D01*
X132469432Y-45236258D01*
X132464772Y-45243674D01*
X132459755Y-45256903D01*
X132423012Y-45310134D01*
X132390825Y-45361359D01*
X132380587Y-45371596D01*
X132369316Y-45387926D01*
X132324973Y-45427210D01*
X132286359Y-45465825D01*
X132269258Y-45476569D01*
X132250150Y-45493499D01*
X132202597Y-45518456D01*
X132161258Y-45544432D01*
X132136796Y-45552991D01*
X132109181Y-45567485D01*
X132062476Y-45578996D01*
X132021813Y-45593225D01*
X131990379Y-45596766D01*
X131954602Y-45605585D01*
X131912116Y-45605585D01*
X131875000Y-45609767D01*
X131837884Y-45605585D01*
X131795398Y-45605585D01*
X131759621Y-45596766D01*
X131728186Y-45593225D01*
X131687520Y-45578995D01*
X131640819Y-45567485D01*
X131613205Y-45552992D01*
X131588741Y-45544432D01*
X131547396Y-45518453D01*
X131499850Y-45493499D01*
X131480743Y-45476572D01*
X131463640Y-45465825D01*
X131425017Y-45427202D01*
X131380684Y-45387926D01*
X131369414Y-45371599D01*
X131359174Y-45361359D01*
X131326976Y-45310117D01*
X131290245Y-45256903D01*
X131285229Y-45243678D01*
X131280567Y-45236258D01*
X131258525Y-45173266D01*
X131233790Y-45108044D01*
X131232772Y-45099667D01*
X131231774Y-45096813D01*
X131223372Y-45022245D01*
X131214600Y-44950000D01*
X131223371Y-44877760D01*
X131231774Y-44803186D01*
X131232773Y-44800330D01*
X131233790Y-44791956D01*
X131258521Y-44726745D01*
X131280567Y-44663741D01*
X131285230Y-44656319D01*
X131290245Y-44643097D01*
X131326969Y-44589892D01*
X131359174Y-44538640D01*
X131369417Y-44528396D01*
X131380684Y-44512074D01*
X131425008Y-44472805D01*
X131463640Y-44434174D01*
X131480747Y-44423424D01*
X131499850Y-44406501D01*
X131547386Y-44381551D01*
X131588741Y-44355567D01*
X131613211Y-44347004D01*
X131640819Y-44332515D01*
X131687510Y-44321006D01*
X131728186Y-44306774D01*
X131759628Y-44303231D01*
X131795398Y-44294415D01*
X131837875Y-44294415D01*
X131875000Y-44290232D01*
X131912125Y-44294415D01*
G37*
G36*
X101397736Y-44479741D02*
G01*
X101436489Y-44479741D01*
X101467984Y-44488988D01*
X101493971Y-44492410D01*
X101528876Y-44506868D01*
X101571755Y-44519459D01*
X101594390Y-44534005D01*
X101613219Y-44541805D01*
X101647720Y-44568279D01*
X101690353Y-44595677D01*
X101704095Y-44611536D01*
X101715619Y-44620379D01*
X101745497Y-44659318D01*
X101782673Y-44702221D01*
X101788928Y-44715918D01*
X101794195Y-44722782D01*
X101814991Y-44772988D01*
X101841237Y-44830458D01*
X101842534Y-44839482D01*
X101843589Y-44842028D01*
X101851060Y-44898780D01*
X101861300Y-44970000D01*
X101851059Y-45041225D01*
X101843589Y-45097971D01*
X101842534Y-45100516D01*
X101841237Y-45109542D01*
X101814985Y-45167023D01*
X101794194Y-45217219D01*
X101788928Y-45224080D01*
X101782673Y-45237779D01*
X101745488Y-45280692D01*
X101715619Y-45319619D01*
X101704100Y-45328457D01*
X101690353Y-45344323D01*
X101647710Y-45371727D01*
X101613219Y-45398194D01*
X101594394Y-45405991D01*
X101571755Y-45420541D01*
X101528868Y-45433133D01*
X101493971Y-45447589D01*
X101467990Y-45451009D01*
X101436489Y-45460259D01*
X101397729Y-45460259D01*
X101366000Y-45464436D01*
X101334271Y-45460259D01*
X101295511Y-45460259D01*
X101264010Y-45451009D01*
X101238028Y-45447589D01*
X101203127Y-45433132D01*
X101160245Y-45420541D01*
X101137607Y-45405992D01*
X101118780Y-45398194D01*
X101084283Y-45371723D01*
X101041647Y-45344323D01*
X101027901Y-45328460D01*
X101016380Y-45319619D01*
X100986502Y-45280682D01*
X100949327Y-45237779D01*
X100943072Y-45224083D01*
X100937805Y-45217219D01*
X100917003Y-45167000D01*
X100890763Y-45109542D01*
X100889465Y-45100519D01*
X100888410Y-45097971D01*
X100880928Y-45041143D01*
X100870700Y-44970000D01*
X100880927Y-44898862D01*
X100888410Y-44842028D01*
X100889466Y-44839478D01*
X100890763Y-44830458D01*
X100916997Y-44773012D01*
X100937804Y-44722782D01*
X100943072Y-44715915D01*
X100949327Y-44702221D01*
X100986497Y-44659323D01*
X101016380Y-44620380D01*
X101027904Y-44611537D01*
X101041647Y-44595677D01*
X101084278Y-44568279D01*
X101118782Y-44541804D01*
X101137612Y-44534004D01*
X101160245Y-44519459D01*
X101203119Y-44506869D01*
X101238028Y-44492410D01*
X101264016Y-44488988D01*
X101295511Y-44479741D01*
X101334263Y-44479741D01*
X101366000Y-44475563D01*
X101397736Y-44479741D01*
G37*
G36*
X114061777Y-43754705D02*
G01*
X114071789Y-43754705D01*
X114100636Y-43762434D01*
X114159518Y-43774147D01*
X114187310Y-43785658D01*
X114210476Y-43791866D01*
X114231242Y-43803855D01*
X114259041Y-43815370D01*
X114308975Y-43848735D01*
X114334819Y-43863656D01*
X114341892Y-43870729D01*
X114348607Y-43875216D01*
X114424783Y-43951392D01*
X114429269Y-43958106D01*
X114436344Y-43965181D01*
X114451266Y-43991027D01*
X114484629Y-44040958D01*
X114496142Y-44068753D01*
X114508134Y-44089524D01*
X114514342Y-44112693D01*
X114525852Y-44140481D01*
X114537563Y-44199356D01*
X114545295Y-44228211D01*
X114545367Y-44238589D01*
X114546916Y-44246373D01*
X114549988Y-44897774D01*
X114549984Y-44897837D01*
X114550000Y-44900000D01*
X114549514Y-44907402D01*
X114547351Y-44951436D01*
X114546274Y-44956849D01*
X114545295Y-44971789D01*
X114537561Y-45000651D01*
X114525852Y-45059518D01*
X114514342Y-45087303D01*
X114508134Y-45110476D01*
X114496140Y-45131249D01*
X114484629Y-45159041D01*
X114451271Y-45208964D01*
X114436344Y-45234819D01*
X114429267Y-45241895D01*
X114424783Y-45248607D01*
X114348607Y-45324783D01*
X114341895Y-45329267D01*
X114334819Y-45336344D01*
X114308964Y-45351271D01*
X114259041Y-45384629D01*
X114231249Y-45396140D01*
X114210476Y-45408134D01*
X114187303Y-45414342D01*
X114159518Y-45425852D01*
X114100643Y-45437563D01*
X114071789Y-45445295D01*
X114061777Y-45445295D01*
X114053859Y-45446870D01*
X113946141Y-45446870D01*
X113938223Y-45445295D01*
X113928211Y-45445295D01*
X113899357Y-45437563D01*
X113840481Y-45425852D01*
X113812693Y-45414342D01*
X113789524Y-45408134D01*
X113768753Y-45396142D01*
X113740958Y-45384629D01*
X113691027Y-45351266D01*
X113665181Y-45336344D01*
X113658106Y-45329269D01*
X113651392Y-45324783D01*
X113575216Y-45248607D01*
X113570729Y-45241892D01*
X113563656Y-45234819D01*
X113548735Y-45208975D01*
X113515370Y-45159041D01*
X113503855Y-45131242D01*
X113491866Y-45110476D01*
X113485658Y-45087310D01*
X113474147Y-45059518D01*
X113462433Y-45000631D01*
X113454705Y-44971789D01*
X113454632Y-44961414D01*
X113453083Y-44953626D01*
X113450011Y-44302225D01*
X113450015Y-44302143D01*
X113450000Y-44300000D01*
X113450480Y-44292661D01*
X113452648Y-44248563D01*
X113453726Y-44243141D01*
X113454705Y-44228211D01*
X113462433Y-44199366D01*
X113474147Y-44140481D01*
X113485659Y-44112686D01*
X113491866Y-44089524D01*
X113503854Y-44068759D01*
X113515370Y-44040958D01*
X113548739Y-43991016D01*
X113563656Y-43965181D01*
X113570727Y-43958109D01*
X113575216Y-43951392D01*
X113651392Y-43875216D01*
X113658109Y-43870727D01*
X113665181Y-43863656D01*
X113691016Y-43848739D01*
X113740958Y-43815370D01*
X113768759Y-43803854D01*
X113789524Y-43791866D01*
X113812686Y-43785659D01*
X113840481Y-43774147D01*
X113899364Y-43762434D01*
X113928211Y-43754705D01*
X113938223Y-43754705D01*
X113946141Y-43753130D01*
X114053859Y-43753130D01*
X114061777Y-43754705D01*
G37*
G36*
X122701777Y-43754705D02*
G01*
X122711789Y-43754705D01*
X122740636Y-43762434D01*
X122799518Y-43774147D01*
X122827310Y-43785658D01*
X122850476Y-43791866D01*
X122871242Y-43803855D01*
X122899041Y-43815370D01*
X122948975Y-43848735D01*
X122974819Y-43863656D01*
X122981892Y-43870729D01*
X122988607Y-43875216D01*
X123064783Y-43951392D01*
X123069269Y-43958106D01*
X123076344Y-43965181D01*
X123091266Y-43991027D01*
X123124629Y-44040958D01*
X123136142Y-44068753D01*
X123148134Y-44089524D01*
X123154342Y-44112693D01*
X123165852Y-44140481D01*
X123177563Y-44199356D01*
X123185295Y-44228211D01*
X123185367Y-44238589D01*
X123186916Y-44246373D01*
X123189988Y-44897774D01*
X123189984Y-44897837D01*
X123190000Y-44900000D01*
X123189514Y-44907402D01*
X123187351Y-44951436D01*
X123186274Y-44956849D01*
X123185295Y-44971789D01*
X123177561Y-45000651D01*
X123165852Y-45059518D01*
X123154342Y-45087303D01*
X123148134Y-45110476D01*
X123136140Y-45131249D01*
X123124629Y-45159041D01*
X123091271Y-45208964D01*
X123076344Y-45234819D01*
X123069267Y-45241895D01*
X123064783Y-45248607D01*
X122988607Y-45324783D01*
X122981895Y-45329267D01*
X122974819Y-45336344D01*
X122948964Y-45351271D01*
X122899041Y-45384629D01*
X122871249Y-45396140D01*
X122850476Y-45408134D01*
X122827303Y-45414342D01*
X122799518Y-45425852D01*
X122740643Y-45437563D01*
X122711789Y-45445295D01*
X122701777Y-45445295D01*
X122693859Y-45446870D01*
X122586141Y-45446870D01*
X122578223Y-45445295D01*
X122568211Y-45445295D01*
X122539357Y-45437563D01*
X122480481Y-45425852D01*
X122452693Y-45414342D01*
X122429524Y-45408134D01*
X122408753Y-45396142D01*
X122380958Y-45384629D01*
X122331027Y-45351266D01*
X122305181Y-45336344D01*
X122298106Y-45329269D01*
X122291392Y-45324783D01*
X122215216Y-45248607D01*
X122210729Y-45241892D01*
X122203656Y-45234819D01*
X122188735Y-45208975D01*
X122155370Y-45159041D01*
X122143855Y-45131242D01*
X122131866Y-45110476D01*
X122125658Y-45087310D01*
X122114147Y-45059518D01*
X122102433Y-45000631D01*
X122094705Y-44971789D01*
X122094632Y-44961414D01*
X122093083Y-44953626D01*
X122090011Y-44302225D01*
X122090015Y-44302143D01*
X122090000Y-44300000D01*
X122090480Y-44292661D01*
X122092648Y-44248563D01*
X122093726Y-44243141D01*
X122094705Y-44228211D01*
X122102433Y-44199366D01*
X122114147Y-44140481D01*
X122125659Y-44112686D01*
X122131866Y-44089524D01*
X122143854Y-44068759D01*
X122155370Y-44040958D01*
X122188739Y-43991016D01*
X122203656Y-43965181D01*
X122210727Y-43958109D01*
X122215216Y-43951392D01*
X122291392Y-43875216D01*
X122298109Y-43870727D01*
X122305181Y-43863656D01*
X122331016Y-43848739D01*
X122380958Y-43815370D01*
X122408759Y-43803854D01*
X122429524Y-43791866D01*
X122452686Y-43785659D01*
X122480481Y-43774147D01*
X122539364Y-43762434D01*
X122568211Y-43754705D01*
X122578223Y-43754705D01*
X122586141Y-43753130D01*
X122693859Y-43753130D01*
X122701777Y-43754705D01*
G37*
G36*
X115778095Y-44081610D02*
G01*
X115812134Y-44085559D01*
X115823764Y-44090694D01*
X115846537Y-44095224D01*
X115870917Y-44111514D01*
X115882047Y-44116429D01*
X115889649Y-44124031D01*
X115911421Y-44138579D01*
X115925968Y-44160350D01*
X115933570Y-44167952D01*
X115938483Y-44179080D01*
X115954776Y-44203463D01*
X115959306Y-44226238D01*
X115964440Y-44237865D01*
X115968388Y-44271896D01*
X115970000Y-44280000D01*
X115970000Y-45080000D01*
X115968387Y-45088107D01*
X115964440Y-45122134D01*
X115959306Y-45133759D01*
X115954776Y-45156537D01*
X115938482Y-45180921D01*
X115933570Y-45192047D01*
X115925970Y-45199646D01*
X115911421Y-45221421D01*
X115889646Y-45235970D01*
X115882047Y-45243570D01*
X115870921Y-45248482D01*
X115846537Y-45264776D01*
X115823759Y-45269306D01*
X115812134Y-45274440D01*
X115778106Y-45278387D01*
X115770000Y-45280000D01*
X115370000Y-45280000D01*
X115361894Y-45278387D01*
X115327865Y-45274440D01*
X115316238Y-45269306D01*
X115293463Y-45264776D01*
X115269080Y-45248483D01*
X115257952Y-45243570D01*
X115250350Y-45235968D01*
X115228579Y-45221421D01*
X115214031Y-45199649D01*
X115206429Y-45192047D01*
X115201514Y-45180917D01*
X115185224Y-45156537D01*
X115180694Y-45133764D01*
X115175559Y-45122134D01*
X115171609Y-45088093D01*
X115170000Y-45080000D01*
X115170000Y-44280000D01*
X115171609Y-44271906D01*
X115175559Y-44237865D01*
X115180694Y-44226234D01*
X115185224Y-44203463D01*
X115201513Y-44179084D01*
X115206429Y-44167952D01*
X115214033Y-44160347D01*
X115228579Y-44138579D01*
X115250347Y-44124033D01*
X115257952Y-44116429D01*
X115269084Y-44111513D01*
X115293463Y-44095224D01*
X115316234Y-44090694D01*
X115327865Y-44085559D01*
X115361907Y-44081609D01*
X115370000Y-44080000D01*
X115770000Y-44080000D01*
X115778095Y-44081610D01*
G37*
G36*
X116998092Y-44081609D02*
G01*
X117029844Y-44085293D01*
X117040693Y-44090083D01*
X117062710Y-44094463D01*
X117086280Y-44110212D01*
X117096396Y-44114679D01*
X117103305Y-44121588D01*
X117124350Y-44135650D01*
X117138411Y-44156694D01*
X117145320Y-44163603D01*
X117149785Y-44173716D01*
X117165537Y-44197290D01*
X117169916Y-44219308D01*
X117174706Y-44230155D01*
X117178388Y-44261897D01*
X117180000Y-44270000D01*
X117180000Y-45090000D01*
X117178387Y-45098104D01*
X117174706Y-45129844D01*
X117169917Y-45140689D01*
X117165537Y-45162710D01*
X117149784Y-45186285D01*
X117145320Y-45196396D01*
X117138413Y-45203302D01*
X117124350Y-45224350D01*
X117103302Y-45238413D01*
X117096396Y-45245320D01*
X117086285Y-45249784D01*
X117062710Y-45265537D01*
X117040689Y-45269917D01*
X117029844Y-45274706D01*
X116998103Y-45278388D01*
X116990000Y-45280000D01*
X116610000Y-45280000D01*
X116601896Y-45278388D01*
X116570155Y-45274706D01*
X116559308Y-45269916D01*
X116537290Y-45265537D01*
X116513716Y-45249785D01*
X116503603Y-45245320D01*
X116496694Y-45238411D01*
X116475650Y-45224350D01*
X116461588Y-45203305D01*
X116454679Y-45196396D01*
X116450212Y-45186280D01*
X116434463Y-45162710D01*
X116430083Y-45140693D01*
X116425293Y-45129844D01*
X116421609Y-45098091D01*
X116420000Y-45090000D01*
X116420000Y-44270000D01*
X116421609Y-44261908D01*
X116425293Y-44230155D01*
X116430084Y-44219304D01*
X116434463Y-44197290D01*
X116450211Y-44173721D01*
X116454679Y-44163603D01*
X116461590Y-44156691D01*
X116475650Y-44135650D01*
X116496691Y-44121590D01*
X116503603Y-44114679D01*
X116513721Y-44110211D01*
X116537290Y-44094463D01*
X116559304Y-44090084D01*
X116570155Y-44085293D01*
X116601909Y-44081609D01*
X116610000Y-44080000D01*
X116990000Y-44080000D01*
X116998092Y-44081609D01*
G37*
G36*
X118061970Y-44093321D02*
G01*
X118118744Y-44131256D01*
X118156679Y-44188030D01*
X118170000Y-44255000D01*
X118170000Y-45105000D01*
X118156679Y-45171970D01*
X118118744Y-45228744D01*
X118061970Y-45266679D01*
X117995000Y-45280000D01*
X117645000Y-45280000D01*
X117578030Y-45266679D01*
X117521256Y-45228744D01*
X117483321Y-45171970D01*
X117470000Y-45105000D01*
X117470000Y-44255000D01*
X117483321Y-44188030D01*
X117521256Y-44131256D01*
X117578030Y-44093321D01*
X117645000Y-44080000D01*
X117995000Y-44080000D01*
X118061970Y-44093321D01*
G37*
G36*
X119061970Y-44093321D02*
G01*
X119118744Y-44131256D01*
X119156679Y-44188030D01*
X119170000Y-44255000D01*
X119170000Y-45105000D01*
X119156679Y-45171970D01*
X119118744Y-45228744D01*
X119061970Y-45266679D01*
X118995000Y-45280000D01*
X118645000Y-45280000D01*
X118578030Y-45266679D01*
X118521256Y-45228744D01*
X118483321Y-45171970D01*
X118470000Y-45105000D01*
X118470000Y-44255000D01*
X118483321Y-44188030D01*
X118521256Y-44131256D01*
X118578030Y-44093321D01*
X118645000Y-44080000D01*
X118995000Y-44080000D01*
X119061970Y-44093321D01*
G37*
G36*
X120038092Y-44081609D02*
G01*
X120069844Y-44085293D01*
X120080693Y-44090083D01*
X120102710Y-44094463D01*
X120126280Y-44110212D01*
X120136396Y-44114679D01*
X120143305Y-44121588D01*
X120164350Y-44135650D01*
X120178411Y-44156694D01*
X120185320Y-44163603D01*
X120189785Y-44173716D01*
X120205537Y-44197290D01*
X120209916Y-44219308D01*
X120214706Y-44230155D01*
X120218388Y-44261897D01*
X120220000Y-44270000D01*
X120220000Y-45090000D01*
X120218387Y-45098104D01*
X120214706Y-45129844D01*
X120209917Y-45140689D01*
X120205537Y-45162710D01*
X120189784Y-45186285D01*
X120185320Y-45196396D01*
X120178413Y-45203302D01*
X120164350Y-45224350D01*
X120143302Y-45238413D01*
X120136396Y-45245320D01*
X120126285Y-45249784D01*
X120102710Y-45265537D01*
X120080689Y-45269917D01*
X120069844Y-45274706D01*
X120038103Y-45278388D01*
X120030000Y-45280000D01*
X119650000Y-45280000D01*
X119641896Y-45278388D01*
X119610155Y-45274706D01*
X119599308Y-45269916D01*
X119577290Y-45265537D01*
X119553716Y-45249785D01*
X119543603Y-45245320D01*
X119536694Y-45238411D01*
X119515650Y-45224350D01*
X119501588Y-45203305D01*
X119494679Y-45196396D01*
X119490212Y-45186280D01*
X119474463Y-45162710D01*
X119470083Y-45140693D01*
X119465293Y-45129844D01*
X119461609Y-45098091D01*
X119460000Y-45090000D01*
X119460000Y-44270000D01*
X119461609Y-44261908D01*
X119465293Y-44230155D01*
X119470084Y-44219304D01*
X119474463Y-44197290D01*
X119490211Y-44173721D01*
X119494679Y-44163603D01*
X119501590Y-44156691D01*
X119515650Y-44135650D01*
X119536691Y-44121590D01*
X119543603Y-44114679D01*
X119553721Y-44110211D01*
X119577290Y-44094463D01*
X119599304Y-44090084D01*
X119610155Y-44085293D01*
X119641909Y-44081609D01*
X119650000Y-44080000D01*
X120030000Y-44080000D01*
X120038092Y-44081609D01*
G37*
G36*
X121278095Y-44081610D02*
G01*
X121312134Y-44085559D01*
X121323764Y-44090694D01*
X121346537Y-44095224D01*
X121370917Y-44111514D01*
X121382047Y-44116429D01*
X121389649Y-44124031D01*
X121411421Y-44138579D01*
X121425968Y-44160350D01*
X121433570Y-44167952D01*
X121438483Y-44179080D01*
X121454776Y-44203463D01*
X121459306Y-44226238D01*
X121464440Y-44237865D01*
X121468388Y-44271896D01*
X121470000Y-44280000D01*
X121470000Y-45080000D01*
X121468387Y-45088107D01*
X121464440Y-45122134D01*
X121459306Y-45133759D01*
X121454776Y-45156537D01*
X121438482Y-45180921D01*
X121433570Y-45192047D01*
X121425970Y-45199646D01*
X121411421Y-45221421D01*
X121389646Y-45235970D01*
X121382047Y-45243570D01*
X121370921Y-45248482D01*
X121346537Y-45264776D01*
X121323759Y-45269306D01*
X121312134Y-45274440D01*
X121278106Y-45278387D01*
X121270000Y-45280000D01*
X120870000Y-45280000D01*
X120861894Y-45278387D01*
X120827865Y-45274440D01*
X120816238Y-45269306D01*
X120793463Y-45264776D01*
X120769080Y-45248483D01*
X120757952Y-45243570D01*
X120750350Y-45235968D01*
X120728579Y-45221421D01*
X120714031Y-45199649D01*
X120706429Y-45192047D01*
X120701514Y-45180917D01*
X120685224Y-45156537D01*
X120680694Y-45133764D01*
X120675559Y-45122134D01*
X120671609Y-45088093D01*
X120670000Y-45080000D01*
X120670000Y-44280000D01*
X120671609Y-44271906D01*
X120675559Y-44237865D01*
X120680694Y-44226234D01*
X120685224Y-44203463D01*
X120701513Y-44179084D01*
X120706429Y-44167952D01*
X120714033Y-44160347D01*
X120728579Y-44138579D01*
X120750347Y-44124033D01*
X120757952Y-44116429D01*
X120769084Y-44111513D01*
X120793463Y-44095224D01*
X120816234Y-44090694D01*
X120827865Y-44085559D01*
X120861907Y-44081609D01*
X120870000Y-44080000D01*
X121270000Y-44080000D01*
X121278095Y-44081610D01*
G37*
G36*
X112336662Y-43140276D02*
G01*
X112380459Y-43169541D01*
X112409724Y-43213338D01*
X112420000Y-43265000D01*
X112420000Y-43535000D01*
X112409724Y-43586662D01*
X112380459Y-43630459D01*
X112336662Y-43659724D01*
X112285000Y-43670000D01*
X111915000Y-43670000D01*
X111863338Y-43659724D01*
X111819541Y-43630459D01*
X111790276Y-43586662D01*
X111780000Y-43535000D01*
X111780000Y-43265000D01*
X111790276Y-43213338D01*
X111819541Y-43169541D01*
X111863338Y-43140276D01*
X111915000Y-43130000D01*
X112285000Y-43130000D01*
X112336662Y-43140276D01*
G37*
G36*
X124686662Y-43090276D02*
G01*
X124730459Y-43119541D01*
X124759724Y-43163338D01*
X124770000Y-43215000D01*
X124770000Y-43485000D01*
X124759724Y-43536662D01*
X124730459Y-43580459D01*
X124686662Y-43609724D01*
X124635000Y-43620000D01*
X124265000Y-43620000D01*
X124213338Y-43609724D01*
X124169541Y-43580459D01*
X124140276Y-43536662D01*
X124130000Y-43485000D01*
X124130000Y-43215000D01*
X124140276Y-43163338D01*
X124169541Y-43119541D01*
X124213338Y-43090276D01*
X124265000Y-43080000D01*
X124635000Y-43080000D01*
X124686662Y-43090276D01*
G37*
G36*
X112336662Y-42120276D02*
G01*
X112380459Y-42149541D01*
X112409724Y-42193338D01*
X112420000Y-42245000D01*
X112420000Y-42515000D01*
X112409724Y-42566662D01*
X112380459Y-42610459D01*
X112336662Y-42639724D01*
X112285000Y-42650000D01*
X111915000Y-42650000D01*
X111863338Y-42639724D01*
X111819541Y-42610459D01*
X111790276Y-42566662D01*
X111780000Y-42515000D01*
X111780000Y-42245000D01*
X111790276Y-42193338D01*
X111819541Y-42149541D01*
X111863338Y-42120276D01*
X111915000Y-42110000D01*
X112285000Y-42110000D01*
X112336662Y-42120276D01*
G37*
G36*
X124686662Y-42070276D02*
G01*
X124730459Y-42099541D01*
X124759724Y-42143338D01*
X124770000Y-42195000D01*
X124770000Y-42465000D01*
X124759724Y-42516662D01*
X124730459Y-42560459D01*
X124686662Y-42589724D01*
X124635000Y-42600000D01*
X124265000Y-42600000D01*
X124213338Y-42589724D01*
X124169541Y-42560459D01*
X124140276Y-42516662D01*
X124130000Y-42465000D01*
X124130000Y-42195000D01*
X124140276Y-42143338D01*
X124169541Y-42099541D01*
X124213338Y-42070276D01*
X124265000Y-42060000D01*
X124635000Y-42060000D01*
X124686662Y-42070276D01*
G37*
G36*
X98841323Y-40354656D02*
G01*
X98878337Y-40354656D01*
X98920090Y-40363530D01*
X98966891Y-40368804D01*
X99000922Y-40380712D01*
X99031592Y-40387231D01*
X99075789Y-40406909D01*
X99125413Y-40424273D01*
X99151243Y-40440503D01*
X99174725Y-40450958D01*
X99218509Y-40482769D01*
X99267617Y-40513626D01*
X99285253Y-40531262D01*
X99301479Y-40543051D01*
X99341596Y-40587605D01*
X99386374Y-40632383D01*
X99396672Y-40648772D01*
X99406317Y-40659484D01*
X99439310Y-40716630D01*
X99475727Y-40774587D01*
X99480274Y-40787582D01*
X99484655Y-40795170D01*
X99507085Y-40864204D01*
X99531196Y-40933109D01*
X99532110Y-40941224D01*
X99533071Y-40944181D01*
X99541791Y-41027147D01*
X99550000Y-41100000D01*
X99541790Y-41172859D01*
X99533071Y-41255818D01*
X99532110Y-41258773D01*
X99531196Y-41266891D01*
X99507080Y-41335808D01*
X99484655Y-41404829D01*
X99480275Y-41412415D01*
X99475727Y-41425413D01*
X99439303Y-41483380D01*
X99406317Y-41540515D01*
X99396674Y-41551224D01*
X99386374Y-41567617D01*
X99341587Y-41612403D01*
X99301479Y-41656948D01*
X99285256Y-41668734D01*
X99267617Y-41686374D01*
X99218499Y-41717236D01*
X99174725Y-41749041D01*
X99151248Y-41759493D01*
X99125413Y-41775727D01*
X99075779Y-41793094D01*
X99031592Y-41812768D01*
X99000928Y-41819285D01*
X98966891Y-41831196D01*
X98920087Y-41836469D01*
X98878337Y-41845344D01*
X98841323Y-41845344D01*
X98800000Y-41850000D01*
X98758677Y-41845344D01*
X98721663Y-41845344D01*
X98679911Y-41836469D01*
X98633109Y-41831196D01*
X98599073Y-41819286D01*
X98568407Y-41812768D01*
X98524215Y-41793092D01*
X98474587Y-41775727D01*
X98448753Y-41759494D01*
X98425274Y-41749041D01*
X98381493Y-41717232D01*
X98332383Y-41686374D01*
X98314745Y-41668736D01*
X98298520Y-41656948D01*
X98258402Y-41612393D01*
X98213626Y-41567617D01*
X98203327Y-41551227D01*
X98193682Y-41540515D01*
X98160684Y-41483361D01*
X98124273Y-41425413D01*
X98119726Y-41412419D01*
X98115344Y-41404829D01*
X98092905Y-41335768D01*
X98068804Y-41266891D01*
X98067889Y-41258778D01*
X98066928Y-41255818D01*
X98058194Y-41172726D01*
X98050000Y-41100000D01*
X98058193Y-41027279D01*
X98066928Y-40944181D01*
X98067890Y-40941219D01*
X98068804Y-40933109D01*
X98092900Y-40864244D01*
X98115344Y-40795170D01*
X98119727Y-40787577D01*
X98124273Y-40774587D01*
X98160677Y-40716650D01*
X98193682Y-40659484D01*
X98203330Y-40648768D01*
X98213626Y-40632383D01*
X98258386Y-40587622D01*
X98298519Y-40543051D01*
X98314751Y-40531257D01*
X98332383Y-40513626D01*
X98381485Y-40482772D01*
X98425275Y-40450958D01*
X98448757Y-40440502D01*
X98474587Y-40424273D01*
X98524206Y-40406910D01*
X98568407Y-40387231D01*
X98599078Y-40380711D01*
X98633109Y-40368804D01*
X98679908Y-40363530D01*
X98721663Y-40354656D01*
X98758677Y-40354656D01*
X98800000Y-40350000D01*
X98841323Y-40354656D01*
G37*
G36*
X114061777Y-39954705D02*
G01*
X114071789Y-39954705D01*
X114100636Y-39962434D01*
X114159518Y-39974147D01*
X114187310Y-39985658D01*
X114210476Y-39991866D01*
X114231242Y-40003855D01*
X114259041Y-40015370D01*
X114308975Y-40048735D01*
X114334819Y-40063656D01*
X114341892Y-40070729D01*
X114348607Y-40075216D01*
X114424783Y-40151392D01*
X114429269Y-40158106D01*
X114436344Y-40165181D01*
X114451266Y-40191027D01*
X114484629Y-40240958D01*
X114496142Y-40268753D01*
X114508134Y-40289524D01*
X114514342Y-40312693D01*
X114525852Y-40340481D01*
X114537563Y-40399356D01*
X114545295Y-40428211D01*
X114545367Y-40438589D01*
X114546916Y-40446373D01*
X114549988Y-41097774D01*
X114549984Y-41097837D01*
X114550000Y-41100000D01*
X114549514Y-41107402D01*
X114547351Y-41151436D01*
X114546274Y-41156849D01*
X114545295Y-41171789D01*
X114537561Y-41200651D01*
X114525852Y-41259518D01*
X114514342Y-41287303D01*
X114508134Y-41310476D01*
X114496140Y-41331249D01*
X114484629Y-41359041D01*
X114451271Y-41408964D01*
X114436344Y-41434819D01*
X114429267Y-41441895D01*
X114424783Y-41448607D01*
X114348607Y-41524783D01*
X114341895Y-41529267D01*
X114334819Y-41536344D01*
X114308964Y-41551271D01*
X114259041Y-41584629D01*
X114231249Y-41596140D01*
X114210476Y-41608134D01*
X114187303Y-41614342D01*
X114159518Y-41625852D01*
X114100643Y-41637563D01*
X114071789Y-41645295D01*
X114061777Y-41645295D01*
X114053859Y-41646870D01*
X113946141Y-41646870D01*
X113938223Y-41645295D01*
X113928211Y-41645295D01*
X113899357Y-41637563D01*
X113840481Y-41625852D01*
X113812693Y-41614342D01*
X113789524Y-41608134D01*
X113768753Y-41596142D01*
X113740958Y-41584629D01*
X113691027Y-41551266D01*
X113665181Y-41536344D01*
X113658106Y-41529269D01*
X113651392Y-41524783D01*
X113575216Y-41448607D01*
X113570729Y-41441892D01*
X113563656Y-41434819D01*
X113548735Y-41408975D01*
X113515370Y-41359041D01*
X113503855Y-41331242D01*
X113491866Y-41310476D01*
X113485658Y-41287310D01*
X113474147Y-41259518D01*
X113462433Y-41200631D01*
X113454705Y-41171789D01*
X113454632Y-41161414D01*
X113453083Y-41153626D01*
X113450011Y-40502225D01*
X113450015Y-40502143D01*
X113450000Y-40500000D01*
X113450480Y-40492661D01*
X113452648Y-40448563D01*
X113453726Y-40443141D01*
X113454705Y-40428211D01*
X113462433Y-40399366D01*
X113474147Y-40340481D01*
X113485659Y-40312686D01*
X113491866Y-40289524D01*
X113503854Y-40268759D01*
X113515370Y-40240958D01*
X113548739Y-40191016D01*
X113563656Y-40165181D01*
X113570727Y-40158109D01*
X113575216Y-40151392D01*
X113651392Y-40075216D01*
X113658109Y-40070727D01*
X113665181Y-40063656D01*
X113691016Y-40048739D01*
X113740958Y-40015370D01*
X113768759Y-40003854D01*
X113789524Y-39991866D01*
X113812686Y-39985659D01*
X113840481Y-39974147D01*
X113899364Y-39962434D01*
X113928211Y-39954705D01*
X113938223Y-39954705D01*
X113946141Y-39953130D01*
X114053859Y-39953130D01*
X114061777Y-39954705D01*
G37*
G36*
X122701777Y-39954705D02*
G01*
X122711789Y-39954705D01*
X122740636Y-39962434D01*
X122799518Y-39974147D01*
X122827310Y-39985658D01*
X122850476Y-39991866D01*
X122871242Y-40003855D01*
X122899041Y-40015370D01*
X122948975Y-40048735D01*
X122974819Y-40063656D01*
X122981892Y-40070729D01*
X122988607Y-40075216D01*
X123064783Y-40151392D01*
X123069269Y-40158106D01*
X123076344Y-40165181D01*
X123091266Y-40191027D01*
X123124629Y-40240958D01*
X123136142Y-40268753D01*
X123148134Y-40289524D01*
X123154342Y-40312693D01*
X123165852Y-40340481D01*
X123177563Y-40399356D01*
X123185295Y-40428211D01*
X123185367Y-40438589D01*
X123186916Y-40446373D01*
X123189988Y-41097774D01*
X123189984Y-41097837D01*
X123190000Y-41100000D01*
X123189514Y-41107402D01*
X123187351Y-41151436D01*
X123186274Y-41156849D01*
X123185295Y-41171789D01*
X123177561Y-41200651D01*
X123165852Y-41259518D01*
X123154342Y-41287303D01*
X123148134Y-41310476D01*
X123136140Y-41331249D01*
X123124629Y-41359041D01*
X123091271Y-41408964D01*
X123076344Y-41434819D01*
X123069267Y-41441895D01*
X123064783Y-41448607D01*
X122988607Y-41524783D01*
X122981895Y-41529267D01*
X122974819Y-41536344D01*
X122948964Y-41551271D01*
X122899041Y-41584629D01*
X122871249Y-41596140D01*
X122850476Y-41608134D01*
X122827303Y-41614342D01*
X122799518Y-41625852D01*
X122740643Y-41637563D01*
X122711789Y-41645295D01*
X122701777Y-41645295D01*
X122693859Y-41646870D01*
X122586141Y-41646870D01*
X122578223Y-41645295D01*
X122568211Y-41645295D01*
X122539357Y-41637563D01*
X122480481Y-41625852D01*
X122452693Y-41614342D01*
X122429524Y-41608134D01*
X122408753Y-41596142D01*
X122380958Y-41584629D01*
X122331027Y-41551266D01*
X122305181Y-41536344D01*
X122298106Y-41529269D01*
X122291392Y-41524783D01*
X122215216Y-41448607D01*
X122210729Y-41441892D01*
X122203656Y-41434819D01*
X122188735Y-41408975D01*
X122155370Y-41359041D01*
X122143855Y-41331242D01*
X122131866Y-41310476D01*
X122125658Y-41287310D01*
X122114147Y-41259518D01*
X122102433Y-41200631D01*
X122094705Y-41171789D01*
X122094632Y-41161414D01*
X122093083Y-41153626D01*
X122090011Y-40502225D01*
X122090015Y-40502143D01*
X122090000Y-40500000D01*
X122090480Y-40492661D01*
X122092648Y-40448563D01*
X122093726Y-40443141D01*
X122094705Y-40428211D01*
X122102433Y-40399366D01*
X122114147Y-40340481D01*
X122125659Y-40312686D01*
X122131866Y-40289524D01*
X122143854Y-40268759D01*
X122155370Y-40240958D01*
X122188739Y-40191016D01*
X122203656Y-40165181D01*
X122210727Y-40158109D01*
X122215216Y-40151392D01*
X122291392Y-40075216D01*
X122298109Y-40070727D01*
X122305181Y-40063656D01*
X122331016Y-40048739D01*
X122380958Y-40015370D01*
X122408759Y-40003854D01*
X122429524Y-39991866D01*
X122452686Y-39985659D01*
X122480481Y-39974147D01*
X122539364Y-39962434D01*
X122568211Y-39954705D01*
X122578223Y-39954705D01*
X122586141Y-39953130D01*
X122693859Y-39953130D01*
X122701777Y-39954705D01*
G37*
M02*
