%TF.GenerationSoftware,KiCad,Pcbnew,8.0.3*%
%TF.CreationDate,2024-07-26T16:59:45-04:00*%
%TF.ProjectId,Health_Watch,4865616c-7468-45f5-9761-7463682e6b69,rev?*%
%TF.SameCoordinates,Original*%
%TF.FileFunction,Copper,L4,Bot*%
%TF.FilePolarity,Positive*%
%FSLAX46Y46*%
G04 Gerber Fmt 4.6, Leading zero omitted, Abs format (unit mm)*
G04 Created by KiCad (PCBNEW 8.0.3) date 2024-07-26 16:59:45*
%MOMM*%
%LPD*%
G01*
G04 APERTURE LIST*
%TA.AperFunction,ComponentPad*%
%ADD10C,1.320800*%
%TD*%
%TA.AperFunction,ComponentPad*%
%ADD11O,1.100000X1.700000*%
%TD*%
%TA.AperFunction,ComponentPad*%
%ADD12R,1.200000X1.200000*%
%TD*%
%TA.AperFunction,ComponentPad*%
%ADD13O,1.200000X1.200000*%
%TD*%
%TA.AperFunction,ViaPad*%
%ADD14C,0.700000*%
%TD*%
%TA.AperFunction,ViaPad*%
%ADD15C,0.600000*%
%TD*%
G04 APERTURE END LIST*
D10*
%TO.P,J1,1,Pin_1*%
%TO.N,GND*%
X131875000Y-44950000D03*
%TO.P,J1,2,Pin_2*%
%TO.N,/+*%
X129874999Y-44950000D03*
%TD*%
D11*
%TO.P,J2,S1,SHIELD*%
%TO.N,GND*%
X122640000Y-44600000D03*
X122640000Y-40800000D03*
X114000000Y-44600000D03*
X114000000Y-40800000D03*
%TD*%
D12*
%TO.P,J4,1,Pin_1*%
%TO.N,+3V3*%
X118700000Y-67100000D03*
D13*
%TO.P,J4,2,Pin_2*%
%TO.N,/GPIO_PA2*%
X120100000Y-67100000D03*
%TO.P,J4,3,Pin_3*%
%TO.N,/SWD_NRST*%
X121500000Y-67100000D03*
%TO.P,J4,4,Pin_4*%
%TO.N,/TFT_DC*%
X122900000Y-67100000D03*
%TO.P,J4,5,Pin_5*%
%TO.N,/SPI_SCK*%
X124300000Y-67100000D03*
%TO.P,J4,6,Pin_6*%
%TO.N,/SPI_MISO*%
X125700000Y-67100000D03*
%TO.P,J4,7,Pin_7*%
%TO.N,/SPI_MOSI*%
X127100000Y-67100000D03*
%TO.P,J4,8,Pin_8*%
%TO.N,/TFT_TC*%
X128500000Y-67100000D03*
%TO.P,J4,9,Pin_9*%
%TO.N,/I2C_SCL*%
X129900000Y-67100000D03*
%TO.P,J4,10,Pin_10*%
%TO.N,/I2C_SDA*%
X131300000Y-67100000D03*
%TO.P,J4,11,Pin_11*%
%TO.N,GND*%
X132700000Y-67100000D03*
%TD*%
D14*
%TO.N,GND*%
X134000000Y-59000000D03*
X134700000Y-49700000D03*
D15*
X111100000Y-42650000D03*
X109093000Y-51739800D03*
X121950000Y-49950000D03*
D14*
X134000000Y-63000000D03*
D15*
X134850000Y-54175000D03*
D14*
X109000000Y-45000000D03*
X127000000Y-45000000D03*
X127000000Y-43000000D03*
D15*
X99700000Y-48650000D03*
X108492001Y-61495238D03*
D14*
X128900000Y-53125000D03*
X98000000Y-61000000D03*
D15*
X112522000Y-66497200D03*
D14*
X103000000Y-41000000D03*
X125000000Y-51000000D03*
D15*
X115620800Y-46126400D03*
D14*
X111000000Y-45000000D03*
X136000000Y-63000000D03*
X98000000Y-43000000D03*
X108000000Y-43000000D03*
X119150000Y-58450000D03*
X136000000Y-59000000D03*
X134000000Y-61000000D03*
X98000000Y-59000000D03*
D15*
X105250000Y-45750000D03*
D14*
X98000000Y-47000000D03*
X117000000Y-59000000D03*
X126000000Y-41000000D03*
D15*
X135077200Y-46837600D03*
D14*
X98000000Y-45000000D03*
X126000000Y-55000000D03*
D15*
X133197600Y-44627800D03*
D14*
X101000000Y-41000000D03*
X123000000Y-51000000D03*
X125000000Y-45000000D03*
X98000000Y-57000000D03*
X104000000Y-43000000D03*
X113900000Y-62700000D03*
X130000000Y-55000000D03*
D15*
X114554000Y-50139600D03*
X102300000Y-62484000D03*
D14*
X117000000Y-47000000D03*
X101000000Y-59000000D03*
X98000000Y-67000000D03*
D15*
X133197600Y-45477800D03*
X120243600Y-50114200D03*
X107525400Y-56195200D03*
X113030000Y-51739800D03*
D14*
X111000000Y-41000000D03*
X132000000Y-61000000D03*
D15*
X107500000Y-50150000D03*
X102565200Y-61468000D03*
X109118400Y-54584600D03*
D14*
X135000000Y-41000000D03*
X101000000Y-67000000D03*
X98000000Y-63000000D03*
X125000000Y-53000000D03*
D15*
X99450000Y-53350000D03*
D14*
X101000000Y-57000000D03*
D15*
X127400000Y-53300000D03*
X114579400Y-53365400D03*
D14*
X101000000Y-61000000D03*
X135000000Y-65000000D03*
D15*
X107525400Y-53375800D03*
D14*
X107000000Y-41000000D03*
X102000000Y-53000000D03*
D15*
X110236000Y-62600000D03*
D14*
X100000000Y-65000000D03*
X124000000Y-41000000D03*
D15*
X133950000Y-66750000D03*
X102350000Y-55829200D03*
X113055400Y-54584600D03*
D14*
X132000000Y-59000000D03*
D15*
X111302800Y-53365400D03*
X125552200Y-42392600D03*
X105511600Y-66903600D03*
D14*
X100000000Y-52000000D03*
D15*
X104546400Y-66954400D03*
X130000000Y-50450000D03*
D14*
X100000000Y-43000000D03*
D15*
X132150000Y-53350000D03*
D14*
X98000000Y-65000000D03*
D15*
X132450000Y-65350000D03*
D14*
X135000000Y-45000000D03*
D15*
X114579400Y-56184800D03*
D14*
X109000000Y-41000000D03*
X102000000Y-43000000D03*
D15*
X129000000Y-47800000D03*
D14*
X136000000Y-61000000D03*
D15*
X123800000Y-50000000D03*
D14*
X128000000Y-55000000D03*
X135000000Y-53000000D03*
D15*
X111277400Y-50139600D03*
D14*
X135000000Y-43000000D03*
D15*
X121132600Y-46075600D03*
D14*
X132000000Y-63000000D03*
X106000000Y-43000000D03*
D15*
X111302800Y-56184800D03*
D14*
X105000000Y-41000000D03*
D15*
%TO.N,+3V3*%
X104050000Y-57850000D03*
X127374600Y-61437400D03*
X103132000Y-57828000D03*
X99950000Y-45050000D03*
X120098000Y-49235000D03*
X128850000Y-59500000D03*
X117348000Y-67300000D03*
X119126000Y-55854600D03*
X115000000Y-62550000D03*
X134850000Y-57725000D03*
X105181400Y-46634400D03*
X117300000Y-66250000D03*
X115861000Y-65116800D03*
%TD*%
%TA.AperFunction,Conductor*%
%TO.N,+3V3*%
G36*
X136569693Y-39710252D02*
G01*
X136584045Y-39744900D01*
X136584045Y-39744907D01*
X136581526Y-58540130D01*
X136567170Y-58574776D01*
X136532519Y-58589123D01*
X136497873Y-58574767D01*
X136492205Y-58567966D01*
X136490483Y-58565470D01*
X136490479Y-58565466D01*
X136372239Y-58460716D01*
X136232364Y-58387303D01*
X136116788Y-58358817D01*
X136078985Y-58349500D01*
X135921015Y-58349500D01*
X135890687Y-58356975D01*
X135767635Y-58387303D01*
X135627760Y-58460716D01*
X135509520Y-58565466D01*
X135509516Y-58565471D01*
X135419780Y-58695475D01*
X135363763Y-58843180D01*
X135344722Y-59000000D01*
X135363763Y-59156819D01*
X135419780Y-59304524D01*
X135477627Y-59388330D01*
X135509517Y-59434530D01*
X135509519Y-59434531D01*
X135509520Y-59434533D01*
X135627760Y-59539283D01*
X135767635Y-59612696D01*
X135921015Y-59650500D01*
X135921016Y-59650500D01*
X136078983Y-59650500D01*
X136078985Y-59650500D01*
X136232365Y-59612696D01*
X136372240Y-59539283D01*
X136490483Y-59434530D01*
X136492075Y-59432223D01*
X136523561Y-59411857D01*
X136560230Y-59419721D01*
X136580599Y-59451211D01*
X136581403Y-59460060D01*
X136581259Y-60539743D01*
X136566903Y-60574389D01*
X136532252Y-60588736D01*
X136497606Y-60574380D01*
X136491937Y-60567577D01*
X136490483Y-60565470D01*
X136490480Y-60565467D01*
X136490479Y-60565466D01*
X136372239Y-60460716D01*
X136232364Y-60387303D01*
X136116788Y-60358817D01*
X136078985Y-60349500D01*
X135921015Y-60349500D01*
X135890687Y-60356975D01*
X135767635Y-60387303D01*
X135627760Y-60460716D01*
X135509520Y-60565466D01*
X135509516Y-60565471D01*
X135419780Y-60695475D01*
X135363763Y-60843180D01*
X135344722Y-61000000D01*
X135363763Y-61156819D01*
X135419780Y-61304524D01*
X135443216Y-61338476D01*
X135509517Y-61434530D01*
X135509519Y-61434531D01*
X135509520Y-61434533D01*
X135538774Y-61460449D01*
X135627760Y-61539283D01*
X135767635Y-61612696D01*
X135921015Y-61650500D01*
X135921016Y-61650500D01*
X136078983Y-61650500D01*
X136078985Y-61650500D01*
X136232365Y-61612696D01*
X136372240Y-61539283D01*
X136490483Y-61434530D01*
X136491808Y-61432609D01*
X136523296Y-61412246D01*
X136559965Y-61420112D01*
X136580331Y-61451603D01*
X136581135Y-61460449D01*
X136580991Y-62539355D01*
X136566635Y-62574001D01*
X136531984Y-62588348D01*
X136497338Y-62573992D01*
X136491671Y-62567191D01*
X136490483Y-62565470D01*
X136490479Y-62565466D01*
X136372239Y-62460716D01*
X136232364Y-62387303D01*
X136116788Y-62358817D01*
X136078985Y-62349500D01*
X135921015Y-62349500D01*
X135890687Y-62356975D01*
X135767635Y-62387303D01*
X135627760Y-62460716D01*
X135509520Y-62565466D01*
X135509516Y-62565471D01*
X135419780Y-62695475D01*
X135363763Y-62843180D01*
X135344722Y-63000000D01*
X135363763Y-63156819D01*
X135419780Y-63304524D01*
X135477627Y-63388330D01*
X135509517Y-63434530D01*
X135627760Y-63539283D01*
X135767635Y-63612696D01*
X135921015Y-63650500D01*
X135921016Y-63650500D01*
X136078983Y-63650500D01*
X136078985Y-63650500D01*
X136232365Y-63612696D01*
X136372240Y-63539283D01*
X136490483Y-63434530D01*
X136491539Y-63433000D01*
X136492237Y-63432548D01*
X136492445Y-63432314D01*
X136492510Y-63432371D01*
X136523026Y-63412634D01*
X136559695Y-63420499D01*
X136580063Y-63451989D01*
X136580867Y-63460837D01*
X136580118Y-69047258D01*
X136565762Y-69081904D01*
X136531113Y-69096251D01*
X97246656Y-69092313D01*
X97212009Y-69077958D01*
X97197661Y-69043308D01*
X97197661Y-69043275D01*
X97198413Y-68085165D01*
X97199263Y-67000000D01*
X97344722Y-67000000D01*
X97363763Y-67156819D01*
X97419780Y-67304524D01*
X97455092Y-67355682D01*
X97509517Y-67434530D01*
X97509519Y-67434531D01*
X97509520Y-67434533D01*
X97559644Y-67478938D01*
X97627760Y-67539283D01*
X97767635Y-67612696D01*
X97921015Y-67650500D01*
X97921016Y-67650500D01*
X98078983Y-67650500D01*
X98078985Y-67650500D01*
X98232365Y-67612696D01*
X98372240Y-67539283D01*
X98490483Y-67434530D01*
X98580220Y-67304523D01*
X98636237Y-67156818D01*
X98655278Y-67000000D01*
X100344722Y-67000000D01*
X100363763Y-67156819D01*
X100419780Y-67304524D01*
X100455092Y-67355682D01*
X100509517Y-67434530D01*
X100509519Y-67434531D01*
X100509520Y-67434533D01*
X100559644Y-67478938D01*
X100627760Y-67539283D01*
X100767635Y-67612696D01*
X100921015Y-67650500D01*
X100921016Y-67650500D01*
X101078983Y-67650500D01*
X101078985Y-67650500D01*
X101232365Y-67612696D01*
X101372240Y-67539283D01*
X101490483Y-67434530D01*
X101580220Y-67304523D01*
X101636237Y-67156818D01*
X101655278Y-67000000D01*
X101649741Y-66954400D01*
X103940718Y-66954400D01*
X103961355Y-67111161D01*
X104021861Y-67257236D01*
X104021864Y-67257241D01*
X104089668Y-67345606D01*
X104118118Y-67382682D01*
X104243559Y-67478936D01*
X104243561Y-67478936D01*
X104243563Y-67478938D01*
X104389249Y-67539283D01*
X104389638Y-67539444D01*
X104546400Y-67560082D01*
X104703162Y-67539444D01*
X104849241Y-67478936D01*
X104974682Y-67382682D01*
X105009892Y-67336794D01*
X105042369Y-67318044D01*
X105078594Y-67327750D01*
X105083212Y-67331801D01*
X105114335Y-67355682D01*
X105208759Y-67428136D01*
X105208761Y-67428136D01*
X105208763Y-67428138D01*
X105305692Y-67468287D01*
X105354838Y-67488644D01*
X105511600Y-67509282D01*
X105668362Y-67488644D01*
X105814441Y-67428136D01*
X105939882Y-67331882D01*
X106036136Y-67206441D01*
X106096644Y-67060362D01*
X106117282Y-66903600D01*
X106096644Y-66746838D01*
X106075369Y-66695475D01*
X106036138Y-66600763D01*
X106036135Y-66600758D01*
X106009058Y-66565471D01*
X105956672Y-66497200D01*
X111916318Y-66497200D01*
X111936955Y-66653961D01*
X111997461Y-66800036D01*
X111997464Y-66800041D01*
X112079353Y-66906762D01*
X112093718Y-66925482D01*
X112219159Y-67021736D01*
X112219161Y-67021736D01*
X112219163Y-67021738D01*
X112280970Y-67047339D01*
X112365238Y-67082244D01*
X112522000Y-67102882D01*
X112678762Y-67082244D01*
X112824841Y-67021736D01*
X112950282Y-66925482D01*
X113046536Y-66800041D01*
X113107044Y-66653962D01*
X113127682Y-66497200D01*
X113123906Y-66468519D01*
X117700000Y-66468519D01*
X117700000Y-66975000D01*
X118319383Y-66975000D01*
X118300000Y-67047339D01*
X118300000Y-67152661D01*
X118319383Y-67225000D01*
X117700001Y-67225000D01*
X117700001Y-67731479D01*
X117714834Y-67825147D01*
X117772354Y-67938038D01*
X117772359Y-67938045D01*
X117861954Y-68027640D01*
X117861961Y-68027645D01*
X117974849Y-68085163D01*
X118068519Y-68099999D01*
X118574999Y-68099999D01*
X118575000Y-68099998D01*
X118575000Y-67480617D01*
X118647339Y-67500000D01*
X118752661Y-67500000D01*
X118825000Y-67480617D01*
X118825000Y-68099999D01*
X119331479Y-68099999D01*
X119425147Y-68085165D01*
X119538038Y-68027645D01*
X119538045Y-68027640D01*
X119627639Y-67938046D01*
X119627640Y-67938044D01*
X119632542Y-67928425D01*
X119661059Y-67904069D01*
X119696131Y-67905905D01*
X119820197Y-67961144D01*
X120005354Y-68000500D01*
X120194646Y-68000500D01*
X120379803Y-67961144D01*
X120552730Y-67884151D01*
X120705871Y-67772888D01*
X120763586Y-67708789D01*
X120797435Y-67692643D01*
X120832787Y-67705162D01*
X120836414Y-67708789D01*
X120894124Y-67772884D01*
X120894127Y-67772886D01*
X120894129Y-67772888D01*
X121047270Y-67884151D01*
X121220197Y-67961144D01*
X121405354Y-68000500D01*
X121594646Y-68000500D01*
X121779803Y-67961144D01*
X121952730Y-67884151D01*
X122105871Y-67772888D01*
X122163586Y-67708789D01*
X122197435Y-67692643D01*
X122232787Y-67705162D01*
X122236414Y-67708789D01*
X122294124Y-67772884D01*
X122294127Y-67772886D01*
X122294129Y-67772888D01*
X122447270Y-67884151D01*
X122620197Y-67961144D01*
X122805354Y-68000500D01*
X122994646Y-68000500D01*
X123179803Y-67961144D01*
X123352730Y-67884151D01*
X123505871Y-67772888D01*
X123563586Y-67708789D01*
X123597435Y-67692643D01*
X123632787Y-67705162D01*
X123636414Y-67708789D01*
X123694124Y-67772884D01*
X123694127Y-67772886D01*
X123694129Y-67772888D01*
X123847270Y-67884151D01*
X124020197Y-67961144D01*
X124205354Y-68000500D01*
X124394646Y-68000500D01*
X124579803Y-67961144D01*
X124752730Y-67884151D01*
X124905871Y-67772888D01*
X124963586Y-67708789D01*
X124997435Y-67692643D01*
X125032787Y-67705162D01*
X125036414Y-67708789D01*
X125094124Y-67772884D01*
X125094127Y-67772886D01*
X125094129Y-67772888D01*
X125247270Y-67884151D01*
X125420197Y-67961144D01*
X125605354Y-68000500D01*
X125794646Y-68000500D01*
X125979803Y-67961144D01*
X126152730Y-67884151D01*
X126305871Y-67772888D01*
X126363586Y-67708789D01*
X126397435Y-67692643D01*
X126432787Y-67705162D01*
X126436414Y-67708789D01*
X126494124Y-67772884D01*
X126494127Y-67772886D01*
X126494129Y-67772888D01*
X126647270Y-67884151D01*
X126820197Y-67961144D01*
X127005354Y-68000500D01*
X127194646Y-68000500D01*
X127379803Y-67961144D01*
X127552730Y-67884151D01*
X127705871Y-67772888D01*
X127763586Y-67708789D01*
X127797435Y-67692643D01*
X127832787Y-67705162D01*
X127836414Y-67708789D01*
X127894124Y-67772884D01*
X127894127Y-67772886D01*
X127894129Y-67772888D01*
X128047270Y-67884151D01*
X128220197Y-67961144D01*
X128405354Y-68000500D01*
X128594646Y-68000500D01*
X128779803Y-67961144D01*
X128952730Y-67884151D01*
X129105871Y-67772888D01*
X129163586Y-67708789D01*
X129197435Y-67692643D01*
X129232787Y-67705162D01*
X129236414Y-67708789D01*
X129294124Y-67772884D01*
X129294127Y-67772886D01*
X129294129Y-67772888D01*
X129447270Y-67884151D01*
X129620197Y-67961144D01*
X129805354Y-68000500D01*
X129994646Y-68000500D01*
X130179803Y-67961144D01*
X130352730Y-67884151D01*
X130505871Y-67772888D01*
X130563586Y-67708789D01*
X130597435Y-67692643D01*
X130632787Y-67705162D01*
X130636414Y-67708789D01*
X130694124Y-67772884D01*
X130694127Y-67772886D01*
X130694129Y-67772888D01*
X130847270Y-67884151D01*
X131020197Y-67961144D01*
X131205354Y-68000500D01*
X131394646Y-68000500D01*
X131579803Y-67961144D01*
X131752730Y-67884151D01*
X131905871Y-67772888D01*
X131963586Y-67708789D01*
X131997435Y-67692643D01*
X132032787Y-67705162D01*
X132036414Y-67708789D01*
X132094124Y-67772884D01*
X132094127Y-67772886D01*
X132094129Y-67772888D01*
X132247270Y-67884151D01*
X132420197Y-67961144D01*
X132605354Y-68000500D01*
X132794646Y-68000500D01*
X132979803Y-67961144D01*
X133152730Y-67884151D01*
X133305871Y-67772888D01*
X133432533Y-67632216D01*
X133527179Y-67468284D01*
X133580517Y-67304126D01*
X133604871Y-67275612D01*
X133642259Y-67272669D01*
X133645869Y-67274001D01*
X133647157Y-67274534D01*
X133647159Y-67274536D01*
X133793238Y-67335044D01*
X133950000Y-67355682D01*
X134106762Y-67335044D01*
X134252841Y-67274536D01*
X134378282Y-67178282D01*
X134474536Y-67052841D01*
X134535044Y-66906762D01*
X134555682Y-66750000D01*
X134535044Y-66593238D01*
X134523542Y-66565470D01*
X134474538Y-66447163D01*
X134474535Y-66447158D01*
X134378282Y-66321718D01*
X134378281Y-66321717D01*
X134252841Y-66225464D01*
X134252836Y-66225461D01*
X134106761Y-66164955D01*
X133950000Y-66144318D01*
X133793238Y-66164955D01*
X133647163Y-66225461D01*
X133647158Y-66225464D01*
X133521718Y-66321717D01*
X133521717Y-66321718D01*
X133425464Y-66447158D01*
X133425462Y-66447162D01*
X133423186Y-66452656D01*
X133396664Y-66479171D01*
X133359161Y-66479167D01*
X133341504Y-66466686D01*
X133305875Y-66427115D01*
X133305872Y-66427113D01*
X133251080Y-66387304D01*
X133152730Y-66315849D01*
X132979803Y-66238856D01*
X132979800Y-66238855D01*
X132979796Y-66238854D01*
X132794646Y-66199500D01*
X132605354Y-66199500D01*
X132420203Y-66238854D01*
X132420194Y-66238857D01*
X132247268Y-66315850D01*
X132094128Y-66427112D01*
X132036414Y-66491210D01*
X132002564Y-66507355D01*
X131967212Y-66494836D01*
X131963586Y-66491210D01*
X131905871Y-66427112D01*
X131786574Y-66340438D01*
X131752730Y-66315849D01*
X131579803Y-66238856D01*
X131579800Y-66238855D01*
X131579796Y-66238854D01*
X131394646Y-66199500D01*
X131205354Y-66199500D01*
X131020203Y-66238854D01*
X131020194Y-66238857D01*
X130847268Y-66315850D01*
X130694128Y-66427112D01*
X130636414Y-66491210D01*
X130602564Y-66507355D01*
X130567212Y-66494836D01*
X130563586Y-66491210D01*
X130505871Y-66427112D01*
X130386574Y-66340438D01*
X130352730Y-66315849D01*
X130179803Y-66238856D01*
X130179800Y-66238855D01*
X130179796Y-66238854D01*
X129994646Y-66199500D01*
X129805354Y-66199500D01*
X129620203Y-66238854D01*
X129620194Y-66238857D01*
X129447268Y-66315850D01*
X129294128Y-66427112D01*
X129236414Y-66491210D01*
X129202564Y-66507355D01*
X129167212Y-66494836D01*
X129163586Y-66491210D01*
X129105871Y-66427112D01*
X128986574Y-66340438D01*
X128952730Y-66315849D01*
X128779803Y-66238856D01*
X128779800Y-66238855D01*
X128779796Y-66238854D01*
X128594646Y-66199500D01*
X128405354Y-66199500D01*
X128220203Y-66238854D01*
X128220194Y-66238857D01*
X128047268Y-66315850D01*
X127894128Y-66427112D01*
X127836414Y-66491210D01*
X127802564Y-66507355D01*
X127767212Y-66494836D01*
X127763586Y-66491210D01*
X127705871Y-66427112D01*
X127586574Y-66340438D01*
X127552730Y-66315849D01*
X127379803Y-66238856D01*
X127379800Y-66238855D01*
X127379796Y-66238854D01*
X127194646Y-66199500D01*
X127005354Y-66199500D01*
X126820203Y-66238854D01*
X126820194Y-66238857D01*
X126647268Y-66315850D01*
X126494128Y-66427112D01*
X126436414Y-66491210D01*
X126402564Y-66507355D01*
X126367212Y-66494836D01*
X126363586Y-66491210D01*
X126305871Y-66427112D01*
X126186574Y-66340438D01*
X126152730Y-66315849D01*
X125979803Y-66238856D01*
X125979800Y-66238855D01*
X125979796Y-66238854D01*
X125794646Y-66199500D01*
X125605354Y-66199500D01*
X125420203Y-66238854D01*
X125420194Y-66238857D01*
X125247268Y-66315850D01*
X125094128Y-66427112D01*
X125036414Y-66491210D01*
X125002564Y-66507355D01*
X124967212Y-66494836D01*
X124963586Y-66491210D01*
X124905871Y-66427112D01*
X124786574Y-66340438D01*
X124752730Y-66315849D01*
X124579803Y-66238856D01*
X124579800Y-66238855D01*
X124579796Y-66238854D01*
X124394646Y-66199500D01*
X124205354Y-66199500D01*
X124020203Y-66238854D01*
X124020194Y-66238857D01*
X123847268Y-66315850D01*
X123694128Y-66427112D01*
X123636414Y-66491210D01*
X123602564Y-66507355D01*
X123567212Y-66494836D01*
X123563586Y-66491210D01*
X123505871Y-66427112D01*
X123386574Y-66340438D01*
X123352730Y-66315849D01*
X123179803Y-66238856D01*
X123179800Y-66238855D01*
X123179796Y-66238854D01*
X122994646Y-66199500D01*
X122805354Y-66199500D01*
X122620203Y-66238854D01*
X122620194Y-66238857D01*
X122447268Y-66315850D01*
X122294128Y-66427112D01*
X122236414Y-66491210D01*
X122202564Y-66507355D01*
X122167212Y-66494836D01*
X122163586Y-66491210D01*
X122105871Y-66427112D01*
X121986574Y-66340438D01*
X121952730Y-66315849D01*
X121779803Y-66238856D01*
X121779800Y-66238855D01*
X121779796Y-66238854D01*
X121594646Y-66199500D01*
X121405354Y-66199500D01*
X121220203Y-66238854D01*
X121220194Y-66238857D01*
X121047268Y-66315850D01*
X120894128Y-66427112D01*
X120836414Y-66491210D01*
X120802564Y-66507355D01*
X120767212Y-66494836D01*
X120763586Y-66491210D01*
X120705871Y-66427112D01*
X120586574Y-66340438D01*
X120552730Y-66315849D01*
X120379803Y-66238856D01*
X120379800Y-66238855D01*
X120379796Y-66238854D01*
X120194646Y-66199500D01*
X120005354Y-66199500D01*
X119820197Y-66238856D01*
X119696131Y-66294093D01*
X119658641Y-66295074D01*
X119632541Y-66271574D01*
X119627640Y-66261955D01*
X119627637Y-66261951D01*
X119538045Y-66172359D01*
X119538038Y-66172354D01*
X119425150Y-66114836D01*
X119331480Y-66100000D01*
X118825000Y-66100000D01*
X118825000Y-66719382D01*
X118752661Y-66700000D01*
X118647339Y-66700000D01*
X118575000Y-66719382D01*
X118575000Y-66100000D01*
X118068520Y-66100000D01*
X117974852Y-66114834D01*
X117861961Y-66172354D01*
X117861954Y-66172359D01*
X117772359Y-66261954D01*
X117772354Y-66261961D01*
X117714836Y-66374849D01*
X117700000Y-66468519D01*
X113123906Y-66468519D01*
X113107044Y-66340438D01*
X113099289Y-66321717D01*
X113046538Y-66194363D01*
X113046535Y-66194358D01*
X113023973Y-66164955D01*
X112950282Y-66068918D01*
X112824841Y-65972664D01*
X112824836Y-65972661D01*
X112678761Y-65912155D01*
X112522000Y-65891518D01*
X112365238Y-65912155D01*
X112219163Y-65972661D01*
X112219158Y-65972664D01*
X112093718Y-66068917D01*
X112093717Y-66068918D01*
X111997464Y-66194358D01*
X111997461Y-66194363D01*
X111936956Y-66340437D01*
X111916318Y-66497200D01*
X105956672Y-66497200D01*
X105939882Y-66475318D01*
X105931021Y-66468519D01*
X105814441Y-66379064D01*
X105814436Y-66379061D01*
X105668361Y-66318555D01*
X105511600Y-66297918D01*
X105354838Y-66318555D01*
X105208763Y-66379061D01*
X105208758Y-66379064D01*
X105083317Y-66475318D01*
X105048107Y-66521203D01*
X105015627Y-66539954D01*
X104979403Y-66530247D01*
X104974789Y-66526200D01*
X104849241Y-66429864D01*
X104849236Y-66429861D01*
X104703161Y-66369355D01*
X104546400Y-66348718D01*
X104389638Y-66369355D01*
X104243563Y-66429861D01*
X104243558Y-66429864D01*
X104118118Y-66526117D01*
X104118117Y-66526118D01*
X104021864Y-66651558D01*
X104021861Y-66651563D01*
X103961355Y-66797638D01*
X103940718Y-66954400D01*
X101649741Y-66954400D01*
X101636237Y-66843182D01*
X101580220Y-66695477D01*
X101490483Y-66565470D01*
X101490480Y-66565467D01*
X101490479Y-66565466D01*
X101372239Y-66460716D01*
X101232364Y-66387303D01*
X101116788Y-66358817D01*
X101078985Y-66349500D01*
X100921015Y-66349500D01*
X100890687Y-66356975D01*
X100767635Y-66387303D01*
X100627760Y-66460716D01*
X100509520Y-66565466D01*
X100509516Y-66565471D01*
X100419780Y-66695475D01*
X100363763Y-66843180D01*
X100344722Y-67000000D01*
X98655278Y-67000000D01*
X98636237Y-66843182D01*
X98580220Y-66695477D01*
X98490483Y-66565470D01*
X98490480Y-66565467D01*
X98490479Y-66565466D01*
X98372239Y-66460716D01*
X98232364Y-66387303D01*
X98116788Y-66358817D01*
X98078985Y-66349500D01*
X97921015Y-66349500D01*
X97890687Y-66356975D01*
X97767635Y-66387303D01*
X97627760Y-66460716D01*
X97509520Y-66565466D01*
X97509516Y-66565471D01*
X97419780Y-66695475D01*
X97363763Y-66843180D01*
X97344722Y-67000000D01*
X97199263Y-67000000D01*
X97200831Y-65000000D01*
X97344722Y-65000000D01*
X97363763Y-65156819D01*
X97419780Y-65304524D01*
X97451170Y-65350000D01*
X97509517Y-65434530D01*
X97627760Y-65539283D01*
X97767635Y-65612696D01*
X97921015Y-65650500D01*
X97921016Y-65650500D01*
X98078983Y-65650500D01*
X98078985Y-65650500D01*
X98232365Y-65612696D01*
X98372240Y-65539283D01*
X98490483Y-65434530D01*
X98580220Y-65304523D01*
X98636237Y-65156818D01*
X98655278Y-65000000D01*
X99344722Y-65000000D01*
X99363763Y-65156819D01*
X99419780Y-65304524D01*
X99451170Y-65350000D01*
X99509517Y-65434530D01*
X99627760Y-65539283D01*
X99767635Y-65612696D01*
X99921015Y-65650500D01*
X99921016Y-65650500D01*
X100078983Y-65650500D01*
X100078985Y-65650500D01*
X100232365Y-65612696D01*
X100372240Y-65539283D01*
X100490483Y-65434530D01*
X100548830Y-65350000D01*
X131844318Y-65350000D01*
X131864955Y-65506761D01*
X131925461Y-65652836D01*
X131925464Y-65652841D01*
X132021718Y-65778282D01*
X132147159Y-65874536D01*
X132147161Y-65874536D01*
X132147163Y-65874538D01*
X132293238Y-65935044D01*
X132450000Y-65955682D01*
X132606762Y-65935044D01*
X132752841Y-65874536D01*
X132878282Y-65778282D01*
X132974536Y-65652841D01*
X133035044Y-65506762D01*
X133055682Y-65350000D01*
X133035044Y-65193238D01*
X132974536Y-65047159D01*
X132938350Y-65000000D01*
X134344722Y-65000000D01*
X134363763Y-65156819D01*
X134419780Y-65304524D01*
X134451170Y-65350000D01*
X134509517Y-65434530D01*
X134627760Y-65539283D01*
X134767635Y-65612696D01*
X134921015Y-65650500D01*
X134921016Y-65650500D01*
X135078983Y-65650500D01*
X135078985Y-65650500D01*
X135232365Y-65612696D01*
X135372240Y-65539283D01*
X135490483Y-65434530D01*
X135580220Y-65304523D01*
X135636237Y-65156818D01*
X135655278Y-65000000D01*
X135636237Y-64843182D01*
X135580220Y-64695477D01*
X135490483Y-64565470D01*
X135490480Y-64565467D01*
X135490479Y-64565466D01*
X135372239Y-64460716D01*
X135232364Y-64387303D01*
X135116788Y-64358817D01*
X135078985Y-64349500D01*
X134921015Y-64349500D01*
X134890687Y-64356975D01*
X134767635Y-64387303D01*
X134627760Y-64460716D01*
X134509520Y-64565466D01*
X134509516Y-64565471D01*
X134419780Y-64695475D01*
X134363763Y-64843180D01*
X134344722Y-65000000D01*
X132938350Y-65000000D01*
X132878282Y-64921718D01*
X132752841Y-64825464D01*
X132752836Y-64825461D01*
X132606761Y-64764955D01*
X132450000Y-64744318D01*
X132293238Y-64764955D01*
X132147163Y-64825461D01*
X132147158Y-64825464D01*
X132021718Y-64921717D01*
X132021717Y-64921718D01*
X131925464Y-65047158D01*
X131925461Y-65047163D01*
X131864955Y-65193238D01*
X131844318Y-65350000D01*
X100548830Y-65350000D01*
X100580220Y-65304523D01*
X100636237Y-65156818D01*
X100655278Y-65000000D01*
X100636237Y-64843182D01*
X100580220Y-64695477D01*
X100490483Y-64565470D01*
X100490480Y-64565467D01*
X100490479Y-64565466D01*
X100372239Y-64460716D01*
X100232364Y-64387303D01*
X100116788Y-64358817D01*
X100078985Y-64349500D01*
X99921015Y-64349500D01*
X99890687Y-64356975D01*
X99767635Y-64387303D01*
X99627760Y-64460716D01*
X99509520Y-64565466D01*
X99509516Y-64565471D01*
X99419780Y-64695475D01*
X99363763Y-64843180D01*
X99344722Y-65000000D01*
X98655278Y-65000000D01*
X98636237Y-64843182D01*
X98580220Y-64695477D01*
X98490483Y-64565470D01*
X98490480Y-64565467D01*
X98490479Y-64565466D01*
X98372239Y-64460716D01*
X98232364Y-64387303D01*
X98116788Y-64358817D01*
X98078985Y-64349500D01*
X97921015Y-64349500D01*
X97890687Y-64356975D01*
X97767635Y-64387303D01*
X97627760Y-64460716D01*
X97509520Y-64565466D01*
X97509516Y-64565471D01*
X97419780Y-64695475D01*
X97363763Y-64843180D01*
X97344722Y-65000000D01*
X97200831Y-65000000D01*
X97202399Y-63000000D01*
X97344722Y-63000000D01*
X97363763Y-63156819D01*
X97419780Y-63304524D01*
X97477627Y-63388330D01*
X97509517Y-63434530D01*
X97627760Y-63539283D01*
X97767635Y-63612696D01*
X97921015Y-63650500D01*
X97921016Y-63650500D01*
X98078983Y-63650500D01*
X98078985Y-63650500D01*
X98232365Y-63612696D01*
X98372240Y-63539283D01*
X98490483Y-63434530D01*
X98580220Y-63304523D01*
X98636237Y-63156818D01*
X98655278Y-63000000D01*
X98636237Y-62843182D01*
X98580220Y-62695477D01*
X98490483Y-62565470D01*
X98490480Y-62565467D01*
X98490479Y-62565466D01*
X98398522Y-62484000D01*
X101694318Y-62484000D01*
X101714955Y-62640761D01*
X101775461Y-62786836D01*
X101775464Y-62786841D01*
X101864473Y-62902841D01*
X101871718Y-62912282D01*
X101997159Y-63008536D01*
X101997161Y-63008536D01*
X101997163Y-63008538D01*
X102143238Y-63069044D01*
X102300000Y-63089682D01*
X102456762Y-63069044D01*
X102602841Y-63008536D01*
X102728282Y-62912282D01*
X102824536Y-62786841D01*
X102885044Y-62640762D01*
X102890410Y-62600000D01*
X109630318Y-62600000D01*
X109650955Y-62756761D01*
X109711461Y-62902836D01*
X109711464Y-62902841D01*
X109792565Y-63008535D01*
X109807718Y-63028282D01*
X109933159Y-63124536D01*
X109933161Y-63124536D01*
X109933163Y-63124538D01*
X110011097Y-63156819D01*
X110079238Y-63185044D01*
X110236000Y-63205682D01*
X110392762Y-63185044D01*
X110538841Y-63124536D01*
X110664282Y-63028282D01*
X110760536Y-62902841D01*
X110821044Y-62756762D01*
X110828517Y-62700000D01*
X113244722Y-62700000D01*
X113263763Y-62856819D01*
X113319780Y-63004524D01*
X113364315Y-63069044D01*
X113409517Y-63134530D01*
X113527760Y-63239283D01*
X113667635Y-63312696D01*
X113821015Y-63350500D01*
X113821016Y-63350500D01*
X113978983Y-63350500D01*
X113978985Y-63350500D01*
X114132365Y-63312696D01*
X114272240Y-63239283D01*
X114390483Y-63134530D01*
X114480220Y-63004523D01*
X114481935Y-63000000D01*
X131344722Y-63000000D01*
X131363763Y-63156819D01*
X131419780Y-63304524D01*
X131477627Y-63388330D01*
X131509517Y-63434530D01*
X131627760Y-63539283D01*
X131767635Y-63612696D01*
X131921015Y-63650500D01*
X131921016Y-63650500D01*
X132078983Y-63650500D01*
X132078985Y-63650500D01*
X132232365Y-63612696D01*
X132372240Y-63539283D01*
X132490483Y-63434530D01*
X132580220Y-63304523D01*
X132636237Y-63156818D01*
X132655278Y-63000000D01*
X133344722Y-63000000D01*
X133363763Y-63156819D01*
X133419780Y-63304524D01*
X133477627Y-63388330D01*
X133509517Y-63434530D01*
X133627760Y-63539283D01*
X133767635Y-63612696D01*
X133921015Y-63650500D01*
X133921016Y-63650500D01*
X134078983Y-63650500D01*
X134078985Y-63650500D01*
X134232365Y-63612696D01*
X134372240Y-63539283D01*
X134490483Y-63434530D01*
X134580220Y-63304523D01*
X134636237Y-63156818D01*
X134655278Y-63000000D01*
X134636237Y-62843182D01*
X134580220Y-62695477D01*
X134490483Y-62565470D01*
X134490480Y-62565467D01*
X134490479Y-62565466D01*
X134372239Y-62460716D01*
X134232364Y-62387303D01*
X134116788Y-62358817D01*
X134078985Y-62349500D01*
X133921015Y-62349500D01*
X133890687Y-62356975D01*
X133767635Y-62387303D01*
X133627760Y-62460716D01*
X133509520Y-62565466D01*
X133509516Y-62565471D01*
X133419780Y-62695475D01*
X133363763Y-62843180D01*
X133344722Y-63000000D01*
X132655278Y-63000000D01*
X132636237Y-62843182D01*
X132580220Y-62695477D01*
X132490483Y-62565470D01*
X132490480Y-62565467D01*
X132490479Y-62565466D01*
X132372239Y-62460716D01*
X132232364Y-62387303D01*
X132116788Y-62358817D01*
X132078985Y-62349500D01*
X131921015Y-62349500D01*
X131890687Y-62356975D01*
X131767635Y-62387303D01*
X131627760Y-62460716D01*
X131509520Y-62565466D01*
X131509516Y-62565471D01*
X131419780Y-62695475D01*
X131363763Y-62843180D01*
X131344722Y-63000000D01*
X114481935Y-63000000D01*
X114536237Y-62856818D01*
X114555278Y-62700000D01*
X114536237Y-62543182D01*
X114480220Y-62395477D01*
X114390483Y-62265470D01*
X114390480Y-62265467D01*
X114390479Y-62265466D01*
X114272239Y-62160716D01*
X114132364Y-62087303D01*
X114004209Y-62055717D01*
X113978985Y-62049500D01*
X113821015Y-62049500D01*
X113809732Y-62052281D01*
X113667635Y-62087303D01*
X113527760Y-62160716D01*
X113409520Y-62265466D01*
X113409516Y-62265471D01*
X113319780Y-62395475D01*
X113263763Y-62543180D01*
X113244722Y-62700000D01*
X110828517Y-62700000D01*
X110841682Y-62600000D01*
X110821044Y-62443238D01*
X110797875Y-62387303D01*
X110760538Y-62297163D01*
X110760535Y-62297158D01*
X110664282Y-62171718D01*
X110664281Y-62171717D01*
X110538841Y-62075464D01*
X110538836Y-62075461D01*
X110392761Y-62014955D01*
X110236000Y-61994318D01*
X110079238Y-62014955D01*
X109933163Y-62075461D01*
X109933158Y-62075464D01*
X109807718Y-62171717D01*
X109807717Y-62171718D01*
X109711464Y-62297158D01*
X109711461Y-62297163D01*
X109650955Y-62443238D01*
X109630318Y-62600000D01*
X102890410Y-62600000D01*
X102905682Y-62484000D01*
X102885044Y-62327238D01*
X102872585Y-62297159D01*
X102824538Y-62181163D01*
X102824535Y-62181158D01*
X102764073Y-62102362D01*
X102754367Y-62066139D01*
X102773119Y-62033661D01*
X102784197Y-62027265D01*
X102802285Y-62019773D01*
X102868041Y-61992536D01*
X102993482Y-61896282D01*
X103089736Y-61770841D01*
X103150244Y-61624762D01*
X103167296Y-61495238D01*
X107886319Y-61495238D01*
X107906956Y-61651999D01*
X107967462Y-61798074D01*
X107967465Y-61798079D01*
X108042818Y-61896282D01*
X108063719Y-61923520D01*
X108189160Y-62019774D01*
X108189162Y-62019774D01*
X108189164Y-62019776D01*
X108275934Y-62055717D01*
X108335239Y-62080282D01*
X108492001Y-62100920D01*
X108648763Y-62080282D01*
X108794842Y-62019774D01*
X108920283Y-61923520D01*
X109016537Y-61798079D01*
X109077045Y-61652000D01*
X109097683Y-61495238D01*
X109077045Y-61338476D01*
X109016537Y-61192397D01*
X108920283Y-61066956D01*
X108884784Y-61039717D01*
X108833024Y-61000000D01*
X131344722Y-61000000D01*
X131363763Y-61156819D01*
X131419780Y-61304524D01*
X131443216Y-61338476D01*
X131509517Y-61434530D01*
X131509519Y-61434531D01*
X131509520Y-61434533D01*
X131538774Y-61460449D01*
X131627760Y-61539283D01*
X131767635Y-61612696D01*
X131921015Y-61650500D01*
X131921016Y-61650500D01*
X132078983Y-61650500D01*
X132078985Y-61650500D01*
X132232365Y-61612696D01*
X132372240Y-61539283D01*
X132490483Y-61434530D01*
X132580220Y-61304523D01*
X132636237Y-61156818D01*
X132655278Y-61000000D01*
X133344722Y-61000000D01*
X133363763Y-61156819D01*
X133419780Y-61304524D01*
X133443216Y-61338476D01*
X133509517Y-61434530D01*
X133509519Y-61434531D01*
X133509520Y-61434533D01*
X133538774Y-61460449D01*
X133627760Y-61539283D01*
X133767635Y-61612696D01*
X133921015Y-61650500D01*
X133921016Y-61650500D01*
X134078983Y-61650500D01*
X134078985Y-61650500D01*
X134232365Y-61612696D01*
X134372240Y-61539283D01*
X134490483Y-61434530D01*
X134580220Y-61304523D01*
X134636237Y-61156818D01*
X134655278Y-61000000D01*
X134636237Y-60843182D01*
X134580220Y-60695477D01*
X134490483Y-60565470D01*
X134490480Y-60565467D01*
X134490479Y-60565466D01*
X134372239Y-60460716D01*
X134232364Y-60387303D01*
X134116788Y-60358817D01*
X134078985Y-60349500D01*
X133921015Y-60349500D01*
X133890687Y-60356975D01*
X133767635Y-60387303D01*
X133627760Y-60460716D01*
X133509520Y-60565466D01*
X133509516Y-60565471D01*
X133419780Y-60695475D01*
X133363763Y-60843180D01*
X133344722Y-61000000D01*
X132655278Y-61000000D01*
X132636237Y-60843182D01*
X132580220Y-60695477D01*
X132490483Y-60565470D01*
X132490480Y-60565467D01*
X132490479Y-60565466D01*
X132372239Y-60460716D01*
X132232364Y-60387303D01*
X132116788Y-60358817D01*
X132078985Y-60349500D01*
X131921015Y-60349500D01*
X131890687Y-60356975D01*
X131767635Y-60387303D01*
X131627760Y-60460716D01*
X131509520Y-60565466D01*
X131509516Y-60565471D01*
X131419780Y-60695475D01*
X131363763Y-60843180D01*
X131344722Y-61000000D01*
X108833024Y-61000000D01*
X108794842Y-60970702D01*
X108794837Y-60970699D01*
X108648762Y-60910193D01*
X108492001Y-60889556D01*
X108335239Y-60910193D01*
X108189164Y-60970699D01*
X108189159Y-60970702D01*
X108063719Y-61066955D01*
X108063718Y-61066956D01*
X107967465Y-61192396D01*
X107967462Y-61192401D01*
X107906956Y-61338476D01*
X107886319Y-61495238D01*
X103167296Y-61495238D01*
X103170882Y-61468000D01*
X103150244Y-61311238D01*
X103101020Y-61192401D01*
X103089738Y-61165163D01*
X103089735Y-61165158D01*
X103083336Y-61156819D01*
X102993482Y-61039718D01*
X102941720Y-61000000D01*
X102868041Y-60943464D01*
X102868036Y-60943461D01*
X102721961Y-60882955D01*
X102565200Y-60862318D01*
X102408438Y-60882955D01*
X102262363Y-60943461D01*
X102262358Y-60943464D01*
X102136918Y-61039717D01*
X102136917Y-61039718D01*
X102040664Y-61165158D01*
X102040661Y-61165163D01*
X101980155Y-61311238D01*
X101959518Y-61468000D01*
X101980155Y-61624761D01*
X102040661Y-61770836D01*
X102040663Y-61770838D01*
X102040664Y-61770841D01*
X102101125Y-61849635D01*
X102110831Y-61885860D01*
X102092079Y-61918339D01*
X102081002Y-61924734D01*
X101997160Y-61959463D01*
X101997158Y-61959464D01*
X101871718Y-62055717D01*
X101871717Y-62055718D01*
X101775464Y-62181158D01*
X101775461Y-62181163D01*
X101714955Y-62327238D01*
X101694318Y-62484000D01*
X98398522Y-62484000D01*
X98372239Y-62460716D01*
X98232364Y-62387303D01*
X98116788Y-62358817D01*
X98078985Y-62349500D01*
X97921015Y-62349500D01*
X97890687Y-62356975D01*
X97767635Y-62387303D01*
X97627760Y-62460716D01*
X97509520Y-62565466D01*
X97509516Y-62565471D01*
X97419780Y-62695475D01*
X97363763Y-62843180D01*
X97344722Y-63000000D01*
X97202399Y-63000000D01*
X97203967Y-61000000D01*
X97344722Y-61000000D01*
X97363763Y-61156819D01*
X97419780Y-61304524D01*
X97443216Y-61338476D01*
X97509517Y-61434530D01*
X97509519Y-61434531D01*
X97509520Y-61434533D01*
X97538774Y-61460449D01*
X97627760Y-61539283D01*
X97767635Y-61612696D01*
X97921015Y-61650500D01*
X97921016Y-61650500D01*
X98078983Y-61650500D01*
X98078985Y-61650500D01*
X98232365Y-61612696D01*
X98372240Y-61539283D01*
X98490483Y-61434530D01*
X98580220Y-61304523D01*
X98636237Y-61156818D01*
X98655278Y-61000000D01*
X100344722Y-61000000D01*
X100363763Y-61156819D01*
X100419780Y-61304524D01*
X100443216Y-61338476D01*
X100509517Y-61434530D01*
X100509519Y-61434531D01*
X100509520Y-61434533D01*
X100538774Y-61460449D01*
X100627760Y-61539283D01*
X100767635Y-61612696D01*
X100921015Y-61650500D01*
X100921016Y-61650500D01*
X101078983Y-61650500D01*
X101078985Y-61650500D01*
X101232365Y-61612696D01*
X101372240Y-61539283D01*
X101490483Y-61434530D01*
X101580220Y-61304523D01*
X101636237Y-61156818D01*
X101655278Y-61000000D01*
X101636237Y-60843182D01*
X101580220Y-60695477D01*
X101490483Y-60565470D01*
X101490480Y-60565467D01*
X101490479Y-60565466D01*
X101372239Y-60460716D01*
X101232364Y-60387303D01*
X101116788Y-60358817D01*
X101078985Y-60349500D01*
X100921015Y-60349500D01*
X100890687Y-60356975D01*
X100767635Y-60387303D01*
X100627760Y-60460716D01*
X100509520Y-60565466D01*
X100509516Y-60565471D01*
X100419780Y-60695475D01*
X100363763Y-60843180D01*
X100344722Y-61000000D01*
X98655278Y-61000000D01*
X98636237Y-60843182D01*
X98580220Y-60695477D01*
X98490483Y-60565470D01*
X98490480Y-60565467D01*
X98490479Y-60565466D01*
X98372239Y-60460716D01*
X98232364Y-60387303D01*
X98116788Y-60358817D01*
X98078985Y-60349500D01*
X97921015Y-60349500D01*
X97890687Y-60356975D01*
X97767635Y-60387303D01*
X97627760Y-60460716D01*
X97509520Y-60565466D01*
X97509516Y-60565471D01*
X97419780Y-60695475D01*
X97363763Y-60843180D01*
X97344722Y-61000000D01*
X97203967Y-61000000D01*
X97205535Y-59000000D01*
X97344722Y-59000000D01*
X97363763Y-59156819D01*
X97419780Y-59304524D01*
X97477627Y-59388330D01*
X97509517Y-59434530D01*
X97509519Y-59434531D01*
X97509520Y-59434533D01*
X97627760Y-59539283D01*
X97767635Y-59612696D01*
X97921015Y-59650500D01*
X97921016Y-59650500D01*
X98078983Y-59650500D01*
X98078985Y-59650500D01*
X98232365Y-59612696D01*
X98372240Y-59539283D01*
X98490483Y-59434530D01*
X98580220Y-59304523D01*
X98636237Y-59156818D01*
X98655278Y-59000000D01*
X100344722Y-59000000D01*
X100363763Y-59156819D01*
X100419780Y-59304524D01*
X100477627Y-59388330D01*
X100509517Y-59434530D01*
X100509519Y-59434531D01*
X100509520Y-59434533D01*
X100627760Y-59539283D01*
X100767635Y-59612696D01*
X100921015Y-59650500D01*
X100921016Y-59650500D01*
X101078983Y-59650500D01*
X101078985Y-59650500D01*
X101232365Y-59612696D01*
X101372240Y-59539283D01*
X101490483Y-59434530D01*
X101580220Y-59304523D01*
X101636237Y-59156818D01*
X101655278Y-59000000D01*
X116344722Y-59000000D01*
X116363763Y-59156819D01*
X116419780Y-59304524D01*
X116477627Y-59388330D01*
X116509517Y-59434530D01*
X116509519Y-59434531D01*
X116509520Y-59434533D01*
X116627760Y-59539283D01*
X116767635Y-59612696D01*
X116921015Y-59650500D01*
X116921016Y-59650500D01*
X117078983Y-59650500D01*
X117078985Y-59650500D01*
X117232365Y-59612696D01*
X117372240Y-59539283D01*
X117490483Y-59434530D01*
X117580220Y-59304523D01*
X117636237Y-59156818D01*
X117655278Y-59000000D01*
X117636237Y-58843182D01*
X117580220Y-58695477D01*
X117490483Y-58565470D01*
X117490480Y-58565467D01*
X117490479Y-58565466D01*
X117372239Y-58460716D01*
X117351822Y-58450000D01*
X118494722Y-58450000D01*
X118513763Y-58606819D01*
X118569780Y-58754524D01*
X118627627Y-58838330D01*
X118659517Y-58884530D01*
X118777760Y-58989283D01*
X118917635Y-59062696D01*
X119071015Y-59100500D01*
X119071016Y-59100500D01*
X119228983Y-59100500D01*
X119228985Y-59100500D01*
X119382365Y-59062696D01*
X119501821Y-59000000D01*
X131344722Y-59000000D01*
X131363763Y-59156819D01*
X131419780Y-59304524D01*
X131477627Y-59388330D01*
X131509517Y-59434530D01*
X131509519Y-59434531D01*
X131509520Y-59434533D01*
X131627760Y-59539283D01*
X131767635Y-59612696D01*
X131921015Y-59650500D01*
X131921016Y-59650500D01*
X132078983Y-59650500D01*
X132078985Y-59650500D01*
X132232365Y-59612696D01*
X132372240Y-59539283D01*
X132490483Y-59434530D01*
X132580220Y-59304523D01*
X132636237Y-59156818D01*
X132655278Y-59000000D01*
X133344722Y-59000000D01*
X133363763Y-59156819D01*
X133419780Y-59304524D01*
X133477627Y-59388330D01*
X133509517Y-59434530D01*
X133509519Y-59434531D01*
X133509520Y-59434533D01*
X133627760Y-59539283D01*
X133767635Y-59612696D01*
X133921015Y-59650500D01*
X133921016Y-59650500D01*
X134078983Y-59650500D01*
X134078985Y-59650500D01*
X134232365Y-59612696D01*
X134372240Y-59539283D01*
X134490483Y-59434530D01*
X134580220Y-59304523D01*
X134636237Y-59156818D01*
X134655278Y-59000000D01*
X134636237Y-58843182D01*
X134580220Y-58695477D01*
X134490483Y-58565470D01*
X134490480Y-58565467D01*
X134490479Y-58565466D01*
X134372239Y-58460716D01*
X134232364Y-58387303D01*
X134116788Y-58358817D01*
X134078985Y-58349500D01*
X133921015Y-58349500D01*
X133890687Y-58356975D01*
X133767635Y-58387303D01*
X133627760Y-58460716D01*
X133509520Y-58565466D01*
X133509516Y-58565471D01*
X133419780Y-58695475D01*
X133363763Y-58843180D01*
X133344722Y-59000000D01*
X132655278Y-59000000D01*
X132636237Y-58843182D01*
X132580220Y-58695477D01*
X132490483Y-58565470D01*
X132490480Y-58565467D01*
X132490479Y-58565466D01*
X132372239Y-58460716D01*
X132232364Y-58387303D01*
X132116788Y-58358817D01*
X132078985Y-58349500D01*
X131921015Y-58349500D01*
X131890687Y-58356975D01*
X131767635Y-58387303D01*
X131627760Y-58460716D01*
X131509520Y-58565466D01*
X131509516Y-58565471D01*
X131419780Y-58695475D01*
X131363763Y-58843180D01*
X131344722Y-59000000D01*
X119501821Y-59000000D01*
X119522240Y-58989283D01*
X119640483Y-58884530D01*
X119730220Y-58754523D01*
X119786237Y-58606818D01*
X119805278Y-58450000D01*
X119786237Y-58293182D01*
X119730220Y-58145477D01*
X119640483Y-58015470D01*
X119640480Y-58015467D01*
X119640479Y-58015466D01*
X119522239Y-57910716D01*
X119382364Y-57837303D01*
X119266788Y-57808817D01*
X119228985Y-57799500D01*
X119071015Y-57799500D01*
X119040687Y-57806975D01*
X118917635Y-57837303D01*
X118777760Y-57910716D01*
X118659520Y-58015466D01*
X118659516Y-58015471D01*
X118569780Y-58145475D01*
X118513763Y-58293180D01*
X118494722Y-58450000D01*
X117351822Y-58450000D01*
X117232364Y-58387303D01*
X117116788Y-58358817D01*
X117078985Y-58349500D01*
X116921015Y-58349500D01*
X116890687Y-58356975D01*
X116767635Y-58387303D01*
X116627760Y-58460716D01*
X116509520Y-58565466D01*
X116509516Y-58565471D01*
X116419780Y-58695475D01*
X116363763Y-58843180D01*
X116344722Y-59000000D01*
X101655278Y-59000000D01*
X101636237Y-58843182D01*
X101580220Y-58695477D01*
X101490483Y-58565470D01*
X101490480Y-58565467D01*
X101490479Y-58565466D01*
X101372239Y-58460716D01*
X101232364Y-58387303D01*
X101116788Y-58358817D01*
X101078985Y-58349500D01*
X100921015Y-58349500D01*
X100890687Y-58356975D01*
X100767635Y-58387303D01*
X100627760Y-58460716D01*
X100509520Y-58565466D01*
X100509516Y-58565471D01*
X100419780Y-58695475D01*
X100363763Y-58843180D01*
X100344722Y-59000000D01*
X98655278Y-59000000D01*
X98636237Y-58843182D01*
X98580220Y-58695477D01*
X98490483Y-58565470D01*
X98490480Y-58565467D01*
X98490479Y-58565466D01*
X98372239Y-58460716D01*
X98232364Y-58387303D01*
X98116788Y-58358817D01*
X98078985Y-58349500D01*
X97921015Y-58349500D01*
X97890687Y-58356975D01*
X97767635Y-58387303D01*
X97627760Y-58460716D01*
X97509520Y-58565466D01*
X97509516Y-58565471D01*
X97419780Y-58695475D01*
X97363763Y-58843180D01*
X97344722Y-59000000D01*
X97205535Y-59000000D01*
X97207103Y-57000000D01*
X97344722Y-57000000D01*
X97363763Y-57156819D01*
X97419780Y-57304524D01*
X97477627Y-57388330D01*
X97509517Y-57434530D01*
X97627760Y-57539283D01*
X97767635Y-57612696D01*
X97921015Y-57650500D01*
X97921016Y-57650500D01*
X98078983Y-57650500D01*
X98078985Y-57650500D01*
X98232365Y-57612696D01*
X98372240Y-57539283D01*
X98490483Y-57434530D01*
X98580220Y-57304523D01*
X98636237Y-57156818D01*
X98655278Y-57000000D01*
X100344722Y-57000000D01*
X100363763Y-57156819D01*
X100419780Y-57304524D01*
X100477627Y-57388330D01*
X100509517Y-57434530D01*
X100627760Y-57539283D01*
X100767635Y-57612696D01*
X100921015Y-57650500D01*
X100921016Y-57650500D01*
X101078983Y-57650500D01*
X101078985Y-57650500D01*
X101232365Y-57612696D01*
X101372240Y-57539283D01*
X101490483Y-57434530D01*
X101580220Y-57304523D01*
X101636237Y-57156818D01*
X101655278Y-57000000D01*
X101636237Y-56843182D01*
X101580220Y-56695477D01*
X101490483Y-56565470D01*
X101490480Y-56565467D01*
X101490479Y-56565466D01*
X101372239Y-56460716D01*
X101232364Y-56387303D01*
X101116788Y-56358817D01*
X101078985Y-56349500D01*
X100921015Y-56349500D01*
X100890687Y-56356975D01*
X100767635Y-56387303D01*
X100627760Y-56460716D01*
X100509520Y-56565466D01*
X100509516Y-56565471D01*
X100419780Y-56695475D01*
X100363763Y-56843180D01*
X100344722Y-57000000D01*
X98655278Y-57000000D01*
X98636237Y-56843182D01*
X98580220Y-56695477D01*
X98490483Y-56565470D01*
X98490480Y-56565467D01*
X98490479Y-56565466D01*
X98372239Y-56460716D01*
X98232364Y-56387303D01*
X98116788Y-56358817D01*
X98078985Y-56349500D01*
X97921015Y-56349500D01*
X97890687Y-56356975D01*
X97767635Y-56387303D01*
X97627760Y-56460716D01*
X97509520Y-56565466D01*
X97509516Y-56565471D01*
X97419780Y-56695475D01*
X97363763Y-56843180D01*
X97344722Y-57000000D01*
X97207103Y-57000000D01*
X97208021Y-55829200D01*
X101744318Y-55829200D01*
X101764955Y-55985961D01*
X101825461Y-56132036D01*
X101825464Y-56132041D01*
X101921718Y-56257482D01*
X102047159Y-56353736D01*
X102047161Y-56353736D01*
X102047163Y-56353738D01*
X102128199Y-56387304D01*
X102193238Y-56414244D01*
X102350000Y-56434882D01*
X102506762Y-56414244D01*
X102652841Y-56353736D01*
X102778282Y-56257482D01*
X102826073Y-56195200D01*
X106919718Y-56195200D01*
X106940355Y-56351961D01*
X107000861Y-56498036D01*
X107000864Y-56498041D01*
X107097118Y-56623482D01*
X107222559Y-56719736D01*
X107222561Y-56719736D01*
X107222563Y-56719738D01*
X107343530Y-56769844D01*
X107368638Y-56780244D01*
X107525400Y-56800882D01*
X107682162Y-56780244D01*
X107828241Y-56719736D01*
X107953682Y-56623482D01*
X108049936Y-56498041D01*
X108110444Y-56351962D01*
X108131082Y-56195200D01*
X108129713Y-56184800D01*
X110697118Y-56184800D01*
X110717755Y-56341561D01*
X110778261Y-56487636D01*
X110778264Y-56487641D01*
X110874518Y-56613082D01*
X110999959Y-56709336D01*
X110999961Y-56709336D01*
X110999963Y-56709338D01*
X111146038Y-56769844D01*
X111302800Y-56790482D01*
X111459562Y-56769844D01*
X111605641Y-56709336D01*
X111731082Y-56613082D01*
X111827336Y-56487641D01*
X111887844Y-56341562D01*
X111908482Y-56184800D01*
X113973718Y-56184800D01*
X113994355Y-56341561D01*
X114054861Y-56487636D01*
X114054864Y-56487641D01*
X114151118Y-56613082D01*
X114276559Y-56709336D01*
X114276561Y-56709336D01*
X114276563Y-56709338D01*
X114422638Y-56769844D01*
X114579400Y-56790482D01*
X114736162Y-56769844D01*
X114882241Y-56709336D01*
X115007682Y-56613082D01*
X115103936Y-56487641D01*
X115164444Y-56341562D01*
X115185082Y-56184800D01*
X115164444Y-56028038D01*
X115147015Y-55985961D01*
X115103938Y-55881963D01*
X115103935Y-55881958D01*
X115007682Y-55756518D01*
X115007681Y-55756517D01*
X114882241Y-55660264D01*
X114882236Y-55660261D01*
X114736161Y-55599755D01*
X114579400Y-55579118D01*
X114422638Y-55599755D01*
X114276563Y-55660261D01*
X114276558Y-55660264D01*
X114151118Y-55756517D01*
X114151117Y-55756518D01*
X114054864Y-55881958D01*
X114054861Y-55881963D01*
X113994355Y-56028038D01*
X113973718Y-56184800D01*
X111908482Y-56184800D01*
X111887844Y-56028038D01*
X111870415Y-55985961D01*
X111827338Y-55881963D01*
X111827335Y-55881958D01*
X111731082Y-55756518D01*
X111731081Y-55756517D01*
X111605641Y-55660264D01*
X111605636Y-55660261D01*
X111459561Y-55599755D01*
X111302800Y-55579118D01*
X111146038Y-55599755D01*
X110999963Y-55660261D01*
X110999958Y-55660264D01*
X110874518Y-55756517D01*
X110874517Y-55756518D01*
X110778264Y-55881958D01*
X110778261Y-55881963D01*
X110717755Y-56028038D01*
X110697118Y-56184800D01*
X108129713Y-56184800D01*
X108110444Y-56038438D01*
X108049936Y-55892359D01*
X107953682Y-55766918D01*
X107940128Y-55756518D01*
X107828241Y-55670664D01*
X107828236Y-55670661D01*
X107682161Y-55610155D01*
X107525400Y-55589518D01*
X107368638Y-55610155D01*
X107222563Y-55670661D01*
X107222558Y-55670664D01*
X107097118Y-55766917D01*
X107097117Y-55766918D01*
X107000864Y-55892358D01*
X107000861Y-55892363D01*
X106940355Y-56038438D01*
X106919718Y-56195200D01*
X102826073Y-56195200D01*
X102874536Y-56132041D01*
X102935044Y-55985962D01*
X102955682Y-55829200D01*
X102935044Y-55672438D01*
X102909246Y-55610156D01*
X102874538Y-55526363D01*
X102874535Y-55526358D01*
X102778282Y-55400918D01*
X102778281Y-55400917D01*
X102652841Y-55304664D01*
X102652836Y-55304661D01*
X102506761Y-55244155D01*
X102350000Y-55223518D01*
X102193238Y-55244155D01*
X102047163Y-55304661D01*
X102047158Y-55304664D01*
X101921718Y-55400917D01*
X101921717Y-55400918D01*
X101825464Y-55526358D01*
X101825461Y-55526363D01*
X101764955Y-55672438D01*
X101744318Y-55829200D01*
X97208021Y-55829200D01*
X97208997Y-54584600D01*
X108512718Y-54584600D01*
X108533355Y-54741361D01*
X108593861Y-54887436D01*
X108593864Y-54887441D01*
X108690118Y-55012882D01*
X108815559Y-55109136D01*
X108815561Y-55109136D01*
X108815563Y-55109138D01*
X108930673Y-55156818D01*
X108961638Y-55169644D01*
X109118400Y-55190282D01*
X109275162Y-55169644D01*
X109421241Y-55109136D01*
X109546682Y-55012882D01*
X109642936Y-54887441D01*
X109703444Y-54741362D01*
X109724082Y-54584600D01*
X112449718Y-54584600D01*
X112470355Y-54741361D01*
X112530861Y-54887436D01*
X112530864Y-54887441D01*
X112627118Y-55012882D01*
X112752559Y-55109136D01*
X112752561Y-55109136D01*
X112752563Y-55109138D01*
X112867673Y-55156818D01*
X112898638Y-55169644D01*
X113055400Y-55190282D01*
X113212162Y-55169644D01*
X113358241Y-55109136D01*
X113483682Y-55012882D01*
X113493567Y-55000000D01*
X125344722Y-55000000D01*
X125363763Y-55156819D01*
X125419780Y-55304524D01*
X125419875Y-55304661D01*
X125509517Y-55434530D01*
X125509519Y-55434531D01*
X125509520Y-55434533D01*
X125613172Y-55526359D01*
X125627760Y-55539283D01*
X125767635Y-55612696D01*
X125921015Y-55650500D01*
X125921016Y-55650500D01*
X126078983Y-55650500D01*
X126078985Y-55650500D01*
X126232365Y-55612696D01*
X126372240Y-55539283D01*
X126490483Y-55434530D01*
X126580220Y-55304523D01*
X126636237Y-55156818D01*
X126655278Y-55000000D01*
X127344722Y-55000000D01*
X127363763Y-55156819D01*
X127419780Y-55304524D01*
X127419875Y-55304661D01*
X127509517Y-55434530D01*
X127509519Y-55434531D01*
X127509520Y-55434533D01*
X127613172Y-55526359D01*
X127627760Y-55539283D01*
X127767635Y-55612696D01*
X127921015Y-55650500D01*
X127921016Y-55650500D01*
X128078983Y-55650500D01*
X128078985Y-55650500D01*
X128232365Y-55612696D01*
X128372240Y-55539283D01*
X128490483Y-55434530D01*
X128580220Y-55304523D01*
X128636237Y-55156818D01*
X128655278Y-55000000D01*
X129344722Y-55000000D01*
X129363763Y-55156819D01*
X129419780Y-55304524D01*
X129419875Y-55304661D01*
X129509517Y-55434530D01*
X129509519Y-55434531D01*
X129509520Y-55434533D01*
X129613172Y-55526359D01*
X129627760Y-55539283D01*
X129767635Y-55612696D01*
X129921015Y-55650500D01*
X129921016Y-55650500D01*
X130078983Y-55650500D01*
X130078985Y-55650500D01*
X130232365Y-55612696D01*
X130372240Y-55539283D01*
X130490483Y-55434530D01*
X130580220Y-55304523D01*
X130636237Y-55156818D01*
X130655278Y-55000000D01*
X130636237Y-54843182D01*
X130580220Y-54695477D01*
X130490483Y-54565470D01*
X130490480Y-54565467D01*
X130490479Y-54565466D01*
X130372239Y-54460716D01*
X130232364Y-54387303D01*
X130116788Y-54358817D01*
X130078985Y-54349500D01*
X129921015Y-54349500D01*
X129890687Y-54356975D01*
X129767635Y-54387303D01*
X129627760Y-54460716D01*
X129509520Y-54565466D01*
X129509516Y-54565471D01*
X129419780Y-54695475D01*
X129363763Y-54843180D01*
X129344722Y-55000000D01*
X128655278Y-55000000D01*
X128636237Y-54843182D01*
X128580220Y-54695477D01*
X128490483Y-54565470D01*
X128490480Y-54565467D01*
X128490479Y-54565466D01*
X128372239Y-54460716D01*
X128232364Y-54387303D01*
X128116788Y-54358817D01*
X128078985Y-54349500D01*
X127921015Y-54349500D01*
X127890687Y-54356975D01*
X127767635Y-54387303D01*
X127627760Y-54460716D01*
X127509520Y-54565466D01*
X127509516Y-54565471D01*
X127419780Y-54695475D01*
X127363763Y-54843180D01*
X127344722Y-55000000D01*
X126655278Y-55000000D01*
X126636237Y-54843182D01*
X126580220Y-54695477D01*
X126490483Y-54565470D01*
X126490480Y-54565467D01*
X126490479Y-54565466D01*
X126372239Y-54460716D01*
X126232364Y-54387303D01*
X126116788Y-54358817D01*
X126078985Y-54349500D01*
X125921015Y-54349500D01*
X125890687Y-54356975D01*
X125767635Y-54387303D01*
X125627760Y-54460716D01*
X125509520Y-54565466D01*
X125509516Y-54565471D01*
X125419780Y-54695475D01*
X125363763Y-54843180D01*
X125344722Y-55000000D01*
X113493567Y-55000000D01*
X113579936Y-54887441D01*
X113640444Y-54741362D01*
X113661082Y-54584600D01*
X113640444Y-54427838D01*
X113579936Y-54281759D01*
X113498017Y-54175000D01*
X134244318Y-54175000D01*
X134264955Y-54331761D01*
X134325461Y-54477836D01*
X134325464Y-54477841D01*
X134421718Y-54603282D01*
X134547159Y-54699536D01*
X134547161Y-54699536D01*
X134547163Y-54699538D01*
X134693238Y-54760044D01*
X134850000Y-54780682D01*
X135006762Y-54760044D01*
X135152841Y-54699536D01*
X135278282Y-54603282D01*
X135374536Y-54477841D01*
X135435044Y-54331762D01*
X135455682Y-54175000D01*
X135435044Y-54018238D01*
X135411271Y-53960844D01*
X135374538Y-53872163D01*
X135374535Y-53872158D01*
X135278282Y-53746718D01*
X135278281Y-53746717D01*
X135215793Y-53698768D01*
X135197041Y-53666290D01*
X135206748Y-53630065D01*
X135230018Y-53614864D01*
X135229595Y-53613747D01*
X135232362Y-53612697D01*
X135232362Y-53612696D01*
X135232365Y-53612696D01*
X135372240Y-53539283D01*
X135490483Y-53434530D01*
X135580220Y-53304523D01*
X135636237Y-53156818D01*
X135655278Y-53000000D01*
X135636237Y-52843182D01*
X135580220Y-52695477D01*
X135576761Y-52690466D01*
X135548330Y-52649277D01*
X135490483Y-52565470D01*
X135490480Y-52565467D01*
X135490479Y-52565466D01*
X135372239Y-52460716D01*
X135232364Y-52387303D01*
X135116788Y-52358817D01*
X135078985Y-52349500D01*
X134921015Y-52349500D01*
X134890687Y-52356975D01*
X134767635Y-52387303D01*
X134627760Y-52460716D01*
X134509520Y-52565466D01*
X134509516Y-52565471D01*
X134419780Y-52695475D01*
X134363763Y-52843180D01*
X134344722Y-53000000D01*
X134363763Y-53156819D01*
X134419780Y-53304524D01*
X134451170Y-53350000D01*
X134509517Y-53434530D01*
X134509519Y-53434531D01*
X134509520Y-53434533D01*
X134628944Y-53540332D01*
X134645362Y-53574050D01*
X134633128Y-53609502D01*
X134615203Y-53622279D01*
X134547160Y-53650463D01*
X134547158Y-53650464D01*
X134421718Y-53746717D01*
X134421717Y-53746718D01*
X134325464Y-53872158D01*
X134325461Y-53872163D01*
X134264955Y-54018238D01*
X134244318Y-54175000D01*
X113498017Y-54175000D01*
X113483682Y-54156318D01*
X113358241Y-54060064D01*
X113358236Y-54060061D01*
X113212161Y-53999555D01*
X113055400Y-53978918D01*
X112898638Y-53999555D01*
X112752563Y-54060061D01*
X112752558Y-54060064D01*
X112627118Y-54156317D01*
X112627117Y-54156318D01*
X112530864Y-54281758D01*
X112530861Y-54281763D01*
X112470355Y-54427838D01*
X112449718Y-54584600D01*
X109724082Y-54584600D01*
X109703444Y-54427838D01*
X109642936Y-54281759D01*
X109546682Y-54156318D01*
X109421241Y-54060064D01*
X109421236Y-54060061D01*
X109275161Y-53999555D01*
X109118400Y-53978918D01*
X108961638Y-53999555D01*
X108815563Y-54060061D01*
X108815558Y-54060064D01*
X108690118Y-54156317D01*
X108690117Y-54156318D01*
X108593864Y-54281758D01*
X108593861Y-54281763D01*
X108533355Y-54427838D01*
X108512718Y-54584600D01*
X97208997Y-54584600D01*
X97209965Y-53350000D01*
X98844318Y-53350000D01*
X98864955Y-53506761D01*
X98925461Y-53652836D01*
X98925464Y-53652841D01*
X99021718Y-53778282D01*
X99147159Y-53874536D01*
X99147161Y-53874536D01*
X99147163Y-53874538D01*
X99222352Y-53905682D01*
X99293238Y-53935044D01*
X99450000Y-53955682D01*
X99606762Y-53935044D01*
X99752841Y-53874536D01*
X99878282Y-53778282D01*
X99974536Y-53652841D01*
X100035044Y-53506762D01*
X100055682Y-53350000D01*
X100035044Y-53193238D01*
X100006779Y-53125000D01*
X99974538Y-53047163D01*
X99974535Y-53047158D01*
X99938350Y-53000000D01*
X101344722Y-53000000D01*
X101363763Y-53156819D01*
X101419780Y-53304524D01*
X101451170Y-53350000D01*
X101509517Y-53434530D01*
X101627760Y-53539283D01*
X101767635Y-53612696D01*
X101921015Y-53650500D01*
X101921016Y-53650500D01*
X102078983Y-53650500D01*
X102078985Y-53650500D01*
X102232365Y-53612696D01*
X102372240Y-53539283D01*
X102490483Y-53434530D01*
X102531021Y-53375800D01*
X106919718Y-53375800D01*
X106940355Y-53532561D01*
X107000861Y-53678636D01*
X107000864Y-53678641D01*
X107097118Y-53804082D01*
X107222559Y-53900336D01*
X107222561Y-53900336D01*
X107222563Y-53900338D01*
X107235465Y-53905682D01*
X107368638Y-53960844D01*
X107525400Y-53981482D01*
X107682162Y-53960844D01*
X107828241Y-53900336D01*
X107953682Y-53804082D01*
X108049936Y-53678641D01*
X108110444Y-53532562D01*
X108131082Y-53375800D01*
X108129713Y-53365400D01*
X110697118Y-53365400D01*
X110717755Y-53522161D01*
X110778261Y-53668236D01*
X110778264Y-53668241D01*
X110838480Y-53746717D01*
X110874518Y-53793682D01*
X110999959Y-53889936D01*
X110999961Y-53889936D01*
X110999963Y-53889938D01*
X111037973Y-53905682D01*
X111146038Y-53950444D01*
X111302800Y-53971082D01*
X111459562Y-53950444D01*
X111605641Y-53889936D01*
X111731082Y-53793682D01*
X111827336Y-53668241D01*
X111887844Y-53522162D01*
X111908482Y-53365400D01*
X113973718Y-53365400D01*
X113994355Y-53522161D01*
X114054861Y-53668236D01*
X114054864Y-53668241D01*
X114115080Y-53746717D01*
X114151118Y-53793682D01*
X114276559Y-53889936D01*
X114276561Y-53889936D01*
X114276563Y-53889938D01*
X114314573Y-53905682D01*
X114422638Y-53950444D01*
X114579400Y-53971082D01*
X114736162Y-53950444D01*
X114882241Y-53889936D01*
X115007682Y-53793682D01*
X115103936Y-53668241D01*
X115164444Y-53522162D01*
X115185082Y-53365400D01*
X115164444Y-53208638D01*
X115142980Y-53156819D01*
X115103938Y-53062563D01*
X115103935Y-53062558D01*
X115055933Y-53000000D01*
X124344722Y-53000000D01*
X124363763Y-53156819D01*
X124419780Y-53304524D01*
X124451170Y-53350000D01*
X124509517Y-53434530D01*
X124627760Y-53539283D01*
X124767635Y-53612696D01*
X124921015Y-53650500D01*
X124921016Y-53650500D01*
X125078983Y-53650500D01*
X125078985Y-53650500D01*
X125232365Y-53612696D01*
X125372240Y-53539283D01*
X125490483Y-53434530D01*
X125580220Y-53304523D01*
X125581935Y-53300000D01*
X126794318Y-53300000D01*
X126814955Y-53456761D01*
X126875461Y-53602836D01*
X126875464Y-53602841D01*
X126912005Y-53650463D01*
X126971718Y-53728282D01*
X127097159Y-53824536D01*
X127097161Y-53824536D01*
X127097163Y-53824538D01*
X127217867Y-53874535D01*
X127243238Y-53885044D01*
X127400000Y-53905682D01*
X127556762Y-53885044D01*
X127702841Y-53824536D01*
X127828282Y-53728282D01*
X127924536Y-53602841D01*
X127985044Y-53456762D01*
X128005682Y-53300000D01*
X127985044Y-53143238D01*
X127977490Y-53125000D01*
X128244722Y-53125000D01*
X128263763Y-53281819D01*
X128319780Y-53429524D01*
X128373093Y-53506761D01*
X128409517Y-53559530D01*
X128409519Y-53559531D01*
X128409520Y-53559533D01*
X128527760Y-53664283D01*
X128667635Y-53737696D01*
X128821015Y-53775500D01*
X128821016Y-53775500D01*
X128978983Y-53775500D01*
X128978985Y-53775500D01*
X129132365Y-53737696D01*
X129272240Y-53664283D01*
X129390483Y-53559530D01*
X129480220Y-53429523D01*
X129510379Y-53350000D01*
X131544318Y-53350000D01*
X131564955Y-53506761D01*
X131625461Y-53652836D01*
X131625464Y-53652841D01*
X131721718Y-53778282D01*
X131847159Y-53874536D01*
X131847161Y-53874536D01*
X131847163Y-53874538D01*
X131922352Y-53905682D01*
X131993238Y-53935044D01*
X132150000Y-53955682D01*
X132306762Y-53935044D01*
X132452841Y-53874536D01*
X132578282Y-53778282D01*
X132674536Y-53652841D01*
X132735044Y-53506762D01*
X132755682Y-53350000D01*
X132735044Y-53193238D01*
X132706779Y-53125000D01*
X132674538Y-53047163D01*
X132674535Y-53047158D01*
X132578282Y-52921718D01*
X132578281Y-52921717D01*
X132452841Y-52825464D01*
X132452836Y-52825461D01*
X132306761Y-52764955D01*
X132150000Y-52744318D01*
X131993238Y-52764955D01*
X131847163Y-52825461D01*
X131847158Y-52825464D01*
X131721718Y-52921717D01*
X131721717Y-52921718D01*
X131625464Y-53047158D01*
X131625461Y-53047163D01*
X131564955Y-53193238D01*
X131544318Y-53350000D01*
X129510379Y-53350000D01*
X129536237Y-53281818D01*
X129555278Y-53125000D01*
X129536237Y-52968182D01*
X129480220Y-52820477D01*
X129459704Y-52790755D01*
X129407384Y-52714956D01*
X129390483Y-52690470D01*
X129390480Y-52690467D01*
X129390479Y-52690466D01*
X129272239Y-52585716D01*
X129132364Y-52512303D01*
X129016788Y-52483817D01*
X128978985Y-52474500D01*
X128821015Y-52474500D01*
X128790687Y-52481975D01*
X128667635Y-52512303D01*
X128527760Y-52585716D01*
X128409520Y-52690466D01*
X128409516Y-52690471D01*
X128319780Y-52820475D01*
X128263763Y-52968180D01*
X128244722Y-53125000D01*
X127977490Y-53125000D01*
X127955935Y-53072963D01*
X127924538Y-52997163D01*
X127924535Y-52997158D01*
X127828282Y-52871718D01*
X127828281Y-52871717D01*
X127702841Y-52775464D01*
X127702836Y-52775461D01*
X127556761Y-52714955D01*
X127400000Y-52694318D01*
X127243238Y-52714955D01*
X127097163Y-52775461D01*
X127097158Y-52775464D01*
X126971718Y-52871717D01*
X126971717Y-52871718D01*
X126875464Y-52997158D01*
X126875461Y-52997163D01*
X126814955Y-53143238D01*
X126794318Y-53300000D01*
X125581935Y-53300000D01*
X125636237Y-53156818D01*
X125655278Y-53000000D01*
X125636237Y-52843182D01*
X125580220Y-52695477D01*
X125576761Y-52690466D01*
X125548330Y-52649277D01*
X125490483Y-52565470D01*
X125490480Y-52565467D01*
X125490479Y-52565466D01*
X125372239Y-52460716D01*
X125232364Y-52387303D01*
X125116788Y-52358817D01*
X125078985Y-52349500D01*
X124921015Y-52349500D01*
X124890687Y-52356975D01*
X124767635Y-52387303D01*
X124627760Y-52460716D01*
X124509520Y-52565466D01*
X124509516Y-52565471D01*
X124419780Y-52695475D01*
X124363763Y-52843180D01*
X124344722Y-53000000D01*
X115055933Y-53000000D01*
X115007682Y-52937118D01*
X115007681Y-52937117D01*
X114882241Y-52840864D01*
X114882236Y-52840861D01*
X114736161Y-52780355D01*
X114579400Y-52759718D01*
X114422638Y-52780355D01*
X114276563Y-52840861D01*
X114276558Y-52840864D01*
X114151118Y-52937117D01*
X114151117Y-52937118D01*
X114054864Y-53062558D01*
X114054861Y-53062563D01*
X113994355Y-53208638D01*
X113973718Y-53365400D01*
X111908482Y-53365400D01*
X111887844Y-53208638D01*
X111866380Y-53156819D01*
X111827338Y-53062563D01*
X111827335Y-53062558D01*
X111731082Y-52937118D01*
X111731081Y-52937117D01*
X111605641Y-52840864D01*
X111605636Y-52840861D01*
X111459561Y-52780355D01*
X111302800Y-52759718D01*
X111146038Y-52780355D01*
X110999963Y-52840861D01*
X110999958Y-52840864D01*
X110874518Y-52937117D01*
X110874517Y-52937118D01*
X110778264Y-53062558D01*
X110778261Y-53062563D01*
X110717755Y-53208638D01*
X110697118Y-53365400D01*
X108129713Y-53365400D01*
X108110444Y-53219038D01*
X108049936Y-53072959D01*
X107953682Y-52947518D01*
X107940128Y-52937118D01*
X107828241Y-52851264D01*
X107828236Y-52851261D01*
X107682161Y-52790755D01*
X107525400Y-52770118D01*
X107368638Y-52790755D01*
X107222563Y-52851261D01*
X107222558Y-52851264D01*
X107097118Y-52947517D01*
X107097117Y-52947518D01*
X107000864Y-53072958D01*
X107000861Y-53072963D01*
X106940355Y-53219038D01*
X106919718Y-53375800D01*
X102531021Y-53375800D01*
X102580220Y-53304523D01*
X102636237Y-53156818D01*
X102655278Y-53000000D01*
X102636237Y-52843182D01*
X102580220Y-52695477D01*
X102576761Y-52690466D01*
X102548330Y-52649277D01*
X102490483Y-52565470D01*
X102490480Y-52565467D01*
X102490479Y-52565466D01*
X102372239Y-52460716D01*
X102232364Y-52387303D01*
X102116788Y-52358817D01*
X102078985Y-52349500D01*
X101921015Y-52349500D01*
X101890687Y-52356975D01*
X101767635Y-52387303D01*
X101627760Y-52460716D01*
X101509520Y-52565466D01*
X101509516Y-52565471D01*
X101419780Y-52695475D01*
X101363763Y-52843180D01*
X101344722Y-53000000D01*
X99938350Y-53000000D01*
X99878282Y-52921718D01*
X99878281Y-52921717D01*
X99752841Y-52825464D01*
X99752836Y-52825461D01*
X99606761Y-52764955D01*
X99450000Y-52744318D01*
X99293238Y-52764955D01*
X99147163Y-52825461D01*
X99147158Y-52825464D01*
X99021718Y-52921717D01*
X99021717Y-52921718D01*
X98925464Y-53047158D01*
X98925461Y-53047163D01*
X98864955Y-53193238D01*
X98844318Y-53350000D01*
X97209965Y-53350000D01*
X97211023Y-52000000D01*
X99344722Y-52000000D01*
X99363763Y-52156819D01*
X99419780Y-52304524D01*
X99450825Y-52349500D01*
X99509517Y-52434530D01*
X99509519Y-52434531D01*
X99509520Y-52434533D01*
X99597307Y-52512304D01*
X99627760Y-52539283D01*
X99767635Y-52612696D01*
X99921015Y-52650500D01*
X99921016Y-52650500D01*
X100078983Y-52650500D01*
X100078985Y-52650500D01*
X100232365Y-52612696D01*
X100372240Y-52539283D01*
X100490483Y-52434530D01*
X100580220Y-52304523D01*
X100636237Y-52156818D01*
X100655278Y-52000000D01*
X100636237Y-51843182D01*
X100597029Y-51739800D01*
X108487318Y-51739800D01*
X108507955Y-51896561D01*
X108568461Y-52042636D01*
X108568464Y-52042641D01*
X108656075Y-52156819D01*
X108664718Y-52168082D01*
X108790159Y-52264336D01*
X108790161Y-52264336D01*
X108790163Y-52264338D01*
X108887179Y-52304523D01*
X108936238Y-52324844D01*
X109093000Y-52345482D01*
X109249762Y-52324844D01*
X109395841Y-52264336D01*
X109521282Y-52168082D01*
X109617536Y-52042641D01*
X109678044Y-51896562D01*
X109698682Y-51739800D01*
X112424318Y-51739800D01*
X112444955Y-51896561D01*
X112505461Y-52042636D01*
X112505464Y-52042641D01*
X112593075Y-52156819D01*
X112601718Y-52168082D01*
X112727159Y-52264336D01*
X112727161Y-52264336D01*
X112727163Y-52264338D01*
X112824179Y-52304523D01*
X112873238Y-52324844D01*
X113030000Y-52345482D01*
X113186762Y-52324844D01*
X113332841Y-52264336D01*
X113458282Y-52168082D01*
X113554536Y-52042641D01*
X113615044Y-51896562D01*
X113635682Y-51739800D01*
X113615044Y-51583038D01*
X113554538Y-51436963D01*
X113554535Y-51436958D01*
X113552670Y-51434528D01*
X113458282Y-51311518D01*
X113332841Y-51215264D01*
X113332836Y-51215261D01*
X113186761Y-51154755D01*
X113030000Y-51134118D01*
X112873238Y-51154755D01*
X112727163Y-51215261D01*
X112727158Y-51215264D01*
X112601718Y-51311517D01*
X112601717Y-51311518D01*
X112505464Y-51436958D01*
X112505461Y-51436963D01*
X112444955Y-51583038D01*
X112424318Y-51739800D01*
X109698682Y-51739800D01*
X109678044Y-51583038D01*
X109617538Y-51436963D01*
X109617535Y-51436958D01*
X109615670Y-51434528D01*
X109521282Y-51311518D01*
X109395841Y-51215264D01*
X109395836Y-51215261D01*
X109249761Y-51154755D01*
X109093000Y-51134118D01*
X108936238Y-51154755D01*
X108790163Y-51215261D01*
X108790158Y-51215264D01*
X108664718Y-51311517D01*
X108664717Y-51311518D01*
X108568464Y-51436958D01*
X108568461Y-51436963D01*
X108507955Y-51583038D01*
X108487318Y-51739800D01*
X100597029Y-51739800D01*
X100580220Y-51695477D01*
X100490483Y-51565470D01*
X100490480Y-51565467D01*
X100490479Y-51565466D01*
X100372239Y-51460716D01*
X100232364Y-51387303D01*
X100116788Y-51358817D01*
X100078985Y-51349500D01*
X99921015Y-51349500D01*
X99890687Y-51356975D01*
X99767635Y-51387303D01*
X99627760Y-51460716D01*
X99509520Y-51565466D01*
X99509516Y-51565471D01*
X99419780Y-51695475D01*
X99363763Y-51843180D01*
X99344722Y-52000000D01*
X97211023Y-52000000D01*
X97211807Y-51000000D01*
X122344722Y-51000000D01*
X122363763Y-51156819D01*
X122419780Y-51304524D01*
X122424608Y-51311518D01*
X122509517Y-51434530D01*
X122509519Y-51434531D01*
X122509520Y-51434533D01*
X122512263Y-51436963D01*
X122627760Y-51539283D01*
X122767635Y-51612696D01*
X122921015Y-51650500D01*
X122921016Y-51650500D01*
X123078983Y-51650500D01*
X123078985Y-51650500D01*
X123232365Y-51612696D01*
X123372240Y-51539283D01*
X123490483Y-51434530D01*
X123580220Y-51304523D01*
X123636237Y-51156818D01*
X123655278Y-51000000D01*
X124344722Y-51000000D01*
X124363763Y-51156819D01*
X124419780Y-51304524D01*
X124424608Y-51311518D01*
X124509517Y-51434530D01*
X124509519Y-51434531D01*
X124509520Y-51434533D01*
X124512263Y-51436963D01*
X124627760Y-51539283D01*
X124767635Y-51612696D01*
X124921015Y-51650500D01*
X124921016Y-51650500D01*
X125078983Y-51650500D01*
X125078985Y-51650500D01*
X125232365Y-51612696D01*
X125372240Y-51539283D01*
X125490483Y-51434530D01*
X125580220Y-51304523D01*
X125636237Y-51156818D01*
X125655278Y-51000000D01*
X125636237Y-50843182D01*
X125580220Y-50695477D01*
X125490483Y-50565470D01*
X125490480Y-50565467D01*
X125490479Y-50565466D01*
X125372239Y-50460716D01*
X125351822Y-50450000D01*
X129394318Y-50450000D01*
X129414955Y-50606761D01*
X129475461Y-50752836D01*
X129475464Y-50752841D01*
X129571718Y-50878282D01*
X129697159Y-50974536D01*
X129697161Y-50974536D01*
X129697163Y-50974538D01*
X129758634Y-51000000D01*
X129843238Y-51035044D01*
X130000000Y-51055682D01*
X130156762Y-51035044D01*
X130302841Y-50974536D01*
X130428282Y-50878282D01*
X130524536Y-50752841D01*
X130585044Y-50606762D01*
X130605682Y-50450000D01*
X130585044Y-50293238D01*
X130574884Y-50268709D01*
X130524538Y-50147163D01*
X130524535Y-50147158D01*
X130506649Y-50123849D01*
X130428282Y-50021718D01*
X130405874Y-50004524D01*
X130302841Y-49925464D01*
X130302836Y-49925461D01*
X130156761Y-49864955D01*
X130000000Y-49844318D01*
X129843238Y-49864955D01*
X129697163Y-49925461D01*
X129697158Y-49925464D01*
X129571718Y-50021717D01*
X129571717Y-50021718D01*
X129475464Y-50147158D01*
X129475461Y-50147163D01*
X129414955Y-50293238D01*
X129394318Y-50450000D01*
X125351822Y-50450000D01*
X125232364Y-50387303D01*
X125116788Y-50358817D01*
X125078985Y-50349500D01*
X124921015Y-50349500D01*
X124890687Y-50356975D01*
X124767635Y-50387303D01*
X124627760Y-50460716D01*
X124509520Y-50565466D01*
X124509516Y-50565471D01*
X124419780Y-50695475D01*
X124363763Y-50843180D01*
X124344722Y-51000000D01*
X123655278Y-51000000D01*
X123636237Y-50843182D01*
X123580220Y-50695477D01*
X123542559Y-50640916D01*
X123534689Y-50604250D01*
X123555051Y-50572756D01*
X123591718Y-50564885D01*
X123601632Y-50567810D01*
X123643238Y-50585044D01*
X123800000Y-50605682D01*
X123956762Y-50585044D01*
X124102841Y-50524536D01*
X124228282Y-50428282D01*
X124324536Y-50302841D01*
X124385044Y-50156762D01*
X124405682Y-50000000D01*
X124385044Y-49843238D01*
X124334709Y-49721718D01*
X124325713Y-49700000D01*
X134044722Y-49700000D01*
X134063763Y-49856819D01*
X134119780Y-50004524D01*
X134177627Y-50088330D01*
X134209517Y-50134530D01*
X134327760Y-50239283D01*
X134467635Y-50312696D01*
X134621015Y-50350500D01*
X134621016Y-50350500D01*
X134778983Y-50350500D01*
X134778985Y-50350500D01*
X134932365Y-50312696D01*
X135072240Y-50239283D01*
X135190483Y-50134530D01*
X135280220Y-50004523D01*
X135336237Y-49856818D01*
X135355278Y-49700000D01*
X135336237Y-49543182D01*
X135280220Y-49395477D01*
X135273358Y-49385536D01*
X135214455Y-49300200D01*
X135190483Y-49265470D01*
X135190480Y-49265467D01*
X135190479Y-49265466D01*
X135072239Y-49160716D01*
X134932364Y-49087303D01*
X134816788Y-49058817D01*
X134778985Y-49049500D01*
X134621015Y-49049500D01*
X134590687Y-49056975D01*
X134467635Y-49087303D01*
X134327760Y-49160716D01*
X134209520Y-49265466D01*
X134209516Y-49265471D01*
X134119780Y-49395475D01*
X134063763Y-49543180D01*
X134044722Y-49700000D01*
X124325713Y-49700000D01*
X124324538Y-49697163D01*
X124324535Y-49697158D01*
X124322753Y-49694836D01*
X124228282Y-49571718D01*
X124219468Y-49564955D01*
X124102841Y-49475464D01*
X124102836Y-49475461D01*
X123956761Y-49414955D01*
X123800000Y-49394318D01*
X123643238Y-49414955D01*
X123497163Y-49475461D01*
X123497158Y-49475464D01*
X123371718Y-49571717D01*
X123371717Y-49571718D01*
X123275464Y-49697158D01*
X123275461Y-49697163D01*
X123214955Y-49843238D01*
X123194318Y-50000000D01*
X123214955Y-50156761D01*
X123275461Y-50302836D01*
X123275462Y-50302837D01*
X123275464Y-50302841D01*
X123280393Y-50309265D01*
X123290100Y-50345488D01*
X123271349Y-50377967D01*
X123235124Y-50387674D01*
X123229793Y-50386669D01*
X123107177Y-50356448D01*
X123078985Y-50349500D01*
X122921015Y-50349500D01*
X122890687Y-50356975D01*
X122767635Y-50387303D01*
X122627760Y-50460716D01*
X122509520Y-50565466D01*
X122509516Y-50565471D01*
X122419780Y-50695475D01*
X122363763Y-50843180D01*
X122344722Y-51000000D01*
X97211807Y-51000000D01*
X97212610Y-49976151D01*
X99600200Y-49976151D01*
X99600200Y-50123849D01*
X99605402Y-50150000D01*
X99629013Y-50268706D01*
X99629015Y-50268712D01*
X99678137Y-50387303D01*
X99685536Y-50405164D01*
X99767592Y-50527970D01*
X99872030Y-50632408D01*
X99994836Y-50714464D01*
X100131291Y-50770986D01*
X100276151Y-50799800D01*
X100276154Y-50799800D01*
X100423846Y-50799800D01*
X100423849Y-50799800D01*
X100568709Y-50770986D01*
X100705164Y-50714464D01*
X100827970Y-50632408D01*
X100932408Y-50527970D01*
X101014464Y-50405164D01*
X101070986Y-50268709D01*
X101099800Y-50123849D01*
X101099800Y-49976151D01*
X101632200Y-49976151D01*
X101632200Y-50123849D01*
X101637402Y-50150000D01*
X101661013Y-50268706D01*
X101661015Y-50268712D01*
X101710137Y-50387303D01*
X101717536Y-50405164D01*
X101799592Y-50527970D01*
X101904030Y-50632408D01*
X102026836Y-50714464D01*
X102163291Y-50770986D01*
X102308151Y-50799800D01*
X102308154Y-50799800D01*
X102455846Y-50799800D01*
X102455849Y-50799800D01*
X102600709Y-50770986D01*
X102737164Y-50714464D01*
X102859970Y-50632408D01*
X102964408Y-50527970D01*
X103046464Y-50405164D01*
X103102986Y-50268709D01*
X103126598Y-50150000D01*
X106894318Y-50150000D01*
X106914955Y-50306761D01*
X106975461Y-50452836D01*
X106975464Y-50452841D01*
X107054375Y-50555681D01*
X107071718Y-50578282D01*
X107197159Y-50674536D01*
X107197161Y-50674536D01*
X107197163Y-50674538D01*
X107293556Y-50714465D01*
X107343238Y-50735044D01*
X107500000Y-50755682D01*
X107656762Y-50735044D01*
X107802841Y-50674536D01*
X107928282Y-50578282D01*
X108024536Y-50452841D01*
X108085044Y-50306762D01*
X108105682Y-50150000D01*
X108104313Y-50139600D01*
X110671718Y-50139600D01*
X110692355Y-50296361D01*
X110752861Y-50442436D01*
X110752864Y-50442441D01*
X110839756Y-50555682D01*
X110849118Y-50567882D01*
X110974559Y-50664136D01*
X110974561Y-50664136D01*
X110974563Y-50664138D01*
X111120638Y-50724644D01*
X111277400Y-50745282D01*
X111434162Y-50724644D01*
X111580241Y-50664136D01*
X111705682Y-50567882D01*
X111801936Y-50442441D01*
X111862444Y-50296362D01*
X111883082Y-50139600D01*
X113948318Y-50139600D01*
X113968955Y-50296361D01*
X114029461Y-50442436D01*
X114029464Y-50442441D01*
X114116356Y-50555682D01*
X114125718Y-50567882D01*
X114251159Y-50664136D01*
X114251161Y-50664136D01*
X114251163Y-50664138D01*
X114397238Y-50724644D01*
X114554000Y-50745282D01*
X114710762Y-50724644D01*
X114856841Y-50664136D01*
X114982282Y-50567882D01*
X115078536Y-50442441D01*
X115139044Y-50296362D01*
X115159682Y-50139600D01*
X115156338Y-50114200D01*
X119637918Y-50114200D01*
X119658555Y-50270961D01*
X119719061Y-50417036D01*
X119719064Y-50417041D01*
X119809610Y-50535044D01*
X119815318Y-50542482D01*
X119940759Y-50638736D01*
X119940761Y-50638736D01*
X119940763Y-50638738D01*
X120077739Y-50695475D01*
X120086838Y-50699244D01*
X120243600Y-50719882D01*
X120400362Y-50699244D01*
X120546441Y-50638736D01*
X120671882Y-50542482D01*
X120768136Y-50417041D01*
X120828644Y-50270962D01*
X120849282Y-50114200D01*
X120828644Y-49957438D01*
X120825563Y-49950000D01*
X121344318Y-49950000D01*
X121364955Y-50106761D01*
X121425461Y-50252836D01*
X121425464Y-50252841D01*
X121521718Y-50378282D01*
X121647159Y-50474536D01*
X121647161Y-50474536D01*
X121647163Y-50474538D01*
X121767867Y-50524535D01*
X121793238Y-50535044D01*
X121950000Y-50555682D01*
X122106762Y-50535044D01*
X122252841Y-50474536D01*
X122378282Y-50378282D01*
X122474536Y-50252841D01*
X122535044Y-50106762D01*
X122555682Y-49950000D01*
X122535044Y-49793238D01*
X122474538Y-49647163D01*
X122474535Y-49647158D01*
X122457886Y-49625461D01*
X122378282Y-49521718D01*
X122361079Y-49508518D01*
X122252841Y-49425464D01*
X122252836Y-49425461D01*
X122106761Y-49364955D01*
X121950000Y-49344318D01*
X121793238Y-49364955D01*
X121647163Y-49425461D01*
X121647158Y-49425464D01*
X121521718Y-49521717D01*
X121521717Y-49521718D01*
X121425464Y-49647158D01*
X121425461Y-49647163D01*
X121364955Y-49793238D01*
X121344318Y-49950000D01*
X120825563Y-49950000D01*
X120782965Y-49847159D01*
X120768138Y-49811363D01*
X120768135Y-49811358D01*
X120671882Y-49685918D01*
X120671881Y-49685917D01*
X120546441Y-49589664D01*
X120546436Y-49589661D01*
X120400361Y-49529155D01*
X120243600Y-49508518D01*
X120086838Y-49529155D01*
X119940763Y-49589661D01*
X119940758Y-49589664D01*
X119815318Y-49685917D01*
X119815317Y-49685918D01*
X119719064Y-49811358D01*
X119719061Y-49811363D01*
X119658555Y-49957438D01*
X119637918Y-50114200D01*
X115156338Y-50114200D01*
X115139044Y-49982838D01*
X115086845Y-49856818D01*
X115078538Y-49836763D01*
X115078535Y-49836758D01*
X114982282Y-49711318D01*
X114982281Y-49711317D01*
X114856841Y-49615064D01*
X114856836Y-49615061D01*
X114710761Y-49554555D01*
X114554000Y-49533918D01*
X114397238Y-49554555D01*
X114251163Y-49615061D01*
X114251158Y-49615064D01*
X114125718Y-49711317D01*
X114125717Y-49711318D01*
X114029464Y-49836758D01*
X114029461Y-49836763D01*
X113968955Y-49982838D01*
X113948318Y-50139600D01*
X111883082Y-50139600D01*
X111862444Y-49982838D01*
X111810245Y-49856818D01*
X111801938Y-49836763D01*
X111801935Y-49836758D01*
X111705682Y-49711318D01*
X111705681Y-49711317D01*
X111580241Y-49615064D01*
X111580236Y-49615061D01*
X111434161Y-49554555D01*
X111277400Y-49533918D01*
X111120638Y-49554555D01*
X110974563Y-49615061D01*
X110974558Y-49615064D01*
X110849118Y-49711317D01*
X110849117Y-49711318D01*
X110752864Y-49836758D01*
X110752861Y-49836763D01*
X110692355Y-49982838D01*
X110671718Y-50139600D01*
X108104313Y-50139600D01*
X108085044Y-49993238D01*
X108031908Y-49864956D01*
X108024538Y-49847163D01*
X108024535Y-49847158D01*
X108012361Y-49831293D01*
X107928282Y-49721718D01*
X107914728Y-49711318D01*
X107802841Y-49625464D01*
X107802836Y-49625461D01*
X107656761Y-49564955D01*
X107500000Y-49544318D01*
X107343238Y-49564955D01*
X107197163Y-49625461D01*
X107197158Y-49625464D01*
X107071718Y-49721717D01*
X107071717Y-49721718D01*
X106975464Y-49847158D01*
X106975461Y-49847163D01*
X106914955Y-49993238D01*
X106894318Y-50150000D01*
X103126598Y-50150000D01*
X103131800Y-50123849D01*
X103131800Y-49976151D01*
X103102986Y-49831291D01*
X103046464Y-49694836D01*
X102964408Y-49572030D01*
X102859970Y-49467592D01*
X102737164Y-49385536D01*
X102737161Y-49385534D01*
X102737160Y-49385534D01*
X102600712Y-49329015D01*
X102600706Y-49329013D01*
X102542288Y-49317393D01*
X102455849Y-49300200D01*
X102308151Y-49300200D01*
X102236052Y-49314540D01*
X102163293Y-49329013D01*
X102163287Y-49329015D01*
X102026839Y-49385534D01*
X101904030Y-49467591D01*
X101799591Y-49572030D01*
X101717534Y-49694839D01*
X101661015Y-49831287D01*
X101661013Y-49831293D01*
X101646540Y-49904052D01*
X101632200Y-49976151D01*
X101099800Y-49976151D01*
X101070986Y-49831291D01*
X101014464Y-49694836D01*
X100932408Y-49572030D01*
X100827970Y-49467592D01*
X100705164Y-49385536D01*
X100705161Y-49385534D01*
X100705160Y-49385534D01*
X100568712Y-49329015D01*
X100568706Y-49329013D01*
X100510288Y-49317393D01*
X100423849Y-49300200D01*
X100276151Y-49300200D01*
X100204052Y-49314540D01*
X100131293Y-49329013D01*
X100131287Y-49329015D01*
X99994839Y-49385534D01*
X99872030Y-49467591D01*
X99767591Y-49572030D01*
X99685534Y-49694839D01*
X99629015Y-49831287D01*
X99629013Y-49831293D01*
X99614540Y-49904052D01*
X99600200Y-49976151D01*
X97212610Y-49976151D01*
X97213650Y-48650000D01*
X99094318Y-48650000D01*
X99114955Y-48806761D01*
X99175461Y-48952836D01*
X99175464Y-48952841D01*
X99271718Y-49078282D01*
X99397159Y-49174536D01*
X99397161Y-49174536D01*
X99397163Y-49174538D01*
X99543238Y-49235044D01*
X99700000Y-49255682D01*
X99856762Y-49235044D01*
X100002841Y-49174536D01*
X100128282Y-49078282D01*
X100224536Y-48952841D01*
X100285044Y-48806762D01*
X100305682Y-48650000D01*
X100285044Y-48493238D01*
X100224536Y-48347159D01*
X100128282Y-48221718D01*
X100002841Y-48125464D01*
X100002836Y-48125461D01*
X99856761Y-48064955D01*
X99700000Y-48044318D01*
X99543238Y-48064955D01*
X99397163Y-48125461D01*
X99397158Y-48125464D01*
X99271718Y-48221717D01*
X99271717Y-48221718D01*
X99175464Y-48347158D01*
X99175461Y-48347163D01*
X99114955Y-48493238D01*
X99094318Y-48650000D01*
X97213650Y-48650000D01*
X97214316Y-47800000D01*
X128394318Y-47800000D01*
X128414955Y-47956761D01*
X128475461Y-48102836D01*
X128475464Y-48102841D01*
X128566680Y-48221717D01*
X128571718Y-48228282D01*
X128697159Y-48324536D01*
X128697161Y-48324536D01*
X128697163Y-48324538D01*
X128751785Y-48347163D01*
X128843238Y-48385044D01*
X129000000Y-48405682D01*
X129156762Y-48385044D01*
X129302841Y-48324536D01*
X129428282Y-48228282D01*
X129524536Y-48102841D01*
X129585044Y-47956762D01*
X129605682Y-47800000D01*
X129585044Y-47643238D01*
X129572393Y-47612696D01*
X129524538Y-47497163D01*
X129524535Y-47497158D01*
X129476481Y-47434533D01*
X129428282Y-47371718D01*
X129415794Y-47362136D01*
X129302841Y-47275464D01*
X129302836Y-47275461D01*
X129156761Y-47214955D01*
X129000000Y-47194318D01*
X128843238Y-47214955D01*
X128697163Y-47275461D01*
X128697158Y-47275464D01*
X128571718Y-47371717D01*
X128571717Y-47371718D01*
X128475464Y-47497158D01*
X128475461Y-47497163D01*
X128414955Y-47643238D01*
X128394318Y-47800000D01*
X97214316Y-47800000D01*
X97214943Y-47000000D01*
X97344722Y-47000000D01*
X97363763Y-47156819D01*
X97419780Y-47304524D01*
X97466160Y-47371717D01*
X97509517Y-47434530D01*
X97627760Y-47539283D01*
X97767635Y-47612696D01*
X97921015Y-47650500D01*
X97921016Y-47650500D01*
X98078983Y-47650500D01*
X98078985Y-47650500D01*
X98232365Y-47612696D01*
X98372240Y-47539283D01*
X98490483Y-47434530D01*
X98580220Y-47304523D01*
X98636237Y-47156818D01*
X98655278Y-47000000D01*
X116344722Y-47000000D01*
X116363763Y-47156819D01*
X116419780Y-47304524D01*
X116466160Y-47371717D01*
X116509517Y-47434530D01*
X116627760Y-47539283D01*
X116767635Y-47612696D01*
X116921015Y-47650500D01*
X116921016Y-47650500D01*
X117078983Y-47650500D01*
X117078985Y-47650500D01*
X117232365Y-47612696D01*
X117372240Y-47539283D01*
X117490483Y-47434530D01*
X117580220Y-47304523D01*
X117636237Y-47156818D01*
X117655278Y-47000000D01*
X117636237Y-46843182D01*
X117634120Y-46837600D01*
X134471518Y-46837600D01*
X134492155Y-46994361D01*
X134552661Y-47140436D01*
X134552664Y-47140441D01*
X134648918Y-47265882D01*
X134774359Y-47362136D01*
X134774361Y-47362136D01*
X134774363Y-47362138D01*
X134920438Y-47422644D01*
X135077200Y-47443282D01*
X135233962Y-47422644D01*
X135380041Y-47362136D01*
X135505482Y-47265882D01*
X135601736Y-47140441D01*
X135662244Y-46994362D01*
X135682882Y-46837600D01*
X135662244Y-46680838D01*
X135628816Y-46600135D01*
X135601738Y-46534763D01*
X135601735Y-46534758D01*
X135578042Y-46503881D01*
X135505482Y-46409318D01*
X135476791Y-46387303D01*
X135380041Y-46313064D01*
X135380036Y-46313061D01*
X135233961Y-46252555D01*
X135077200Y-46231918D01*
X134920438Y-46252555D01*
X134774363Y-46313061D01*
X134774358Y-46313064D01*
X134648918Y-46409317D01*
X134648917Y-46409318D01*
X134552664Y-46534758D01*
X134552661Y-46534763D01*
X134492155Y-46680838D01*
X134471518Y-46837600D01*
X117634120Y-46837600D01*
X117580220Y-46695477D01*
X117570421Y-46681281D01*
X117514410Y-46600135D01*
X117490483Y-46565470D01*
X117490480Y-46565467D01*
X117490479Y-46565466D01*
X117372239Y-46460716D01*
X117232364Y-46387303D01*
X117104067Y-46355682D01*
X117078985Y-46349500D01*
X116921015Y-46349500D01*
X116895937Y-46355681D01*
X116767635Y-46387303D01*
X116627760Y-46460716D01*
X116509520Y-46565466D01*
X116509516Y-46565471D01*
X116419780Y-46695475D01*
X116363763Y-46843180D01*
X116344722Y-47000000D01*
X98655278Y-47000000D01*
X98636237Y-46843182D01*
X98580220Y-46695477D01*
X98570421Y-46681281D01*
X98514410Y-46600135D01*
X98490483Y-46565470D01*
X98490480Y-46565467D01*
X98490479Y-46565466D01*
X98372239Y-46460716D01*
X98232364Y-46387303D01*
X98104067Y-46355682D01*
X98078985Y-46349500D01*
X97921015Y-46349500D01*
X97895937Y-46355681D01*
X97767635Y-46387303D01*
X97627760Y-46460716D01*
X97509520Y-46565466D01*
X97509516Y-46565471D01*
X97419780Y-46695475D01*
X97363763Y-46843180D01*
X97344722Y-47000000D01*
X97214943Y-47000000D01*
X97215923Y-45750000D01*
X104644318Y-45750000D01*
X104664955Y-45906761D01*
X104725461Y-46052836D01*
X104725464Y-46052841D01*
X104821718Y-46178282D01*
X104947159Y-46274536D01*
X104947161Y-46274536D01*
X104947163Y-46274538D01*
X105093238Y-46335044D01*
X105250000Y-46355682D01*
X105406762Y-46335044D01*
X105552841Y-46274536D01*
X105678282Y-46178282D01*
X105718092Y-46126400D01*
X115015118Y-46126400D01*
X115035755Y-46283161D01*
X115096261Y-46429236D01*
X115096264Y-46429241D01*
X115177233Y-46534763D01*
X115192518Y-46554682D01*
X115317959Y-46650936D01*
X115317961Y-46650936D01*
X115317963Y-46650938D01*
X115425485Y-46695475D01*
X115464038Y-46711444D01*
X115620800Y-46732082D01*
X115777562Y-46711444D01*
X115923641Y-46650936D01*
X116049082Y-46554682D01*
X116145336Y-46429241D01*
X116205844Y-46283162D01*
X116226482Y-46126400D01*
X116219794Y-46075600D01*
X120526918Y-46075600D01*
X120547555Y-46232361D01*
X120608061Y-46378436D01*
X120608064Y-46378441D01*
X120704318Y-46503882D01*
X120829759Y-46600136D01*
X120829761Y-46600136D01*
X120829763Y-46600138D01*
X120952398Y-46650935D01*
X120975838Y-46660644D01*
X121132600Y-46681282D01*
X121289362Y-46660644D01*
X121435441Y-46600136D01*
X121560882Y-46503882D01*
X121657136Y-46378441D01*
X121717644Y-46232362D01*
X121738282Y-46075600D01*
X121717644Y-45918838D01*
X121685838Y-45842051D01*
X121657138Y-45772763D01*
X121657135Y-45772758D01*
X121594389Y-45690986D01*
X121560882Y-45647318D01*
X121544130Y-45634464D01*
X121435441Y-45551064D01*
X121435436Y-45551061D01*
X121289361Y-45490555D01*
X121132600Y-45469918D01*
X120975838Y-45490555D01*
X120829763Y-45551061D01*
X120829758Y-45551064D01*
X120704318Y-45647317D01*
X120704317Y-45647318D01*
X120608064Y-45772758D01*
X120608061Y-45772763D01*
X120547555Y-45918838D01*
X120526918Y-46075600D01*
X116219794Y-46075600D01*
X116205844Y-45969638D01*
X116179800Y-45906762D01*
X116145338Y-45823563D01*
X116145335Y-45823558D01*
X116049082Y-45698118D01*
X116049081Y-45698117D01*
X115923641Y-45601864D01*
X115923636Y-45601861D01*
X115777561Y-45541355D01*
X115620800Y-45520718D01*
X115464038Y-45541355D01*
X115317963Y-45601861D01*
X115317958Y-45601864D01*
X115192518Y-45698117D01*
X115192517Y-45698118D01*
X115096264Y-45823558D01*
X115096261Y-45823563D01*
X115035755Y-45969638D01*
X115015118Y-46126400D01*
X105718092Y-46126400D01*
X105774536Y-46052841D01*
X105835044Y-45906762D01*
X105855682Y-45750000D01*
X105835044Y-45593238D01*
X105827673Y-45575443D01*
X105774538Y-45447163D01*
X105774535Y-45447158D01*
X105770701Y-45442162D01*
X105678282Y-45321718D01*
X105675395Y-45319503D01*
X105552841Y-45225464D01*
X105552836Y-45225461D01*
X105406761Y-45164955D01*
X105250000Y-45144318D01*
X105093238Y-45164955D01*
X104947163Y-45225461D01*
X104947158Y-45225464D01*
X104821718Y-45321717D01*
X104821717Y-45321718D01*
X104725464Y-45447158D01*
X104725461Y-45447163D01*
X104664955Y-45593238D01*
X104644318Y-45750000D01*
X97215923Y-45750000D01*
X97216511Y-45000000D01*
X97344722Y-45000000D01*
X97363763Y-45156819D01*
X97419780Y-45304524D01*
X97434027Y-45325164D01*
X97509517Y-45434530D01*
X97509519Y-45434531D01*
X97509520Y-45434533D01*
X97568104Y-45486433D01*
X97627760Y-45539283D01*
X97767635Y-45612696D01*
X97921015Y-45650500D01*
X97921016Y-45650500D01*
X98078983Y-45650500D01*
X98078985Y-45650500D01*
X98232365Y-45612696D01*
X98372240Y-45539283D01*
X98490483Y-45434530D01*
X98580220Y-45304523D01*
X98636237Y-45156818D01*
X98655278Y-45000000D01*
X98642669Y-44896151D01*
X100616200Y-44896151D01*
X100616200Y-45043849D01*
X100623914Y-45082629D01*
X100645013Y-45188706D01*
X100645015Y-45188712D01*
X100700108Y-45321718D01*
X100701536Y-45325164D01*
X100756485Y-45407401D01*
X100783052Y-45447163D01*
X100783592Y-45447970D01*
X100888030Y-45552408D01*
X101010836Y-45634464D01*
X101147291Y-45690986D01*
X101292151Y-45719800D01*
X101292154Y-45719800D01*
X101439846Y-45719800D01*
X101439849Y-45719800D01*
X101584709Y-45690986D01*
X101721164Y-45634464D01*
X101843970Y-45552408D01*
X101948408Y-45447970D01*
X102030464Y-45325164D01*
X102086986Y-45188709D01*
X102115800Y-45043849D01*
X102115800Y-45000000D01*
X108344722Y-45000000D01*
X108363763Y-45156819D01*
X108419780Y-45304524D01*
X108434027Y-45325164D01*
X108509517Y-45434530D01*
X108509519Y-45434531D01*
X108509520Y-45434533D01*
X108568104Y-45486433D01*
X108627760Y-45539283D01*
X108767635Y-45612696D01*
X108921015Y-45650500D01*
X108921016Y-45650500D01*
X109078983Y-45650500D01*
X109078985Y-45650500D01*
X109232365Y-45612696D01*
X109372240Y-45539283D01*
X109490483Y-45434530D01*
X109580220Y-45304523D01*
X109636237Y-45156818D01*
X109655278Y-45000000D01*
X110344722Y-45000000D01*
X110363763Y-45156819D01*
X110419780Y-45304524D01*
X110434027Y-45325164D01*
X110509517Y-45434530D01*
X110509519Y-45434531D01*
X110509520Y-45434533D01*
X110568104Y-45486433D01*
X110627760Y-45539283D01*
X110767635Y-45612696D01*
X110921015Y-45650500D01*
X110921016Y-45650500D01*
X111078983Y-45650500D01*
X111078985Y-45650500D01*
X111232365Y-45612696D01*
X111372240Y-45539283D01*
X111490483Y-45434530D01*
X111580220Y-45304523D01*
X111636237Y-45156818D01*
X111655278Y-45000000D01*
X111636237Y-44843182D01*
X111580220Y-44695477D01*
X111490483Y-44565470D01*
X111490480Y-44565467D01*
X111490479Y-44565466D01*
X111372239Y-44460716D01*
X111232364Y-44387303D01*
X111116788Y-44358817D01*
X111078985Y-44349500D01*
X110921015Y-44349500D01*
X110890687Y-44356975D01*
X110767635Y-44387303D01*
X110627760Y-44460716D01*
X110509520Y-44565466D01*
X110509516Y-44565471D01*
X110419780Y-44695475D01*
X110363763Y-44843180D01*
X110344722Y-45000000D01*
X109655278Y-45000000D01*
X109636237Y-44843182D01*
X109580220Y-44695477D01*
X109490483Y-44565470D01*
X109490480Y-44565467D01*
X109490479Y-44565466D01*
X109372239Y-44460716D01*
X109232364Y-44387303D01*
X109116788Y-44358817D01*
X109078985Y-44349500D01*
X108921015Y-44349500D01*
X108890687Y-44356975D01*
X108767635Y-44387303D01*
X108627760Y-44460716D01*
X108509520Y-44565466D01*
X108509516Y-44565471D01*
X108419780Y-44695475D01*
X108363763Y-44843180D01*
X108344722Y-45000000D01*
X102115800Y-45000000D01*
X102115800Y-44896151D01*
X102086986Y-44751291D01*
X102030464Y-44614836D01*
X101948408Y-44492030D01*
X101843970Y-44387592D01*
X101843537Y-44387303D01*
X101786961Y-44349500D01*
X101721164Y-44305536D01*
X101721161Y-44305534D01*
X101721160Y-44305534D01*
X101584712Y-44249015D01*
X101584706Y-44249013D01*
X101526288Y-44237393D01*
X101439849Y-44220200D01*
X101292151Y-44220200D01*
X101220052Y-44234540D01*
X101147293Y-44249013D01*
X101147287Y-44249015D01*
X101010839Y-44305534D01*
X100888030Y-44387591D01*
X100783591Y-44492030D01*
X100701534Y-44614839D01*
X100645015Y-44751287D01*
X100645013Y-44751293D01*
X100634393Y-44804686D01*
X100616200Y-44896151D01*
X98642669Y-44896151D01*
X98636237Y-44843182D01*
X98580220Y-44695477D01*
X98490483Y-44565470D01*
X98490480Y-44565467D01*
X98490479Y-44565466D01*
X98372239Y-44460716D01*
X98232364Y-44387303D01*
X98116788Y-44358817D01*
X98078985Y-44349500D01*
X97921015Y-44349500D01*
X97890687Y-44356975D01*
X97767635Y-44387303D01*
X97627760Y-44460716D01*
X97509520Y-44565466D01*
X97509516Y-44565471D01*
X97419780Y-44695475D01*
X97363763Y-44843180D01*
X97344722Y-45000000D01*
X97216511Y-45000000D01*
X97217125Y-44216233D01*
X113149500Y-44216233D01*
X113149500Y-44983767D01*
X113165109Y-45062240D01*
X113182183Y-45148079D01*
X113182185Y-45148085D01*
X113246296Y-45302862D01*
X113339371Y-45442159D01*
X113457840Y-45560628D01*
X113578949Y-45641550D01*
X113597137Y-45653703D01*
X113751918Y-45717816D01*
X113916233Y-45750500D01*
X113916236Y-45750500D01*
X114083764Y-45750500D01*
X114083767Y-45750500D01*
X114248082Y-45717816D01*
X114402863Y-45653703D01*
X114542162Y-45560626D01*
X114660626Y-45442162D01*
X114753703Y-45302863D01*
X114817816Y-45148082D01*
X114850500Y-44983767D01*
X114850500Y-44216233D01*
X121789500Y-44216233D01*
X121789500Y-44983767D01*
X121805109Y-45062240D01*
X121822183Y-45148079D01*
X121822185Y-45148085D01*
X121886296Y-45302862D01*
X121979371Y-45442159D01*
X122097840Y-45560628D01*
X122218949Y-45641550D01*
X122237137Y-45653703D01*
X122391918Y-45717816D01*
X122556233Y-45750500D01*
X122556236Y-45750500D01*
X122723764Y-45750500D01*
X122723767Y-45750500D01*
X122888082Y-45717816D01*
X123042863Y-45653703D01*
X123182162Y-45560626D01*
X123300626Y-45442162D01*
X123393703Y-45302863D01*
X123457816Y-45148082D01*
X123487271Y-45000000D01*
X124344722Y-45000000D01*
X124363763Y-45156819D01*
X124419780Y-45304524D01*
X124434027Y-45325164D01*
X124509517Y-45434530D01*
X124509519Y-45434531D01*
X124509520Y-45434533D01*
X124568104Y-45486433D01*
X124627760Y-45539283D01*
X124767635Y-45612696D01*
X124921015Y-45650500D01*
X124921016Y-45650500D01*
X125078983Y-45650500D01*
X125078985Y-45650500D01*
X125232365Y-45612696D01*
X125372240Y-45539283D01*
X125490483Y-45434530D01*
X125580220Y-45304523D01*
X125636237Y-45156818D01*
X125655278Y-45000000D01*
X126344722Y-45000000D01*
X126363763Y-45156819D01*
X126419780Y-45304524D01*
X126434027Y-45325164D01*
X126509517Y-45434530D01*
X126509519Y-45434531D01*
X126509520Y-45434533D01*
X126568104Y-45486433D01*
X126627760Y-45539283D01*
X126767635Y-45612696D01*
X126921015Y-45650500D01*
X126921016Y-45650500D01*
X127078983Y-45650500D01*
X127078985Y-45650500D01*
X127232365Y-45612696D01*
X127372240Y-45539283D01*
X127490483Y-45434530D01*
X127580220Y-45304523D01*
X127636237Y-45156818D01*
X127655278Y-45000000D01*
X127649207Y-44949999D01*
X128909450Y-44949999D01*
X128909450Y-44950000D01*
X128928003Y-45138369D01*
X128928003Y-45138370D01*
X128943272Y-45188706D01*
X128982948Y-45319500D01*
X129067562Y-45477800D01*
X129072176Y-45486433D01*
X129072178Y-45486436D01*
X129125218Y-45551064D01*
X129192253Y-45632746D01*
X129271907Y-45698117D01*
X129338562Y-45752820D01*
X129338565Y-45752822D01*
X129338569Y-45752825D01*
X129505499Y-45842051D01*
X129686630Y-45896996D01*
X129874999Y-45915549D01*
X130063368Y-45896996D01*
X130244499Y-45842051D01*
X130411429Y-45752825D01*
X130557745Y-45632746D01*
X130677824Y-45486430D01*
X130767050Y-45319500D01*
X130821995Y-45138369D01*
X130826235Y-45095313D01*
X130843913Y-45062240D01*
X130879801Y-45051353D01*
X130912876Y-45069031D01*
X130923763Y-45095314D01*
X130928004Y-45138368D01*
X130928004Y-45138370D01*
X130943273Y-45188706D01*
X130982949Y-45319500D01*
X131067563Y-45477800D01*
X131072177Y-45486433D01*
X131072179Y-45486436D01*
X131125219Y-45551064D01*
X131192254Y-45632746D01*
X131271908Y-45698117D01*
X131338563Y-45752820D01*
X131338566Y-45752822D01*
X131338570Y-45752825D01*
X131505500Y-45842051D01*
X131686631Y-45896996D01*
X131875000Y-45915549D01*
X132063369Y-45896996D01*
X132244500Y-45842051D01*
X132411430Y-45752825D01*
X132547019Y-45641548D01*
X132582904Y-45630663D01*
X132615979Y-45648341D01*
X132623372Y-45660675D01*
X132647040Y-45717814D01*
X132673064Y-45780641D01*
X132769318Y-45906082D01*
X132894759Y-46002336D01*
X132894761Y-46002336D01*
X132894763Y-46002338D01*
X133016689Y-46052841D01*
X133040838Y-46062844D01*
X133197600Y-46083482D01*
X133354362Y-46062844D01*
X133500441Y-46002336D01*
X133625882Y-45906082D01*
X133722136Y-45780641D01*
X133782644Y-45634562D01*
X133803282Y-45477800D01*
X133782644Y-45321038D01*
X133727833Y-45188712D01*
X133722138Y-45174963D01*
X133722135Y-45174958D01*
X133714460Y-45164956D01*
X133651287Y-45082627D01*
X133641581Y-45046404D01*
X133651287Y-45022972D01*
X133668914Y-45000000D01*
X134344722Y-45000000D01*
X134363763Y-45156819D01*
X134419780Y-45304524D01*
X134434027Y-45325164D01*
X134509517Y-45434530D01*
X134509519Y-45434531D01*
X134509520Y-45434533D01*
X134568104Y-45486433D01*
X134627760Y-45539283D01*
X134767635Y-45612696D01*
X134921015Y-45650500D01*
X134921016Y-45650500D01*
X135078983Y-45650500D01*
X135078985Y-45650500D01*
X135232365Y-45612696D01*
X135372240Y-45539283D01*
X135490483Y-45434530D01*
X135580220Y-45304523D01*
X135636237Y-45156818D01*
X135655278Y-45000000D01*
X135636237Y-44843182D01*
X135580220Y-44695477D01*
X135490483Y-44565470D01*
X135490480Y-44565467D01*
X135490479Y-44565466D01*
X135372239Y-44460716D01*
X135232364Y-44387303D01*
X135116788Y-44358817D01*
X135078985Y-44349500D01*
X134921015Y-44349500D01*
X134890687Y-44356975D01*
X134767635Y-44387303D01*
X134627760Y-44460716D01*
X134509520Y-44565466D01*
X134509516Y-44565471D01*
X134419780Y-44695475D01*
X134363763Y-44843180D01*
X134344722Y-45000000D01*
X133668914Y-45000000D01*
X133722136Y-44930641D01*
X133782644Y-44784562D01*
X133803282Y-44627800D01*
X133782644Y-44471038D01*
X133778369Y-44460717D01*
X133722138Y-44324963D01*
X133722135Y-44324958D01*
X133677857Y-44267254D01*
X133625882Y-44199518D01*
X133500441Y-44103264D01*
X133500436Y-44103261D01*
X133354361Y-44042755D01*
X133197600Y-44022118D01*
X133040838Y-44042755D01*
X132894763Y-44103261D01*
X132894758Y-44103264D01*
X132769318Y-44199517D01*
X132769317Y-44199518D01*
X132677809Y-44318774D01*
X132645331Y-44337526D01*
X132609106Y-44327819D01*
X132601063Y-44320036D01*
X132557746Y-44267254D01*
X132535521Y-44249014D01*
X132411436Y-44147179D01*
X132411433Y-44147177D01*
X132411431Y-44147176D01*
X132411430Y-44147175D01*
X132244500Y-44057949D01*
X132063369Y-44003004D01*
X131875000Y-43984451D01*
X131686630Y-44003004D01*
X131686629Y-44003004D01*
X131525375Y-44051920D01*
X131505500Y-44057949D01*
X131505497Y-44057950D01*
X131505496Y-44057951D01*
X131338566Y-44147177D01*
X131338563Y-44147179D01*
X131192254Y-44267254D01*
X131072179Y-44413563D01*
X131072177Y-44413566D01*
X130982951Y-44580496D01*
X130982948Y-44580503D01*
X130928004Y-44761629D01*
X130928004Y-44761630D01*
X130923763Y-44804686D01*
X130906084Y-44837760D01*
X130870195Y-44848646D01*
X130837121Y-44830967D01*
X130826235Y-44804684D01*
X130824253Y-44784562D01*
X130821995Y-44761631D01*
X130767050Y-44580500D01*
X130677824Y-44413570D01*
X130677821Y-44413566D01*
X130677819Y-44413563D01*
X130615416Y-44337526D01*
X130557745Y-44267254D01*
X130475208Y-44199517D01*
X130411435Y-44147179D01*
X130411432Y-44147177D01*
X130411430Y-44147176D01*
X130411429Y-44147175D01*
X130244499Y-44057949D01*
X130063368Y-44003004D01*
X129874999Y-43984451D01*
X129686629Y-44003004D01*
X129686628Y-44003004D01*
X129525374Y-44051920D01*
X129505499Y-44057949D01*
X129505496Y-44057950D01*
X129505495Y-44057951D01*
X129338565Y-44147177D01*
X129338562Y-44147179D01*
X129192253Y-44267254D01*
X129072178Y-44413563D01*
X129072176Y-44413566D01*
X128982950Y-44580496D01*
X128982947Y-44580503D01*
X128928003Y-44761629D01*
X128928003Y-44761630D01*
X128909450Y-44949999D01*
X127649207Y-44949999D01*
X127636237Y-44843182D01*
X127580220Y-44695477D01*
X127490483Y-44565470D01*
X127490480Y-44565467D01*
X127490479Y-44565466D01*
X127372239Y-44460716D01*
X127232364Y-44387303D01*
X127116788Y-44358817D01*
X127078985Y-44349500D01*
X126921015Y-44349500D01*
X126890687Y-44356975D01*
X126767635Y-44387303D01*
X126627760Y-44460716D01*
X126509520Y-44565466D01*
X126509516Y-44565471D01*
X126419780Y-44695475D01*
X126363763Y-44843180D01*
X126344722Y-45000000D01*
X125655278Y-45000000D01*
X125636237Y-44843182D01*
X125580220Y-44695477D01*
X125490483Y-44565470D01*
X125490480Y-44565467D01*
X125490479Y-44565466D01*
X125372239Y-44460716D01*
X125232364Y-44387303D01*
X125116788Y-44358817D01*
X125078985Y-44349500D01*
X124921015Y-44349500D01*
X124890687Y-44356975D01*
X124767635Y-44387303D01*
X124627760Y-44460716D01*
X124509520Y-44565466D01*
X124509516Y-44565471D01*
X124419780Y-44695475D01*
X124363763Y-44843180D01*
X124344722Y-45000000D01*
X123487271Y-45000000D01*
X123490500Y-44983767D01*
X123490500Y-44216233D01*
X123457816Y-44051918D01*
X123393703Y-43897137D01*
X123300628Y-43757840D01*
X123182159Y-43639371D01*
X123042862Y-43546296D01*
X122888085Y-43482185D01*
X122888079Y-43482183D01*
X122821816Y-43469002D01*
X122723767Y-43449500D01*
X122556233Y-43449500D01*
X122474451Y-43465767D01*
X122391920Y-43482183D01*
X122391914Y-43482185D01*
X122237137Y-43546296D01*
X122097840Y-43639371D01*
X121979371Y-43757840D01*
X121886296Y-43897137D01*
X121822185Y-44051914D01*
X121822183Y-44051920D01*
X121811971Y-44103261D01*
X121789500Y-44216233D01*
X114850500Y-44216233D01*
X114817816Y-44051918D01*
X114753703Y-43897137D01*
X114660628Y-43757840D01*
X114542159Y-43639371D01*
X114402862Y-43546296D01*
X114248085Y-43482185D01*
X114248079Y-43482183D01*
X114181816Y-43469002D01*
X114083767Y-43449500D01*
X113916233Y-43449500D01*
X113834451Y-43465767D01*
X113751920Y-43482183D01*
X113751914Y-43482185D01*
X113597137Y-43546296D01*
X113457840Y-43639371D01*
X113339371Y-43757840D01*
X113246296Y-43897137D01*
X113182185Y-44051914D01*
X113182183Y-44051920D01*
X113171971Y-44103261D01*
X113149500Y-44216233D01*
X97217125Y-44216233D01*
X97218079Y-43000000D01*
X97344722Y-43000000D01*
X97363763Y-43156819D01*
X97419780Y-43304524D01*
X97477627Y-43388330D01*
X97509517Y-43434530D01*
X97509519Y-43434531D01*
X97509520Y-43434533D01*
X97563307Y-43482183D01*
X97627760Y-43539283D01*
X97767635Y-43612696D01*
X97921015Y-43650500D01*
X97921016Y-43650500D01*
X98078983Y-43650500D01*
X98078985Y-43650500D01*
X98232365Y-43612696D01*
X98372240Y-43539283D01*
X98490483Y-43434530D01*
X98580220Y-43304523D01*
X98636237Y-43156818D01*
X98655278Y-43000000D01*
X99344722Y-43000000D01*
X99363763Y-43156819D01*
X99419780Y-43304524D01*
X99477627Y-43388330D01*
X99509517Y-43434530D01*
X99509519Y-43434531D01*
X99509520Y-43434533D01*
X99563307Y-43482183D01*
X99627760Y-43539283D01*
X99767635Y-43612696D01*
X99921015Y-43650500D01*
X99921016Y-43650500D01*
X100078983Y-43650500D01*
X100078985Y-43650500D01*
X100232365Y-43612696D01*
X100372240Y-43539283D01*
X100490483Y-43434530D01*
X100580220Y-43304523D01*
X100636237Y-43156818D01*
X100655278Y-43000000D01*
X101344722Y-43000000D01*
X101363763Y-43156819D01*
X101419780Y-43304524D01*
X101477627Y-43388330D01*
X101509517Y-43434530D01*
X101509519Y-43434531D01*
X101509520Y-43434533D01*
X101563307Y-43482183D01*
X101627760Y-43539283D01*
X101767635Y-43612696D01*
X101921015Y-43650500D01*
X101921016Y-43650500D01*
X102078983Y-43650500D01*
X102078985Y-43650500D01*
X102232365Y-43612696D01*
X102372240Y-43539283D01*
X102490483Y-43434530D01*
X102580220Y-43304523D01*
X102636237Y-43156818D01*
X102655278Y-43000000D01*
X103344722Y-43000000D01*
X103363763Y-43156819D01*
X103419780Y-43304524D01*
X103477627Y-43388330D01*
X103509517Y-43434530D01*
X103509519Y-43434531D01*
X103509520Y-43434533D01*
X103563307Y-43482183D01*
X103627760Y-43539283D01*
X103767635Y-43612696D01*
X103921015Y-43650500D01*
X103921016Y-43650500D01*
X104078983Y-43650500D01*
X104078985Y-43650500D01*
X104232365Y-43612696D01*
X104372240Y-43539283D01*
X104490483Y-43434530D01*
X104580220Y-43304523D01*
X104636237Y-43156818D01*
X104655278Y-43000000D01*
X105344722Y-43000000D01*
X105363763Y-43156819D01*
X105419780Y-43304524D01*
X105477627Y-43388330D01*
X105509517Y-43434530D01*
X105509519Y-43434531D01*
X105509520Y-43434533D01*
X105563307Y-43482183D01*
X105627760Y-43539283D01*
X105767635Y-43612696D01*
X105921015Y-43650500D01*
X105921016Y-43650500D01*
X106078983Y-43650500D01*
X106078985Y-43650500D01*
X106232365Y-43612696D01*
X106372240Y-43539283D01*
X106490483Y-43434530D01*
X106580220Y-43304523D01*
X106636237Y-43156818D01*
X106655278Y-43000000D01*
X107344722Y-43000000D01*
X107363763Y-43156819D01*
X107419780Y-43304524D01*
X107477627Y-43388330D01*
X107509517Y-43434530D01*
X107509519Y-43434531D01*
X107509520Y-43434533D01*
X107563307Y-43482183D01*
X107627760Y-43539283D01*
X107767635Y-43612696D01*
X107921015Y-43650500D01*
X107921016Y-43650500D01*
X108078983Y-43650500D01*
X108078985Y-43650500D01*
X108232365Y-43612696D01*
X108372240Y-43539283D01*
X108490483Y-43434530D01*
X108580220Y-43304523D01*
X108636237Y-43156818D01*
X108655278Y-43000000D01*
X108636237Y-42843182D01*
X108580220Y-42695477D01*
X108580195Y-42695441D01*
X108548829Y-42650000D01*
X110494318Y-42650000D01*
X110514955Y-42806761D01*
X110575461Y-42952836D01*
X110575464Y-42952841D01*
X110671718Y-43078282D01*
X110797159Y-43174536D01*
X110797161Y-43174536D01*
X110797163Y-43174538D01*
X110943238Y-43235044D01*
X111100000Y-43255682D01*
X111256762Y-43235044D01*
X111402841Y-43174536D01*
X111528282Y-43078282D01*
X111588350Y-43000000D01*
X126344722Y-43000000D01*
X126363763Y-43156819D01*
X126419780Y-43304524D01*
X126477627Y-43388330D01*
X126509517Y-43434530D01*
X126509519Y-43434531D01*
X126509520Y-43434533D01*
X126563307Y-43482183D01*
X126627760Y-43539283D01*
X126767635Y-43612696D01*
X126921015Y-43650500D01*
X126921016Y-43650500D01*
X127078983Y-43650500D01*
X127078985Y-43650500D01*
X127232365Y-43612696D01*
X127372240Y-43539283D01*
X127490483Y-43434530D01*
X127580220Y-43304523D01*
X127636237Y-43156818D01*
X127655278Y-43000000D01*
X134344722Y-43000000D01*
X134363763Y-43156819D01*
X134419780Y-43304524D01*
X134477627Y-43388330D01*
X134509517Y-43434530D01*
X134509519Y-43434531D01*
X134509520Y-43434533D01*
X134563307Y-43482183D01*
X134627760Y-43539283D01*
X134767635Y-43612696D01*
X134921015Y-43650500D01*
X134921016Y-43650500D01*
X135078983Y-43650500D01*
X135078985Y-43650500D01*
X135232365Y-43612696D01*
X135372240Y-43539283D01*
X135490483Y-43434530D01*
X135580220Y-43304523D01*
X135636237Y-43156818D01*
X135655278Y-43000000D01*
X135636237Y-42843182D01*
X135580220Y-42695477D01*
X135580195Y-42695441D01*
X135548330Y-42649277D01*
X135490483Y-42565470D01*
X135490480Y-42565467D01*
X135490479Y-42565466D01*
X135372239Y-42460716D01*
X135232364Y-42387303D01*
X135116788Y-42358817D01*
X135078985Y-42349500D01*
X134921015Y-42349500D01*
X134890687Y-42356975D01*
X134767635Y-42387303D01*
X134627760Y-42460716D01*
X134509520Y-42565466D01*
X134509516Y-42565471D01*
X134419780Y-42695475D01*
X134363763Y-42843180D01*
X134344722Y-43000000D01*
X127655278Y-43000000D01*
X127636237Y-42843182D01*
X127580220Y-42695477D01*
X127580195Y-42695441D01*
X127548330Y-42649277D01*
X127490483Y-42565470D01*
X127490480Y-42565467D01*
X127490479Y-42565466D01*
X127372239Y-42460716D01*
X127232364Y-42387303D01*
X127116788Y-42358817D01*
X127078985Y-42349500D01*
X126921015Y-42349500D01*
X126890687Y-42356975D01*
X126767635Y-42387303D01*
X126627760Y-42460716D01*
X126509520Y-42565466D01*
X126509516Y-42565471D01*
X126419780Y-42695475D01*
X126363763Y-42843180D01*
X126344722Y-43000000D01*
X111588350Y-43000000D01*
X111624536Y-42952841D01*
X111685044Y-42806762D01*
X111705682Y-42650000D01*
X111685044Y-42493238D01*
X111671573Y-42460716D01*
X111643359Y-42392600D01*
X124946518Y-42392600D01*
X124967155Y-42549361D01*
X125027661Y-42695436D01*
X125027664Y-42695441D01*
X125113082Y-42806761D01*
X125123918Y-42820882D01*
X125249359Y-42917136D01*
X125249361Y-42917136D01*
X125249363Y-42917138D01*
X125335546Y-42952836D01*
X125395438Y-42977644D01*
X125552200Y-42998282D01*
X125708962Y-42977644D01*
X125855041Y-42917136D01*
X125980482Y-42820882D01*
X126076736Y-42695441D01*
X126137244Y-42549362D01*
X126157882Y-42392600D01*
X126137244Y-42235838D01*
X126091526Y-42125464D01*
X126076738Y-42089763D01*
X126076735Y-42089758D01*
X125980482Y-41964318D01*
X125980481Y-41964317D01*
X125855041Y-41868064D01*
X125855036Y-41868061D01*
X125708961Y-41807555D01*
X125552200Y-41786918D01*
X125395438Y-41807555D01*
X125249363Y-41868061D01*
X125249358Y-41868064D01*
X125123918Y-41964317D01*
X125123917Y-41964318D01*
X125027664Y-42089758D01*
X125027661Y-42089763D01*
X124967155Y-42235838D01*
X124946518Y-42392600D01*
X111643359Y-42392600D01*
X111624538Y-42347163D01*
X111624535Y-42347158D01*
X111528282Y-42221718D01*
X111528281Y-42221717D01*
X111402841Y-42125464D01*
X111402836Y-42125461D01*
X111256761Y-42064955D01*
X111100000Y-42044318D01*
X110943238Y-42064955D01*
X110797163Y-42125461D01*
X110797158Y-42125464D01*
X110671718Y-42221717D01*
X110671717Y-42221718D01*
X110575464Y-42347158D01*
X110575461Y-42347163D01*
X110514955Y-42493238D01*
X110494318Y-42650000D01*
X108548829Y-42650000D01*
X108548330Y-42649277D01*
X108490483Y-42565470D01*
X108490480Y-42565467D01*
X108490479Y-42565466D01*
X108372239Y-42460716D01*
X108232364Y-42387303D01*
X108116788Y-42358817D01*
X108078985Y-42349500D01*
X107921015Y-42349500D01*
X107890687Y-42356975D01*
X107767635Y-42387303D01*
X107627760Y-42460716D01*
X107509520Y-42565466D01*
X107509516Y-42565471D01*
X107419780Y-42695475D01*
X107363763Y-42843180D01*
X107344722Y-43000000D01*
X106655278Y-43000000D01*
X106636237Y-42843182D01*
X106580220Y-42695477D01*
X106580195Y-42695441D01*
X106548330Y-42649277D01*
X106490483Y-42565470D01*
X106490480Y-42565467D01*
X106490479Y-42565466D01*
X106372239Y-42460716D01*
X106232364Y-42387303D01*
X106116788Y-42358817D01*
X106078985Y-42349500D01*
X105921015Y-42349500D01*
X105890687Y-42356975D01*
X105767635Y-42387303D01*
X105627760Y-42460716D01*
X105509520Y-42565466D01*
X105509516Y-42565471D01*
X105419780Y-42695475D01*
X105363763Y-42843180D01*
X105344722Y-43000000D01*
X104655278Y-43000000D01*
X104636237Y-42843182D01*
X104580220Y-42695477D01*
X104580195Y-42695441D01*
X104548330Y-42649277D01*
X104490483Y-42565470D01*
X104490480Y-42565467D01*
X104490479Y-42565466D01*
X104372239Y-42460716D01*
X104232364Y-42387303D01*
X104116788Y-42358817D01*
X104078985Y-42349500D01*
X103921015Y-42349500D01*
X103890687Y-42356975D01*
X103767635Y-42387303D01*
X103627760Y-42460716D01*
X103509520Y-42565466D01*
X103509516Y-42565471D01*
X103419780Y-42695475D01*
X103363763Y-42843180D01*
X103344722Y-43000000D01*
X102655278Y-43000000D01*
X102636237Y-42843182D01*
X102580220Y-42695477D01*
X102580195Y-42695441D01*
X102548330Y-42649277D01*
X102490483Y-42565470D01*
X102490480Y-42565467D01*
X102490479Y-42565466D01*
X102372239Y-42460716D01*
X102232364Y-42387303D01*
X102116788Y-42358817D01*
X102078985Y-42349500D01*
X101921015Y-42349500D01*
X101890687Y-42356975D01*
X101767635Y-42387303D01*
X101627760Y-42460716D01*
X101509520Y-42565466D01*
X101509516Y-42565471D01*
X101419780Y-42695475D01*
X101363763Y-42843180D01*
X101344722Y-43000000D01*
X100655278Y-43000000D01*
X100636237Y-42843182D01*
X100580220Y-42695477D01*
X100580195Y-42695441D01*
X100548330Y-42649277D01*
X100490483Y-42565470D01*
X100490480Y-42565467D01*
X100490479Y-42565466D01*
X100372239Y-42460716D01*
X100232364Y-42387303D01*
X100116788Y-42358817D01*
X100078985Y-42349500D01*
X99921015Y-42349500D01*
X99890687Y-42356975D01*
X99767635Y-42387303D01*
X99627760Y-42460716D01*
X99509520Y-42565466D01*
X99509516Y-42565471D01*
X99419780Y-42695475D01*
X99363763Y-42843180D01*
X99344722Y-43000000D01*
X98655278Y-43000000D01*
X98636237Y-42843182D01*
X98580220Y-42695477D01*
X98580195Y-42695441D01*
X98548330Y-42649277D01*
X98490483Y-42565470D01*
X98490480Y-42565467D01*
X98490479Y-42565466D01*
X98372239Y-42460716D01*
X98232364Y-42387303D01*
X98116788Y-42358817D01*
X98078985Y-42349500D01*
X97921015Y-42349500D01*
X97890687Y-42356975D01*
X97767635Y-42387303D01*
X97627760Y-42460716D01*
X97509520Y-42565466D01*
X97509516Y-42565471D01*
X97419780Y-42695475D01*
X97363763Y-42843180D01*
X97344722Y-43000000D01*
X97218079Y-43000000D01*
X97219647Y-41000000D01*
X100344722Y-41000000D01*
X100363763Y-41156819D01*
X100419780Y-41304524D01*
X100477627Y-41388330D01*
X100509517Y-41434530D01*
X100627760Y-41539283D01*
X100767635Y-41612696D01*
X100921015Y-41650500D01*
X100921016Y-41650500D01*
X101078983Y-41650500D01*
X101078985Y-41650500D01*
X101232365Y-41612696D01*
X101372240Y-41539283D01*
X101490483Y-41434530D01*
X101580220Y-41304523D01*
X101636237Y-41156818D01*
X101655278Y-41000000D01*
X102344722Y-41000000D01*
X102363763Y-41156819D01*
X102419780Y-41304524D01*
X102477627Y-41388330D01*
X102509517Y-41434530D01*
X102627760Y-41539283D01*
X102767635Y-41612696D01*
X102921015Y-41650500D01*
X102921016Y-41650500D01*
X103078983Y-41650500D01*
X103078985Y-41650500D01*
X103232365Y-41612696D01*
X103372240Y-41539283D01*
X103490483Y-41434530D01*
X103580220Y-41304523D01*
X103636237Y-41156818D01*
X103655278Y-41000000D01*
X104344722Y-41000000D01*
X104363763Y-41156819D01*
X104419780Y-41304524D01*
X104477627Y-41388330D01*
X104509517Y-41434530D01*
X104627760Y-41539283D01*
X104767635Y-41612696D01*
X104921015Y-41650500D01*
X104921016Y-41650500D01*
X105078983Y-41650500D01*
X105078985Y-41650500D01*
X105232365Y-41612696D01*
X105372240Y-41539283D01*
X105490483Y-41434530D01*
X105580220Y-41304523D01*
X105636237Y-41156818D01*
X105655278Y-41000000D01*
X106344722Y-41000000D01*
X106363763Y-41156819D01*
X106419780Y-41304524D01*
X106477627Y-41388330D01*
X106509517Y-41434530D01*
X106627760Y-41539283D01*
X106767635Y-41612696D01*
X106921015Y-41650500D01*
X106921016Y-41650500D01*
X107078983Y-41650500D01*
X107078985Y-41650500D01*
X107232365Y-41612696D01*
X107372240Y-41539283D01*
X107490483Y-41434530D01*
X107580220Y-41304523D01*
X107636237Y-41156818D01*
X107655278Y-41000000D01*
X108344722Y-41000000D01*
X108363763Y-41156819D01*
X108419780Y-41304524D01*
X108477627Y-41388330D01*
X108509517Y-41434530D01*
X108627760Y-41539283D01*
X108767635Y-41612696D01*
X108921015Y-41650500D01*
X108921016Y-41650500D01*
X109078983Y-41650500D01*
X109078985Y-41650500D01*
X109232365Y-41612696D01*
X109372240Y-41539283D01*
X109490483Y-41434530D01*
X109580220Y-41304523D01*
X109636237Y-41156818D01*
X109655278Y-41000000D01*
X110344722Y-41000000D01*
X110363763Y-41156819D01*
X110419780Y-41304524D01*
X110477627Y-41388330D01*
X110509517Y-41434530D01*
X110627760Y-41539283D01*
X110767635Y-41612696D01*
X110921015Y-41650500D01*
X110921016Y-41650500D01*
X111078983Y-41650500D01*
X111078985Y-41650500D01*
X111232365Y-41612696D01*
X111372240Y-41539283D01*
X111490483Y-41434530D01*
X111580220Y-41304523D01*
X111636237Y-41156818D01*
X111655278Y-41000000D01*
X111636237Y-40843182D01*
X111580220Y-40695477D01*
X111490483Y-40565470D01*
X111490480Y-40565467D01*
X111490479Y-40565466D01*
X111372239Y-40460716D01*
X111232364Y-40387303D01*
X111116788Y-40358817D01*
X111078985Y-40349500D01*
X110921015Y-40349500D01*
X110890687Y-40356975D01*
X110767635Y-40387303D01*
X110627760Y-40460716D01*
X110509520Y-40565466D01*
X110509516Y-40565471D01*
X110419780Y-40695475D01*
X110363763Y-40843180D01*
X110344722Y-41000000D01*
X109655278Y-41000000D01*
X109636237Y-40843182D01*
X109580220Y-40695477D01*
X109490483Y-40565470D01*
X109490480Y-40565467D01*
X109490479Y-40565466D01*
X109372239Y-40460716D01*
X109232364Y-40387303D01*
X109116788Y-40358817D01*
X109078985Y-40349500D01*
X108921015Y-40349500D01*
X108890687Y-40356975D01*
X108767635Y-40387303D01*
X108627760Y-40460716D01*
X108509520Y-40565466D01*
X108509516Y-40565471D01*
X108419780Y-40695475D01*
X108363763Y-40843180D01*
X108344722Y-41000000D01*
X107655278Y-41000000D01*
X107636237Y-40843182D01*
X107580220Y-40695477D01*
X107490483Y-40565470D01*
X107490480Y-40565467D01*
X107490479Y-40565466D01*
X107372239Y-40460716D01*
X107232364Y-40387303D01*
X107116788Y-40358817D01*
X107078985Y-40349500D01*
X106921015Y-40349500D01*
X106890687Y-40356975D01*
X106767635Y-40387303D01*
X106627760Y-40460716D01*
X106509520Y-40565466D01*
X106509516Y-40565471D01*
X106419780Y-40695475D01*
X106363763Y-40843180D01*
X106344722Y-41000000D01*
X105655278Y-41000000D01*
X105636237Y-40843182D01*
X105580220Y-40695477D01*
X105490483Y-40565470D01*
X105490480Y-40565467D01*
X105490479Y-40565466D01*
X105372239Y-40460716D01*
X105232364Y-40387303D01*
X105116788Y-40358817D01*
X105078985Y-40349500D01*
X104921015Y-40349500D01*
X104890687Y-40356975D01*
X104767635Y-40387303D01*
X104627760Y-40460716D01*
X104509520Y-40565466D01*
X104509516Y-40565471D01*
X104419780Y-40695475D01*
X104363763Y-40843180D01*
X104344722Y-41000000D01*
X103655278Y-41000000D01*
X103636237Y-40843182D01*
X103580220Y-40695477D01*
X103490483Y-40565470D01*
X103490480Y-40565467D01*
X103490479Y-40565466D01*
X103372239Y-40460716D01*
X103232364Y-40387303D01*
X103116788Y-40358817D01*
X103078985Y-40349500D01*
X102921015Y-40349500D01*
X102890687Y-40356975D01*
X102767635Y-40387303D01*
X102627760Y-40460716D01*
X102509520Y-40565466D01*
X102509516Y-40565471D01*
X102419780Y-40695475D01*
X102363763Y-40843180D01*
X102344722Y-41000000D01*
X101655278Y-41000000D01*
X101636237Y-40843182D01*
X101580220Y-40695477D01*
X101490483Y-40565470D01*
X101490480Y-40565467D01*
X101490479Y-40565466D01*
X101372239Y-40460716D01*
X101232364Y-40387303D01*
X101116788Y-40358817D01*
X101078985Y-40349500D01*
X100921015Y-40349500D01*
X100890687Y-40356975D01*
X100767635Y-40387303D01*
X100627760Y-40460716D01*
X100509520Y-40565466D01*
X100509516Y-40565471D01*
X100419780Y-40695475D01*
X100363763Y-40843180D01*
X100344722Y-41000000D01*
X97219647Y-41000000D01*
X97220630Y-39746271D01*
X97235009Y-39711635D01*
X97269668Y-39697310D01*
X97269930Y-39697311D01*
X97335186Y-39697862D01*
X97340529Y-39698235D01*
X97340815Y-39698234D01*
X97340819Y-39698236D01*
X97378836Y-39698233D01*
X97379250Y-39698234D01*
X97417384Y-39698558D01*
X97417385Y-39698557D01*
X97417675Y-39698560D01*
X97423031Y-39698230D01*
X113508987Y-39697263D01*
X113543635Y-39711613D01*
X113557989Y-39746260D01*
X113543639Y-39780909D01*
X113536212Y-39787005D01*
X113457840Y-39839371D01*
X113339371Y-39957840D01*
X113246296Y-40097137D01*
X113182185Y-40251914D01*
X113182183Y-40251920D01*
X113165767Y-40334451D01*
X113149500Y-40416233D01*
X113149500Y-41183767D01*
X113171189Y-41292809D01*
X113182183Y-41348079D01*
X113182185Y-41348085D01*
X113246296Y-41502862D01*
X113339371Y-41642159D01*
X113457840Y-41760628D01*
X113528073Y-41807556D01*
X113597137Y-41853703D01*
X113751918Y-41917816D01*
X113916233Y-41950500D01*
X113916236Y-41950500D01*
X114083764Y-41950500D01*
X114083767Y-41950500D01*
X114248082Y-41917816D01*
X114402863Y-41853703D01*
X114542162Y-41760626D01*
X114660626Y-41642162D01*
X114753703Y-41502863D01*
X114817816Y-41348082D01*
X114850500Y-41183767D01*
X114850500Y-40416233D01*
X114817816Y-40251918D01*
X114753703Y-40097137D01*
X114660628Y-39957840D01*
X114542159Y-39839371D01*
X114463698Y-39786945D01*
X114442862Y-39755762D01*
X114450179Y-39718980D01*
X114481362Y-39698144D01*
X114490911Y-39697203D01*
X122149765Y-39696743D01*
X122184413Y-39711093D01*
X122198767Y-39745740D01*
X122184417Y-39780389D01*
X122176990Y-39786485D01*
X122097840Y-39839371D01*
X121979371Y-39957840D01*
X121886296Y-40097137D01*
X121822185Y-40251914D01*
X121822183Y-40251920D01*
X121805767Y-40334451D01*
X121789500Y-40416233D01*
X121789500Y-41183767D01*
X121811189Y-41292809D01*
X121822183Y-41348079D01*
X121822185Y-41348085D01*
X121886296Y-41502862D01*
X121979371Y-41642159D01*
X122097840Y-41760628D01*
X122168073Y-41807556D01*
X122237137Y-41853703D01*
X122391918Y-41917816D01*
X122556233Y-41950500D01*
X122556236Y-41950500D01*
X122723764Y-41950500D01*
X122723767Y-41950500D01*
X122888082Y-41917816D01*
X123042863Y-41853703D01*
X123182162Y-41760626D01*
X123300626Y-41642162D01*
X123393703Y-41502863D01*
X123420373Y-41438474D01*
X123446891Y-41411956D01*
X123484394Y-41411956D01*
X123505969Y-41429390D01*
X123509517Y-41434530D01*
X123627760Y-41539283D01*
X123767635Y-41612696D01*
X123921015Y-41650500D01*
X123921016Y-41650500D01*
X124078983Y-41650500D01*
X124078985Y-41650500D01*
X124232365Y-41612696D01*
X124372240Y-41539283D01*
X124490483Y-41434530D01*
X124580220Y-41304523D01*
X124636237Y-41156818D01*
X124655278Y-41000000D01*
X125344722Y-41000000D01*
X125363763Y-41156819D01*
X125419780Y-41304524D01*
X125477627Y-41388330D01*
X125509517Y-41434530D01*
X125627760Y-41539283D01*
X125767635Y-41612696D01*
X125921015Y-41650500D01*
X125921016Y-41650500D01*
X126078983Y-41650500D01*
X126078985Y-41650500D01*
X126232365Y-41612696D01*
X126372240Y-41539283D01*
X126490483Y-41434530D01*
X126580220Y-41304523D01*
X126636237Y-41156818D01*
X126655278Y-41000000D01*
X134344722Y-41000000D01*
X134363763Y-41156819D01*
X134419780Y-41304524D01*
X134477627Y-41388330D01*
X134509517Y-41434530D01*
X134627760Y-41539283D01*
X134767635Y-41612696D01*
X134921015Y-41650500D01*
X134921016Y-41650500D01*
X135078983Y-41650500D01*
X135078985Y-41650500D01*
X135232365Y-41612696D01*
X135372240Y-41539283D01*
X135490483Y-41434530D01*
X135580220Y-41304523D01*
X135636237Y-41156818D01*
X135655278Y-41000000D01*
X135636237Y-40843182D01*
X135580220Y-40695477D01*
X135490483Y-40565470D01*
X135490480Y-40565467D01*
X135490479Y-40565466D01*
X135372239Y-40460716D01*
X135232364Y-40387303D01*
X135116788Y-40358817D01*
X135078985Y-40349500D01*
X134921015Y-40349500D01*
X134890687Y-40356975D01*
X134767635Y-40387303D01*
X134627760Y-40460716D01*
X134509520Y-40565466D01*
X134509516Y-40565471D01*
X134419780Y-40695475D01*
X134363763Y-40843180D01*
X134344722Y-41000000D01*
X126655278Y-41000000D01*
X126636237Y-40843182D01*
X126580220Y-40695477D01*
X126490483Y-40565470D01*
X126490480Y-40565467D01*
X126490479Y-40565466D01*
X126372239Y-40460716D01*
X126232364Y-40387303D01*
X126116788Y-40358817D01*
X126078985Y-40349500D01*
X125921015Y-40349500D01*
X125890687Y-40356975D01*
X125767635Y-40387303D01*
X125627760Y-40460716D01*
X125509520Y-40565466D01*
X125509516Y-40565471D01*
X125419780Y-40695475D01*
X125363763Y-40843180D01*
X125344722Y-41000000D01*
X124655278Y-41000000D01*
X124636237Y-40843182D01*
X124580220Y-40695477D01*
X124490483Y-40565470D01*
X124490480Y-40565467D01*
X124490479Y-40565466D01*
X124372239Y-40460716D01*
X124232364Y-40387303D01*
X124116788Y-40358817D01*
X124078985Y-40349500D01*
X123921015Y-40349500D01*
X123890687Y-40356975D01*
X123767635Y-40387303D01*
X123627760Y-40460716D01*
X123571993Y-40510121D01*
X123536541Y-40522355D01*
X123502823Y-40505937D01*
X123490500Y-40473444D01*
X123490500Y-40416236D01*
X123490500Y-40416233D01*
X123457816Y-40251918D01*
X123393703Y-40097137D01*
X123300628Y-39957840D01*
X123182159Y-39839371D01*
X123102921Y-39786426D01*
X123082086Y-39755243D01*
X123089402Y-39718461D01*
X123120585Y-39697626D01*
X123130135Y-39696684D01*
X136175731Y-39695900D01*
X136535045Y-39695900D01*
X136569693Y-39710252D01*
G37*
%TD.AperFunction*%
%TD*%
M02*
