%TF.GenerationSoftware,KiCad,Pcbnew,8.0.3*%
%TF.CreationDate,2024-07-26T16:59:45-04:00*%
%TF.ProjectId,Health_Watch,4865616c-7468-45f5-9761-7463682e6b69,rev?*%
%TF.SameCoordinates,Original*%
%TF.FileFunction,Paste,Top*%
%TF.FilePolarity,Positive*%
%FSLAX46Y46*%
G04 Gerber Fmt 4.6, Leading zero omitted, Abs format (unit mm)*
G04 Created by KiCad (PCBNEW 8.0.3) date 2024-07-26 16:59:45*
%MOMM*%
%LPD*%
G01*
G04 APERTURE LIST*
G04 Aperture macros list*
%AMRoundRect*
0 Rectangle with rounded corners*
0 $1 Rounding radius*
0 $2 $3 $4 $5 $6 $7 $8 $9 X,Y pos of 4 corners*
0 Add a 4 corners polygon primitive as box body*
4,1,4,$2,$3,$4,$5,$6,$7,$8,$9,$2,$3,0*
0 Add four circle primitives for the rounded corners*
1,1,$1+$1,$2,$3*
1,1,$1+$1,$4,$5*
1,1,$1+$1,$6,$7*
1,1,$1+$1,$8,$9*
0 Add four rect primitives between the rounded corners*
20,1,$1+$1,$2,$3,$4,$5,0*
20,1,$1+$1,$4,$5,$6,$7,0*
20,1,$1+$1,$6,$7,$8,$9,0*
20,1,$1+$1,$8,$9,$2,$3,0*%
G04 Aperture macros list end*
%ADD10RoundRect,0.135000X-0.185000X0.135000X-0.185000X-0.135000X0.185000X-0.135000X0.185000X0.135000X0*%
%ADD11RoundRect,0.062500X0.062500X-0.117500X0.062500X0.117500X-0.062500X0.117500X-0.062500X-0.117500X0*%
%ADD12R,1.000000X1.800000*%
%ADD13RoundRect,0.075000X0.075000X-0.700000X0.075000X0.700000X-0.075000X0.700000X-0.075000X-0.700000X0*%
%ADD14RoundRect,0.075000X0.700000X-0.075000X0.700000X0.075000X-0.700000X0.075000X-0.700000X-0.075000X0*%
%ADD15RoundRect,0.140000X0.140000X0.170000X-0.140000X0.170000X-0.140000X-0.170000X0.140000X-0.170000X0*%
%ADD16RoundRect,0.225000X-0.250000X0.225000X-0.250000X-0.225000X0.250000X-0.225000X0.250000X0.225000X0*%
%ADD17RoundRect,0.200000X0.275000X-0.200000X0.275000X0.200000X-0.275000X0.200000X-0.275000X-0.200000X0*%
%ADD18RoundRect,0.140000X0.170000X-0.140000X0.170000X0.140000X-0.170000X0.140000X-0.170000X-0.140000X0*%
%ADD19RoundRect,0.250000X-0.475000X0.250000X-0.475000X-0.250000X0.475000X-0.250000X0.475000X0.250000X0*%
%ADD20RoundRect,0.225000X0.250000X-0.225000X0.250000X0.225000X-0.250000X0.225000X-0.250000X-0.225000X0*%
%ADD21RoundRect,0.225000X0.225000X0.250000X-0.225000X0.250000X-0.225000X-0.250000X0.225000X-0.250000X0*%
%ADD22RoundRect,0.140000X-0.170000X0.140000X-0.170000X-0.140000X0.170000X-0.140000X0.170000X0.140000X0*%
%ADD23RoundRect,0.225000X-0.225000X-0.250000X0.225000X-0.250000X0.225000X0.250000X-0.225000X0.250000X0*%
%ADD24RoundRect,0.135000X0.185000X-0.135000X0.185000X0.135000X-0.185000X0.135000X-0.185000X-0.135000X0*%
%ADD25RoundRect,0.200000X-0.200000X-0.275000X0.200000X-0.275000X0.200000X0.275000X-0.200000X0.275000X0*%
%ADD26RoundRect,0.150000X0.512500X0.150000X-0.512500X0.150000X-0.512500X-0.150000X0.512500X-0.150000X0*%
%ADD27RoundRect,0.150000X-0.150000X0.512500X-0.150000X-0.512500X0.150000X-0.512500X0.150000X0.512500X0*%
%ADD28R,1.200000X1.400000*%
%ADD29RoundRect,0.150000X-0.200000X0.150000X-0.200000X-0.150000X0.200000X-0.150000X0.200000X0.150000X0*%
%ADD30RoundRect,0.175000X0.175000X0.425000X-0.175000X0.425000X-0.175000X-0.425000X0.175000X-0.425000X0*%
%ADD31RoundRect,0.190000X-0.190000X-0.410000X0.190000X-0.410000X0.190000X0.410000X-0.190000X0.410000X0*%
%ADD32RoundRect,0.200000X-0.200000X-0.400000X0.200000X-0.400000X0.200000X0.400000X-0.200000X0.400000X0*%
%ADD33RoundRect,0.175000X-0.175000X-0.425000X0.175000X-0.425000X0.175000X0.425000X-0.175000X0.425000X0*%
%ADD34RoundRect,0.190000X0.190000X0.410000X-0.190000X0.410000X-0.190000X-0.410000X0.190000X-0.410000X0*%
%ADD35RoundRect,0.200000X0.200000X0.400000X-0.200000X0.400000X-0.200000X-0.400000X0.200000X-0.400000X0*%
%ADD36O,1.100000X1.700000*%
%ADD37RoundRect,0.200000X0.200000X0.275000X-0.200000X0.275000X-0.200000X-0.275000X0.200000X-0.275000X0*%
G04 APERTURE END LIST*
D10*
%TO.C,R5*%
X128850000Y-57730000D03*
X128850000Y-58750000D03*
%TD*%
D11*
%TO.C,D2*%
X121950000Y-48380000D03*
X121950000Y-49220000D03*
%TD*%
D12*
%TO.C,X2*%
X103950000Y-63050000D03*
X106450000Y-63050000D03*
%TD*%
D13*
%TO.C,U3*%
X107150000Y-59125000D03*
X107650000Y-59125000D03*
X108150000Y-59125000D03*
X108650000Y-59125000D03*
X109150000Y-59125000D03*
X109650000Y-59125000D03*
X110150000Y-59125000D03*
X110650000Y-59125000D03*
X111150000Y-59125000D03*
X111650000Y-59125000D03*
X112150000Y-59125000D03*
X112650000Y-59125000D03*
X113150000Y-59125000D03*
X113650000Y-59125000D03*
X114150000Y-59125000D03*
X114650000Y-59125000D03*
D14*
X116575000Y-57200000D03*
X116575000Y-56700000D03*
X116575000Y-56200000D03*
X116575000Y-55700000D03*
X116575000Y-55200000D03*
X116575000Y-54700000D03*
X116575000Y-54200000D03*
X116575000Y-53700000D03*
X116575000Y-53200000D03*
X116575000Y-52700000D03*
X116575000Y-52200000D03*
X116575000Y-51700000D03*
X116575000Y-51200000D03*
X116575000Y-50700000D03*
X116575000Y-50200000D03*
X116575000Y-49700000D03*
D13*
X114650000Y-47775000D03*
X114150000Y-47775000D03*
X113650000Y-47775000D03*
X113150000Y-47775000D03*
X112650000Y-47775000D03*
X112150000Y-47775000D03*
X111650000Y-47775000D03*
X111150000Y-47775000D03*
X110650000Y-47775000D03*
X110150000Y-47775000D03*
X109650000Y-47775000D03*
X109150000Y-47775000D03*
X108650000Y-47775000D03*
X108150000Y-47775000D03*
X107650000Y-47775000D03*
X107150000Y-47775000D03*
D14*
X105225000Y-49700000D03*
X105225000Y-50200000D03*
X105225000Y-50700000D03*
X105225000Y-51200000D03*
X105225000Y-51700000D03*
X105225000Y-52200000D03*
X105225000Y-52700000D03*
X105225000Y-53200000D03*
X105225000Y-53700000D03*
X105225000Y-54200000D03*
X105225000Y-54700000D03*
X105225000Y-55200000D03*
X105225000Y-55700000D03*
X105225000Y-56200000D03*
X105225000Y-56700000D03*
X105225000Y-57200000D03*
%TD*%
D15*
%TO.C,C12*%
X109130000Y-62300000D03*
X108170000Y-62300000D03*
%TD*%
D16*
%TO.C,C1*%
X103600000Y-58950000D03*
X103600000Y-60500000D03*
%TD*%
D17*
%TO.C,R9*%
X111950000Y-64175000D03*
X111950000Y-62525000D03*
%TD*%
D18*
%TO.C,C2*%
X103100000Y-56710000D03*
X103100000Y-55750000D03*
%TD*%
D19*
%TO.C,C7*%
X123800000Y-47000000D03*
X123800000Y-48900000D03*
%TD*%
D10*
%TO.C,R3*%
X124450000Y-42330000D03*
X124450000Y-43350000D03*
%TD*%
D20*
%TO.C,C10*%
X134850000Y-56750000D03*
X134850000Y-55200000D03*
%TD*%
D21*
%TO.C,C8*%
X131600000Y-47800000D03*
X130050000Y-47800000D03*
%TD*%
D22*
%TO.C,C14*%
X104050000Y-65050000D03*
X104050000Y-66010000D03*
%TD*%
D23*
%TO.C,C9*%
X133200000Y-50800000D03*
X134750000Y-50800000D03*
%TD*%
D18*
%TO.C,C11*%
X102300000Y-64460000D03*
X102300000Y-63500000D03*
%TD*%
D15*
%TO.C,C13*%
X112780000Y-65350000D03*
X111820000Y-65350000D03*
%TD*%
D24*
%TO.C,R1*%
X127350000Y-52470000D03*
X127350000Y-51450000D03*
%TD*%
D15*
%TO.C,C5*%
X114960000Y-61850000D03*
X114000000Y-61850000D03*
%TD*%
D25*
%TO.C,R4*%
X99450000Y-54500000D03*
X101100000Y-54500000D03*
%TD*%
D26*
%TO.C,U1*%
X131475000Y-51350000D03*
X131475000Y-50400000D03*
X131475000Y-49450000D03*
X129200000Y-49450000D03*
X129200000Y-51350000D03*
%TD*%
D27*
%TO.C,U2*%
X133100000Y-54575000D03*
X132150000Y-54575000D03*
X131200000Y-54575000D03*
X131200000Y-56850000D03*
X133100000Y-56850000D03*
%TD*%
D28*
%TO.C,X1*%
X110000000Y-66150000D03*
X110000000Y-63950000D03*
X108300000Y-63950000D03*
X108300000Y-66150000D03*
%TD*%
D29*
%TO.C,D1*%
X126200000Y-48400000D03*
X126200000Y-47000000D03*
%TD*%
D30*
%TO.C,J2*%
X118820000Y-44680000D03*
D31*
X116800000Y-44680000D03*
D32*
X115570000Y-44680000D03*
D33*
X117820000Y-44680000D03*
D34*
X119840000Y-44680000D03*
D35*
X121070000Y-44680000D03*
D36*
X122640000Y-44600000D03*
X122640000Y-40800000D03*
X114000000Y-44600000D03*
X114000000Y-40800000D03*
%TD*%
D22*
%TO.C,C4*%
X119200000Y-49240000D03*
X119200000Y-50200000D03*
%TD*%
%TO.C,C15*%
X106100000Y-65200000D03*
X106100000Y-66160000D03*
%TD*%
D10*
%TO.C,R6*%
X127400000Y-59700000D03*
X127400000Y-60720000D03*
%TD*%
%TO.C,R2*%
X112100000Y-42380000D03*
X112100000Y-43400000D03*
%TD*%
D22*
%TO.C,C3*%
X119150000Y-56540000D03*
X119150000Y-57500000D03*
%TD*%
D37*
%TO.C,R7*%
X117550000Y-63850000D03*
X115900000Y-63850000D03*
%TD*%
D18*
%TO.C,C6*%
X106050000Y-46660000D03*
X106050000Y-45700000D03*
%TD*%
M02*
