%TF.GenerationSoftware,KiCad,Pcbnew,8.0.3*%
%TF.CreationDate,2024-07-26T16:59:45-04:00*%
%TF.ProjectId,Health_Watch,4865616c-7468-45f5-9761-7463682e6b69,rev?*%
%TF.SameCoordinates,Original*%
%TF.FileFunction,Legend,Top*%
%TF.FilePolarity,Positive*%
%FSLAX46Y46*%
G04 Gerber Fmt 4.6, Leading zero omitted, Abs format (unit mm)*
G04 Created by KiCad (PCBNEW 8.0.3) date 2024-07-26 16:59:45*
%MOMM*%
%LPD*%
G01*
G04 APERTURE LIST*
%ADD10C,0.100000*%
%ADD11C,0.120000*%
%ADD12C,0.152400*%
%ADD13C,0.508000*%
G04 APERTURE END LIST*
D10*
X132891884Y-44982866D02*
X133653789Y-44982866D01*
X133272836Y-45363819D02*
X133272836Y-44601914D01*
D11*
%TO.C,R5*%
X128470000Y-58086359D02*
X128470000Y-58393641D01*
X129230000Y-58086359D02*
X129230000Y-58393641D01*
%TO.C,D2*%
X122350000Y-49300000D02*
X122350000Y-47940000D01*
X122350000Y-47940000D02*
X121550000Y-47940000D01*
X121550000Y-49300000D02*
X121550000Y-47940000D01*
%TO.C,J3*%
X100096000Y-46240000D02*
X100096000Y-45605000D01*
X100096000Y-45605000D02*
X100731000Y-45605000D01*
%TO.C,X2*%
X103250000Y-62150000D02*
X103250000Y-63950000D01*
X104650000Y-62100000D02*
X105750000Y-62100000D01*
X104650000Y-64000000D02*
X105750000Y-64000000D01*
%TO.C,U3*%
X105790000Y-48340000D02*
X106740000Y-48340000D01*
X105790000Y-49290000D02*
X105790000Y-48340000D01*
X105790000Y-57610000D02*
X105790000Y-58560000D01*
X105790000Y-58560000D02*
X106740000Y-58560000D01*
X116010000Y-48340000D02*
X115060000Y-48340000D01*
X116010000Y-49290000D02*
X116010000Y-48340000D01*
X116010000Y-57610000D02*
X116010000Y-58560000D01*
X116010000Y-58560000D02*
X115060000Y-58560000D01*
X106740000Y-59175000D02*
X106270000Y-59515000D01*
X106270000Y-58835000D01*
X106740000Y-59175000D01*
G36*
X106740000Y-59175000D02*
G01*
X106270000Y-59515000D01*
X106270000Y-58835000D01*
X106740000Y-59175000D01*
G37*
%TO.C,C12*%
X108757836Y-61940000D02*
X108542164Y-61940000D01*
X108757836Y-62660000D02*
X108542164Y-62660000D01*
%TO.C,C1*%
X103090000Y-59584420D02*
X103090000Y-59865580D01*
X104110000Y-59584420D02*
X104110000Y-59865580D01*
D12*
%TO.C,J1*%
X127801600Y-38578400D02*
X127801600Y-46427000D01*
X127801600Y-46427000D02*
X133948400Y-46427000D01*
X133948400Y-38578400D02*
X127801600Y-38578400D01*
X133948400Y-46427000D02*
X133948400Y-38578400D01*
D13*
X136107400Y-44950000D02*
G75*
G02*
X135345400Y-44950000I-381000J0D01*
G01*
X135345400Y-44950000D02*
G75*
G02*
X136107400Y-44950000I381000J0D01*
G01*
D11*
%TO.C,R9*%
X111427500Y-63587258D02*
X111427500Y-63112742D01*
X112472500Y-63587258D02*
X112472500Y-63112742D01*
%TO.C,C2*%
X102740000Y-56337836D02*
X102740000Y-56122164D01*
X103460000Y-56337836D02*
X103460000Y-56122164D01*
%TO.C,C7*%
X123065000Y-47688748D02*
X123065000Y-48211252D01*
X124535000Y-47688748D02*
X124535000Y-48211252D01*
%TO.C,R3*%
X124070000Y-42686359D02*
X124070000Y-42993641D01*
X124830000Y-42686359D02*
X124830000Y-42993641D01*
%TO.C,C10*%
X134340000Y-56115580D02*
X134340000Y-55834420D01*
X135360000Y-56115580D02*
X135360000Y-55834420D01*
%TO.C,C8*%
X130965580Y-47290000D02*
X130684420Y-47290000D01*
X130965580Y-48310000D02*
X130684420Y-48310000D01*
%TO.C,C14*%
X103690000Y-65422164D02*
X103690000Y-65637836D01*
X104410000Y-65422164D02*
X104410000Y-65637836D01*
%TO.C,C9*%
X133834420Y-50290000D02*
X134115580Y-50290000D01*
X133834420Y-51310000D02*
X134115580Y-51310000D01*
%TO.C,C11*%
X101940000Y-64087836D02*
X101940000Y-63872164D01*
X102660000Y-64087836D02*
X102660000Y-63872164D01*
%TO.C,C13*%
X112407836Y-64990000D02*
X112192164Y-64990000D01*
X112407836Y-65710000D02*
X112192164Y-65710000D01*
%TO.C,R1*%
X126970000Y-52113641D02*
X126970000Y-51806359D01*
X127730000Y-52113641D02*
X127730000Y-51806359D01*
%TO.C,C5*%
X114587836Y-61490000D02*
X114372164Y-61490000D01*
X114587836Y-62210000D02*
X114372164Y-62210000D01*
%TO.C,R4*%
X100037742Y-53977500D02*
X100512258Y-53977500D01*
X100037742Y-55022500D02*
X100512258Y-55022500D01*
%TO.C,U1*%
X130337500Y-48840000D02*
X129537500Y-48840000D01*
X130337500Y-48840000D02*
X131137500Y-48840000D01*
X130337500Y-51960000D02*
X129537500Y-51960000D01*
X130337500Y-51960000D02*
X131137500Y-51960000D01*
X131877500Y-52240000D02*
X131397500Y-52240000D01*
X131637500Y-51910000D01*
X131877500Y-52240000D01*
G36*
X131877500Y-52240000D02*
G01*
X131397500Y-52240000D01*
X131637500Y-51910000D01*
X131877500Y-52240000D01*
G37*
%TO.C,U2*%
X130590000Y-55712500D02*
X130590000Y-54912500D01*
X130590000Y-55712500D02*
X130590000Y-56512500D01*
X133710000Y-55712500D02*
X133710000Y-54912500D01*
X133710000Y-55712500D02*
X133710000Y-56512500D01*
X133990000Y-54652500D02*
X133660000Y-54412500D01*
X133990000Y-54172500D01*
X133990000Y-54652500D01*
G36*
X133990000Y-54652500D02*
G01*
X133660000Y-54412500D01*
X133990000Y-54172500D01*
X133990000Y-54652500D01*
G37*
%TO.C,X1*%
X107500000Y-67050000D02*
X110800000Y-67050000D01*
X110800000Y-67050000D02*
X110800000Y-63050000D01*
%TO.C,D1*%
X125600000Y-47000000D02*
X125600000Y-48960000D01*
X125600000Y-48960000D02*
X126800000Y-48960000D01*
X126800000Y-47000000D02*
X126800000Y-48960000D01*
%TO.C,J2*%
X113650000Y-41850000D02*
X113650000Y-43550000D01*
X122990000Y-41850000D02*
X122990000Y-43550000D01*
%TO.C,C4*%
X118840000Y-49612164D02*
X118840000Y-49827836D01*
X119560000Y-49612164D02*
X119560000Y-49827836D01*
%TO.C,J4*%
X117657500Y-67950000D02*
X117657500Y-67255000D01*
X118342500Y-67950000D02*
X117657500Y-67950000D01*
X119450000Y-66300000D02*
X133300000Y-66250000D01*
X119450000Y-66386724D02*
X119450000Y-66300000D01*
X119450000Y-67936724D02*
X119450000Y-67850000D01*
X119450000Y-67950000D02*
X133300000Y-67950000D01*
X133300000Y-66550254D02*
X133300000Y-66249747D01*
X133300000Y-67950253D02*
X133300000Y-67649746D01*
%TO.C,C15*%
X105740000Y-65572164D02*
X105740000Y-65787836D01*
X106460000Y-65572164D02*
X106460000Y-65787836D01*
%TO.C,R6*%
X127020000Y-60056359D02*
X127020000Y-60363641D01*
X127780000Y-60056359D02*
X127780000Y-60363641D01*
%TO.C,R2*%
X111720000Y-42736359D02*
X111720000Y-43043641D01*
X112480000Y-42736359D02*
X112480000Y-43043641D01*
%TO.C,C3*%
X118790000Y-56912164D02*
X118790000Y-57127836D01*
X119510000Y-56912164D02*
X119510000Y-57127836D01*
%TO.C,R7*%
X116962258Y-63327500D02*
X116487742Y-63327500D01*
X116962258Y-64372500D02*
X116487742Y-64372500D01*
%TO.C,C6*%
X105690000Y-46287836D02*
X105690000Y-46072164D01*
X106410000Y-46287836D02*
X106410000Y-46072164D01*
%TD*%
M02*
